<svg id="Layer_1" data-name="Layer 1" xmlns="http://www.w3.org/2000/svg" viewBox="0 0 241.18 241.18"><defs><style>.cls-1{fill:#e84343;}.cls-2{fill:#333;}.cls-3{fill:#fff;}</style></defs><title>Anger</title><circle class="cls-1" cx="120.59" cy="120.59" r="120.59"/><path class="cls-2" d="M370.17,189.4a17.9,17.9,0,0,1,7.05-5.88,50.11,50.11,0,0,0-34.93-13.9c24.43-8.94,53,15.51,53,15.51a18,18,0,1,1-25.1,4.27Z" transform="translate(-301.24 -79.09)"/><path class="cls-2" d="M473.48,189.4a17.93,17.93,0,0,0-7.06-5.88,50.13,50.13,0,0,1,34.93-13.9c-24.42-8.94-53,15.51-53,15.51a18,18,0,1,0,25.1,4.27Z" transform="translate(-301.24 -79.09)"/><path class="cls-3" d="M466.34,293.82h-89a12.09,12.09,0,0,1-11.74-15.14,58.27,58.27,0,0,1,112.53,0A12.1,12.1,0,0,1,466.34,293.82Z" transform="translate(-301.24 -79.09)"/><rect class="cls-1" x="104.11" y="154.04" width="6.48" height="63.13"/><rect class="cls-1" x="77.63" y="154.04" width="6.48" height="63.13"/><rect class="cls-1" x="130.59" y="154.04" width="6.48" height="63.13"/><rect class="cls-1" x="157.07" y="154.04" width="6.48" height="63.13"/></svg>