<svg id="Layer_1" data-name="Layer 1" xmlns="http://www.w3.org/2000/svg" viewBox="0 0 241.18 241.18"><defs><style>.cls-1{fill:#59ad59;}.cls-2{fill:#333;}</style></defs><title>Disgust</title><circle class="cls-1" cx="120.59" cy="120.59" r="120.59"/><path class="cls-2" d="M654.93,224.36H617.39a6.15,6.15,0,0,1-6.15-6.15h0a6.15,6.15,0,0,1,6.15-6.15h13.87a2.23,2.23,0,0,0,1.61-3.76L611,185.4a6.16,6.16,0,0,1,.21-8.7h0a6.15,6.15,0,0,1,8.7.21l38.17,40A4.39,4.39,0,0,1,654.93,224.36Z" transform="translate(-562.41 -79.09)"/><path class="cls-2" d="M711.07,224.36h37.54a6.15,6.15,0,0,0,6.15-6.15h0a6.15,6.15,0,0,0-6.15-6.15H734.74a2.23,2.23,0,0,1-1.61-3.76L755,185.4a6.16,6.16,0,0,0-.21-8.7h0a6.15,6.15,0,0,0-8.7.21l-38.17,40A4.39,4.39,0,0,0,711.07,224.36Z" transform="translate(-562.41 -79.09)"/><path class="cls-2" d="M648,282.31l-8.6-11.95a3.34,3.34,0,0,0-5.44,0l-1.47,2.09a3.32,3.32,0,0,1-2.73,1.42h-4.23a3.33,3.33,0,0,1-3.33-3.34h0a3.33,3.33,0,0,1,3.33-3.33h.75a3.37,3.37,0,0,0,2.74-1.43l4.86-6.94a3.34,3.34,0,0,1,5.44,0L648,270.89a3.34,3.34,0,0,0,5.42,0l8.68-12.06a3.34,3.34,0,0,1,5.37-.06l9.48,12.56a3.35,3.35,0,0,0,5.32,0l9.57-12.58a3.34,3.34,0,0,1,5.31,0l9.82,12.9a3.33,3.33,0,0,0,5.22.11L723,258.65a3.35,3.35,0,0,1,5.07-.08l6.68,7.54a3.35,3.35,0,0,0,2.5,1.13h3.23a3.33,3.33,0,0,1,3.33,3.33h0a3.33,3.33,0,0,1-3.33,3.34h-6.23a3.34,3.34,0,0,1-2.5-1.12l-3.51-4a3.35,3.35,0,0,0-5.07.08l-11.27,13.59a3.33,3.33,0,0,1-5.22-.11l-9.6-12.6a3.34,3.34,0,0,0-5.31,0l-9.59,12.6a3.33,3.33,0,0,1-5.32,0L667.56,270a3.33,3.33,0,0,0-5.37.06l-8.81,12.23A3.34,3.34,0,0,1,648,282.31Z" transform="translate(-562.41 -79.09)"/></svg>