<svg id="Layer_1" data-name="Layer 1" xmlns="http://www.w3.org/2000/svg" xmlns:xlink="http://www.w3.org/1999/xlink" viewBox="0 0 409.88 398.72"><defs><style>.cls-1,.cls-14,.cls-15,.cls-16,.cls-18,.cls-19,.cls-20{fill:#fff;}.cls-1{opacity:0.09;}.cls-10,.cls-11,.cls-12,.cls-2,.cls-8,.cls-9{stroke:#48dbfb;}.cls-10,.cls-11,.cls-12,.cls-2,.cls-3,.cls-4,.cls-5,.cls-6,.cls-7,.cls-8,.cls-9{stroke-miterlimit:10;}.cls-10,.cls-2{stroke-width:6px;}.cls-2{fill:url(#radial-gradient);}.cls-3,.cls-4,.cls-5,.cls-6,.cls-7{fill:none;}.cls-11,.cls-3,.cls-4,.cls-5,.cls-6,.cls-7,.cls-9{stroke-width:8px;}.cls-3{stroke:url(#Blue_Sky);}.cls-4{stroke:url(#Blue_Sky-2);}.cls-5{stroke:url(#Blue_Sky-3);}.cls-6{stroke:url(#Blue_Sky-4);}.cls-7{stroke:url(#Blue_Sky-5);}.cls-8{stroke-width:10.01px;fill:url(#radial-gradient-2);}.cls-9{fill:url(#radial-gradient-3);}.cls-10{fill:url(#radial-gradient-4);}.cls-11{fill:url(#radial-gradient-5);}.cls-12{stroke-width:8px;fill:url(#radial-gradient-6);}.cls-13{fill:url(#linear-gradient);}.cls-14{opacity:0.06;}.cls-15{opacity:0.08;}.cls-16{opacity:0.1;}.cls-17{fill:#ffad40;}.cls-18{opacity:0.03;}.cls-19{opacity:0.02;}.cls-20{opacity:0.04;}.cls-21{fill:url(#linear-gradient-2);}</style><radialGradient id="radial-gradient" cx="100.58" cy="223.22" r="8.4" gradientUnits="userSpaceOnUse"><stop offset="0.23" stop-color="#29abe2"/><stop offset="1" stop-color="#2e3192"/></radialGradient><linearGradient id="Blue_Sky" x1="281.72" y1="225.34" x2="328.13" y2="225.34" gradientUnits="userSpaceOnUse"><stop offset="0" stop-color="#3ddeed"/><stop offset="1" stop-color="#3ddeed" stop-opacity="0"/></linearGradient><linearGradient id="Blue_Sky-2" x1="227.81" y1="197.45" x2="272.46" y2="197.45" xlink:href="#Blue_Sky"/><linearGradient id="Blue_Sky-3" x1="187.21" y1="196.87" x2="213.45" y2="196.87" xlink:href="#Blue_Sky"/><linearGradient id="Blue_Sky-4" x1="104.35" y1="199.82" x2="163.53" y2="199.82" xlink:href="#Blue_Sky"/><linearGradient id="Blue_Sky-5" x1="79.85" y1="175.51" x2="100.89" y2="175.51" xlink:href="#Blue_Sky"/><radialGradient id="radial-gradient-2" cx="177.17" cy="175.07" r="17.08" xlink:href="#radial-gradient"/><radialGradient id="radial-gradient-3" cx="218.77" cy="216.27" r="12.02" xlink:href="#radial-gradient"/><radialGradient id="radial-gradient-4" cx="278.76" cy="176.99" r="9.49" xlink:href="#radial-gradient"/><radialGradient id="radial-gradient-5" cx="329.39" cy="278.62" r="16.91" xlink:href="#radial-gradient"/><radialGradient id="radial-gradient-6" cx="80.49" cy="118.78" r="16.91" xlink:href="#radial-gradient"/><linearGradient id="linear-gradient" x1="101.06" y1="251.36" x2="510.92" y2="251.36" gradientUnits="userSpaceOnUse"><stop offset="0" stop-color="#fbb03b"/><stop offset="1" stop-color="#f15a24"/></linearGradient><linearGradient id="linear-gradient-2" x1="-1429.79" y1="443.7" x2="-1019.93" y2="443.7" gradientTransform="translate(-918.85 984.34) rotate(180)" xlink:href="#linear-gradient"/></defs><title>kaagapai vibrant logo</title><path class="cls-1" d="M390.63,301.68c9.43-5.18,40.54-19.08,71.55,2.34a3.09,3.09,0,0,1,.1,4.93c-10.79,8.26-47.07,31.76-72.57-2.77A3.08,3.08,0,0,1,390.63,301.68Z" transform="translate(-101.06 -196.64)"/><circle class="cls-2" cx="100.58" cy="223.22" r="8.4"/><line class="cls-3" x1="285.34" y1="183.81" x2="324.51" y2="266.87"/><line class="cls-4" x1="230.25" y1="212.75" x2="270.02" y2="182.15"/><line class="cls-5" x1="190.1" y1="186.23" x2="210.56" y2="207.5"/><line class="cls-6" x1="161.27" y1="181.09" x2="106.62" y2="218.56"/><line class="cls-7" x1="96.94" y1="215.66" x2="83.8" y2="135.36"/><circle class="cls-8" cx="177.17" cy="175.07" r="17.08"/><circle class="cls-9" cx="218.77" cy="216.27" r="12.02"/><circle class="cls-10" cx="278.76" cy="176.99" r="9.49"/><circle class="cls-11" cx="329.39" cy="278.62" r="16.91"/><circle class="cls-12" cx="80.49" cy="118.78" r="16.91"/><path class="cls-13" d="M510.92,306.08c-22.73-.12-165.58-1.63-178.46-20.49A51.88,51.88,0,0,0,327,279c-19.18-19.91-68.95-48.25-127.71-26q-2.46.93-5,2-4.62,1.95-9.3,4.34c-1.63.84-3.24,1.64-4.81,2.43-7.82,3.86-15,7.08-21.49,9.74A211.89,211.89,0,0,1,138,278.86q-3.81,1.11-7.21,1.92a100.69,100.69,0,0,1-14.51,2.48,57,57,0,0,1-11,0,4.75,4.75,0,0,1-3.93-6.44v0a4.71,4.71,0,0,1,1.87-2.27q1.92-1.24,4.29-2.74c.78-.49,1.59-1,2.45-1.53s1.65-1,2.53-1.57l0,0q5.86-3.61,13.71-8.22l2.92-1.69,2.87-1.65q6.74-3.85,14.73-8.22l.22-.13c22.64-12.37,52.81-27.63,90.72-44.32,30.21-13.3,68.6-8.29,107.09,4.86a407.74,407.74,0,0,1,44.32,18.36l.09.05.35.17a638.19,638.19,0,0,1,60.19,33.43l.05,0h0c12.55,7.83,23.82,15.37,33.28,22l2.4,1.68.77.54,3.78,2.67c9.49,6.77,16.56,12.12,20.47,15.14h0Z" transform="translate(-101.06 -196.64)"/><path class="cls-14" d="M344.79,209.33c52.95,18.09,106.07,51.59,138.29,74l2.4,1.68L377,289C456,267.08,394.53,231,344.79,209.33Z" transform="translate(-101.06 -196.64)"/><path class="cls-15" d="M490,288.24l-41.28-11.41-2-7.19c-17.6-21.51-52.85-39.56-57.19-41.73,36.73,17.68,70.48,39.39,93.53,55.44l2.4,1.68Z" transform="translate(-101.06 -196.64)"/><path class="cls-16" d="M486.25,285.57l-11.37,1.16c-2.91-8.09-23.77-24.33-25.08-25.34,12.55,7.83,23.82,15.37,33.28,22l2.4,1.68Z" transform="translate(-101.06 -196.64)"/><path class="cls-17" d="M508.52,310.73a171.5,171.5,0,0,1-49.87,27.42A144.14,144.14,0,0,1,350.3,331.9L290,303.51l-3.78-1.78-3.91-1.83-19.7-9.27-4.1-1.93-2.85-1.34a7.31,7.31,0,0,1-1.27-.75,8.06,8.06,0,0,1-2-11.12c2.61-3.78,8.12-7.25,19.6-7.14,25,.24,56.7,22.67,105.5,3.5,45.55-17.9,105,4.79,131.37,29A6.48,6.48,0,0,1,508.52,310.73Z" transform="translate(-101.06 -196.64)"/><path class="cls-18" d="M362.18,297.57c16.95-8.85,72.88-32.65,128.65,4A5.14,5.14,0,0,1,491,310c-19.4,14.13-84.64,54.36-130.49-4.74A5.14,5.14,0,0,1,362.18,297.57Z" transform="translate(-101.06 -196.64)"/><path class="cls-14" d="M376.29,299.67c13.22-7.26,56.84-26.76,100.33,3.28a4.33,4.33,0,0,1,.15,6.91c-15.14,11.58-66,44.54-101.78-3.88A4.33,4.33,0,0,1,376.29,299.67Z" transform="translate(-101.06 -196.64)"/><path class="cls-19" d="M291.21,303.23c-.37.09-.79.19-1.25.28l-3.78-1.78-3.91-1.83-19.7-9.27-4.1-1.93-2.85-1.34a7.31,7.31,0,0,1-1.27-.75c0-.08,0-.16-.07-.24a1.6,1.6,0,0,1,1.4-2c5.92-.53,24.82-.73,36.48,16.43A1.59,1.59,0,0,1,291.21,303.23Z" transform="translate(-101.06 -196.64)"/><path class="cls-20" d="M287.14,301.49l-1,.24-3.91-1.83-19.7-9.27-4.1-1.93c0-.14-.08-.27-.11-.41a1.34,1.34,0,0,1,1.12-1.66c4.66-.52,19.51-.94,28.44,12.86A1.35,1.35,0,0,1,287.14,301.49Z" transform="translate(-101.06 -196.64)"/><path class="cls-14" d="M283,299.71l-.73.19-19.7-9.27-.09-.33a1,1,0,0,1,.8-1.19c3.32-.36,13.91-.66,20.28,9.18A1,1,0,0,1,283,299.71Z" transform="translate(-101.06 -196.64)"/><path class="cls-14" d="M199.3,253q-2.46.93-5,2-4.62,1.95-9.3,4.34c-9.72,5-18.46,9-26.3,12.17A211.89,211.89,0,0,1,138,278.86a114.41,114.41,0,0,1-21.72,4.4,57,57,0,0,1-11,0,4.75,4.75,0,0,1-3.93-6.44c0,.4.27,5.46,14.13,3C129.92,277.25,187.84,246.91,199.3,253Z" transform="translate(-101.06 -196.64)"/><path class="cls-15" d="M194.35,255q-4.62,1.95-9.3,4.34c-9.72,5-18.46,9-26.3,12.17A211.89,211.89,0,0,1,138,278.86a114.41,114.41,0,0,1-21.72,4.4S181,254,194.35,255Z" transform="translate(-101.06 -196.64)"/><path class="cls-16" d="M180.24,261.75c-7.82,3.86-15,7.08-21.49,9.74A211.89,211.89,0,0,1,138,278.86q-3.81,1.11-7.21,1.92s31.65-16.44,49.44-19Z" transform="translate(-101.06 -196.64)"/><path class="cls-21" d="M101.08,485.92c22.73.12,165.58,1.63,178.46,20.49A51.88,51.88,0,0,0,285,513c19.18,19.91,68.95,48.25,127.71,26q2.46-.93,4.95-2,4.62-1.95,9.3-4.34c1.63-.84,3.24-1.64,4.81-2.43,7.82-3.86,15-7.08,21.49-9.74A211.89,211.89,0,0,1,474,513.14q3.81-1.11,7.21-1.92a100.69,100.69,0,0,1,14.51-2.48,57,57,0,0,1,11,0,4.75,4.75,0,0,1,3.93,6.44v0a4.71,4.71,0,0,1-1.87,2.27q-1.92,1.24-4.29,2.74c-.78.49-1.59,1-2.45,1.53s-1.65,1-2.53,1.57l0,0q-5.87,3.62-13.71,8.22l-2.92,1.69L480,534.86q-6.74,3.85-14.73,8.22l-.22.13c-22.64,12.37-52.81,27.63-90.72,44.32-30.21,13.3-68.6,8.29-107.09-4.86a407.74,407.74,0,0,1-44.32-18.36l-.09,0-.35-.17a638.19,638.19,0,0,1-60.19-33.43l0,0h0c-12.55-7.83-23.82-15.37-33.28-22l-2.4-1.68-.77-.54L122,503.76c-9.49-6.77-16.56-12.12-20.47-15.14h0Z" transform="translate(-101.06 -196.64)"/><path class="cls-14" d="M267.21,582.67c-52.95-18.09-106.07-51.59-138.29-74l-2.4-1.68L235,503C156,524.92,217.47,561,267.21,582.67Z" transform="translate(-101.06 -196.64)"/><path class="cls-15" d="M122,503.76l41.28,11.41,2,7.19c17.6,21.51,52.85,39.56,57.19,41.73-36.73-17.68-70.48-39.39-93.53-55.44l-2.4-1.68Z" transform="translate(-101.06 -196.64)"/><path class="cls-16" d="M125.75,506.43l11.37-1.16c2.91,8.09,23.77,24.33,25.08,25.34-12.55-7.83-23.82-15.37-33.28-22l-2.4-1.68Z" transform="translate(-101.06 -196.64)"/><path class="cls-17" d="M103.48,481.27a171.5,171.5,0,0,1,49.87-27.42A144.14,144.14,0,0,1,261.7,460.1L322,488.49l3.78,1.78,3.91,1.83,19.7,9.27,4.1,1.93,2.85,1.34a7.31,7.31,0,0,1,1.27.75,8.06,8.06,0,0,1,2,11.12c-2.61,3.78-8.12,7.25-19.6,7.14-25-.24-56.7-22.67-105.5-3.5-45.55,17.9-105-4.79-131.37-29A6.48,6.48,0,0,1,103.48,481.27Z" transform="translate(-101.06 -196.64)"/><path class="cls-18" d="M249.82,494.43c-16.95,8.85-72.88,32.65-128.65-4A5.14,5.14,0,0,1,121,482c19.4-14.13,84.64-54.36,130.49,4.74A5.14,5.14,0,0,1,249.82,494.43Z" transform="translate(-101.06 -196.64)"/><path class="cls-14" d="M235.71,492.33c-13.22,7.26-56.84,26.76-100.33-3.28a4.33,4.33,0,0,1-.15-6.91c15.14-11.58,66-44.54,101.78,3.88A4.33,4.33,0,0,1,235.71,492.33Z" transform="translate(-101.06 -196.64)"/><path class="cls-19" d="M320.79,488.77c.37-.09.79-.19,1.25-.28l3.78,1.78,3.91,1.83,19.7,9.27,4.1,1.93,2.85,1.34a7.31,7.31,0,0,1,1.27.75c0,.08.05.16.07.24a1.6,1.6,0,0,1-1.4,2c-5.92.53-24.82.73-36.48-16.43A1.59,1.59,0,0,1,320.79,488.77Z" transform="translate(-101.06 -196.64)"/><path class="cls-20" d="M324.86,490.51l1-.24,3.91,1.83,19.7,9.27,4.1,1.93c0,.14.08.27.11.41a1.34,1.34,0,0,1-1.12,1.66c-4.66.52-19.51.94-28.44-12.86A1.35,1.35,0,0,1,324.86,490.51Z" transform="translate(-101.06 -196.64)"/><path class="cls-14" d="M329,492.29l.73-.19,19.7,9.27.09.33a1,1,0,0,1-.8,1.19c-3.32.36-13.91.66-20.28-9.18A1,1,0,0,1,329,492.29Z" transform="translate(-101.06 -196.64)"/><path class="cls-14" d="M412.7,539q2.46-.93,4.95-2,4.62-1.95,9.3-4.34c9.72-5,18.46-9,26.3-12.17A211.89,211.89,0,0,1,474,513.14a114.41,114.41,0,0,1,21.72-4.4,57,57,0,0,1,11,0,4.75,4.75,0,0,1,3.93,6.44c0-.4-.27-5.46-14.13-3C482.08,514.75,424.16,545.09,412.7,539Z" transform="translate(-101.06 -196.64)"/><path class="cls-15" d="M417.65,537q4.62-1.95,9.3-4.34c9.72-5,18.46-9,26.3-12.17A211.89,211.89,0,0,1,474,513.14a114.41,114.41,0,0,1,21.72-4.4S431,538,417.65,537Z" transform="translate(-101.06 -196.64)"/><path class="cls-16" d="M431.76,530.25c7.82-3.86,15-7.08,21.49-9.74A211.89,211.89,0,0,1,474,513.14q3.81-1.11,7.21-1.92s-31.65,16.44-49.44,19Z" transform="translate(-101.06 -196.64)"/></svg>