<svg id="Layer_1" data-name="Layer 1" xmlns="http://www.w3.org/2000/svg" xmlns:xlink="http://www.w3.org/1999/xlink" viewBox="0 0 600 467.73"><defs><style>.cls-1{fill:#f7fafe;}.cls-2{fill:url(#linear-gradient);}.cls-3{opacity:0.05;}.cls-4{fill:url(#linear-gradient-2);}.cls-5{fill:url(#linear-gradient-3);}.cls-6{fill:url(#linear-gradient-4);}.cls-7{fill:url(#linear-gradient-5);}.cls-8{fill:url(#linear-gradient-6);}.cls-9{fill:url(#linear-gradient-7);}.cls-10{fill:url(#linear-gradient-8);}.cls-11{fill:url(#linear-gradient-9);}.cls-12{fill:url(#linear-gradient-10);}.cls-13{fill:url(#linear-gradient-11);}.cls-14{fill:url(#linear-gradient-12);}.cls-15{fill:url(#linear-gradient-13);}</style><linearGradient id="linear-gradient" x1="860.29" y1="471.06" x2="510.52" y2="511.96" gradientUnits="userSpaceOnUse"><stop offset="0" stop-color="#f7931e" stop-opacity="0.8"/><stop offset="0.5" stop-color="#fbb03b" stop-opacity="0.5"/><stop offset="1" stop-color="#f89d32" stop-opacity="0.8"/></linearGradient><linearGradient id="linear-gradient-2" x1="319.72" y1="201.91" x2="468.49" y2="169.08" gradientUnits="userSpaceOnUse"><stop offset="0.5" stop-color="#60a3bc"/><stop offset="1" stop-color="#3c6382"/></linearGradient><linearGradient id="linear-gradient-3" x1="466.18" y1="127.59" x2="380.96" y2="262.4" gradientUnits="userSpaceOnUse"><stop offset="0" stop-color="#3c6382"/><stop offset="0.5" stop-color="#60a3bc"/></linearGradient><linearGradient id="linear-gradient-4" x1="149.44" y1="278.57" x2="304.16" y2="187.41" xlink:href="#linear-gradient-2"/><linearGradient id="linear-gradient-5" x1="600.08" y1="438.96" x2="779.82" y2="311.37" xlink:href="#linear-gradient-2"/><linearGradient id="linear-gradient-6" x1="326.88" y1="40.21" x2="298.45" y2="102.92" xlink:href="#linear-gradient"/><linearGradient id="linear-gradient-7" x1="704.13" y1="337.26" x2="684.52" y2="380.5" gradientTransform="translate(-43.45 -204.19) scale(1 1.28)" xlink:href="#linear-gradient"/><linearGradient id="linear-gradient-8" x1="744.36" y1="-0.66" x2="724.73" y2="42.63" gradientTransform="translate(288.29 240) scale(0.61 0.51)" xlink:href="#linear-gradient"/><linearGradient id="linear-gradient-9" x1="648.51" y1="391.81" x2="634.89" y2="421.85" gradientTransform="translate(-29.47 -131.23)" xlink:href="#linear-gradient"/><linearGradient id="linear-gradient-10" x1="685.98" y1="142.5" x2="664.87" y2="189.06" gradientTransform="translate(104.66 102.47)" xlink:href="#linear-gradient"/><linearGradient id="linear-gradient-11" x1="319.64" y1="99.14" x2="312.09" y2="115.78" xlink:href="#linear-gradient"/><linearGradient id="linear-gradient-12" x1="365.54" y1="73.91" x2="362.62" y2="80.36" xlink:href="#linear-gradient"/><linearGradient id="linear-gradient-13" x1="252.49" y1="63.11" x2="247.91" y2="73.22" xlink:href="#linear-gradient"/></defs><title>Empty Archive Illustration</title><path class="cls-1" d="M527.72,294.85l3.61-8.23a185.11,185.11,0,0,1,56.83-72.51l59-45.3a90.36,90.36,0,0,1,116.42,5.4l48.09,44.55a225.07,225.07,0,0,1,67.41,119.32h0a49.24,49.24,0,0,0,34.68,37.34h0a71.92,71.92,0,0,1,44,35.81l16.47,31.46a76.76,76.76,0,0,1-16.45,92.45l-19.75,17.91a250.09,250.09,0,0,1-194.34,63.42l-103.55-11A147.31,147.31,0,0,1,552.31,564h0a86,86,0,0,0-58.75-24.71L458,538.59a88.25,88.25,0,0,1-55.77-21.2h0a55,55,0,0,1-10.75-71.11l8.84-14a170.6,170.6,0,0,1,52.5-52.78l5.41-3.45A184,184,0,0,0,527.72,294.85Z" transform="translate(-383 -150.14)"/><path class="cls-2" d="M554.89,400H863.33c70.19,0,106.39,76.67,58,123.08C876,566.61,810.22,601.66,720.3,587.28c-203.13-32.49-98.36-99.38-247.13-84.09-74.38,7.65-72.29-18.15-51.6-45.87C448.59,421.14,494,400,542,400Z" transform="translate(-383 -150.14)"/><path class="cls-3" d="M755.39,486.47,549.11,478a6,6,0,0,1-3.67-10.58l36.31-31,227-12.11h8.32a4.35,4.35,0,0,1,3,7.52L766,482.54A14.57,14.57,0,0,1,755.39,486.47Z" transform="translate(-383 -150.14)"/><polygon class="cls-4" points="258.25 117.51 436.14 117.51 436.14 274.18 256.85 274.18 258.25 117.51"/><polygon class="cls-5" points="388.87 150.82 436.14 117.51 436.14 274.18 388.87 316.69 388.87 150.82"/><polygon class="cls-6" points="258.25 117.51 258.25 312.17 200.44 310.15 200.44 150.82 258.25 117.51"/><path class="cls-7" d="M771.87,301V466.83L641.25,462.3l-57.81-2V301h29.79a9.37,9.37,0,0,1,7.66,3.73L632,320.22a12,12,0,0,0,9.24,4.79,5.47,5.47,0,0,0,.7,0h71.42a12.21,12.21,0,0,0,9.94-4.82l11.1-15.54a9.42,9.42,0,0,1,7.67-3.73Z" transform="translate(-383 -150.14)"/><rect class="cls-8" x="309.36" y="30.99" width="15.33" height="61.94" rx="7.66" ry="7.66"/><rect class="cls-9" x="646.21" y="220.41" width="15.33" height="53.68" rx="7.66" ry="7.66" transform="translate(-426.23 149.37) rotate(-25)"/><rect class="cls-10" x="733.08" y="236.67" width="9.34" height="21.16" rx="4.13" ry="4.13" transform="translate(-209.39 -438.75) rotate(25)"/><rect class="cls-11" x="608.95" y="256.33" width="10.74" height="29.34" rx="5.37" ry="5.37" transform="translate(-394.69 363.62) rotate(-45)"/><rect class="cls-12" x="775" y="238.38" width="16.64" height="45.48" rx="8.32" ry="8.32" transform="translate(-73.85 -564.99) rotate(36.52)"/><circle class="cls-13" cx="317.02" cy="104.91" r="7.66"/><circle class="cls-14" cx="364.52" cy="76.15" r="2.97"/><circle class="cls-15" cx="250.9" cy="66.61" r="4.66"/></svg>