<svg id="Layer_1" data-name="Layer 1" xmlns="http://www.w3.org/2000/svg" xmlns:xlink="http://www.w3.org/1999/xlink" viewBox="0 0 599.99 331.18"><defs><style>.cls-1{fill:#f7fafe;}.cls-2{fill:#e6f3ff;}.cls-3{fill:url(#linear-gradient);}.cls-4{fill:url(#linear-gradient-2);}.cls-5{fill:#f2f2f2;}.cls-6{fill:url(#linear-gradient-3);}.cls-25,.cls-38,.cls-39,.cls-40,.cls-42,.cls-43,.cls-7,.cls-8{fill:#fff;}.cls-22,.cls-7{opacity:0.03;}.cls-8{opacity:0.05;}.cls-9{fill:url(#linear-gradient-4);}.cls-10{fill:#ccc;}.cls-11,.cls-27,.cls-28,.cls-29,.cls-30,.cls-31{fill:none;}.cls-11{stroke:#e6f3ff;stroke-width:14.98px;}.cls-11,.cls-13,.cls-14,.cls-15,.cls-16,.cls-17,.cls-18,.cls-19,.cls-20,.cls-21,.cls-22,.cls-23,.cls-24,.cls-26,.cls-27,.cls-28,.cls-29,.cls-30,.cls-31,.cls-32,.cls-33,.cls-34,.cls-35,.cls-36{stroke-miterlimit:10;}.cls-12,.cls-21,.cls-40{opacity:0.1;}.cls-13,.cls-14,.cls-15,.cls-16,.cls-17,.cls-18,.cls-19,.cls-20,.cls-21,.cls-22,.cls-23,.cls-24{stroke:#000;}.cls-13,.cls-25{opacity:0.09;}.cls-14,.cls-26,.cls-34{stroke-width:0.76px;}.cls-15,.cls-27,.cls-28,.cls-29,.cls-30,.cls-31,.cls-33,.cls-35{stroke-width:1.02px;}.cls-16,.cls-32{stroke-width:1.27px;}.cls-17,.cls-36{stroke-width:1.02px;}.cls-19,.cls-38{opacity:0.06;}.cls-20,.cls-39{opacity:0.08;}.cls-23,.cls-42{opacity:0.02;}.cls-24,.cls-43{opacity:0.04;}.cls-26,.cls-32,.cls-33,.cls-34,.cls-35,.cls-36{stroke:#48dbfb;}.cls-26{fill:url(#radial-gradient);}.cls-27{stroke:url(#Blue_Sky);}.cls-28{stroke:url(#Blue_Sky-2);}.cls-29{stroke:url(#Blue_Sky-3);}.cls-30{stroke:url(#Blue_Sky-4);}.cls-31{stroke:url(#Blue_Sky-5);}.cls-32{fill:url(#radial-gradient-2);}.cls-33{fill:url(#radial-gradient-3);}.cls-34{fill:url(#radial-gradient-4);}.cls-35{fill:url(#radial-gradient-5);}.cls-36{fill:url(#radial-gradient-6);}.cls-37{fill:url(#linear-gradient-5);}.cls-41{fill:#ffad40;}.cls-44{fill:url(#linear-gradient-6);}</style><linearGradient id="linear-gradient" x1="750.66" y1="308.27" x2="863.15" y2="308.27" gradientUnits="userSpaceOnUse"><stop offset="0" stop-color="#3c6382"/><stop offset="1" stop-color="#60a3bc"/></linearGradient><linearGradient id="linear-gradient-2" x1="735.88" y1="370.25" x2="867.73" y2="305.67" gradientUnits="userSpaceOnUse"><stop offset="0" stop-color="#ffb9bb"/><stop offset="1" stop-color="#ffdcd1"/></linearGradient><linearGradient id="linear-gradient-3" x1="771.7" y1="478.15" x2="959.32" y2="478.15" xlink:href="#linear-gradient"/><linearGradient id="linear-gradient-4" x1="765.88" y1="347.03" x2="775.71" y2="353.34" gradientUnits="userSpaceOnUse"><stop offset="0" stop-color="#60a3bc"/><stop offset="1" stop-color="#3c6382"/></linearGradient><radialGradient id="radial-gradient" cx="873.72" cy="492.8" r="1.07" gradientTransform="translate(-506.06 350.6) rotate(-33.51)" gradientUnits="userSpaceOnUse"><stop offset="0.23" stop-color="#29abe2"/><stop offset="1" stop-color="#2e3192"/></radialGradient><linearGradient id="Blue_Sky" x1="896.71" y1="493.06" x2="902.6" y2="493.06" gradientTransform="translate(-506.06 350.6) rotate(-33.51)" gradientUnits="userSpaceOnUse"><stop offset="0" stop-color="#3ddeed"/><stop offset="1" stop-color="#3ddeed" stop-opacity="0"/></linearGradient><linearGradient id="Blue_Sky-2" x1="889.87" y1="489.52" x2="895.53" y2="489.52" xlink:href="#Blue_Sky"/><linearGradient id="Blue_Sky-3" x1="884.71" y1="489.45" x2="888.04" y2="489.45" xlink:href="#Blue_Sky"/><linearGradient id="Blue_Sky-4" x1="874.2" y1="489.83" x2="881.71" y2="489.83" xlink:href="#Blue_Sky"/><linearGradient id="Blue_Sky-5" x1="871.09" y1="486.74" x2="873.76" y2="486.74" xlink:href="#Blue_Sky"/><radialGradient id="radial-gradient-2" cx="883.44" cy="486.68" r="2.17" xlink:href="#radial-gradient"/><radialGradient id="radial-gradient-3" cx="888.72" cy="491.91" r="1.53" xlink:href="#radial-gradient"/><radialGradient id="radial-gradient-4" cx="896.33" cy="486.93" r="1.2" xlink:href="#radial-gradient"/><radialGradient id="radial-gradient-5" cx="902.76" cy="499.83" r="2.15" xlink:href="#radial-gradient"/><radialGradient id="radial-gradient-6" cx="871.17" cy="479.54" r="2.15" xlink:href="#radial-gradient"/><linearGradient id="linear-gradient-5" x1="860.95" y1="471.41" x2="912.97" y2="471.41" gradientTransform="translate(-123.06 569.02) rotate(-33.51)" gradientUnits="userSpaceOnUse"><stop offset="0" stop-color="#fbb03b"/><stop offset="1" stop-color="#f15a24"/></linearGradient><linearGradient id="linear-gradient-6" x1="325.86" y1="452.21" x2="377.87" y2="452.21" gradientTransform="translate(1440.04 685.91) rotate(146.49)" xlink:href="#linear-gradient-5"/></defs><title>2nd Verification Illustration</title><path class="cls-1" d="M980,394.26l-11.65,53.38a129.52,129.52,0,0,1-9,26.85,127.24,127.24,0,0,1-6.85,12.84q-2.47,4.08-5.25,7.95a129.6,129.6,0,0,1-102.78,54.28c-.89,0-1.79,0-2.69,0a129.81,129.81,0,0,1-15.88-1c-1.63-.2-3.26-.43-4.89-.7a129.13,129.13,0,0,1-35.35-11.11c-1.8-.86-3.6-1.77-5.37-2.73l-25.52-13.76a129.55,129.55,0,0,0-113.19-4.75L603.81,532a129.65,129.65,0,0,1-101.45.84l-39.5-16.43A129.53,129.53,0,0,1,384.7,375.88L388.91,350a129.63,129.63,0,0,1,77-98.29l41.18-17.61,8.47-3.62a129.58,129.58,0,0,1,111.69,4.69l4.88,2.59a129.54,129.54,0,0,0,110.17,5.32l36.1-14.89A129.61,129.61,0,0,1,904,243.16l25.62,18.62A129.59,129.59,0,0,1,980,394.26Z" transform="translate(-383 -218.41)"/><circle class="cls-2" cx="334.05" cy="87.29" r="21.32"/><path class="cls-2" d="M570.4,288a13.26,13.26,0,0,1-13.26,13.26H420.28a13.23,13.23,0,0,1-9.38-3.88l-.47-.49a129.66,129.66,0,0,1,19.51-22.16h23.74a7,7,0,0,0,0-14.08h-5a129.25,129.25,0,0,1,17.18-8.92l41.18-17.61h31.4a13.27,13.27,0,0,1,0,26.53H523.73a7,7,0,1,0,0,14.08h33.41A13.26,13.26,0,0,1,570.4,288Z" transform="translate(-383 -218.41)"/><path class="cls-2" d="M927.25,367.23h0a4.27,4.27,0,0,1,4.27-4.27h8.93a8,8,0,0,0,8-8h0a8,8,0,0,0-8-8H880.11a8,8,0,0,0-8.05,8h0a8.05,8.05,0,0,0,8.05,8H889a4.28,4.28,0,0,1,4.28,4.27h0A4.28,4.28,0,0,1,889,371.5H868.77a8,8,0,0,0-8,8h0a8,8,0,0,0,8,8h83a8,8,0,0,0,8-8h0a8,8,0,0,0-8-8H931.52A4.27,4.27,0,0,1,927.25,367.23Z" transform="translate(-383 -218.41)"/><path class="cls-2" d="M466.31,448.73a50.79,50.79,0,0,1-35.59,48.46,129.71,129.71,0,0,1-47.11-87.93,50.77,50.77,0,0,1,82.7,39.47Z" transform="translate(-383 -218.41)"/><path class="cls-3" d="M753.67,287.8s-8.71-24,3.49-29.74,85.81-33.55,101.67,17.8-17.08,87.54-17.08,87.54l-28.06,7.72-17.08-26.8L784,288.16Z" transform="translate(-383 -218.41)"/><path class="cls-4" d="M793.76,398V377.53a4.83,4.83,0,0,0-5.53-4.78l-29.39,4.35a5.36,5.36,0,0,1-6.15-5.31V346.21a4.38,4.38,0,0,0-4.38-4.37h-2.58a3.23,3.23,0,0,1-3.07-4.22L748,321a117.27,117.27,0,0,0,5.49-29.81l.18-3.4a13.86,13.86,0,0,1,3.09-8h0a10.51,10.51,0,0,1,10.37-3.67L792,281.42a8.7,8.7,0,0,1,6.64,10.49l-3.78,16a4.84,4.84,0,0,0,3.53,5.81h0a4.85,4.85,0,0,0,3.56-.48l8.53-4.82a5.07,5.07,0,0,1,7.55,4.12l.77,13.08a5.07,5.07,0,0,1-2.44,4.63l-5.47,3.31a10.19,10.19,0,0,0-4.39,11.93l3.6,10.81a12.19,12.19,0,0,0,11.54,8.32h9.54l10.57-1.22L845.41,398Z" transform="translate(-383 -218.41)"/><path class="cls-5" d="M926.75,517.81a129.62,129.62,0,0,1-82.31,31.75c-.89,0-1.79,0-2.69,0a129.81,129.81,0,0,1-15.88-1c-1.63-.2-3.26-.43-4.89-.7a129.13,129.13,0,0,1-35.35-11.11c-1.8-.86-3.6-1.77-5.37-2.73l-25.52-13.76q-5.29-2.85-10.78-5.18c-2.28-1-4.59-1.87-6.91-2.71a129.67,129.67,0,0,0-73.35-4.21l23.91-64.4A29.91,29.91,0,0,1,709.31,425l8.59-1.87,53.8-11.69,3.7,0h1.48l2.19-2.47,4-13.55a5.66,5.66,0,0,1,5.23-4.05l5.48-.18,50.74-1.71h0l2.16-.07a5.64,5.64,0,0,1,5.47,3.62l5.26,13.73h0l31.05,4.51a28.83,28.83,0,0,1,24.27,23.72l.1.55,1,6.16,1.43,8.46,2.54,15.07Z" transform="translate(-383 -218.41)"/><path class="cls-6" d="M959.32,474.49a127.24,127.24,0,0,1-6.85,12.84q-2.47,4.08-5.25,7.95a129.6,129.6,0,0,1-102.78,54.28c-.89,0-1.79,0-2.69,0a129.81,129.81,0,0,1-15.88-1c-1.63-.2-3.26-.43-4.89-.7a129.13,129.13,0,0,1-35.35-11.11c22.31-47-.12-99.23-9.88-118.09-2.41-4.66-4-7.28-4-7.28l2.54-1.39a1.68,1.68,0,0,1,1.37-.1l.75.28a1.13,1.13,0,0,0,.36.06,1.07,1.07,0,0,0,.91-.52,1.64,1.64,0,0,1,1.44-.84h2.08c76.26,9.54,76.25-2.21,76.25-2.21a303.27,303.27,0,0,1,55.45,28.78A264.45,264.45,0,0,1,959.32,474.49Z" transform="translate(-383 -218.41)"/><path class="cls-7" d="M952.47,487.33q-2.47,4.08-5.25,7.95a129.6,129.6,0,0,1-102.78,54.28c-.89,0-1.79,0-2.69,0a129.81,129.81,0,0,1-15.88-1c-1.63-.2-3.26-.43-4.89-.7,13.06-60.65-8.06-107.66-14.92-120.76a1.87,1.87,0,0,1,2.07-2.7c38.14,8.46,51-3.47,54.15-7.59a1.87,1.87,0,0,1,2.36-.53,282.15,282.15,0,0,1,50.68,33.78A290.24,290.24,0,0,1,952.47,487.33Z" transform="translate(-383 -218.41)"/><path class="cls-8" d="M947.22,495.28a129.6,129.6,0,0,1-102.78,54.28c2.63-50.41-12-88-17.28-99.83-.68-1.52.47-3.27,1.9-2.9,35.15,9.09,47-3.74,49.9-8.16a1.59,1.59,0,0,1,2.18-.58,257.41,257.41,0,0,1,36.72,27.09A280.69,280.69,0,0,1,947.22,495.28Z" transform="translate(-383 -218.41)"/><path class="cls-9" d="M761.44,355.57c7.29-.07,15.6-2.64,19.61-9.1.83-1.32-1.26-2.54-2.09-1.22-3.54,5.7-11.11,7.84-17.52,7.89a1.22,1.22,0,0,0,0,2.43Z" transform="translate(-383 -218.41)"/><path class="cls-10" d="M744.92,497.72l-1,17.41c-2.28-1-4.59-1.87-6.91-2.71l5.68-15.16A1.13,1.13,0,0,1,744.92,497.72Z" transform="translate(-383 -218.41)"/><circle class="cls-11" cx="203.96" cy="186.71" r="79.1"/><circle class="cls-2" cx="203.96" cy="186.71" r="13.62"/><rect class="cls-2" x="197.62" y="133.01" width="12.67" height="51.85" rx="6.34" ry="6.34"/><rect class="cls-2" x="562.77" y="379.2" width="12.67" height="51.85" rx="6.34" ry="6.34" transform="translate(-219.02 755.81) rotate(-90)"/><rect class="cls-2" x="200.79" y="119.47" width="6.34" height="8.07"/><rect class="cls-2" x="647.16" y="401.09" width="6.34" height="8.07" transform="translate(672.45 -463.63) rotate(90)"/><rect class="cls-2" x="520.71" y="401.09" width="6.34" height="8.07" transform="translate(546 -337.17) rotate(90)"/><rect class="cls-2" x="200.79" y="246.07" width="6.34" height="8.07"/><g class="cls-12"><path class="cls-13" d="M889.44,473.68a8.57,8.57,0,0,1,7.73-4.76.39.39,0,0,1,.36.51c-.56,1.63-2.76,6.66-7.87,4.79A.39.39,0,0,1,889.44,473.68Z" transform="translate(-383 -218.41)"/><circle class="cls-14" cx="494.72" cy="281.01" r="1.07"/><line class="cls-15" x1="511.51" y1="263.9" x2="521.47" y2="269.94"/><line class="cls-15" x1="507.7" y1="270.82" x2="509.77" y2="264.8"/><line class="cls-15" x1="501.6" y1="270.83" x2="505.25" y2="271.64"/><line class="cls-15" x1="498.19" y1="272.3" x2="495.03" y2="280.1"/><line class="cls-15" x1="493.8" y1="280.47" x2="486.78" y2="272.89"/><circle class="cls-16" cx="499.45" cy="270.55" r="2.17"/><circle class="cls-15" cx="506.74" cy="272" r="1.53"/><circle class="cls-14" cx="510.33" cy="263.64" r="1.2"/><circle class="cls-15" cx="522.81" cy="270.85" r="2.15"/><circle class="cls-17" cx="485.27" cy="271.37" r="2.15"/><path class="cls-18" d="M902.48,465.72c-2.42,1.58-17.64,11.43-20.33,10.33a7.15,7.15,0,0,0-1-.31,15.4,15.4,0,0,0-15.34,6.19l-.39.56c-.23.35-.46.72-.68,1.11-.11.2-.22.4-.34.59-.55,1-1.08,1.8-1.59,2.54s-1.16,1.62-1.68,2.24c-.22.25-.43.49-.63.7a11.73,11.73,0,0,1-1.36,1.28,6.57,6.57,0,0,1-1.16.77.59.59,0,0,1-.86-.4h0a.68.68,0,0,1,0-.37l.27-.6q.06-.15.15-.33l.16-.34h0c.24-.52.53-1.14.87-1.83.06-.12.13-.25.19-.38l.19-.38c.29-.58.62-1.22,1-1.9l0,0c1.53-2.89,3.65-6.62,6.49-11,2.27-3.53,6.68-5.69,11.68-7a50.79,50.79,0,0,1,6-1.16h.06a81.37,81.37,0,0,1,8.72-.68h0c1.87,0,3.59,0,5.06,0H899c1.48.06,2.61.13,3.23.17h0Z" transform="translate(-383 -218.41)"/><path class="cls-19" d="M878.12,467.12c6.87-1.8,14.84-2,19.82-1.86h.37l-11.21,8C893.93,465.44,884.9,465.92,878.12,467.12Z" transform="translate(-383 -218.41)"/><path class="cls-20" d="M899,465.29,893.85,467l-.72-.62c-3.37-1-8.36-.49-9-.41a90.09,90.09,0,0,1,13.79-.69h.37Z" transform="translate(-383 -218.41)"/><path class="cls-21" d="M898.43,465.28l-1.12.92c-.88-.66-4.22-.91-4.43-.93,1.87,0,3.59,0,5.06,0h.49Z" transform="translate(-383 -218.41)"/><path class="cls-18" d="M902.55,466.38a22,22,0,0,1-3.36,6.39,18.22,18.22,0,0,1-11.9,6.93l-8.38,1.23-.52.07-.55.08-2.73.4-.57.09-.39.05a.62.62,0,0,1-.19,0,1,1,0,0,1-1-1c0-.59.35-1.34,1.57-2.13,2.67-1.73,7.59-1.58,11.41-7,3.57-5.09,11.45-6.85,15.94-6.13A.82.82,0,0,1,902.55,466.38Z" transform="translate(-383 -218.41)"/><path class="cls-22" d="M886.14,475.24c1.17-2.13,5.42-8.56,13.89-8.59a.66.66,0,0,1,.62.88c-1.07,2.85-5.15,11.68-14.15,8.64A.65.65,0,0,1,886.14,475.24Z" transform="translate(-383 -218.41)"/><path class="cls-19" d="M887.78,474.47c.89-1.69,4.14-6.81,10.85-6.68a.55.55,0,0,1,.5.72c-.79,2.29-3.87,9.34-11,6.72A.55.55,0,0,1,887.78,474.47Z" transform="translate(-383 -218.41)"/><path class="cls-23" d="M879,480.81l-.11.12-.52.07-.55.08-2.73.4-.57.09-.39.05a.62.62,0,0,1-.19,0l0,0a.2.2,0,0,1,0-.31,5,5,0,0,1,5-.82A.21.21,0,0,1,879,480.81Z" transform="translate(-383 -218.41)"/><path class="cls-24" d="M878.47,480.91l-.08.09-.55.08-2.73.4-.57.09,0,0a.17.17,0,0,1,0-.25,3.74,3.74,0,0,1,3.91-.64A.17.17,0,0,1,878.47,480.91Z" transform="translate(-383 -218.41)"/><path class="cls-19" d="M877.91,481l-.07.07-2.73.4,0,0a.11.11,0,0,1,0-.18,2.69,2.69,0,0,1,2.79-.45A.12.12,0,0,1,877.91,481Z" transform="translate(-383 -218.41)"/><path class="cls-19" d="M865.78,481.93l-.39.56c-.23.35-.46.72-.68,1.11-.68,1.21-1.32,2.24-1.93,3.13s-1.16,1.62-1.68,2.24a14,14,0,0,1-2,2,6.57,6.57,0,0,1-1.16.77.59.59,0,0,1-.86-.4s.41.56,1.7-.68S864.14,482.09,865.78,481.93Z" transform="translate(-383 -218.41)"/><path class="cls-20" d="M865.39,482.49c-.23.35-.46.72-.68,1.11-.68,1.21-1.32,2.24-1.93,3.13s-1.16,1.62-1.68,2.24a14,14,0,0,1-2,2S863.91,483.31,865.39,482.49Z" transform="translate(-383 -218.41)"/><path class="cls-21" d="M864.37,484.19c-.55,1-1.08,1.8-1.59,2.54s-1.16,1.62-1.68,2.24c-.22.25-.43.49-.63.7a28.24,28.24,0,0,1,3.9-5.47Z" transform="translate(-383 -218.41)"/><path class="cls-18" d="M871.7,513.46c2.42-1.58,17.64-11.42,20.33-10.33a6.07,6.07,0,0,0,1,.31,15.38,15.38,0,0,0,15.34-6.19l.39-.56c.23-.35.46-.72.68-1.11l.33-.59c.56-1,1.09-1.8,1.6-2.54a26.25,26.25,0,0,1,1.68-2.23c.22-.26.42-.5.63-.71a11.79,11.79,0,0,1,1.36-1.28,7.19,7.19,0,0,1,1.16-.77.6.6,0,0,1,.86.4h0a.6.6,0,0,1,0,.37l-.27.59a3.11,3.11,0,0,1-.15.33c0,.11-.1.23-.16.35h0q-.36.8-.87,1.83l-.19.38c-.06.13-.13.25-.19.38-.3.58-.62,1.22-1,1.9l0,0c-1.53,2.89-3.65,6.62-6.49,11.05-2.27,3.52-6.68,5.68-11.68,7a50.81,50.81,0,0,1-6,1.17H890a78.51,78.51,0,0,1-8.71.68h0c-1.87.05-3.59,0-5.06,0h-.49l-.59,0c-1.47,0-2.6-.12-3.22-.17h0Z" transform="translate(-383 -218.41)"/><path class="cls-19" d="M896.06,512.06c-6.87,1.8-14.84,2-19.82,1.86h-.37l11.2-8C880.25,513.74,889.28,513.26,896.06,512.06Z" transform="translate(-383 -218.41)"/><path class="cls-20" d="M875.16,513.89l5.17-1.69.72.62c3.37,1,8.36.49,9,.41a88.66,88.66,0,0,1-13.78.69h-.37Z" transform="translate(-383 -218.41)"/><path class="cls-21" d="M875.75,513.91l1.12-.92c.88.65,4.22.91,4.43.92-1.87.05-3.59,0-5.06,0h-.49Z" transform="translate(-383 -218.41)"/><path class="cls-18" d="M871.63,512.8a22,22,0,0,1,3.36-6.39,18.3,18.3,0,0,1,11.9-6.93l8.38-1.22.52-.08.54-.08,2.74-.4.57-.08.39-.06h.19a1,1,0,0,1,1,1c0,.58-.35,1.33-1.57,2.13-2.67,1.72-7.59,1.57-11.41,7-3.57,5.08-11.45,6.84-15.94,6.13A.83.83,0,0,1,871.63,512.8Z" transform="translate(-383 -218.41)"/><path class="cls-22" d="M888,503.94c-1.17,2.13-5.43,8.57-13.9,8.59a.66.66,0,0,1-.61-.88c1.07-2.85,5.15-11.68,14.15-8.64A.65.65,0,0,1,888,503.94Z" transform="translate(-383 -218.41)"/><path class="cls-19" d="M886.4,504.71c-.89,1.7-4.14,6.81-10.85,6.68a.55.55,0,0,1-.5-.72c.79-2.28,3.87-9.34,11-6.72A.55.55,0,0,1,886.4,504.71Z" transform="translate(-383 -218.41)"/><path class="cls-23" d="M895.15,498.37l.12-.11.52-.08.54-.08,2.74-.4.57-.08.39-.06h.19l0,0a.2.2,0,0,1,0,.31,5,5,0,0,1-5,.82A.21.21,0,0,1,895.15,498.37Z" transform="translate(-383 -218.41)"/><path class="cls-24" d="M895.71,498.27l.08-.09.54-.08,2.74-.4.57-.08,0,0a.19.19,0,0,1,0,.26,3.78,3.78,0,0,1-3.92.63A.17.17,0,0,1,895.71,498.27Z" transform="translate(-383 -218.41)"/><path class="cls-19" d="M896.27,498.17l.06-.07,2.74-.4,0,0a.12.12,0,0,1,0,.18,2.69,2.69,0,0,1-2.79.45A.12.12,0,0,1,896.27,498.17Z" transform="translate(-383 -218.41)"/><path class="cls-19" d="M908.4,497.25l.39-.56c.23-.35.46-.72.68-1.11.68-1.2,1.32-2.24,1.93-3.13a26.25,26.25,0,0,1,1.68-2.23,14.77,14.77,0,0,1,2-2,7.19,7.19,0,0,1,1.16-.77.6.6,0,0,1,.86.4s-.41-.55-1.7.68S910,497.09,908.4,497.25Z" transform="translate(-383 -218.41)"/><path class="cls-20" d="M908.79,496.69c.23-.35.46-.72.68-1.11.68-1.2,1.32-2.24,1.93-3.13a26.25,26.25,0,0,1,1.68-2.23,14.77,14.77,0,0,1,2-2S910.27,495.87,908.79,496.69Z" transform="translate(-383 -218.41)"/><path class="cls-21" d="M909.8,495c.56-1,1.09-1.8,1.6-2.54a26.25,26.25,0,0,1,1.68-2.23c.22-.26.42-.5.63-.71,0,0-2.2,4-3.9,5.48Z" transform="translate(-383 -218.41)"/></g><path class="cls-25" d="M889.23,471.86A8.6,8.6,0,0,1,897,467.1a.39.39,0,0,1,.36.51c-.57,1.63-2.76,6.66-7.88,4.8A.4.4,0,0,1,889.23,471.86Z" transform="translate(-383 -218.41)"/><circle class="cls-26" cx="494.5" cy="279.2" r="1.07"/><line class="cls-27" x1="511.29" y1="262.08" x2="521.26" y2="268.13"/><line class="cls-28" x1="507.49" y1="269.01" x2="509.56" y2="262.98"/><line class="cls-29" x1="501.39" y1="269.01" x2="505.04" y2="269.83"/><line class="cls-30" x1="497.98" y1="270.49" x2="494.82" y2="278.28"/><line class="cls-31" x1="493.59" y1="278.65" x2="486.57" y2="271.08"/><circle class="cls-32" cx="499.24" cy="268.74" r="2.17"/><circle class="cls-33" cx="506.52" cy="270.18" r="1.53"/><circle class="cls-34" cx="510.12" cy="261.82" r="1.2"/><circle class="cls-35" cx="522.6" cy="269.03" r="2.15"/><circle class="cls-36" cx="485.06" cy="269.55" r="2.15"/><path class="cls-37" d="M902.26,463.9c-2.41,1.58-17.63,11.43-20.32,10.34a6,6,0,0,0-1-.32,15.41,15.41,0,0,0-15.34,6.2l-.39.55c-.23.36-.46.73-.68,1.12l-.34.59c-.55,1-1.08,1.8-1.59,2.54a26.25,26.25,0,0,1-1.68,2.23c-.22.26-.43.49-.63.71a13.77,13.77,0,0,1-1.36,1.28,7.19,7.19,0,0,1-1.16.77.6.6,0,0,1-.87-.41h0a.7.7,0,0,1,0-.37c.08-.18.17-.37.26-.59s.1-.22.16-.33.1-.23.15-.35h0c.25-.53.54-1.14.88-1.83.06-.13.12-.25.19-.38s.12-.25.19-.38c.29-.59.62-1.22,1-1.9l0,0c1.52-2.9,3.65-6.63,6.49-11,2.27-3.52,6.68-5.68,11.67-7a53.54,53.54,0,0,1,6-1.16h.06a84,84,0,0,1,8.72-.68h0c1.87-.06,3.59,0,5.06,0h.49l.58,0c1.48,0,2.61.12,3.23.17h0Z" transform="translate(-383 -218.41)"/><path class="cls-38" d="M877.9,465.3c6.88-1.79,14.84-2,19.83-1.85h.37l-11.21,8C893.72,463.62,884.68,464.11,877.9,465.3Z" transform="translate(-383 -218.41)"/><path class="cls-39" d="M898.8,463.48l-5.16,1.68-.72-.62c-3.37-1-8.37-.48-9-.41a88.68,88.68,0,0,1,13.79-.68h.37Z" transform="translate(-383 -218.41)"/><path class="cls-40" d="M898.22,463.46l-1.13.92c-.87-.65-4.22-.91-4.42-.92,1.87-.06,3.59,0,5.06,0h.49Z" transform="translate(-383 -218.41)"/><path class="cls-41" d="M902.34,464.56A21.87,21.87,0,0,1,899,471a18.32,18.32,0,0,1-11.9,6.93l-8.38,1.22-.52.08-.55.08-2.73.4-.57.08-.4.06h-.18a1,1,0,0,1-1-1c0-.58.35-1.34,1.57-2.13,2.66-1.72,7.59-1.57,11.41-7,3.57-5.08,11.45-6.85,15.94-6.13A.82.82,0,0,1,902.34,464.56Z" transform="translate(-383 -218.41)"/><path class="cls-7" d="M885.93,473.42c1.17-2.12,5.42-8.56,13.89-8.59a.65.65,0,0,1,.61.88c-1.06,2.86-5.15,11.69-14.14,8.65A.66.66,0,0,1,885.93,473.42Z" transform="translate(-383 -218.41)"/><path class="cls-38" d="M887.57,472.66c.89-1.7,4.14-6.82,10.85-6.68a.55.55,0,0,1,.5.72c-.8,2.28-3.87,9.34-11,6.72A.56.56,0,0,1,887.57,472.66Z" transform="translate(-383 -218.41)"/><path class="cls-42" d="M878.81,479l-.11.12-.52.08-.55.08-2.73.4-.57.08-.4.06h-.18l0,0a.2.2,0,0,1,0-.31,5,5,0,0,1,5-.82A.2.2,0,0,1,878.81,479Z" transform="translate(-383 -218.41)"/><path class="cls-43" d="M878.26,479.1l-.08.09-.55.08-2.73.4-.57.08s0,0,0,0a.17.17,0,0,1,0-.25,3.74,3.74,0,0,1,3.91-.63A.17.17,0,0,1,878.26,479.1Z" transform="translate(-383 -218.41)"/><path class="cls-38" d="M877.7,479.2l-.07.07-2.73.4,0,0a.11.11,0,0,1,0-.18,2.66,2.66,0,0,1,2.79-.45A.12.12,0,0,1,877.7,479.2Z" transform="translate(-383 -218.41)"/><path class="cls-38" d="M865.57,480.12l-.39.55c-.23.36-.46.73-.68,1.12-.68,1.2-1.32,2.24-1.93,3.13a26.25,26.25,0,0,1-1.68,2.23,14.77,14.77,0,0,1-2,2,7.19,7.19,0,0,1-1.16.77.6.6,0,0,1-.87-.41c0,.05.42.56,1.71-.67S863.93,480.28,865.57,480.12Z" transform="translate(-383 -218.41)"/><path class="cls-39" d="M865.18,480.67c-.23.36-.46.73-.68,1.12-.68,1.2-1.32,2.24-1.93,3.13a26.25,26.25,0,0,1-1.68,2.23,14.77,14.77,0,0,1-2,2S863.7,481.5,865.18,480.67Z" transform="translate(-383 -218.41)"/><path class="cls-40" d="M864.16,482.38c-.55,1-1.08,1.8-1.59,2.54a26.25,26.25,0,0,1-1.68,2.23c-.22.26-.43.49-.63.71,0,0,2.2-4,3.9-5.48Z" transform="translate(-383 -218.41)"/><path class="cls-44" d="M871.49,511.65c2.42-1.58,17.64-11.43,20.32-10.34a6.45,6.45,0,0,0,1,.32,15.41,15.41,0,0,0,15.34-6.2c.13-.18.26-.36.38-.55.24-.36.47-.73.68-1.11l.34-.6c.56-.95,1.09-1.8,1.6-2.53a26,26,0,0,1,1.68-2.24c.21-.25.42-.49.63-.71a12.74,12.74,0,0,1,1.36-1.28,7.19,7.19,0,0,1,1.16-.77.6.6,0,0,1,.86.41h0a.54.54,0,0,1,0,.37c-.07.18-.16.38-.26.59s-.09.22-.15.34l-.16.34h0q-.36.8-.87,1.83l-.19.39c-.07.12-.13.25-.19.37-.3.59-.62,1.22-1,1.9l0,0c-1.53,2.9-3.65,6.63-6.49,11.05-2.27,3.52-6.68,5.68-11.68,7a53.36,53.36,0,0,1-6,1.16h-.07a81,81,0,0,1-8.71.68h0c-1.88,0-3.6,0-5.06,0h-.49l-.59,0c-1.48-.05-2.6-.12-3.22-.16h0Z" transform="translate(-383 -218.41)"/><path class="cls-38" d="M895.85,510.25C889,512,881,512.22,876,512.1h-.37l11.2-8C880,511.93,889.07,511.44,895.85,510.25Z" transform="translate(-383 -218.41)"/><path class="cls-39" d="M875,512.07l5.17-1.68.72.62c3.37,1,8.36.48,9,.41a88.56,88.56,0,0,1-13.78.68h-.37Z" transform="translate(-383 -218.41)"/><path class="cls-40" d="M875.54,512.09l1.12-.92c.88.65,4.22.91,4.43.93-1.88,0-3.6,0-5.06,0h-.49Z" transform="translate(-383 -218.41)"/><path class="cls-41" d="M871.42,511a22,22,0,0,1,3.36-6.4,18.3,18.3,0,0,1,11.9-6.93l8.38-1.22.52-.08.54-.08,2.74-.4.57-.08.39-.06H900a1,1,0,0,1,1,1c0,.58-.35,1.34-1.58,2.13-2.66,1.73-7.58,1.57-11.41,7-3.56,5.09-11.44,6.85-15.93,6.13A.82.82,0,0,1,871.42,511Z" transform="translate(-383 -218.41)"/><path class="cls-7" d="M887.83,502.13c-1.17,2.12-5.43,8.56-13.9,8.59a.65.65,0,0,1-.61-.88c1.07-2.86,5.15-11.69,14.14-8.64A.65.65,0,0,1,887.83,502.13Z" transform="translate(-383 -218.41)"/><path class="cls-38" d="M886.19,502.9c-.89,1.69-4.14,6.81-10.85,6.68a.55.55,0,0,1-.5-.72c.79-2.29,3.87-9.34,11-6.72A.55.55,0,0,1,886.19,502.9Z" transform="translate(-383 -218.41)"/><path class="cls-42" d="M894.94,496.56l.12-.12.52-.08.54-.08,2.74-.4.57-.08.39-.06H900l0,0a.21.21,0,0,1,0,.32,5,5,0,0,1-5,.81A.2.2,0,0,1,894.94,496.56Z" transform="translate(-383 -218.41)"/><path class="cls-43" d="M895.5,496.46l.08-.1.54-.08,2.74-.4.57-.08,0,0a.17.17,0,0,1,0,.25,3.73,3.73,0,0,1-3.91.63A.16.16,0,0,1,895.5,496.46Z" transform="translate(-383 -218.41)"/><path class="cls-38" d="M896.06,496.36l.06-.08,2.74-.4,0,0a.14.14,0,0,1,0,.19,2.68,2.68,0,0,1-2.79.44A.12.12,0,0,1,896.06,496.36Z" transform="translate(-383 -218.41)"/><path class="cls-38" d="M908.19,495.43c.13-.18.26-.36.38-.55.24-.36.47-.73.68-1.11.69-1.21,1.33-2.25,1.94-3.13a26,26,0,0,1,1.68-2.24,14.21,14.21,0,0,1,2-2,7.19,7.19,0,0,1,1.16-.77.6.6,0,0,1,.86.41s-.41-.56-1.7.67S909.83,495.28,908.19,495.43Z" transform="translate(-383 -218.41)"/><path class="cls-39" d="M908.57,494.88c.24-.36.47-.73.68-1.11.69-1.21,1.33-2.25,1.94-3.13a26,26,0,0,1,1.68-2.24,14.21,14.21,0,0,1,2-2S910.05,494.05,908.57,494.88Z" transform="translate(-383 -218.41)"/><path class="cls-40" d="M909.59,493.17c.56-.95,1.09-1.8,1.6-2.53a26,26,0,0,1,1.68-2.24c.21-.25.42-.49.63-.71,0,0-2.2,4-3.9,5.48Z" transform="translate(-383 -218.41)"/></svg>