<svg id="Layer_1" data-name="Layer 1" xmlns="http://www.w3.org/2000/svg" xmlns:xlink="http://www.w3.org/1999/xlink" viewBox="0 0 500 500"><defs><style>.cls-1{fill:#dcedff;}.cls-2{fill:url(#linear-gradient);}.cls-3{fill:url(#linear-gradient-2);}.cls-4{fill:url(#linear-gradient-3);}.cls-5{fill:url(#linear-gradient-4);}.cls-6{fill:url(#linear-gradient-5);}.cls-7{fill:url(#linear-gradient-6);}.cls-8{fill:url(#linear-gradient-7);}</style><linearGradient id="linear-gradient" x1="323.57" y1="257.5" x2="147.82" y2="384.21" gradientUnits="userSpaceOnUse"><stop offset="0.01" stop-color="#f7931e"/><stop offset="0.57" stop-color="#faa732"/><stop offset="1" stop-color="#fbb03b"/></linearGradient><linearGradient id="linear-gradient-2" x1="240.07" y1="211.13" x2="104.97" y2="308.53" xlink:href="#linear-gradient"/><linearGradient id="linear-gradient-3" x1="264.01" y1="261.37" x2="128.92" y2="358.76" xlink:href="#linear-gradient"/><linearGradient id="linear-gradient-4" x1="216.12" y1="160.9" x2="81.03" y2="258.29" xlink:href="#linear-gradient"/><linearGradient id="linear-gradient-5" x1="354.72" y1="302.54" x2="178.97" y2="429.24" xlink:href="#linear-gradient"/><linearGradient id="linear-gradient-6" x1="697.45" y1="346.46" x2="521.7" y2="473.17" xlink:href="#linear-gradient"/><linearGradient id="linear-gradient-7" x1="639.56" y1="267.13" x2="463.81" y2="393.83" xlink:href="#linear-gradient"/></defs><title>Categories Icon</title><circle class="cls-1" cx="250" cy="250" r="250"/><rect class="cls-2" x="183.31" y="258.79" width="207.68" height="49.92" rx="6.75" ry="6.75"/><rect class="cls-3" x="109.01" y="258.79" width="60.65" height="49.92" rx="24.96" ry="24.96"/><rect class="cls-4" x="109.01" y="326.29" width="60.65" height="49.92" rx="24.96" ry="24.96"/><rect class="cls-5" x="109.01" y="191.3" width="60.65" height="49.92" rx="24.96" ry="24.96"/><rect class="cls-6" x="183.31" y="326.29" width="207.68" height="49.92" rx="6.75" ry="6.75"/><path class="cls-7" d="M796,364V332a6.75,6.75,0,0,0-6.75-6.75H595.1a6.75,6.75,0,0,0-6.75,6.75v36.43a6.76,6.76,0,0,0,6.75,6.76H789.27a6.76,6.76,0,0,0,6.75-6.76V364Z" transform="translate(-405.04 -134)"/><path class="cls-8" d="M721.72,296.52v-32a6.75,6.75,0,0,0-6.75-6.75H520.8a6.75,6.75,0,0,0-6.75,6.75V301a6.75,6.75,0,0,0,6.75,6.75H715a6.76,6.76,0,0,0,6.76-6.75v-4.45Z" transform="translate(-405.04 -134)"/></svg>