<svg id="Layer_1" data-name="Layer 1" xmlns="http://www.w3.org/2000/svg" xmlns:xlink="http://www.w3.org/1999/xlink" viewBox="0 0 500 500"><defs><style>.cls-1{fill:#dcedff;}.cls-2{fill:url(#linear-gradient);}</style><linearGradient id="linear-gradient" x1="568.77" y1="307.86" x2="865.53" y2="307.86" gradientUnits="userSpaceOnUse"><stop offset="0.01" stop-color="#f7931e"/><stop offset="0.57" stop-color="#faa732"/><stop offset="1" stop-color="#fbb03b"/></linearGradient></defs><title>Emotions and Sentiment Icon</title><circle class="cls-1" cx="250" cy="250" r="250"/><path class="cls-2" d="M684.34,163c-68,14.55-115.57,76.11-115.57,145.61v3.07a212.05,212.05,0,0,0,25.92,101.6l23.45,43V418.35c39.21,35.17,97.22,49.8,157.15,26.82a138.09,138.09,0,0,0,79.41-79.8C899.11,248.15,799.89,138.26,684.34,163Zm-23,91.61a23.15,23.15,0,1,1-23.15,23.15A23.15,23.15,0,0,1,661.39,254.61ZM794,353c-42.79,52-110.86,52-153.65,0-6.74-8.2,4.48-20.27,11.26-12,37.38,45.39,93.76,45.39,131.13,0C789.5,332.77,800.72,344.85,794,353ZM772.9,300.91a23.15,23.15,0,1,1,23.15-23.15A23.15,23.15,0,0,1,772.9,300.91Z" transform="translate(-467.15 -57.86)"/></svg>