<svg id="Layer_1" data-name="Layer 1" xmlns="http://www.w3.org/2000/svg" viewBox="0 0 194.54 163.45"><defs><style>.cls-1{fill:#b3b3b3;}</style></defs><title>Entities Icon Gray</title><polygon class="cls-1" points="72.89 55.37 45.78 55.37 16.75 26.44 22.67 20.55 49.25 47.03 72.89 47.03 72.89 55.37"/><rect class="cls-1" x="568.35" y="411.71" width="5.94" height="22.12" transform="translate(-554.9 12.18) rotate(-29.61)"/><path class="cls-1" d="M585.4,486.58a29.66,29.66,0,1,1,29.75-29.66A29.74,29.74,0,0,1,585.4,486.58Zm0-52a22.32,22.32,0,1,0,22.42,22.32A22.39,22.39,0,0,0,585.4,434.6Z" transform="translate(-420.61 -325.37)"/><ellipse class="cls-1" cx="164.79" cy="123.19" rx="7.91" ry="7.88"/><path class="cls-1" d="M594.85,473.15H576v-7.82a8.89,8.89,0,0,1,8.89-8.89H586a8.89,8.89,0,0,1,8.88,8.89Z" transform="translate(-420.61 -325.37)"/><path class="cls-1" d="M462.26,488.82a41.52,41.52,0,1,1,41.66-41.51A41.63,41.63,0,0,1,462.26,488.82Zm0-74.22a32.71,32.71,0,1,0,32.85,32.71A32.81,32.81,0,0,0,462.26,414.6Z" transform="translate(-420.61 -325.37)"/><ellipse class="cls-1" cx="41.65" cy="110.01" rx="11.29" ry="11.25"/><path class="cls-1" d="M475.76,470.49h-27V459.32a12.69,12.69,0,0,1,12.69-12.69h1.61a12.69,12.69,0,0,1,12.69,12.69Z" transform="translate(-420.61 -325.37)"/><path class="cls-1" d="M539,427.77a51.2,51.2,0,1,1,51.37-51.2A51.35,51.35,0,0,1,539,427.77Zm0-90.66a39.46,39.46,0,1,0,39.62,39.46A39.58,39.58,0,0,0,539,337.11Z" transform="translate(-420.61 -325.37)"/><ellipse class="cls-1" cx="118.39" cy="36.11" rx="14.28" ry="14.23"/><path class="cls-1" d="M556.07,405.89H521.93V391.76A16.06,16.06,0,0,1,538,375.71h2a16.06,16.06,0,0,1,16.05,16.05Z" transform="translate(-420.61 -325.37)"/><rect class="cls-1" x="485.16" y="410.18" width="21.9" height="5.95" transform="translate(-569.82 107.35) rotate(-41.52)"/><ellipse class="cls-1" cx="21.64" cy="25.56" rx="12.44" ry="12.39"/></svg>