<svg id="Layer_1" data-name="Layer 1" xmlns="http://www.w3.org/2000/svg" xmlns:xlink="http://www.w3.org/1999/xlink" viewBox="0 0 500 500"><defs><style>.cls-1{fill:#dcedff;}.cls-2{fill:url(#linear-gradient);}.cls-13,.cls-3{fill:none;stroke-width:9.91px;}.cls-10,.cls-13,.cls-3,.cls-4,.cls-7{stroke-miterlimit:10;}.cls-3{stroke:url(#linear-gradient-2);}.cls-10,.cls-4,.cls-7{fill:#f2f2f2;}.cls-4{stroke-width:12.23px;stroke:url(#linear-gradient-3);}.cls-5{fill:url(#linear-gradient-4);}.cls-6{fill:url(#linear-gradient-5);}.cls-7{stroke-width:14.68px;stroke:url(#linear-gradient-6);}.cls-8{fill:url(#linear-gradient-7);}.cls-9{fill:url(#linear-gradient-8);}.cls-10{stroke-width:19.57px;stroke:url(#linear-gradient-9);}.cls-11{fill:url(#linear-gradient-10);}.cls-12{fill:url(#linear-gradient-11);}.cls-13{stroke:url(#linear-gradient-12);}.cls-14{fill:url(#linear-gradient-13);}</style><linearGradient id="linear-gradient" x1="115.8" y1="177.05" x2="209.37" y2="177.05" gradientUnits="userSpaceOnUse"><stop offset="0.01" stop-color="#f7931e"/><stop offset="0.57" stop-color="#faa732"/><stop offset="1" stop-color="#fbb03b"/></linearGradient><linearGradient id="linear-gradient-2" x1="344.16" y1="260.96" x2="333.99" y2="291.28" xlink:href="#linear-gradient"/><linearGradient id="linear-gradient-3" x1="312.94" y1="333.03" x2="412.12" y2="333.03" xlink:href="#linear-gradient"/><linearGradient id="linear-gradient-4" x1="349.35" y1="319.11" x2="375.71" y2="319.11" xlink:href="#linear-gradient"/><linearGradient id="linear-gradient-5" x1="346.78" y1="346.16" x2="378.28" y2="346.16" xlink:href="#linear-gradient"/><linearGradient id="linear-gradient-6" x1="87.88" y1="317.02" x2="226.72" y2="317.02" xlink:href="#linear-gradient"/><linearGradient id="linear-gradient-7" x1="138.48" y1="297.13" x2="176.12" y2="297.13" xlink:href="#linear-gradient"/><linearGradient id="linear-gradient-8" x1="134.81" y1="335.77" x2="179.79" y2="335.77" xlink:href="#linear-gradient"/><linearGradient id="linear-gradient-9" x1="199.59" y1="199.12" x2="370.8" y2="199.12" xlink:href="#linear-gradient"/><linearGradient id="linear-gradient-10" x1="289.93" y1="159.87" x2="252.19" y2="272.35" xlink:href="#linear-gradient"/><linearGradient id="linear-gradient-11" x1="308.05" y1="165.9" x2="270.29" y2="278.44" xlink:href="#linear-gradient"/><linearGradient id="linear-gradient-12" x1="219.53" y1="242.75" x2="207.9" y2="277.43" xlink:href="#linear-gradient"/><linearGradient id="linear-gradient-13" x1="103.22" y1="156.39" x2="144.69" y2="156.39" xlink:href="#linear-gradient"/></defs><title>Entity Icon</title><circle class="cls-1" cx="250" cy="250" r="250"/><polygon class="cls-2" points="209.37 206.07 164.18 206.07 115.8 157.86 125.66 148.04 169.96 192.17 209.37 192.17 209.37 206.07"/><line class="cls-3" x1="329.96" y1="260.09" x2="348.18" y2="292.15"/><ellipse class="cls-4" cx="362.53" cy="333.03" rx="43.47" ry="43.31"/><ellipse class="cls-5" cx="362.53" cy="319.11" rx="13.18" ry="13.13"/><path class="cls-6" d="M361.59,332.24h1.88A14.81,14.81,0,0,1,378.28,347v13a0,0,0,0,1,0,0H346.78a0,0,0,0,1,0,0V347A14.81,14.81,0,0,1,361.59,332.24Z"/><ellipse class="cls-7" cx="157.3" cy="317.02" rx="62.08" ry="61.85"/><ellipse class="cls-8" cx="157.3" cy="297.13" rx="18.82" ry="18.75"/><path class="cls-9" d="M156,315.89h2.69A21.14,21.14,0,0,1,179.79,337v18.62a0,0,0,0,1,0,0h-45a0,0,0,0,1,0,0V337A21.14,21.14,0,0,1,156,315.89Z"/><ellipse class="cls-10" cx="285.19" cy="199.12" rx="75.82" ry="75.55"/><ellipse class="cls-11" cx="285.19" cy="173.97" rx="23.81" ry="23.72"/><path class="cls-12" d="M283.5,197.69h3.4a26.75,26.75,0,0,1,26.75,26.75V248a0,0,0,0,1,0,0h-56.9a0,0,0,0,1,0,0V224.44A26.75,26.75,0,0,1,283.5,197.69Z"/><line class="cls-13" x1="227.38" y1="247.99" x2="200.05" y2="272.19"/><ellipse class="cls-14" cx="123.96" cy="156.39" rx="20.73" ry="20.66"/></svg>