<svg id="Layer_1" data-name="Layer 1" xmlns="http://www.w3.org/2000/svg" viewBox="0 0 197.57 200.24"><defs><style>.cls-1{fill:#b3b3b3;}.cls-2{fill:#f2f2f2;}.cls-3{fill:none;stroke:#000;stroke-miterlimit:10;stroke-width:1.06px;}.cls-4{opacity:0.3;}</style></defs><title>Keywords Icon Gray</title><path class="cls-1" d="M271.78,462.19,187.69,378.1l-19.26,19.25,48,48L207.74,454a4.44,4.44,0,1,0,6.28,6.28l8.64-8.65,5,5L219,465.25a4.44,4.44,0,0,0,0,6.27h0a4.43,4.43,0,0,0,6.28,0l8.64-8.64,5,5-8.64,8.64a4.44,4.44,0,0,0,6.27,6.28l8.65-8.64,7.27,7.27Z" transform="translate(-74.22 -283.88)"/><circle class="cls-1" cx="65.29" cy="65.29" r="65.29"/><circle class="cls-2" cx="65.29" cy="65.29" r="46.05"/><path class="cls-3" d="M176.15,349.17" transform="translate(-74.22 -283.88)"/><g class="cls-4"><path class="cls-1" d="M176.63,332.7A41.06,41.06,0,0,0,124,311.64c-4.71,1.88-2.66,9.61,2.12,7.7,17.36-6.95,35.82.37,43.62,17.39,2.14,4.67,9,.61,6.9-4Z" transform="translate(-74.22 -283.88)"/></g><path class="cls-1" d="M161.74,335.49a3.27,3.27,0,0,1,1.12,2.54,4.56,4.56,0,0,1-.16,1.09L152,370.77a3,3,0,0,1-1.15,1.48,3.64,3.64,0,0,1-1.8.6,3.39,3.39,0,0,1-1.86-.55,3.65,3.65,0,0,1-1.36-1.58L138,353.09l-7.8,17.63a3.67,3.67,0,0,1-1.37,1.58,3.38,3.38,0,0,1-1.85.55,3.65,3.65,0,0,1-1.81-.6,2.94,2.94,0,0,1-1.14-1.48l-10.75-31.65a4.15,4.15,0,0,1-.17-1.09,3.31,3.31,0,0,1,1.12-2.54,3.66,3.66,0,0,1,2.49-1,3.52,3.52,0,0,1,2,.58,2.93,2.93,0,0,1,1.2,1.55L128,361.28l7.1-17a3.7,3.7,0,0,1,1.25-1.55,2.84,2.84,0,0,1,1.86-.52,2.72,2.72,0,0,1,1.83.52,3.79,3.79,0,0,1,1.22,1.55L148,361.11l8.07-24.5a2.89,2.89,0,0,1,1.23-1.55,3.64,3.64,0,0,1,2-.58A3.59,3.59,0,0,1,161.74,335.49Z" transform="translate(-74.22 -283.88)"/></svg>