<svg id="Layer_1" data-name="Layer 1" xmlns="http://www.w3.org/2000/svg" xmlns:xlink="http://www.w3.org/1999/xlink" viewBox="0 0 500 500"><defs><style>.cls-1{fill:#dcedff;}.cls-2{fill:url(#linear-gradient);}.cls-3{fill:url(#linear-gradient-2);}.cls-4{fill:#f2f2f2;}.cls-5{fill:none;stroke:#000;stroke-miterlimit:10;stroke-width:1.77px;}.cls-6{opacity:0.3;}.cls-7{fill:url(#linear-gradient-3);}.cls-8{fill:url(#linear-gradient-4);}</style><linearGradient id="linear-gradient" x1="605.21" y1="370.17" x2="647.29" y2="413.5" gradientUnits="userSpaceOnUse"><stop offset="0.01" stop-color="#f7931e"/><stop offset="0.57" stop-color="#faa732"/><stop offset="1" stop-color="#fbb03b"/></linearGradient><linearGradient id="linear-gradient-2" x1="85.36" y1="191.94" x2="302.98" y2="191.94" xlink:href="#linear-gradient"/><linearGradient id="linear-gradient-3" x1="497.11" y1="233.01" x2="589.96" y2="233.01" xlink:href="#linear-gradient"/><linearGradient id="linear-gradient-4" x1="575.58" y1="253.53" x2="431.57" y2="324.77" xlink:href="#linear-gradient"/></defs><title>Keywords Icon</title><circle class="cls-1" cx="250" cy="250" r="250"/><path class="cls-2" d="M747.88,463.76,607.72,323.6l-32.09,32.1,79.92,79.93L641.15,450a7.4,7.4,0,0,0,10.46,10.46L666,446.08l8.37,8.37L660,468.86a7.41,7.41,0,0,0,0,10.46h0a7.4,7.4,0,0,0,10.45,0l14.41-14.41,8.37,8.37-14.41,14.4a7.4,7.4,0,0,0,10.46,10.46l14.41-14.4,12.11,12.12Z" transform="translate(-333.24 -83.44)"/><circle class="cls-3" cx="194.17" cy="191.94" r="108.81"/><circle class="cls-4" cx="194.17" cy="191.94" r="76.75"/><path class="cls-5" d="M588.49,275.39" transform="translate(-333.24 -83.44)"/><g class="cls-6"><path class="cls-7" d="M589.29,247.94a68.44,68.44,0,0,0-87.73-35.1c-7.86,3.14-4.43,16,3.54,12.84,28.93-11.59,59.69.62,72.69,29,3.57,7.78,15.05,1,11.5-6.72Z" transform="translate(-333.24 -83.44)"/></g><path class="cls-8" d="M564.47,252.6a5.43,5.43,0,0,1,1.87,4.23,7.1,7.1,0,0,1-.27,1.82L548.15,311.4a4.8,4.8,0,0,1-1.91,2.46,6,6,0,0,1-3,1,5.76,5.76,0,0,1-3.09-.91,6.1,6.1,0,0,1-2.28-2.64L525,281.93l-13,29.38a6.21,6.21,0,0,1-2.27,2.64,5.8,5.8,0,0,1-3.1.91,6,6,0,0,1-3-1,4.85,4.85,0,0,1-1.91-2.46l-17.92-52.75a7.1,7.1,0,0,1-.27-1.82,5.43,5.43,0,0,1,1.87-4.23,6,6,0,0,1,4.13-1.68,5.89,5.89,0,0,1,3.28,1,4.85,4.85,0,0,1,2,2.59l13.55,41.11,11.83-28.37a6.12,6.12,0,0,1,2.09-2.6,4.84,4.84,0,0,1,3.09-.86,4.68,4.68,0,0,1,3,.86,6.25,6.25,0,0,1,2,2.6l11.19,28.1,13.46-40.84a4.85,4.85,0,0,1,2.05-2.59,6.09,6.09,0,0,1,3.32-1A5.92,5.92,0,0,1,564.47,252.6Z" transform="translate(-333.24 -83.44)"/></svg>