<svg id="el_DZ3hL9HJa" data-name="Layer 1" xmlns="http://www.w3.org/2000/svg" xmlns:xlink="http://www.w3.org/1999/xlink" viewBox="0 0 685 655"><style>@-webkit-keyframes kf_el_xd0fDK5mNZ_an_AtocLE2QU{0%{-webkit-transform: translate(459.489990234375px, 135.13000106811523px) scale(1, 1) translate(-459.489990234375px, -135.13000106811523px);transform: translate(459.489990234375px, 135.13000106811523px) scale(1, 1) translate(-459.489990234375px, -135.13000106811523px);}5.88%{-webkit-transform: translate(459.489990234375px, 135.13000106811523px) scale(0.9, 0.9) translate(-459.489990234375px, -135.13000106811523px);transform: translate(459.489990234375px, 135.13000106811523px) scale(0.9, 0.9) translate(-459.489990234375px, -135.13000106811523px);}11.76%{-webkit-transform: translate(459.489990234375px, 135.13000106811523px) scale(1, 1) translate(-459.489990234375px, -135.13000106811523px);transform: translate(459.489990234375px, 135.13000106811523px) scale(1, 1) translate(-459.489990234375px, -135.13000106811523px);}17.65%{-webkit-transform: translate(459.489990234375px, 135.13000106811523px) scale(0.9, 0.9) translate(-459.489990234375px, -135.13000106811523px);transform: translate(459.489990234375px, 135.13000106811523px) scale(0.9, 0.9) translate(-459.489990234375px, -135.13000106811523px);}23.53%{-webkit-transform: translate(459.489990234375px, 135.13000106811523px) scale(1, 1) translate(-459.489990234375px, -135.13000106811523px);transform: translate(459.489990234375px, 135.13000106811523px) scale(1, 1) translate(-459.489990234375px, -135.13000106811523px);}29.41%{-webkit-transform: translate(459.489990234375px, 135.13000106811523px) scale(0.9, 0.9) translate(-459.489990234375px, -135.13000106811523px);transform: translate(459.489990234375px, 135.13000106811523px) scale(0.9, 0.9) translate(-459.489990234375px, -135.13000106811523px);}35.29%{-webkit-transform: translate(459.489990234375px, 135.13000106811523px) scale(0.5, 0.5) translate(-459.489990234375px, -135.13000106811523px);transform: translate(459.489990234375px, 135.13000106811523px) scale(0.5, 0.5) translate(-459.489990234375px, -135.13000106811523px);}41.18%{-webkit-transform: translate(459.489990234375px, 135.13000106811523px) scale(0, 0) translate(-459.489990234375px, -135.13000106811523px);transform: translate(459.489990234375px, 135.13000106811523px) scale(0, 0) translate(-459.489990234375px, -135.13000106811523px);}45.10%{-webkit-transform: translate(459.489990234375px, 135.13000106811523px) scale(0, 0) translate(-459.489990234375px, -135.13000106811523px);transform: translate(459.489990234375px, 135.13000106811523px) scale(0, 0) translate(-459.489990234375px, -135.13000106811523px);}50.98%{-webkit-transform: translate(459.489990234375px, 135.13000106811523px) scale(0, 0) translate(-459.489990234375px, -135.13000106811523px);transform: translate(459.489990234375px, 135.13000106811523px) scale(0, 0) translate(-459.489990234375px, -135.13000106811523px);}56.86%{-webkit-transform: translate(459.489990234375px, 135.13000106811523px) scale(0, 0) translate(-459.489990234375px, -135.13000106811523px);transform: translate(459.489990234375px, 135.13000106811523px) scale(0, 0) translate(-459.489990234375px, -135.13000106811523px);}62.75%{-webkit-transform: translate(459.489990234375px, 135.13000106811523px) scale(0, 0) translate(-459.489990234375px, -135.13000106811523px);transform: translate(459.489990234375px, 135.13000106811523px) scale(0, 0) translate(-459.489990234375px, -135.13000106811523px);}68.63%{-webkit-transform: translate(459.489990234375px, 135.13000106811523px) scale(0, 0) translate(-459.489990234375px, -135.13000106811523px);transform: translate(459.489990234375px, 135.13000106811523px) scale(0, 0) translate(-459.489990234375px, -135.13000106811523px);}71.76%{-webkit-transform: translate(459.489990234375px, 135.13000106811523px) scale(0, 0) translate(-459.489990234375px, -135.13000106811523px);transform: translate(459.489990234375px, 135.13000106811523px) scale(0, 0) translate(-459.489990234375px, -135.13000106811523px);}74.90%{-webkit-transform: translate(459.489990234375px, 135.13000106811523px) scale(0, 0) translate(-459.489990234375px, -135.13000106811523px);transform: translate(459.489990234375px, 135.13000106811523px) scale(0, 0) translate(-459.489990234375px, -135.13000106811523px);}80.78%{-webkit-transform: translate(459.489990234375px, 135.13000106811523px) scale(0, 0) translate(-459.489990234375px, -135.13000106811523px);transform: translate(459.489990234375px, 135.13000106811523px) scale(0, 0) translate(-459.489990234375px, -135.13000106811523px);}86.67%{-webkit-transform: translate(459.489990234375px, 135.13000106811523px) scale(0, 0) translate(-459.489990234375px, -135.13000106811523px);transform: translate(459.489990234375px, 135.13000106811523px) scale(0, 0) translate(-459.489990234375px, -135.13000106811523px);}92.55%{-webkit-transform: translate(459.489990234375px, 135.13000106811523px) scale(0, 0) translate(-459.489990234375px, -135.13000106811523px);transform: translate(459.489990234375px, 135.13000106811523px) scale(0, 0) translate(-459.489990234375px, -135.13000106811523px);}100%{-webkit-transform: translate(459.489990234375px, 135.13000106811523px) scale(0.9, 0.9) translate(-459.489990234375px, -135.13000106811523px);transform: translate(459.489990234375px, 135.13000106811523px) scale(0.9, 0.9) translate(-459.489990234375px, -135.13000106811523px);}}@keyframes kf_el_xd0fDK5mNZ_an_AtocLE2QU{0%{-webkit-transform: translate(459.489990234375px, 135.13000106811523px) scale(1, 1) translate(-459.489990234375px, -135.13000106811523px);transform: translate(459.489990234375px, 135.13000106811523px) scale(1, 1) translate(-459.489990234375px, -135.13000106811523px);}5.88%{-webkit-transform: translate(459.489990234375px, 135.13000106811523px) scale(0.9, 0.9) translate(-459.489990234375px, -135.13000106811523px);transform: translate(459.489990234375px, 135.13000106811523px) scale(0.9, 0.9) translate(-459.489990234375px, -135.13000106811523px);}11.76%{-webkit-transform: translate(459.489990234375px, 135.13000106811523px) scale(1, 1) translate(-459.489990234375px, -135.13000106811523px);transform: translate(459.489990234375px, 135.13000106811523px) scale(1, 1) translate(-459.489990234375px, -135.13000106811523px);}17.65%{-webkit-transform: translate(459.489990234375px, 135.13000106811523px) scale(0.9, 0.9) translate(-459.489990234375px, -135.13000106811523px);transform: translate(459.489990234375px, 135.13000106811523px) scale(0.9, 0.9) translate(-459.489990234375px, -135.13000106811523px);}23.53%{-webkit-transform: translate(459.489990234375px, 135.13000106811523px) scale(1, 1) translate(-459.489990234375px, -135.13000106811523px);transform: translate(459.489990234375px, 135.13000106811523px) scale(1, 1) translate(-459.489990234375px, -135.13000106811523px);}29.41%{-webkit-transform: translate(459.489990234375px, 135.13000106811523px) scale(0.9, 0.9) translate(-459.489990234375px, -135.13000106811523px);transform: translate(459.489990234375px, 135.13000106811523px) scale(0.9, 0.9) translate(-459.489990234375px, -135.13000106811523px);}35.29%{-webkit-transform: translate(459.489990234375px, 135.13000106811523px) scale(0.5, 0.5) translate(-459.489990234375px, -135.13000106811523px);transform: translate(459.489990234375px, 135.13000106811523px) scale(0.5, 0.5) translate(-459.489990234375px, -135.13000106811523px);}41.18%{-webkit-transform: translate(459.489990234375px, 135.13000106811523px) scale(0, 0) translate(-459.489990234375px, -135.13000106811523px);transform: translate(459.489990234375px, 135.13000106811523px) scale(0, 0) translate(-459.489990234375px, -135.13000106811523px);}45.10%{-webkit-transform: translate(459.489990234375px, 135.13000106811523px) scale(0, 0) translate(-459.489990234375px, -135.13000106811523px);transform: translate(459.489990234375px, 135.13000106811523px) scale(0, 0) translate(-459.489990234375px, -135.13000106811523px);}50.98%{-webkit-transform: translate(459.489990234375px, 135.13000106811523px) scale(0, 0) translate(-459.489990234375px, -135.13000106811523px);transform: translate(459.489990234375px, 135.13000106811523px) scale(0, 0) translate(-459.489990234375px, -135.13000106811523px);}56.86%{-webkit-transform: translate(459.489990234375px, 135.13000106811523px) scale(0, 0) translate(-459.489990234375px, -135.13000106811523px);transform: translate(459.489990234375px, 135.13000106811523px) scale(0, 0) translate(-459.489990234375px, -135.13000106811523px);}62.75%{-webkit-transform: translate(459.489990234375px, 135.13000106811523px) scale(0, 0) translate(-459.489990234375px, -135.13000106811523px);transform: translate(459.489990234375px, 135.13000106811523px) scale(0, 0) translate(-459.489990234375px, -135.13000106811523px);}68.63%{-webkit-transform: translate(459.489990234375px, 135.13000106811523px) scale(0, 0) translate(-459.489990234375px, -135.13000106811523px);transform: translate(459.489990234375px, 135.13000106811523px) scale(0, 0) translate(-459.489990234375px, -135.13000106811523px);}71.76%{-webkit-transform: translate(459.489990234375px, 135.13000106811523px) scale(0, 0) translate(-459.489990234375px, -135.13000106811523px);transform: translate(459.489990234375px, 135.13000106811523px) scale(0, 0) translate(-459.489990234375px, -135.13000106811523px);}74.90%{-webkit-transform: translate(459.489990234375px, 135.13000106811523px) scale(0, 0) translate(-459.489990234375px, -135.13000106811523px);transform: translate(459.489990234375px, 135.13000106811523px) scale(0, 0) translate(-459.489990234375px, -135.13000106811523px);}80.78%{-webkit-transform: translate(459.489990234375px, 135.13000106811523px) scale(0, 0) translate(-459.489990234375px, -135.13000106811523px);transform: translate(459.489990234375px, 135.13000106811523px) scale(0, 0) translate(-459.489990234375px, -135.13000106811523px);}86.67%{-webkit-transform: translate(459.489990234375px, 135.13000106811523px) scale(0, 0) translate(-459.489990234375px, -135.13000106811523px);transform: translate(459.489990234375px, 135.13000106811523px) scale(0, 0) translate(-459.489990234375px, -135.13000106811523px);}92.55%{-webkit-transform: translate(459.489990234375px, 135.13000106811523px) scale(0, 0) translate(-459.489990234375px, -135.13000106811523px);transform: translate(459.489990234375px, 135.13000106811523px) scale(0, 0) translate(-459.489990234375px, -135.13000106811523px);}100%{-webkit-transform: translate(459.489990234375px, 135.13000106811523px) scale(0.9, 0.9) translate(-459.489990234375px, -135.13000106811523px);transform: translate(459.489990234375px, 135.13000106811523px) scale(0.9, 0.9) translate(-459.489990234375px, -135.13000106811523px);}}@-webkit-keyframes kf_el_yQgUIGna5Xc_an_Ychc0XLWN{0%{opacity: 1;}5.88%{opacity: 1;}11.76%{opacity: 1;}17.65%{opacity: 1;}23.53%{opacity: 1;}29.41%{opacity: 1;}35.29%{opacity: 1;}41.18%{opacity: 0;}45.10%{opacity: 0;}50.98%{opacity: 0;}56.86%{opacity: 0;}62.75%{opacity: 0;}68.63%{opacity: 0;}71.76%{opacity: 1;}74.90%{opacity: 0;}80.78%{opacity: 0;}86.67%{opacity: 0;}92.55%{opacity: 0;}100%{opacity: 1;}}@keyframes kf_el_yQgUIGna5Xc_an_Ychc0XLWN{0%{opacity: 1;}5.88%{opacity: 1;}11.76%{opacity: 1;}17.65%{opacity: 1;}23.53%{opacity: 1;}29.41%{opacity: 1;}35.29%{opacity: 1;}41.18%{opacity: 0;}45.10%{opacity: 0;}50.98%{opacity: 0;}56.86%{opacity: 0;}62.75%{opacity: 0;}68.63%{opacity: 0;}71.76%{opacity: 1;}74.90%{opacity: 0;}80.78%{opacity: 0;}86.67%{opacity: 0;}92.55%{opacity: 0;}100%{opacity: 1;}}@-webkit-keyframes kf_el_xaj8Ws-7vM7_an_3dAtBMtkM{0%{opacity: 0;}5.88%{opacity: 0;}11.76%{opacity: 0;}17.65%{opacity: 0;}23.53%{opacity: 0;}29.41%{opacity: 0;}35.29%{opacity: 0;}41.18%{opacity: 1;}45.10%{opacity: 1;}50.98%{opacity: 0;}56.86%{opacity: 0;}62.75%{opacity: 0;}68.63%{opacity: 1;}71.76%{opacity: 0;}74.90%{opacity: 1;}80.78%{opacity: 0;}86.67%{opacity: 0;}92.55%{opacity: 1;}100%{opacity: 0;}}@keyframes kf_el_xaj8Ws-7vM7_an_3dAtBMtkM{0%{opacity: 0;}5.88%{opacity: 0;}11.76%{opacity: 0;}17.65%{opacity: 0;}23.53%{opacity: 0;}29.41%{opacity: 0;}35.29%{opacity: 0;}41.18%{opacity: 1;}45.10%{opacity: 1;}50.98%{opacity: 0;}56.86%{opacity: 0;}62.75%{opacity: 0;}68.63%{opacity: 1;}71.76%{opacity: 0;}74.90%{opacity: 1;}80.78%{opacity: 0;}86.67%{opacity: 0;}92.55%{opacity: 1;}100%{opacity: 0;}}@-webkit-keyframes kf_el_0cMB0uO1pHq_an_-TWlc5d_S{0%{opacity: 0;}5.88%{opacity: 0;}11.76%{opacity: 0;}17.65%{opacity: 0;}23.53%{opacity: 0;}29.41%{opacity: 0;}35.29%{opacity: 0;}41.18%{opacity: 0;}45.10%{opacity: 0;}50.98%{opacity: 1;}56.86%{opacity: 1;}62.75%{opacity: 1;}68.63%{opacity: 0;}71.76%{opacity: 0;}74.90%{opacity: 0;}80.78%{opacity: 1;}86.67%{opacity: 1;}92.55%{opacity: 0;}100%{opacity: 0;}}@keyframes kf_el_0cMB0uO1pHq_an_-TWlc5d_S{0%{opacity: 0;}5.88%{opacity: 0;}11.76%{opacity: 0;}17.65%{opacity: 0;}23.53%{opacity: 0;}29.41%{opacity: 0;}35.29%{opacity: 0;}41.18%{opacity: 0;}45.10%{opacity: 0;}50.98%{opacity: 1;}56.86%{opacity: 1;}62.75%{opacity: 1;}68.63%{opacity: 0;}71.76%{opacity: 0;}74.90%{opacity: 0;}80.78%{opacity: 1;}86.67%{opacity: 1;}92.55%{opacity: 0;}100%{opacity: 0;}}#el_DZ3hL9HJa *{-webkit-animation-duration: 8.5s;animation-duration: 8.5s;-webkit-animation-iteration-count: infinite;animation-iteration-count: infinite;-webkit-animation-timing-function: cubic-bezier(0, 0, 1, 1);animation-timing-function: cubic-bezier(0, 0, 1, 1);}#el_VTtEIPhJGo{fill: #f7fafe;-webkit-transform: translate(-340.3px, -47.87px);transform: translate(-340.3px, -47.87px);}#el_uh9kwf7hOf{fill: #e6f3ff;}#el_DARqjsFsPY{fill: #e6f3ff;-webkit-transform: translate(-340.3px, -47.87px);transform: translate(-340.3px, -47.87px);}#el_TmuAylpU2l{fill: #e6f3ff;-webkit-transform: translate(-340.3px, -47.87px);transform: translate(-340.3px, -47.87px);}#el_8ZWuPrULTY{fill: #e6f3ff;-webkit-transform: translate(-340.3px, -47.87px);transform: translate(-340.3px, -47.87px);}#el_TOfCDFGmA0{fill: #e6f3ff;-webkit-transform: translate(-340.3px, -47.87px);transform: translate(-340.3px, -47.87px);}#el_sSb36xhmdt{fill: #e6f3ff;-webkit-transform: translate(-340.3px, -47.87px);transform: translate(-340.3px, -47.87px);}#el_oWdg7djt2F{fill: #e6f3ff;-webkit-transform: translate(-340.3px, -47.87px);transform: translate(-340.3px, -47.87px);}#el_TKfePvDsIa{fill: #e6f3ff;-webkit-transform: translate(-340.3px, -47.87px);transform: translate(-340.3px, -47.87px);}#el_pxdWNBLIv2{fill: url(#linear-gradient);-webkit-transform: translate(-340.3px, -47.87px);transform: translate(-340.3px, -47.87px);}#el_iyh4NFkUAG{fill: url(#linear-gradient-2);-webkit-transform: translate(-340.3px, -47.87px);transform: translate(-340.3px, -47.87px);}#el_jtMGo-vltg{fill: url(#linear-gradient-3);-webkit-transform: translate(-340.3px, -47.87px);transform: translate(-340.3px, -47.87px);}#el_dFjjjPSl0y5{fill: url(#linear-gradient-4);-webkit-transform: translate(-340.3px, -47.87px);transform: translate(-340.3px, -47.87px);}#el_FRkNJXHz-7h{fill: url(#linear-gradient-5);-webkit-transform: translate(-340.3px, -47.87px);transform: translate(-340.3px, -47.87px);}#el_QYSeCU5Mgrt{fill: #f2f2f2;-webkit-transform: translate(-340.3px, -47.87px);transform: translate(-340.3px, -47.87px);}#el_YTrfs4Drl5d{fill: #f2f2f2;-webkit-transform: translate(-340.3px, -47.87px);transform: translate(-340.3px, -47.87px);}#el_q4dEturPjqn{opacity: 0.2;}#el_1vKqcAu2tAQ{-webkit-transform: translate(-340.3px, -47.87px);transform: translate(-340.3px, -47.87px);}#el_QGd8c2osFZM{-webkit-transform: translate(-340.3px, -47.87px);transform: translate(-340.3px, -47.87px);}#el_PTh5QwXJfnb{fill: url(#linear-gradient-6);-webkit-transform: translate(-340.3px, -47.87px);transform: translate(-340.3px, -47.87px);}#el_4ka-K9j3kzi{fill: url(#linear-gradient-7);-webkit-transform: translate(-340.3px, -47.87px);transform: translate(-340.3px, -47.87px);}#el_NZYCWw7cNuT{fill: url(#linear-gradient-8);-webkit-transform: translate(-340.3px, -47.87px);transform: translate(-340.3px, -47.87px);}#el_Fwf-DJIGRhu{fill: url(#linear-gradient-9);-webkit-transform: translate(-340.3px, -47.87px);transform: translate(-340.3px, -47.87px);}#el_2zkslN4avwV{fill: url(#linear-gradient-10);-webkit-transform: translate(-340.3px, -47.87px);transform: translate(-340.3px, -47.87px);}#el_KDxf_66I6ee{fill: url(#linear-gradient-11);-webkit-transform: translate(-340.3px, -47.87px);transform: translate(-340.3px, -47.87px);}#el_a2ClEnwx7kC{fill: url(#linear-gradient-12);-webkit-transform: translate(-340.3px, -47.87px);transform: translate(-340.3px, -47.87px);}#el_6aKo8UHGMeL{fill: url(#linear-gradient-13);-webkit-transform: translate(-340.3px, -47.87px);transform: translate(-340.3px, -47.87px);}#el_67esjRck3Wo{fill: url(#linear-gradient-14);-webkit-transform: translate(-340.3px, -47.87px);transform: translate(-340.3px, -47.87px);}#el_4DCb6-59wvz{fill: #fff;opacity: 0.05;-webkit-transform: translate(-340.3px, -47.87px);transform: translate(-340.3px, -47.87px);}#el_-Rm7BkX2oKO{fill: url(#linear-gradient-15);-webkit-transform: translate(-340.3px, -47.87px);transform: translate(-340.3px, -47.87px);}#el_ZsyzwjyVcq_{fill: url(#linear-gradient-16);-webkit-transform: translate(-340.3px, -47.87px);transform: translate(-340.3px, -47.87px);}#el_rw5TBhtcygB{fill: #ccc;-webkit-transform: translate(-340.3px, -47.87px);transform: translate(-340.3px, -47.87px);}#el_h1DBzSsfcKM{fill: #ccc;-webkit-transform: translate(-340.3px, -47.87px);transform: translate(-340.3px, -47.87px);}#el_gHIkdHGe6S4{fill: url(#linear-gradient-17);-webkit-transform: translate(-340.3px, -47.87px);transform: translate(-340.3px, -47.87px);}#el_bBfBRHdkNxZ{fill: url(#linear-gradient-18);-webkit-transform: translate(-340.3px, -47.87px);transform: translate(-340.3px, -47.87px);}#el_3hBXkYUpxYS{fill: #e6e6e6;-webkit-transform: translate(-340.3px, -47.87px);transform: translate(-340.3px, -47.87px);}#el_T0BvmFpGhpM{fill: #e6e6e6;-webkit-transform: translate(-340.3px, -47.87px);transform: translate(-340.3px, -47.87px);}#el_kWPS3LwZl6G{fill: #ccc;}#el_T5adrRvSyKl{fill: #ccc;}#el_HeX39cFfPgD{fill: url(#linear-gradient-19);-webkit-transform: translate(-340.3px, -47.87px);transform: translate(-340.3px, -47.87px);}#el_vt0-xyawEA0{fill: url(#linear-gradient-20);-webkit-transform: translate(-340.3px, -47.87px);transform: translate(-340.3px, -47.87px);}#el_0cMB0uO1pHq{-webkit-animation-fill-mode: backwards;animation-fill-mode: backwards;opacity: 0;-webkit-animation-name: kf_el_0cMB0uO1pHq_an_-TWlc5d_S;animation-name: kf_el_0cMB0uO1pHq_an_-TWlc5d_S;-webkit-animation-timing-function: cubic-bezier(0, 0, 1, 1);animation-timing-function: cubic-bezier(0, 0, 1, 1);}#el_xaj8Ws-7vM7{-webkit-animation-fill-mode: backwards;animation-fill-mode: backwards;opacity: 0;-webkit-animation-name: kf_el_xaj8Ws-7vM7_an_3dAtBMtkM;animation-name: kf_el_xaj8Ws-7vM7_an_3dAtBMtkM;-webkit-animation-timing-function: cubic-bezier(0, 0, 1, 1);animation-timing-function: cubic-bezier(0, 0, 1, 1);}#el_yQgUIGna5Xc{-webkit-animation-fill-mode: backwards;animation-fill-mode: backwards;opacity: 1;-webkit-animation-name: kf_el_yQgUIGna5Xc_an_Ychc0XLWN;animation-name: kf_el_yQgUIGna5Xc_an_Ychc0XLWN;-webkit-animation-timing-function: cubic-bezier(0, 0, 1, 1);animation-timing-function: cubic-bezier(0, 0, 1, 1);}#el_xd0fDK5mNZ_an_AtocLE2QU{-webkit-animation-fill-mode: backwards;animation-fill-mode: backwards;-webkit-transform: translate(459.489990234375px, 135.13000106811523px) scale(1, 1) translate(-459.489990234375px, -135.13000106811523px);transform: translate(459.489990234375px, 135.13000106811523px) scale(1, 1) translate(-459.489990234375px, -135.13000106811523px);-webkit-animation-name: kf_el_xd0fDK5mNZ_an_AtocLE2QU;animation-name: kf_el_xd0fDK5mNZ_an_AtocLE2QU;-webkit-animation-timing-function: cubic-bezier(0, 0, 1, 1);animation-timing-function: cubic-bezier(0, 0, 1, 1);}</style><defs><linearGradient id="linear-gradient" x1="824.45" y1="171.37" x2="800.14" y2="175.03" gradientTransform="matrix(1, 0.01, -0.01, 1, 1.49, -14.43)" gradientUnits="userSpaceOnUse"><stop offset="0" stop-color="#f7931e"/><stop offset="0.5" stop-color="#fbb03b"/><stop offset="1" stop-color="#f89924"/></linearGradient><linearGradient id="linear-gradient-2" x1="927.94" y1="71.72" x2="863.13" y2="113.35" gradientTransform="matrix(1, 0, 0, 1, 0, 0)" xlink:href="#linear-gradient"/><linearGradient id="linear-gradient-3" x1="866.41" y1="148.86" x2="828.46" y2="128.46" gradientTransform="matrix(1, 0, 0, 1, 0, 0)" xlink:href="#linear-gradient"/><linearGradient id="linear-gradient-4" x1="760.99" y1="551.2" x2="441.88" y2="681.6" gradientUnits="userSpaceOnUse"><stop offset="0" stop-color="#3c6382"/><stop offset="1" stop-color="#60a3bc"/></linearGradient><linearGradient id="linear-gradient-5" x1="863.01" y1="251.52" x2="616.53" y2="458.24" xlink:href="#linear-gradient-4"/><linearGradient id="linear-gradient-6" x1="692.14" y1="244.07" x2="692.14" y2="267.98" gradientTransform="matrix(1, 0, 0, 1, 0, 0)" xlink:href="#linear-gradient"/><linearGradient id="linear-gradient-7" x1="783.02" y1="129.61" x2="591.13" y2="340.58" xlink:href="#linear-gradient-4"/><linearGradient id="linear-gradient-8" x1="811.88" y1="493.4" x2="598.37" y2="539.26" gradientUnits="userSpaceOnUse"><stop offset="0" stop-color="#8c6239"/><stop offset="1" stop-color="#a67c52"/></linearGradient><linearGradient id="linear-gradient-9" x1="677.86" y1="501.81" x2="628.83" y2="522.62" gradientTransform="matrix(1, 0, 0, 1, 0, 0)" xlink:href="#linear-gradient"/><linearGradient id="linear-gradient-10" x1="680.21" y1="507.35" x2="631.18" y2="528.16" gradientTransform="matrix(1, 0, 0, 1, 0, 0)" xlink:href="#linear-gradient"/><linearGradient id="linear-gradient-11" x1="682.56" y1="512.89" x2="633.53" y2="533.7" gradientTransform="matrix(1, 0, 0, 1, 0, 0)" xlink:href="#linear-gradient"/><linearGradient id="linear-gradient-12" x1="741" y1="504.39" x2="687.2" y2="531.68" gradientTransform="matrix(1, 0, 0, 1, 0, 0)" xlink:href="#linear-gradient"/><linearGradient id="linear-gradient-13" x1="744.16" y1="510.6" x2="690.35" y2="537.9" gradientTransform="matrix(1, 0, 0, 1, 0, 0)" xlink:href="#linear-gradient"/><linearGradient id="linear-gradient-14" x1="747.31" y1="516.82" x2="693.51" y2="544.12" gradientTransform="matrix(1, 0, 0, 1, 0, 0)" xlink:href="#linear-gradient"/><linearGradient id="linear-gradient-15" x1="740.75" y1="230.38" x2="603.63" y2="234.97" xlink:href="#linear-gradient-4"/><linearGradient id="linear-gradient-16" x1="740.83" y1="232.85" x2="603.72" y2="237.44" xlink:href="#linear-gradient-4"/><linearGradient id="linear-gradient-17" x1="594.89" y1="556.43" x2="565.26" y2="589" gradientTransform="translate(-158.83 239.76) rotate(-45)" xlink:href="#linear-gradient-4"/><linearGradient id="linear-gradient-18" x1="678.13" y1="528.68" x2="648.51" y2="561.25" gradientTransform="translate(-126.32 318.25) rotate(-45)" xlink:href="#linear-gradient-4"/><linearGradient id="linear-gradient-19" x1="594.88" y1="556.43" x2="565.26" y2="589" gradientTransform="translate(-158.83 239.76) rotate(-45)" xlink:href="#linear-gradient-4"/><linearGradient id="linear-gradient-20" x1="678.13" y1="528.68" x2="648.51" y2="561.25" gradientTransform="translate(-126.32 318.25) rotate(-45)" xlink:href="#linear-gradient-4"/></defs><title>kaagapai No Results Illustration</title><g id="el_VWdUhEGKPj"><path d="M1025.54,294.52a102.86,102.86,0,0,1-1.84,14.58L989.33,480.33c-5.46,27.2-21.63,50.76-44.56,64.94L804.34,632.1a91.82,91.82,0,0,1-65.8,12.23l-262-50.47a91.92,91.92,0,0,1-20.46-6.47c-34.66-15.57-57.36-51.44-57.36-90.88A103.92,103.92,0,0,1,400.79,476a103.71,103.71,0,0,0,2-23.28,102.6,102.6,0,0,0-7.3-35.33L347.63,297.87a102.49,102.49,0,0,1-7.22-43l0-.68a102.16,102.16,0,0,1,5.95-29.49,100.59,100.59,0,0,1,9.44-19.37A96.8,96.8,0,0,1,381.55,178c.23-.18.46-.33.69-.5l18.22-12.79,23.45-16.46L446,132.73a91.92,91.92,0,0,1,70.6-15.21L580.89,130a91.21,91.21,0,0,0,37.34-.49c1.45-.32,2.9-.68,4.34-1.07l21.19-5.81,64.1-17.57,38.48-10.55a91.25,91.25,0,0,1,49.76.39l63,18.35L925,132.45c25,7.27,46,24.87,58.29,48.73l12,23.5,18.13,35.37,1.05,2a100.65,100.65,0,0,1,6.61,16.25A102.41,102.41,0,0,1,1025.54,294.52Z" id="el_VTtEIPhJGo"/><circle cx="528.68" cy="461.68" r="49.6" id="el_uh9kwf7hOf"/><path d="M893.71,347.79h0a6.8,6.8,0,0,1,6.8-6.8h14.21a12.82,12.82,0,0,0,12.81-12.81h0a12.82,12.82,0,0,0-12.81-12.81H818.67a12.81,12.81,0,0,0-12.81,12.81h0A12.81,12.81,0,0,0,818.67,341h14.2a6.79,6.79,0,0,1,6.8,6.8h0a6.79,6.79,0,0,1-6.8,6.79H800.62a12.81,12.81,0,0,0-12.81,12.81h0a12.81,12.81,0,0,0,12.81,12.81H932.77a12.82,12.82,0,0,0,12.81-12.81h0a12.82,12.82,0,0,0-12.81-12.81H900.51A6.8,6.8,0,0,1,893.71,347.79Z" id="el_DARqjsFsPY"/><path d="M496.78,233.28a20.94,20.94,0,0,1-20.95,20.94H340.45a102.16,102.16,0,0,1,5.95-29.49,100.59,100.59,0,0,1,9.44-19.37A96.8,96.8,0,0,1,381.55,178c.23-.18.46-.33.69-.5l18.22-12.79,23.45-16.46h22.42a20.94,20.94,0,1,1,0,41.87H423.1a11.12,11.12,0,0,0,0,22.23h52.73a20.93,20.93,0,0,1,20.95,20.93Z" id="el_TmuAylpU2l"/><path d="M985.45,234.84a17.79,17.79,0,0,1,9.85-30.16l18.13,35.37H998A17.7,17.7,0,0,1,985.45,234.84Z" id="el_8ZWuPrULTY"/><path d="M1025.54,294.52H973a17.79,17.79,0,1,1,0-35.58h44.82a9.67,9.67,0,0,0,3.32-.6A102.41,102.41,0,0,1,1025.54,294.52Z" id="el_TOfCDFGmA0"/><path d="M899.29,175.37h0a25.1,25.1,0,0,1-25.1,25.09H615.34a25.1,25.1,0,0,1-25.1-25.09h0a25.1,25.1,0,0,1,25.1-25.09h63.17a13.32,13.32,0,1,0,0-26.63H650.69a24.74,24.74,0,0,1-6.93-1l64.1-17.57,38.48-10.55a91.25,91.25,0,0,1,49.76.39l63,18.35a25,25,0,0,1-20.3,10.36H811a13.32,13.32,0,1,0,0,26.63h63.17A25.1,25.1,0,0,1,899.29,175.37Z" id="el_sSb36xhmdt"/><path d="M631.74,410.77a83.47,83.47,0,0,1-14.61,13.66,84.46,84.46,0,1,1-82.67-146,84.48,84.48,0,0,0,97.28,132.3Z" id="el_oWdg7djt2F"/><path d="M496.78,522.15a72.63,72.63,0,0,1-40.69,65.24c-34.66-15.57-57.36-51.44-57.36-90.88A103.92,103.92,0,0,1,400.79,476a103.71,103.71,0,0,0,2-23.28,72.69,72.69,0,0,1,94,69.46Z" id="el_TKfePvDsIa"/></g><g id="el_xd0fDK5mNZ_an_AtocLE2QU" data-animator-group="true" data-animator-type="2"><g id="el_xd0fDK5mNZ"><path d="M799.79,164.11c1.25-.58,2.52-1.12,3.78-1.66l3.83-1.56,3.84-1.49L815.1,158l2.78-1-1.35,2.75c-.87,1.79-1.76,3.58-2.67,5.35s-1.83,3.54-2.77,5.29-1.89,3.51-2.84,5.26-1.94,3.48-2.93,5.2l-1.73-1.91c1.65-.64,3.3-1.27,5-1.88s3.33-1.21,5-1.78l2.52-.87,2.53-.83c1.69-.54,3.39-1.06,5.11-1.54-1.55.89-3.12,1.73-4.7,2.54l-2.37,1.21-2.38,1.18q-2.38,1.18-4.8,2.29c-1.6.75-3.21,1.48-4.83,2.21L801.15,183l1.76-3.48q1.35-2.66,2.75-5.3c.93-1.76,1.87-3.52,2.83-5.26s1.93-3.49,2.92-5.22,2-3.45,3-5.17l1.43,1.73-4,1.07-4,1-4,.94C802.49,163.57,801.15,163.86,799.79,164.11Z" id="el_pxdWNBLIv2"/><path d="M855.22,92q4.2-5,8.57-9.73t8.79-9.47c3-3.13,6-6.23,9-9.31s6-6.13,9.09-9.16l6.49-6.42L897,57.31c-.05,3.12-.15,6.24-.24,9.36s-.2,6.24-.31,9.35-.25,6.24-.4,9.35-.29,6.23-.47,9.35-.33,6.23-.54,9.34l-.6,9.34c-.45,6.22-.92,12.44-1.46,18.66l-7.43-3.16c1.91-2,3.86-4,5.79-6s3.89-4,5.85-5.93,3.91-3.92,5.89-5.87,4-3.89,6-5.82q6-5.8,12.1-11.47c4.09-3.77,8.23-7.49,12.49-11.11-3.23,4.56-6.57,9-10,13.41s-6.85,8.76-10.35,13.07c-1.75,2.16-3.5,4.31-5.28,6.44s-3.54,4.28-5.33,6.39-3.57,4.25-5.39,6.35-3.6,4.21-5.43,6.29l-7.85,8.9.41-12.05c.21-6.24.5-12.47.8-18.7l.52-9.34c.18-3.12.4-6.23.6-9.34s.42-6.22.66-9.33.46-6.23.73-9.33.51-6.22.81-9.33.56-6.21.89-9.32l6.34,3c-3.27,2.79-6.58,5.53-9.89,8.28s-6.67,5.45-10,8.14-6.76,5.34-10.19,8S858.75,89.45,855.22,92Z" id="el_iyh4NFkUAG"/><path d="M836.78,118.77c1.19.22,2.37.49,3.55.74l3.54.81c2.35.54,4.69,1.13,7,1.72s4.66,1.22,7,1.85,4.64,1.29,7,2l4.93,1.44-4.68,2.48q-4.64,2.46-9.31,4.81-2.32,1.2-4.68,2.35c-1.56.77-3.12,1.55-4.69,2.31-3.14,1.53-6.29,3-9.45,4.51s-6.33,2.93-9.52,4.36l-.48-4.5c3,.8,6,1.61,9,2.47s6,1.71,8.94,2.61,5.93,1.84,8.89,2.81,5.9,2,8.83,3.09c-3.11-.34-6.19-.78-9.27-1.23s-6.15-1-9.21-1.52-6.11-1.1-9.15-1.7-6.09-1.22-9.12-1.86l-6.56-1.39,6.08-3.11c3.11-1.59,6.23-3.14,9.36-4.68s6.28-3,9.44-4.53c1.58-.75,3.16-1.48,4.74-2.21s3.17-1.47,4.77-2.18q4.77-2.16,9.58-4.23l.24,3.92c-2.25-.84-4.49-1.71-6.73-2.59s-4.48-1.78-6.71-2.69-4.45-1.86-6.66-2.83l-3.31-1.46C839,119.79,837.87,119.3,836.78,118.77Z" id="el_jtMGo-vltg"/></g></g><g id="el_nRbzU3WEFv"><path d="M722.34,474.66H619.05l12,170.28c2.34,33.16,19.39,58.18,39.65,58.18h0c7.86,0,15.23-3.76,21.45-10.29,6.21,6.53,13.58,10.29,21.44,10.29h0c20.26,0,37.32-25,39.65-58.18l12-170.28Z" id="el_dFjjjPSl0y5"/><path d="M808.78,394.83a146.28,146.28,0,0,1-9.55,52.37c-.71,1.88-1.46,3.71-2.25,5.53a129.11,129.11,0,0,1-39.63,51.55c-18.61,14.22-41.06,22.53-65.21,22.53s-46.6-8.31-65.22-22.53a129.11,129.11,0,0,1-39.63-51.55q-1.15-2.66-2.19-5.38l-.06-.14h0a146.49,146.49,0,0,1-9.55-52.37c0-40.72,16.3-77.12,41.91-101.34a117.71,117.71,0,0,1,14.38-11.62,106.92,106.92,0,0,1,50.14-18.52q5.05-.5,10.22-.5t10.21.5a106.92,106.92,0,0,1,50.14,18.52,117,117,0,0,1,14.38,11.62C792.49,317.71,808.78,354.11,808.78,394.83Z" id="el_FRkNJXHz-7h"/><path d="M770.57,229.46c-1.84,46.75-36,83.38-77.11,84.66v.06H693c-.3,0-.6,0-.89,0l-.89,0h-.44v-.06c-41.12-1.28-75.26-37.91-77.11-84.66-1.34-33.82,14.5-65.06,77.11-65.92v0l1.33,0,1.32,0v0C756.07,164.4,771.91,195.64,770.57,229.46Z" id="el_QYSeCU5Mgrt"/><path d="M765.28,456.18a145.68,145.68,0,0,1-7.93,48.1c-18.61,14.22-41.06,22.53-65.21,22.53s-46.6-8.31-65.22-22.53a145.68,145.68,0,0,1-7.93-48.1C619,397.56,651.74,350,692.14,350S765.28,397.56,765.28,456.18Z" id="el_YTrfs4Drl5d"/><g id="el_q4dEturPjqn"><path d="M585,447.21a99.6,99.6,0,0,0,8.64-9.14,103,103,0,0,0,8.25-11.4l.93-1.5c.31-.5.61-1,.9-1.52l1.72-3.08,1.6-3.15c.55-1.05,1-2.14,1.5-3.21a102.37,102.37,0,0,0,4.94-13.29l.52-1.71c.17-.56.3-1.14.45-1.71l.87-3.46.73-3.49.36-1.75c.1-.58.18-1.17.28-1.76a133.69,133.69,0,0,0,1.51-28.57,133.85,133.85,0,0,1,.07,28.79c-.07.6-.11,1.2-.19,1.8l-.27,1.79-.53,3.59-.7,3.55c-.13.6-.22,1.2-.36,1.79l-.43,1.76a106.21,106.21,0,0,1-4.31,13.89c-.46,1.13-.86,2.28-1.36,3.39l-1.47,3.35-1.62,3.28c-.26.55-.54,1.09-.83,1.62l-.88,1.62a107,107,0,0,1-17.52,23.51l-.55.53Z" id="el_1vKqcAu2tAQ"/><path d="M799.23,447.2c-.71,1.88-1.46,3.71-2.25,5.53l-.55-.53A107.15,107.15,0,0,1,786.84,441a106,106,0,0,1-7.93-12.34l-.87-1.6c-.3-.54-.58-1.08-.84-1.63l-1.61-3.28-1.48-3.35c-.5-1.1-.9-2.26-1.35-3.39a103.25,103.25,0,0,1-4.31-13.89l-.43-1.76c-.15-.59-.24-1.19-.36-1.78l-.7-3.56-.54-3.59-.26-1.79c-.08-.6-.13-1.2-.19-1.8a134.5,134.5,0,0,1,.06-28.79A134.31,134.31,0,0,0,767.54,387c.1.59.18,1.18.29,1.77l.36,1.74.72,3.49.87,3.46c.16.57.28,1.15.45,1.72l.52,1.7a103.29,103.29,0,0,0,4.94,13.29c.5,1.07,1,2.16,1.5,3.21l1.6,3.15,1.73,3.08c.28.52.58,1,.89,1.52l.93,1.5a103,103,0,0,0,8.25,11.4A99.49,99.49,0,0,0,799.23,447.2Z" id="el_QGd8c2osFZM"/></g><path d="M705.2,259.15l-12.15,17.93a1.12,1.12,0,0,1-.91.48,1.13,1.13,0,0,1-.92-.48l-12.15-17.93a1.1,1.1,0,0,1,.25-1.5l11.9-8.93.26-.19a1.07,1.07,0,0,1,.66-.22,1,1,0,0,1,.65.22l.26.19,11.9,8.93A1.1,1.1,0,0,1,705.2,259.15Z" id="el_PTh5QwXJfnb"/><path d="M693.79,144.76v0h-3.31v0c-78.22,1.07-98,40.11-96.34,82.36a117.41,117.41,0,0,0,23.26,66.37c17.76,23.46,44,38.5,73.08,39.4V333H691l1,0h.16l1.11,0h.54v-.08c29.06-.9,55.32-15.94,73.08-39.4a117.41,117.41,0,0,0,23.26-66.37C791.81,184.87,772,145.83,693.79,144.76Zm76.78,84.7a94,94,0,0,1-18.08,52.41c-14.21,19.19-35.48,31.52-59,32.25v.06H693c-.3,0-.6,0-.89,0s-.6,0-.89,0h-.44v-.06c-23.55-.73-44.81-13.06-59-32.25a94.12,94.12,0,0,1-18.08-52.41c-.06-1.67-.09-3.33-.06-5,0-.27,0-.54,0-.81s0-.38,0-.57c0-.41,0-.81.05-1.22l0-.75c0-.14,0-.27,0-.41s0-.47,0-.7,0-.26,0-.38c.09-1.27.2-2.53.36-3.78,0-.32.08-.64.12-1,.08-.64.17-1.28.28-1.92,0-.31.1-.63.16-.95.11-.66.24-1.33.38-2s.25-1.18.39-1.76c0-.14.06-.28.1-.42l.14-.57c0-.09,0-.19.08-.29s.09-.38.14-.56.17-.62.26-.92c.17-.61.35-1.21.55-1.82.1-.29.19-.6.3-.89.21-.66.45-1.3.7-1.94.09-.24.18-.49.28-.72.35-.88.72-1.75,1.12-2.61.12-.28.26-.57.4-.85s.27-.57.42-.85l0,0c.19-.38.4-.75.6-1.13,12-21.59,42.35-24.11,58.19-4.8a58.55,58.55,0,0,1,13.32,29.91v0c.1.7.17,1.42.23,2.14.07-.72.14-1.44.24-2.14a58.21,58.21,0,0,1,12.52-28.95c16.44-20.8,49-17.19,60,6.87,0,0,.05.1.08.16a56.26,56.26,0,0,1,3,8.31c.07.25.14.51.2.76.24.9.45,1.8.64,2.72l.15.72c.22,1.09.41,2.2.58,3.32,0,.24.07.48.1.73.1.7.19,1.41.27,2.12,0,.27.06.54.08.81s.07.71.1,1.06,0,.55.06.83.05.59.07.9,0,.48,0,.72C770.67,223.72,770.68,226.58,770.57,229.46Z" id="el_4ka-K9j3kzi"/><path d="M823.07,512.65H787.22L806,493.89a5.15,5.15,0,0,0,0-7.28l-1.26-1.26a5.15,5.15,0,0,0-7.28,0l-27.3,27.3H544.32a8.31,8.31,0,0,0,0,16.61H823.07a6.91,6.91,0,0,0,6.91-6.92v-2.78A6.91,6.91,0,0,0,823.07,512.65Z" id="el_NZYCWw7cNuT"/><path d="M645.63,509.88,641,530.71c-.27,1.24-3.06,1.24-3.34,0l-4.6-20.83c-.55-2.45,2.42-4.64,6.27-4.64h0C643.21,505.24,646.17,507.43,645.63,509.88Z" id="el_Fwf-DJIGRhu"/><path d="M661,509.88l-4.61,20.83c-.27,1.24-3.06,1.24-3.34,0l-4.6-20.83c-.54-2.45,2.42-4.64,6.27-4.64h0C658.62,505.24,661.58,507.43,661,509.88Z" id="el_2zkslN4avwV"/><path d="M676.45,509.88l-4.6,20.83c-.28,1.24-3.07,1.24-3.34,0l-4.61-20.83c-.54-2.45,2.42-4.64,6.28-4.64h0C674,505.24,677,507.43,676.45,509.88Z" id="el_KDxf_66I6ee"/><path d="M720.37,509.88l-4.61,20.83c-.27,1.24-3.06,1.24-3.33,0l-4.61-20.83c-.54-2.45,2.42-4.64,6.27-4.64h0C718,505.24,720.91,507.43,720.37,509.88Z" id="el_a2ClEnwx7kC"/><path d="M735.78,509.88l-4.6,20.83c-.28,1.24-3.07,1.24-3.34,0l-4.61-20.83c-.54-2.45,2.42-4.64,6.28-4.64h0C733.36,505.24,736.32,507.43,735.78,509.88Z" id="el_6aKo8UHGMeL"/><path d="M751.2,509.88l-4.61,20.83c-.27,1.24-3.06,1.24-3.34,0l-4.6-20.83c-.55-2.45,2.42-4.64,6.27-4.64h0C748.78,505.24,751.74,507.43,751.2,509.88Z" id="el_67esjRck3Wo"/><path d="M705.2,259.15l-12.15,17.93a1.12,1.12,0,0,1-.91.48V248.31a1,1,0,0,1,.65.22l.26.19,11.9,8.93A1.1,1.1,0,0,1,705.2,259.15Z" id="el_4DCb6-59wvz"/></g><g id="el_yQgUIGna5Xc" data-name="Eyes 1"><path d="M636.23,227.16c.43.24.82.51,1.23.75s.78.5,1.18.73c.79.48,1.56.93,2.34,1.35a37.43,37.43,0,0,0,4.67,2.16A28.1,28.1,0,0,0,655.1,234a27.57,27.57,0,0,0,9.5-1.54,49.6,49.6,0,0,0,9.55-4.71,18.94,18.94,0,0,1-7.48,8.88,20.64,20.64,0,0,1-5.55,2.51,21.2,21.2,0,0,1-17.67-2.91A19.42,19.42,0,0,1,636.23,227.16Z" id="el_-Rm7BkX2oKO"/><path d="M710.13,227.16c.42.24.81.51,1.22.75s.79.5,1.19.73q1.17.72,2.34,1.35a36.66,36.66,0,0,0,4.66,2.16A28.15,28.15,0,0,0,729,234a27.51,27.51,0,0,0,9.49-1.54,49,49,0,0,0,9.55-4.71,19,19,0,0,1-7.47,8.88,20.71,20.71,0,0,1-11.68,3.29,21.17,21.17,0,0,1-11.55-3.69A19.34,19.34,0,0,1,710.13,227.16Z" id="el_ZsyzwjyVcq_"/></g><g id="el_xaj8Ws-7vM7" data-name="Eyes 2"><path d="M676.93,233.54a20.67,20.67,0,1,1-41.34,0,20,20,0,0,1,.35-3.73,20.67,20.67,0,0,1,41,3.73Z" id="el_rw5TBhtcygB"/><path d="M748.68,233.54a20.67,20.67,0,1,1-41.34,0,20.2,20.2,0,0,1,.35-3.75,20.66,20.66,0,0,1,40.64,0A20,20,0,0,1,748.68,233.54Z" id="el_h1DBzSsfcKM"/><path d="M667,222.8a15.2,15.2,0,0,1-14.49,25.49v-11l-7,7A15.2,15.2,0,0,1,667,222.8Z" id="el_gHIkdHGe6S4"/><path d="M738.76,222.8a15.2,15.2,0,0,1-14.49,25.49v-11l-7,7a15.2,15.2,0,0,1,21.49-21.5Z" id="el_bBfBRHdkNxZ"/><path d="M676.59,229.81c-5.21,3.25-12.4,5.25-20.33,5.25s-15.12-2-20.32-5.25a20.66,20.66,0,0,1,40.65,0Z" id="el_3hBXkYUpxYS"/><path d="M748.33,229.81c-5.2,3.25-12.39,5.25-20.32,5.25s-15.12-2-20.32-5.27a20.66,20.66,0,0,1,40.64,0Z" id="el_T0BvmFpGhpM"/></g><g id="el_0cMB0uO1pHq" data-name="Eyes 3"><circle cx="315.97" cy="185.68" r="20.67" id="el_kWPS3LwZl6G"/><circle cx="387.72" cy="185.68" r="20.67" id="el_T5adrRvSyKl"/><path d="M667,222.8a15.21,15.21,0,0,1-14.49,25.49v-11l-7,7A15.2,15.2,0,0,1,667,222.8Z" id="el_HeX39cFfPgD"/><path d="M738.76,222.8a15.21,15.21,0,0,1-14.49,25.49v-11l-7,7a15.2,15.2,0,0,1,21.5-21.5Z" id="el_vt0-xyawEA0"/></g></svg>