<svg id="Layer_1" data-name="Layer 1" xmlns="http://www.w3.org/2000/svg" xmlns:xlink="http://www.w3.org/1999/xlink" viewBox="0 0 768.1 596.41"><defs><style>.cls-1{opacity:0.6;}.cls-2{fill:url(#linear-gradient);}.cls-3{fill:url(#linear-gradient-2);}.cls-4{fill:url(#linear-gradient-3);}.cls-10,.cls-14,.cls-35,.cls-38,.cls-39,.cls-5,.cls-7,.cls-8,.cls-9{opacity:0.8;}.cls-5{fill:url(#linear-gradient-4);}.cls-6{fill:url(#linear-gradient-5);}.cls-7{fill:url(#linear-gradient-6);}.cls-8{fill:url(#linear-gradient-7);}.cls-9{fill:url(#linear-gradient-8);}.cls-10{fill:url(#linear-gradient-9);}.cls-11,.cls-13,.cls-36,.cls-37{opacity:0.9;}.cls-11{fill:url(#linear-gradient-10);}.cls-12{fill:url(#linear-gradient-11);}.cls-13{fill:url(#linear-gradient-12);}.cls-14{fill:url(#linear-gradient-13);}.cls-15{fill:url(#linear-gradient-14);}.cls-16{fill:url(#linear-gradient-15);}.cls-17{opacity:0.5;}.cls-18{fill:url(#linear-gradient-16);}.cls-19{fill:#e6e6e6;}.cls-20{fill:url(#linear-gradient-17);}.cls-21{fill:url(#linear-gradient-18);}.cls-22{fill:url(#linear-gradient-19);}.cls-23{fill:url(#linear-gradient-20);}.cls-24{fill:url(#linear-gradient-21);}.cls-25{fill:url(#linear-gradient-22);}.cls-26{fill:url(#linear-gradient-23);}.cls-27{fill:url(#linear-gradient-24);}.cls-28{fill:#f7931e;}.cls-29{fill:#e2f0ff;}.cls-30{fill:url(#linear-gradient-25);}.cls-31{fill:url(#linear-gradient-26);}.cls-32{fill:url(#linear-gradient-27);}.cls-33{fill:#f2f2f2;}.cls-34{fill:url(#linear-gradient-28);}.cls-35{fill:url(#linear-gradient-29);}.cls-36{fill:url(#linear-gradient-30);}.cls-37{fill:url(#linear-gradient-31);}.cls-38{fill:url(#linear-gradient-32);}.cls-39{fill:url(#linear-gradient-33);}.cls-40{fill:url(#linear-gradient-34);}</style><linearGradient id="linear-gradient" x1="910.56" y1="392.87" x2="1057.43" y2="516.36" gradientUnits="userSpaceOnUse"><stop offset="0" stop-color="#3c6382"/><stop offset="0.5" stop-color="#60a3bc"/><stop offset="1" stop-color="#3c6382"/></linearGradient><linearGradient id="linear-gradient-2" x1="690.01" y1="341.69" x2="753.63" y2="341.69" gradientUnits="userSpaceOnUse"><stop offset="0" stop-color="#ffdcd1"/><stop offset="1" stop-color="#ffb9bb"/></linearGradient><linearGradient id="linear-gradient-3" x1="587.01" y1="478.19" x2="981.94" y2="478.19" gradientUnits="userSpaceOnUse"><stop offset="0" stop-color="#f7931e" stop-opacity="0.6"/><stop offset="0.5" stop-color="#fbb03b"/><stop offset="1" stop-color="#f7931e"/></linearGradient><linearGradient id="linear-gradient-4" x1="217.57" y1="448.64" x2="259.45" y2="483.86" gradientUnits="userSpaceOnUse"><stop offset="0" stop-color="#3c6382" stop-opacity="0.6"/><stop offset="0.5" stop-color="#60a3bc" stop-opacity="0.3"/><stop offset="1" stop-color="#3c6382" stop-opacity="0.6"/></linearGradient><linearGradient id="linear-gradient-5" x1="170.65" y1="305.31" x2="263.21" y2="383.13" gradientUnits="userSpaceOnUse"><stop offset="0" stop-color="#f7931e" stop-opacity="0.8"/><stop offset="0.5" stop-color="#fbb03b" stop-opacity="0.5"/><stop offset="1" stop-color="#f89d32" stop-opacity="0.8"/></linearGradient><linearGradient id="linear-gradient-6" x1="315.59" y1="19.01" x2="347.94" y2="46.21" xlink:href="#linear-gradient-4"/><linearGradient id="linear-gradient-7" x1="225.04" y1="84.98" x2="281.17" y2="132.17" xlink:href="#linear-gradient-4"/><linearGradient id="linear-gradient-8" x1="584.52" y1="391.5" x2="671.14" y2="464.33" xlink:href="#linear-gradient-4"/><linearGradient id="linear-gradient-9" x1="699.53" y1="144.78" x2="755.65" y2="191.97" xlink:href="#linear-gradient-4"/><linearGradient id="linear-gradient-10" x1="425.5" y1="267.33" x2="444.02" y2="282.9" gradientUnits="userSpaceOnUse"><stop offset="0" stop-color="#f7931e" stop-opacity="0.8"/><stop offset="0.5" stop-color="#fbb03b" stop-opacity="0.3"/><stop offset="1" stop-color="#f89d32" stop-opacity="0.8"/></linearGradient><linearGradient id="linear-gradient-11" x1="289.16" y1="236.1" x2="339.21" y2="278.18" xlink:href="#linear-gradient-5"/><linearGradient id="linear-gradient-12" x1="345.1" y1="450.89" x2="363.62" y2="466.46" xlink:href="#linear-gradient-10"/><linearGradient id="linear-gradient-13" x1="603.23" y1="82.82" x2="691.11" y2="156.72" xlink:href="#linear-gradient-4"/><linearGradient id="linear-gradient-14" x1="456.51" y1="246.57" x2="555.03" y2="246.57" gradientUnits="userSpaceOnUse"><stop offset="0.52" stop-color="#60a3bc"/><stop offset="1" stop-color="#3c6382"/></linearGradient><linearGradient id="linear-gradient-15" x1="450.68" y1="246.57" x2="549.2" y2="246.57" gradientUnits="userSpaceOnUse"><stop offset="0" stop-color="#3c6382"/><stop offset="1" stop-color="#60a3bc"/></linearGradient><linearGradient id="linear-gradient-16" x1="395.64" y1="349.53" x2="438.16" y2="385.28" xlink:href="#linear-gradient"/><linearGradient id="linear-gradient-17" x1="462.86" y1="270.82" x2="689.39" y2="270.82" xlink:href="#linear-gradient-14"/><linearGradient id="linear-gradient-18" x1="417.02" y1="269.8" x2="454.48" y2="269.8" xlink:href="#linear-gradient-14"/><linearGradient id="linear-gradient-19" x1="677.75" y1="213.81" x2="1018.56" y2="213.81" xlink:href="#linear-gradient-14"/><linearGradient id="linear-gradient-20" x1="668.61" y1="213.81" x2="1009.42" y2="213.81" xlink:href="#linear-gradient-15"/><linearGradient id="linear-gradient-21" x1="688.27" y1="213.81" x2="997.25" y2="213.81" gradientUnits="userSpaceOnUse"><stop offset="0" stop-color="#f2f2f2"/><stop offset="1" stop-color="#3ddeed" stop-opacity="0.2"/></linearGradient><linearGradient id="linear-gradient-22" x1="607.09" y1="543.52" x2="612.57" y2="543.52" xlink:href="#linear-gradient-15"/><linearGradient id="linear-gradient-23" x1="624.9" y1="543.52" x2="630.39" y2="543.52" xlink:href="#linear-gradient-15"/><linearGradient id="linear-gradient-24" x1="644.55" y1="526.01" x2="761.25" y2="526.01" gradientUnits="userSpaceOnUse"><stop offset="0" stop-color="gray"/><stop offset="1" stop-color="#4d4d4d"/></linearGradient><linearGradient id="linear-gradient-25" x1="544.04" y1="493.9" x2="857.4" y2="493.9" xlink:href="#linear-gradient-24"/><linearGradient id="linear-gradient-26" x1="768.51" y1="331.12" x2="941.64" y2="331.12" xlink:href="#linear-gradient-2"/><linearGradient id="linear-gradient-27" x1="693.15" y1="168.71" x2="760.9" y2="168.71" xlink:href="#linear-gradient-2"/><linearGradient id="linear-gradient-28" x1="552.16" y1="211.34" x2="769.62" y2="211.34" xlink:href="#linear-gradient-15"/><linearGradient id="linear-gradient-29" x1="577.23" y1="197.64" x2="609.59" y2="224.85" xlink:href="#linear-gradient-4"/><linearGradient id="linear-gradient-30" x1="382.36" y1="323.28" x2="437.08" y2="369.29" xlink:href="#linear-gradient-10"/><linearGradient id="linear-gradient-31" x1="546.13" y1="24" x2="588.02" y2="59.22" xlink:href="#linear-gradient-10"/><linearGradient id="linear-gradient-32" x1="344.31" y1="303.91" x2="476.14" y2="414.76" xlink:href="#linear-gradient"/><linearGradient id="linear-gradient-33" x1="966.38" y1="412.77" x2="1081.7" y2="509.73" xlink:href="#linear-gradient"/><linearGradient id="linear-gradient-34" x1="355.91" y1="466.06" x2="483.84" y2="573.63" xlink:href="#linear-gradient-5"/></defs><title>kaagapai Sign Up Illustration No BG</title><g class="cls-1"><path class="cls-2" d="M1014.32,533c-2.68,18.29-5.84,36.62-9.81,54.74a9.77,9.77,0,0,1-13.41,6.84l-.18-.08a9.75,9.75,0,0,1-5.64-11l.36-1.63c9.72-44.83,16-86.8,16.11-133,.09-25.12-1.4-47-8-70.57-1.46-5.25-3.22-10.38-5.19-15.46-.12-.32-.25-.63-.38-1a.05.05,0,0,0,0,0,.14.14,0,0,0,0-.06h0c-.25-.57-.5-1.14-.76-1.7-.46-1-.94-2-1.44-3-1.09-2.23-2.25-4.44-3.5-6.59-1.35-2.34-2.79-4.63-4.34-6.84l-1.56-2.17,0-.06,0-.05c-.41-.49-1.41-1.73-1.68-2.05a77.4,77.4,0,0,0-10.67-10.36c-4.14-3.32-3.42-10.41,0-13.83,4-4,9.7-3.29,13.83,0,19.68,15.75,30.51,40.22,36.28,64.2C1026.25,429.19,1021.69,482.65,1014.32,533Z" transform="translate(-298.95 -85.79)"/></g><path class="cls-3" d="M693.44,321.93l13.76,15a22.46,22.46,0,0,0,21.07,6.77c7.26-1.49,16.88-1.19,25,6.83a1.19,1.19,0,0,1-1,2c-8-1-28.26-2.3-37.15,8.95h-18L690,336.89Z" transform="translate(-298.95 -85.79)"/><path class="cls-4" d="M981.94,377.11V561.22A18,18,0,0,1,957,577.84c-23-9.7-51.24-18-85.76-23a516.35,516.35,0,0,0-72.14-5.06c-5.23,0-10.54,0-16,.13a759.1,759.1,0,0,0-76.59,5.72q-14.79,1.83-30.41,4.28-13.95,2.19-27.14,3.41c-1.84.18-3.67.33-5.48.48q-6.25.5-12.34.77l-5.3.22h-.18q-14.06.47-27.19-.18A12.11,12.11,0,0,1,587,552.49V377.11Z" transform="translate(-298.95 -85.79)"/><circle class="cls-5" cx="239.49" cy="467.08" r="24.24"/><circle class="cls-6" cx="219.09" cy="346.04" r="53.57"/><circle class="cls-7" cx="332.52" cy="33.25" r="18.73"/><circle class="cls-8" cx="254.42" cy="109.68" r="32.48"/><circle class="cls-9" cx="629.85" cy="429.62" r="50.13"/><circle class="cls-10" cx="728.91" cy="169.48" r="32.48"/><circle class="cls-11" cx="435.19" cy="275.48" r="10.72"/><circle class="cls-12" cx="315.35" cy="258.13" r="28.97"/><circle class="cls-13" cx="354.79" cy="459.04" r="10.72"/><circle class="cls-14" cx="649.23" cy="121.5" r="50.86"/><polygon class="cls-15" points="538.44 216.27 555.03 276.88 478.74 275.66 456.5 216.27 538.44 216.27"/><polygon class="cls-16" points="532.61 216.27 549.2 276.88 472.91 275.66 450.68 216.27 532.61 216.27"/><g class="cls-17"><path class="cls-18" d="M525,287.44a314.9,314.9,0,0,0-58.76,26.77,275,275,0,0,0-23.47,15.5c-1,.77-2.07,1.56-3.11,2.34l0,0h0l-.12.08-.28.22-.86.67c-1.86,1.48-3.72,3-5.54,4.5q-4.94,4.13-9.64,8.49-8.26,7.67-15.8,16.1-3.62,4-7,8.25l-1.82,2.26c-.08.11-.53.69-.86,1.1a.13.13,0,0,1-.06.07c-.11.16-.22.28-.25.34l0,0h0c-.77,1-1.53,2-2.28,3a235,235,0,0,0-20.7,33.88q-2.08,4.19-4,8.45c-.56,1.23-1.09,2.46-1.62,3.7.08-.18-.91,2.16-1.16,2.79q-3.29,8.13-6,16.48a256.35,256.35,0,0,0-7.95,31.07c-.8,4.19-1.47,8.39-2.09,12.6,0,0,0,.08,0,.13a.87.87,0,0,0,0,.1s0-.06,0-.08c-.09.6-.3,2.18-.37,2.71q-.18,1.5-.33,3-.34,3.15-.61,6.3v.09a3.17,3.17,0,0,1-5.85,1.43q-3.64-5.82-7-11.74a37,37,0,0,1-4.07-26.31,260.49,260.49,0,0,1,27.16-72c34.33-61.09,93.37-101.5,158.68-123.93,5.73-2,12.21,2.25,13.74,7.81C534.5,279.77,530.73,285.48,525,287.44Z" transform="translate(-298.95 -85.79)"/></g><rect class="cls-19" x="469.26" y="263.02" width="213.74" height="9.21" rx="3.59" ry="3.59"/><rect class="cls-20" x="462.86" y="266.22" width="226.53" height="9.21" rx="3.69" ry="3.69"/><ellipse class="cls-21" cx="435.75" cy="269.8" rx="18.73" ry="8.76"/><path class="cls-22" d="M717.34,121.14h288.29A12.94,12.94,0,0,1,1018.22,137L981,296.49a12.92,12.92,0,0,1-12.59,10H683.84l-6.09-103.71Z" transform="translate(-298.95 -85.79)"/><path class="cls-23" d="M708.21,121.14H996.49A12.93,12.93,0,0,1,1009.08,137L971.86,296.49a12.92,12.92,0,0,1-12.59,10H674.7l-6.09-103.71Z" transform="translate(-298.95 -85.79)"/><path class="cls-24" d="M724.17,129.8H985.52a11.72,11.72,0,0,1,11.42,14.38L963.2,288.76a11.72,11.72,0,0,1-11.42,9.06h-258l-5.53-94Z" transform="translate(-298.95 -85.79)"/><path class="cls-25" d="M607.09,572V511.76h5.48V572a3.09,3.09,0,0,1-2.63,3.29h0C608.38,575.36,607.09,573.86,607.09,572Z" transform="translate(-298.95 -85.79)"/><path class="cls-26" d="M630.39,515.09v56.85a3.14,3.14,0,0,1-2.47,3.32h-.06c-1.59.16-3-1.36-3-3.32V515.09c0-1.84,1.22-3.33,2.72-3.33h0C629.17,511.76,630.39,513.25,630.39,515.09Z" transform="translate(-298.95 -85.79)"/><path class="cls-27" d="M761.25,550.73q-25.85,1.38-54.69,4.89-10.51,1.3-21.45,2.91c-23.26-27.65-40.56-44.91-40.56-44.91l10.39-8.81.87-.74,12.5-10.58,74.47,29.68,5.39,8,3,4.52Z" transform="translate(-298.95 -85.79)"/><path class="cls-28" d="M386.72,271.39H701.19a8.38,8.38,0,0,1,8.38,8.38v9.44a8.38,8.38,0,0,1-8.38,8.38H386.72a0,0,0,0,1,0,0V271.39A0,0,0,0,1,386.72,271.39Z"/><path class="cls-29" d="M245,412.72H412.32a5,5,0,0,1,5,5v6.89a5,5,0,0,1-5,5H245a6.29,6.29,0,0,1-6.29-6.29V419A6.29,6.29,0,0,1,245,412.72Z"/><path class="cls-30" d="M853.68,552.63a538.8,538.8,0,0,0-54.56-2.86c-4,0-8,0-12.12.06h-.16c-2.1,0-4.21-.05-6.34-.06a14.09,14.09,0,0,0-11.7-14.61q-8.94-1.53-17.6-3.32c-1-.2-2-.41-3-.63a657.32,657.32,0,0,1-91-26.66l-1.31-.48-.87-.3a91.77,91.77,0,0,0-33.81-4.86c-67.38,2.8-77.09-20.5-77.09-20.5L694.5,435.16,831,494.62A44,44,0,0,1,853.68,552.63Z" transform="translate(-298.95 -85.79)"/><path class="cls-31" d="M795.77,306.48l10.36,11.91a12.65,12.65,0,0,0,9.51,4.37c22.54.1,105.07,1.85,125.33,21.71a2.24,2.24,0,0,1-1.64,3.83c-18.64-.43-88.81-1.39-138.3,7.3a11,11,0,0,1-9.31-2.74l-23.21-21.33Z" transform="translate(-298.95 -85.79)"/><path class="cls-32" d="M714.6,193.78l5-5a3.82,3.82,0,0,1,3.4-1.06l14.27,2.57a3.72,3.72,0,0,0,3.69-1.52l6.56-9.29a6.07,6.07,0,0,1,3.23-2.31l3.33-1a1.8,1.8,0,0,0,1.26-1.83c-1.09-18.9,5.58-29.34,5.58-29.34s-32.9-7.15-51,10.66-16.9,22.85-16.6,32.59C693.28,188.3,701.66,190.43,714.6,193.78Z" transform="translate(-298.95 -85.79)"/><path class="cls-33" d="M693.19,181.9l26.12,8.47a2.29,2.29,0,0,1,1.51,2.77l-.66,2.49a2.4,2.4,0,0,0,1.08,2.66L736,207.14a10.69,10.69,0,0,1,4.68,5.87c3.14,9.72,14.4,38.37,48.74,82.2L760.9,324l-43.75-44.32a3.58,3.58,0,0,0-5.63.68c-7.14,12-25.91,50.11-4.38,89.78,26,48,11,78.13-32,76.76-39.43-1.26-65.76,34.84-122.14,40.05a32.44,32.44,0,0,1-34.13-23.23c-4.62-16-4.31-42.06,12.36-84,36.72-92.38,46.14-139.8,46.14-139.8Z" transform="translate(-298.95 -85.79)"/><path class="cls-34" d="M760.41,145.91c.31-.57.49-.86.49-.86s-32.89-7.15-51,10.67S693,178.56,693.29,188.3l-.11,10.82a31.19,31.19,0,0,1-2.58,12.57c-14.25,31.64-64.41-6.25-53.36,52,11.88,62.59-20.56,79.5-60.3,71.28s9.59-43.41-16.91-75.39,22.39-34.26,22.08-79,35.63-38.69,59.39-44.47S667.39,84.59,710,85.82s52.39,30,58.48,46C772.24,141.56,765.89,144.85,760.41,145.91Z" transform="translate(-298.95 -85.79)"/><path class="cls-19" d="M786.05,295.39l-25.54,25.9a4.33,4.33,0,0,0,0,6l6,6.3a4.33,4.33,0,0,0,6.25,0l25-25.72a4.35,4.35,0,0,0,.19-5.84l-5.49-6.47A4.33,4.33,0,0,0,786.05,295.39Z" transform="translate(-298.95 -85.79)"/><circle class="cls-35" cx="594.17" cy="211.88" r="18.73"/><circle class="cls-36" cx="411" cy="347.36" r="31.67"/><circle class="cls-37" cx="568.05" cy="42.43" r="24.24"/><path class="cls-38" d="M537,332.2c-45.16,5.74-131.66,24-210.67,81.82a14.65,14.65,0,0,1-22.82-8.16q-2.4-9.09-4.26-18.27a14.63,14.63,0,0,1,8-16.09c42.05-20.28,124.18-50.74,229.57-44.77A2.75,2.75,0,0,1,537,332.2Z" transform="translate(-298.95 -85.79)"/><path class="cls-39" d="M1066.3,503.25q-1.59,10.28-3.37,20.29a3,3,0,0,1-5.78.28c-11.26-40.77-31.47-86.06-67.69-116.32a2.16,2.16,0,0,1,2.43-3.54,227.09,227.09,0,0,1,59.73,48.46A62.45,62.45,0,0,1,1066.3,503.25Z" transform="translate(-298.95 -85.79)"/><circle class="cls-40" cx="422.87" cy="522.36" r="74.05"/></svg>