<svg id="Layer_1" data-name="Layer 1" xmlns="http://www.w3.org/2000/svg" xmlns:xlink="http://www.w3.org/1999/xlink" viewBox="0 0 600 331.17"><defs><style>.cls-1{fill:#f7fafe;}.cls-2{fill:#e6f3ff;}.cls-3,.cls-6{opacity:0.1;}.cls-4{fill:url(#linear-gradient);}.cls-5{fill:url(#linear-gradient-2);}.cls-10,.cls-23,.cls-24,.cls-26,.cls-27,.cls-28,.cls-6,.cls-8{fill:#fff;}.cls-7{fill:url(#linear-gradient-3);}.cls-8{opacity:0.4;}.cls-9{fill:#e6e6e6;}.cls-10{opacity:0.09;}.cls-11,.cls-17,.cls-18,.cls-19,.cls-20,.cls-21{stroke:#48dbfb;}.cls-11,.cls-12,.cls-13,.cls-14,.cls-15,.cls-16,.cls-17,.cls-18,.cls-19,.cls-20,.cls-21{stroke-miterlimit:10;}.cls-11,.cls-19{stroke-width:0.29px;}.cls-11{fill:url(#radial-gradient);}.cls-12,.cls-13,.cls-14,.cls-15,.cls-16{fill:none;}.cls-12,.cls-13,.cls-14,.cls-15,.cls-16,.cls-18,.cls-20{stroke-width:0.39px;}.cls-12{stroke:url(#Blue_Sky);}.cls-13{stroke:url(#Blue_Sky-2);}.cls-14{stroke:url(#Blue_Sky-3);}.cls-15{stroke:url(#Blue_Sky-4);}.cls-16{stroke:url(#Blue_Sky-5);}.cls-17{stroke-width:0.49px;fill:url(#radial-gradient-2);}.cls-18{fill:url(#radial-gradient-3);}.cls-19{fill:url(#radial-gradient-4);}.cls-20{fill:url(#radial-gradient-5);}.cls-21{stroke-width:0.39px;fill:url(#radial-gradient-6);}.cls-22{fill:url(#linear-gradient-4);}.cls-23{opacity:0.06;}.cls-24{opacity:0.08;}.cls-25{fill:#ffad40;}.cls-26{opacity:0.03;}.cls-27{opacity:0.02;}.cls-28{opacity:0.04;}.cls-29{fill:url(#linear-gradient-5);}</style><linearGradient id="linear-gradient" x1="487.55" y1="384" x2="761.3" y2="384" gradientUnits="userSpaceOnUse"><stop offset="0" stop-color="#60a3bc"/><stop offset="1" stop-color="#3c6382"/></linearGradient><linearGradient id="linear-gradient-2" x1="623.17" y1="384" x2="769.48" y2="384" gradientUnits="userSpaceOnUse"><stop offset="0" stop-color="#3c6382"/><stop offset="1" stop-color="#60a3bc"/></linearGradient><linearGradient id="linear-gradient-3" x1="752.69" y1="417.21" x2="752.69" y2="243.9" xlink:href="#linear-gradient"/><radialGradient id="radial-gradient" cx="364.59" cy="171.75" r="0.41" gradientUnits="userSpaceOnUse"><stop offset="0.23" stop-color="#29abe2"/><stop offset="1" stop-color="#2e3192"/></radialGradient><linearGradient id="Blue_Sky" x1="373.43" y1="171.86" x2="375.7" y2="171.86" gradientUnits="userSpaceOnUse"><stop offset="0" stop-color="#3ddeed"/><stop offset="1" stop-color="#3ddeed" stop-opacity="0"/></linearGradient><linearGradient id="Blue_Sky-2" x1="370.8" y1="170.49" x2="372.98" y2="170.49" xlink:href="#Blue_Sky"/><linearGradient id="Blue_Sky-3" x1="368.82" y1="170.47" x2="370.1" y2="170.47" xlink:href="#Blue_Sky"/><linearGradient id="Blue_Sky-4" x1="364.78" y1="170.61" x2="367.67" y2="170.61" xlink:href="#Blue_Sky"/><linearGradient id="Blue_Sky-5" x1="363.58" y1="169.42" x2="364.61" y2="169.42" xlink:href="#Blue_Sky"/><radialGradient id="radial-gradient-2" cx="368.33" cy="169.4" r="0.83" xlink:href="#radial-gradient"/><radialGradient id="radial-gradient-3" cx="370.36" cy="171.41" r="0.59" xlink:href="#radial-gradient"/><radialGradient id="radial-gradient-4" cx="373.29" cy="169.5" r="0.46" xlink:href="#radial-gradient"/><radialGradient id="radial-gradient-5" cx="375.76" cy="174.45" r="0.83" xlink:href="#radial-gradient"/><radialGradient id="radial-gradient-6" cx="363.61" cy="166.66" r="0.83" xlink:href="#radial-gradient"/><linearGradient id="linear-gradient-4" x1="742.69" y1="381.94" x2="762.68" y2="381.94" gradientUnits="userSpaceOnUse"><stop offset="0" stop-color="#fbb03b"/><stop offset="1" stop-color="#f15a24"/></linearGradient><linearGradient id="linear-gradient-5" x1="476.14" y1="564.28" x2="496.14" y2="564.28" gradientTransform="translate(1238.83 960.34) rotate(180)" xlink:href="#linear-gradient-4"/></defs><title>Verification Illustration</title><path class="cls-1" d="M980,394.26l-11.65,53.38a129.59,129.59,0,0,1-188.1,86.43l-25.52-13.76a129.56,129.56,0,0,0-113.19-4.75L603.81,532a129.65,129.65,0,0,1-101.45.84l-39.5-16.43A129.57,129.57,0,0,1,384.7,375.88L388.91,350a129.61,129.61,0,0,1,77-98.29l49.65-21.23a129.58,129.58,0,0,1,111.69,4.69l4.88,2.59a129.54,129.54,0,0,0,110.17,5.32l36.1-14.89A129.61,129.61,0,0,1,904,243.16l25.62,18.62A129.59,129.59,0,0,1,980,394.26Z" transform="translate(-383 -218.41)"/><circle class="cls-2" cx="334.05" cy="87.3" r="21.32"/><path class="cls-2" d="M557.39,312.69h0a7,7,0,0,1,7-7h14.71a13.27,13.27,0,0,0,13.27-13.26h0a13.27,13.27,0,0,0-13.27-13.27H479.66a13.27,13.27,0,0,0-13.26,13.27h0a13.26,13.26,0,0,0,13.26,13.26h14.72a7,7,0,0,1,7,7h0a7,7,0,0,1-7,7H461A13.27,13.27,0,0,0,447.71,333h0A13.26,13.26,0,0,0,461,346.26H597.83A13.27,13.27,0,0,0,611.1,333h0a13.27,13.27,0,0,0-13.27-13.27h-33.4A7,7,0,0,1,557.39,312.69Z" transform="translate(-383 -218.41)"/><path class="cls-2" d="M927.25,372.23h0a4.27,4.27,0,0,1,4.27-4.27h8.93a8,8,0,0,0,8-8h0a8,8,0,0,0-8-8H880.11a8,8,0,0,0-8.05,8h0a8.05,8.05,0,0,0,8.05,8H889a4.28,4.28,0,0,1,4.28,4.27h0A4.28,4.28,0,0,1,889,376.5H868.77a8,8,0,0,0-8,8h0a8,8,0,0,0,8,8h83a8,8,0,0,0,8-8h0a8,8,0,0,0-8-8H931.52A4.27,4.27,0,0,1,927.25,372.23Z" transform="translate(-383 -218.41)"/><circle class="cls-2" cx="91.32" cy="216.97" r="34.98"/><path class="cls-3" d="M643,337.08H496.73a12,12,0,0,0-12,12h0a12,12,0,0,0,12,12H599.38a7.73,7.73,0,0,1,7.73,7.74h0a7.73,7.73,0,0,1-7.73,7.73H518a12,12,0,0,0-12,12h0a12,12,0,0,0,12,12h81.37a7.73,7.73,0,0,1,7.73,7.73h0a7.74,7.74,0,0,1-7.73,7.74H540a12,12,0,0,0-12,12h0a12,12,0,0,0,12,12H758.51V337.08Z" transform="translate(-383 -218.41)"/><path class="cls-4" d="M645.82,332.62H499.52a12,12,0,0,0-12,12h0a12,12,0,0,0,12,12H602.17a7.74,7.74,0,0,1,7.73,7.74h0a7.73,7.73,0,0,1-7.73,7.73H520.79a12,12,0,0,0-12,12h0a12,12,0,0,0,12,12h81.38a7.73,7.73,0,0,1,7.73,7.73h0a7.74,7.74,0,0,1-7.73,7.74H542.74a12,12,0,0,0-12,12h0a12,12,0,0,0,12,12H761.3V332.62Z" transform="translate(-383 -218.41)"/><path class="cls-5" d="M881.24,317.43V450.58l-.55,3.66a11.08,11.08,0,0,1-.42,1.14l-.24.54a11.37,11.37,0,0,1-.9,1.55,12,12,0,0,1-1.5,1.83l-.43.41c-.3.27-.6.51-.91.75s-.65.46-1,.66a13.26,13.26,0,0,1-1.59.82c-.37.15-.75.29-1.14.41s-.78.22-1.18.31a12.64,12.64,0,0,1-2.48.25H636.46a12.33,12.33,0,0,1-12.33-12.33V317.43a12.34,12.34,0,0,1,12.33-12.34H868.91A12.34,12.34,0,0,1,881.24,317.43Z" transform="translate(-383 -218.41)"/><path class="cls-6" d="M873.5,435.89a17.81,17.81,0,0,1,7.74,14.69h0a12.33,12.33,0,0,1-12.33,12.33H636.46a12.33,12.33,0,0,1-12.33-12.33h0a17.8,17.8,0,0,1,7.75-14.69L752.69,353.2Z" transform="translate(-383 -218.41)"/><path class="cls-7" d="M881.24,317.43V322a13.92,13.92,0,0,1-7.17,12.17L791.55,379.8,761.7,396.31a18.59,18.59,0,0,1-18,0L713.82,379.8,631.3,334.13A13.92,13.92,0,0,1,624.13,322v-4.53a12.34,12.34,0,0,1,12.33-12.34H868.91A12.34,12.34,0,0,1,881.24,317.43Z" transform="translate(-383 -218.41)"/><path class="cls-2" d="M631.46,473.68a1.38,1.38,0,0,1,0-2.76c16.71-.88,33.42-1.45,50.13-1.9q36.25-.91,72.53-.9t72.52.89c16.76.45,33.52,1,50.27,1.91a1.38,1.38,0,0,1,0,2.76c-16.75.89-33.51,1.46-50.27,1.91q-36.25.92-72.52.89t-72.53-.9C664.88,475.13,648.17,474.56,631.46,473.68Z" transform="translate(-383 -218.41)"/><circle class="cls-8" cx="369.69" cy="170.59" r="22.69"/><circle class="cls-9" cx="369.69" cy="170.59" r="16.7"/><path class="cls-10" d="M756.82,384.4a3.32,3.32,0,0,1,3.49.11.15.15,0,0,1,0,.24c-.53.41-2.3,1.55-3.54-.13A.15.15,0,0,1,756.82,384.4Z" transform="translate(-383 -218.41)"/><circle class="cls-11" cx="364.59" cy="171.75" r="0.41"/><line class="cls-12" x1="373.61" y1="169.83" x2="375.52" y2="173.88"/><line class="cls-13" x1="370.92" y1="171.24" x2="372.86" y2="169.75"/><line class="cls-14" x1="368.96" y1="169.95" x2="369.96" y2="170.98"/><line class="cls-15" x1="367.56" y1="169.7" x2="364.89" y2="171.52"/><line class="cls-16" x1="364.42" y1="171.38" x2="363.77" y2="167.46"/><circle class="cls-17" cx="368.33" cy="169.4" r="0.83"/><circle class="cls-18" cx="370.36" cy="171.41" r="0.59"/><circle class="cls-19" cx="373.29" cy="169.5" r="0.46"/><circle class="cls-20" cx="375.76" cy="174.45" r="0.82"/><circle class="cls-21" cx="363.61" cy="166.66" r="0.82"/><path class="cls-22" d="M762.68,384.61c-1.1,0-8.07-.08-8.7-1a3.29,3.29,0,0,0-.27-.32,5.93,5.93,0,0,0-6.23-1.27l-.24.1-.46.21-.23.12c-.38.19-.73.34-1,.47a8.45,8.45,0,0,1-1,.36l-.35.1a6.57,6.57,0,0,1-.71.12,3.21,3.21,0,0,1-.54,0,.23.23,0,0,1-.19-.31h0a.27.27,0,0,1,.09-.12l.21-.13.12-.07.12-.08h0l.66-.4.15-.09.14-.08.72-.4h0c1.1-.61,2.57-1.35,4.42-2.17a7.46,7.46,0,0,1,5.23.24,20.12,20.12,0,0,1,2.16.9h0a30.8,30.8,0,0,1,2.94,1.63h0c.61.38,1.16.75,1.63,1.07l.11.09,0,0,.19.13c.46.33.8.59,1,.74h0Z" transform="translate(-383 -218.41)"/><path class="cls-23" d="M754.58,379.89a29.69,29.69,0,0,1,6.75,3.61l.11.09-5.29.19C760,382.71,757,381,754.58,379.89Z" transform="translate(-383 -218.41)"/><path class="cls-24" d="M761.67,383.74l-2-.55-.1-.36a9.8,9.8,0,0,0-2.79-2,35,35,0,0,1,4.57,2.7l.11.09Z" transform="translate(-383 -218.41)"/><path class="cls-6" d="M761.48,383.61l-.55.06a5.31,5.31,0,0,0-1.23-1.24c.61.38,1.16.75,1.63,1.07l.11.09Z" transform="translate(-383 -218.41)"/><path class="cls-25" d="M762.57,384.84a8.48,8.48,0,0,1-2.44,1.34,7,7,0,0,1-5.28-.31l-3-1.38-.18-.09-.19-.09-1-.45-.2-.1-.14-.06s-.05,0-.06,0a.38.38,0,0,1-.1-.54,1.07,1.07,0,0,1,.95-.35c1.22,0,2.77,1.11,5.15.17s5.12.24,6.41,1.42A.31.31,0,0,1,762.57,384.84Z" transform="translate(-383 -218.41)"/><path class="cls-26" d="M755.43,384.2a6.18,6.18,0,0,1,6.27.19.25.25,0,0,1,0,.41c-.94.69-4.13,2.66-6.36-.23A.24.24,0,0,1,755.43,384.2Z" transform="translate(-383 -218.41)"/><path class="cls-23" d="M756.12,384.3a4.62,4.62,0,0,1,4.89.16.21.21,0,0,1,0,.34c-.74.56-3.22,2.17-5-.19A.22.22,0,0,1,756.12,384.3Z" transform="translate(-383 -218.41)"/><path class="cls-27" d="M752,384.47l-.06,0-.18-.09-.19-.09-1-.45-.2-.1-.14-.06s-.05,0-.06,0h0a.08.08,0,0,1,.07-.1,2,2,0,0,1,1.78.8A.08.08,0,0,1,752,384.47Z" transform="translate(-383 -218.41)"/><path class="cls-28" d="M751.77,384.39h0l-.19-.09-1-.45-.2-.1v0s0-.07.06-.08a1.45,1.45,0,0,1,1.38.63A.06.06,0,0,1,751.77,384.39Z" transform="translate(-383 -218.41)"/><path class="cls-23" d="M751.56,384.3h0l-1-.45v0a.05.05,0,0,1,0-.06,1.05,1.05,0,0,1,1,.45A0,0,0,0,1,751.56,384.3Z" transform="translate(-383 -218.41)"/><path class="cls-23" d="M747.48,382l-.24.1-.46.21c-.47.24-.9.44-1.28.59a8.45,8.45,0,0,1-1,.36,5.73,5.73,0,0,1-1.06.22,3.21,3.21,0,0,1-.54,0,.23.23,0,0,1-.19-.31s0,.26.69.14S746.92,381.73,747.48,382Z" transform="translate(-383 -218.41)"/><path class="cls-24" d="M747.24,382.12l-.46.21c-.47.24-.9.44-1.28.59a8.45,8.45,0,0,1-1,.36,5.73,5.73,0,0,1-1.06.22A20.2,20.2,0,0,1,747.24,382.12Z" transform="translate(-383 -218.41)"/><path class="cls-6" d="M746.55,382.45c-.38.19-.73.34-1,.47a8.45,8.45,0,0,1-1,.36l-.35.1a10.91,10.91,0,0,1,2.41-.93Z" transform="translate(-383 -218.41)"/><path class="cls-29" d="M742.69,393.39c1.11,0,8.08.08,8.7,1a3.29,3.29,0,0,0,.27.32,5.94,5.94,0,0,0,6.23,1.27l.24-.1a4.69,4.69,0,0,0,.46-.21l.23-.12c.38-.19.73-.34,1-.47a8.45,8.45,0,0,1,1-.36l.36-.1a6.06,6.06,0,0,1,.7-.12,3.21,3.21,0,0,1,.54,0,.23.23,0,0,1,.19.31h0a.27.27,0,0,1-.09.12l-.21.13-.12.07-.12.08h0l-.67.4-.15.09-.14.08-.71.4h0c-1.11.61-2.58,1.35-4.43,2.17a7.46,7.46,0,0,1-5.23-.24,21,21,0,0,1-2.16-.9h0a30.8,30.8,0,0,1-2.94-1.63h0c-.61-.38-1.16-.75-1.62-1.07l-.12-.09,0,0-.18-.13c-.47-.33-.81-.59-1-.74h0Z" transform="translate(-383 -218.41)"/><path class="cls-23" d="M750.79,398.11a29.38,29.38,0,0,1-6.74-3.61l-.12-.09,5.29-.19C745.37,395.29,748.37,397.05,750.79,398.11Z" transform="translate(-383 -218.41)"/><path class="cls-24" d="M743.71,394.26l2,.55.1.36a9.8,9.8,0,0,0,2.79,2,34.14,34.14,0,0,1-4.56-2.7l-.12-.09Z" transform="translate(-383 -218.41)"/><path class="cls-6" d="M743.89,394.39l.56-.06c.14.4,1.16,1.19,1.22,1.24-.61-.38-1.16-.75-1.62-1.07l-.12-.09Z" transform="translate(-383 -218.41)"/><path class="cls-25" d="M742.8,393.16a8.48,8.48,0,0,1,2.44-1.34,7,7,0,0,1,5.28.31l3,1.38.18.09.19.09,1,.45.2.1.13.06.07,0a.38.38,0,0,1,.09.54c-.12.18-.39.35-.95.35-1.22,0-2.77-1.11-5.15-.17-2.22.87-5.12-.24-6.41-1.42A.32.32,0,0,1,742.8,393.16Z" transform="translate(-383 -218.41)"/><path class="cls-26" d="M749.94,393.8a6.18,6.18,0,0,1-6.27-.19.25.25,0,0,1,0-.41c1-.69,4.13-2.66,6.37.23A.25.25,0,0,1,749.94,393.8Z" transform="translate(-383 -218.41)"/><path class="cls-23" d="M749.26,393.7a4.64,4.64,0,0,1-4.9-.16.22.22,0,0,1,0-.34c.74-.56,3.22-2.17,5,.19A.22.22,0,0,1,749.26,393.7Z" transform="translate(-383 -218.41)"/><path class="cls-27" d="M753.41,393.53l.06,0,.18.09.19.09,1,.45.2.1.13.06.07,0h0a.08.08,0,0,1-.07.1,2,2,0,0,1-1.78-.8A.08.08,0,0,1,753.41,393.53Z" transform="translate(-383 -218.41)"/><path class="cls-28" d="M753.61,393.61h0l.19.09,1,.45.2.1v0a.07.07,0,0,1,0,.08,1.46,1.46,0,0,1-1.39-.63A.06.06,0,0,1,753.61,393.61Z" transform="translate(-383 -218.41)"/><path class="cls-23" d="M753.81,393.7h0l1,.45v0s0,0,0,.06a1.05,1.05,0,0,1-1-.45A0,0,0,0,1,753.81,393.7Z" transform="translate(-383 -218.41)"/><path class="cls-23" d="M757.89,396l.24-.1a4.69,4.69,0,0,0,.46-.21c.47-.24.9-.44,1.28-.59a8.45,8.45,0,0,1,1-.36,5.73,5.73,0,0,1,1.06-.22,3.21,3.21,0,0,1,.54,0,.23.23,0,0,1,.19.31s0-.26-.69-.14S758.45,396.27,757.89,396Z" transform="translate(-383 -218.41)"/><path class="cls-24" d="M758.13,395.88a4.69,4.69,0,0,0,.46-.21c.47-.24.9-.44,1.28-.59a8.45,8.45,0,0,1,1-.36,5.73,5.73,0,0,1,1.06-.22A20.2,20.2,0,0,1,758.13,395.88Z" transform="translate(-383 -218.41)"/><path class="cls-6" d="M758.82,395.55c.38-.19.73-.34,1-.47a8.45,8.45,0,0,1,1-.36l.36-.1a11.06,11.06,0,0,1-2.42.93Z" transform="translate(-383 -218.41)"/></svg>