<svg id="Layer_1" data-name="Layer 1" xmlns="http://www.w3.org/2000/svg" xmlns:xlink="http://www.w3.org/1999/xlink" viewBox="0 0 790.72 705.97"><defs><style>.cls-1{fill:url(#linear-gradient);}.cls-14,.cls-16,.cls-18,.cls-19,.cls-2,.cls-3,.cls-45,.cls-46,.cls-48,.cls-49,.cls-8{fill:#fff;}.cls-2,.cls-29{opacity:0.1;}.cls-21,.cls-3{opacity:0.15;}.cls-4{fill:url(#linear-gradient-2);}.cls-16,.cls-20,.cls-5,.cls-6{opacity:0.8;}.cls-5{fill:url(#linear-gradient-3);}.cls-6{fill:url(#linear-gradient-4);}.cls-7{fill:url(#linear-gradient-5);}.cls-8{opacity:0.05;}.cls-9{fill:url(#linear-gradient-6);}.cls-10{fill:url(#linear-gradient-7);}.cls-11{fill:url(#linear-gradient-8);}.cls-12{fill:url(#linear-gradient-9);}.cls-13{fill:#f2f2f2;}.cls-14{opacity:0.6;}.cls-15{fill:#e6e6e6;}.cls-17{fill:url(#linear-gradient-10);}.cls-19,.cls-30{opacity:0.03;}.cls-20{fill:url(#linear-gradient-11);}.cls-22,.cls-23,.cls-24,.cls-25,.cls-26,.cls-27,.cls-28,.cls-29,.cls-30,.cls-31,.cls-32{stroke:#000;}.cls-22,.cls-23,.cls-24,.cls-25,.cls-26,.cls-27,.cls-28,.cls-29,.cls-30,.cls-31,.cls-32,.cls-33,.cls-34,.cls-35,.cls-36,.cls-37,.cls-38,.cls-39,.cls-40,.cls-41,.cls-42,.cls-43{stroke-miterlimit:10;}.cls-22,.cls-33,.cls-41{stroke-width:2.98px;}.cls-23,.cls-34,.cls-35,.cls-36,.cls-37,.cls-38,.cls-40,.cls-42{stroke-width:3.98px;}.cls-24,.cls-39{stroke-width:4.97px;}.cls-25,.cls-43{stroke-width:3.98px;}.cls-26,.cls-27,.cls-28,.cls-29,.cls-30,.cls-31,.cls-32{stroke-width:1.11px;}.cls-27,.cls-45{opacity:0.06;}.cls-28,.cls-46{opacity:0.08;}.cls-31,.cls-48{opacity:0.02;}.cls-32,.cls-49{opacity:0.04;}.cls-33,.cls-39,.cls-40,.cls-41,.cls-42,.cls-43{stroke:#48dbfb;}.cls-33{fill:url(#radial-gradient);}.cls-34,.cls-35,.cls-36,.cls-37,.cls-38{fill:none;}.cls-34{stroke:url(#Blue_Sky);}.cls-35{stroke:url(#Blue_Sky-2);}.cls-36{stroke:url(#Blue_Sky-3);}.cls-37{stroke:url(#Blue_Sky-4);}.cls-38{stroke:url(#Blue_Sky-5);}.cls-39{fill:url(#radial-gradient-2);}.cls-40{fill:url(#radial-gradient-3);}.cls-41{fill:url(#radial-gradient-4);}.cls-42{fill:url(#radial-gradient-5);}.cls-43{fill:url(#radial-gradient-6);}.cls-44{fill:url(#linear-gradient-12);}.cls-47{fill:#ffad40;}.cls-50{fill:url(#linear-gradient-13);}.cls-51{fill:url(#linear-gradient-14);}.cls-52{fill:url(#linear-gradient-15);}.cls-53{fill:url(#linear-gradient-16);}</style><linearGradient id="linear-gradient" x1="297.68" y1="132.74" x2="905.31" y2="643.65" gradientUnits="userSpaceOnUse"><stop offset="0.01" stop-color="#f7931e"/><stop offset="0.57" stop-color="#faa732"/><stop offset="1" stop-color="#fbb03b"/></linearGradient><linearGradient id="linear-gradient-2" x1="324.27" y1="84.72" x2="1349.96" y2="742.47" gradientUnits="userSpaceOnUse"><stop offset="0" stop-color="#3c6382"/><stop offset="0.5" stop-color="#60a3bc"/><stop offset="1" stop-color="#3c6382"/></linearGradient><linearGradient id="linear-gradient-3" x1="631.32" y1="479.98" x2="626.79" y2="142.19" xlink:href="#linear-gradient-2"/><linearGradient id="linear-gradient-4" x1="1099.44" y1="360.95" x2="659.62" y2="221.9" xlink:href="#linear-gradient-2"/><linearGradient id="linear-gradient-5" x1="355.19" y1="406.13" x2="1079.17" y2="143.14" xlink:href="#linear-gradient-2"/><linearGradient id="linear-gradient-6" x1="799.94" y1="129.53" x2="1001.61" y2="299.09" xlink:href="#linear-gradient-2"/><linearGradient id="linear-gradient-7" x1="743.64" y1="152.64" x2="1051.66" y2="411.63" xlink:href="#linear-gradient"/><linearGradient id="linear-gradient-8" x1="776.64" y1="253.91" x2="915.99" y2="253.91" gradientUnits="userSpaceOnUse"><stop offset="0" stop-color="#3c6382"/><stop offset="1" stop-color="#60a3bc"/></linearGradient><linearGradient id="linear-gradient-9" x1="758.34" y1="330.69" x2="921.67" y2="250.69" gradientUnits="userSpaceOnUse"><stop offset="0" stop-color="#ffb9bb"/><stop offset="1" stop-color="#ffdcd1"/></linearGradient><linearGradient id="linear-gradient-10" x1="757.77" y1="539.09" x2="1053.32" y2="539.09" gradientUnits="userSpaceOnUse"><stop offset="0" stop-color="#f7931e"/><stop offset="0.5" stop-color="#fbb03b"/><stop offset="1" stop-color="#f89924"/></linearGradient><linearGradient id="linear-gradient-11" x1="510.48" y1="410.91" x2="279.23" y2="714.7" xlink:href="#linear-gradient-2"/><radialGradient id="radial-gradient" cx="634.49" cy="189.18" r="4.18" gradientTransform="translate(-364.77 2.2) rotate(-2.17)" gradientUnits="userSpaceOnUse"><stop offset="0.23" stop-color="#29abe2"/><stop offset="1" stop-color="#2e3192"/></radialGradient><linearGradient id="Blue_Sky" x1="724.51" y1="190.23" x2="747.57" y2="190.23" gradientTransform="translate(-364.77 2.2) rotate(-2.17)" gradientUnits="userSpaceOnUse"><stop offset="0" stop-color="#3ddeed"/><stop offset="1" stop-color="#3ddeed" stop-opacity="0"/></linearGradient><linearGradient id="Blue_Sky-2" x1="697.72" y1="176.37" x2="719.91" y2="176.37" xlink:href="#Blue_Sky"/><linearGradient id="Blue_Sky-3" x1="677.54" y1="176.08" x2="690.58" y2="176.08" xlink:href="#Blue_Sky"/><linearGradient id="Blue_Sky-4" x1="636.37" y1="177.55" x2="665.78" y2="177.55" xlink:href="#Blue_Sky"/><linearGradient id="Blue_Sky-5" x1="624.19" y1="165.47" x2="634.64" y2="165.47" xlink:href="#Blue_Sky"/><radialGradient id="radial-gradient-2" cx="672.55" cy="165.25" r="8.49" xlink:href="#radial-gradient"/><radialGradient id="radial-gradient-3" cx="693.22" cy="185.72" r="5.97" xlink:href="#radial-gradient"/><radialGradient id="radial-gradient-4" cx="723.04" cy="166.2" r="4.72" xlink:href="#radial-gradient"/><radialGradient id="radial-gradient-5" cx="748.2" cy="216.71" r="8.4" xlink:href="#radial-gradient"/><radialGradient id="radial-gradient-6" cx="624.51" cy="137.28" r="8.4" xlink:href="#radial-gradient"/><linearGradient id="linear-gradient-12" x1="584.51" y1="105.44" x2="788.19" y2="105.44" gradientTransform="translate(-77.13 33.21) rotate(-2.17)" gradientUnits="userSpaceOnUse"><stop offset="0" stop-color="#fbb03b"/><stop offset="1" stop-color="#f15a24"/></linearGradient><linearGradient id="linear-gradient-13" x1="450.63" y1="711.14" x2="654.31" y2="711.14" gradientTransform="translate(1197.15 945.98) rotate(177.83)" xlink:href="#linear-gradient-12"/><linearGradient id="linear-gradient-14" x1="379.85" y1="444.04" x2="529.86" y2="444.04" xlink:href="#linear-gradient-10"/><linearGradient id="linear-gradient-15" x1="411.02" y1="350.7" x2="617.16" y2="524.02" xlink:href="#linear-gradient-2"/><linearGradient id="linear-gradient-16" x1="795.5" y1="301.93" x2="807.68" y2="309.74" gradientUnits="userSpaceOnUse"><stop offset="0" stop-color="#60a3bc"/><stop offset="1" stop-color="#3c6382"/></linearGradient></defs><title>Sign In-Sign Up Illustration</title><path class="cls-1" d="M1008.82,390.25C992.4,438.1,968.3,497.5,935.37,553.55c-22.69,38.59-49.56,75.6-81,106.13q-4.61,4.47-9.35,8.75c-2.93,2.64-5.87,5.22-8.87,7.73-1.95,1.65-3.92,3.26-5.89,4.84q-5.06,4.05-10.23,7.86l-3.46,2.5h0q-7.75,5.52-15.81,10.48-8.58,5.26-17.51,9.86c-1.8.91-3.6,1.81-5.41,2.68a232.33,232.33,0,0,1-29.14,11.72A219.15,219.15,0,0,1,723,732.8c-3.66.73-7.37,1.36-11.1,1.9-29.16,4.21-60.57,2.79-94.36-5.73l-.9-.23-.21-.06c-94.75-24.06-168-67-221.14-120.44q-12.09-12.15-22.78-25a363.93,363.93,0,0,1-76.69-155.94A352.47,352.47,0,0,1,292,297q.4-2.61.87-5.22c14.36-82.1,70.2-156,148.71-193.4a231.72,231.72,0,0,1,65.82-20.49q4.64-.69,9.38-1.15c58.2-5.79,125.63,13.19,195.8,84.67C817.24,268,900.18,299.87,956,305.69,997.83,310,1022.78,349.56,1008.82,390.25Z" transform="translate(-287.64 -31.01)"/><path class="cls-2" d="M954.21,392.7c-13.92,40.57-34.34,90.92-62.26,138.44-19.23,32.72-42,64.09-68.68,90-2.6,2.53-5.25,5-7.92,7.42-2.48,2.24-5,4.42-7.53,6.56-1.65,1.39-3.31,2.75-5,4.1q-4.27,3.43-8.67,6.66c-1,.71-1.95,1.41-2.93,2.11h0q-6.57,4.69-13.41,8.89-7.26,4.47-14.84,8.36-2.28,1.17-4.59,2.28a198.36,198.36,0,0,1-24.7,9.93,185.53,185.53,0,0,1-21.81,5.67c-3.1.62-6.24,1.15-9.41,1.61-24.72,3.57-51.35,2.36-80-4.86l-.76-.19-.18,0C461.68,639,373.83,534.88,349.73,424.12a298.91,298.91,0,0,1-3.22-110.5c.24-1.48.48-2.95.74-4.43,12.18-69.6,59.51-132.25,126.07-163.95a196.2,196.2,0,0,1,55.8-17.38c2.62-.38,5.27-.71,8-1,49.34-4.91,106.51,11.18,166,71.78C791.8,289.1,862.12,316.08,909.43,321,944.9,324.7,966.05,358.21,954.21,392.7Z" transform="translate(-287.64 -31.01)"/><path class="cls-3" d="M891.52,395.52c-11,32.2-27.26,72.17-49.42,109.89-15.27,26-33.35,50.87-54.52,71.42q-3.09,3-6.29,5.89c-2,1.78-3.95,3.51-6,5.2-1.31,1.11-2.63,2.19-4,3.26q-3.4,2.73-6.89,5.29l-2.32,1.68h0q-5.22,3.72-10.65,7.06-5.76,3.56-11.78,6.63c-1.21.62-2.42,1.23-3.64,1.81a157.42,157.42,0,0,1-19.61,7.89,147.94,147.94,0,0,1-17.31,4.5c-2.47.49-5,.91-7.47,1.28-19.62,2.83-40.77,1.87-63.5-3.86l-.61-.16-.14,0c-126.9-32.22-196.63-114.89-215.76-202.81a237.11,237.11,0,0,1-2.55-87.72c.18-1.18.37-2.34.58-3.51,9.67-55.26,47.24-105,100.07-130.15a155.75,155.75,0,0,1,44.3-13.8c2.08-.3,4.19-.56,6.31-.77,39.17-3.9,84.55,8.87,131.76,57C762.6,313.27,818.42,334.7,856,338.61,884.13,341.54,900.92,368.13,891.52,395.52Z" transform="translate(-287.64 -31.01)"/><path class="cls-4" d="M1071.22,413.46q-.65,3.33-1.33,6.64a534.37,534.37,0,0,1-16.57,60.72c-12.59,37.61-28.8,73.87-46,107-7,13.54-14.18,26.55-21.32,38.92-9.19,15.92-18.35,30.79-27.07,44.35a74,74,0,0,1-7.35,9.58c-22.8,25.13-59.1,28.75-86.52,8.9a73.54,73.54,0,0,1-9.24-8c-.9-.91-1.83-1.82-2.76-2.74-16.42-16.08-38.66-32.87-68.77-48.4-2.44-1.25-4.92-2.5-7.46-3.73q-9.09-4.43-19.09-8.69Q749.25,614.44,740,611c-2.18-.82-4.38-1.62-6.61-2.42q-3.06-1.09-6.16-2.17a577,577,0,0,0-55.5-15.85q-15.87-3.75-33.25-7c-2.78-.51-5.57-1-8.41-1.5q-23.69-4.12-50.22-7.18a401.73,401.73,0,0,1-48.16-8.38,306.91,306.91,0,0,1-47.37-15.34c-3-1.24-5.86-2.52-8.7-3.84-63.16-29.21-97.19-75.62-114.8-123.32a258.07,258.07,0,0,1-9-29.72,275.88,275.88,0,0,1-6.54-87.12q.89-10.53,2.56-20.92c8.15-50.49,30.16-97.86,63.87-135.33a350.91,350.91,0,0,1,37.87-36.24,360.59,360.59,0,0,1,54-36.8,368.9,368.9,0,0,1,88.29-35.07,382.55,382.55,0,0,1,85.83-11.7q3.91-.09,7.88-.09C750.56,30.8,820,46.55,890,82.3c4.92,2.49,9.84,5.11,14.77,7.82q8.81,4.84,17.61,10.13Q945,113.84,967.7,130.38q5.37,3.9,10.73,8a280.72,280.72,0,0,1,31.49,27.87,236.52,236.52,0,0,1,48.27,71.93,246.7,246.7,0,0,1,17.45,63.67C1080.69,338.28,1078.4,376,1071.22,413.46Z" transform="translate(-287.64 -31.01)"/><path class="cls-5" d="M736.78,445.24S527.25,539.73,450.16,314.58l207.75-68.77,90.87,43.58,60.14,90.89-7.19,51.12Z" transform="translate(-287.64 -31.01)"/><path class="cls-6" d="M1075.64,301.86c-14.16,21.57-38.05,45.05-78.34,63.17C897.55,409.86,894,500.71,894,500.71L851.45,344.12l57.42-198.28,13.46-45.59Q945,113.84,967.7,130.38q5.37,3.9,10.73,8C1038.61,184.32,1067.27,241.27,1075.64,301.86Z" transform="translate(-287.64 -31.01)"/><path class="cls-7" d="M799.85,467.36s26.34-117.89-100.61-148.49S563.21,430,413.59,340.4c-28.49-17-49.81-35.48-65.69-54.15,8.15-50.49,30.16-97.86,63.87-135.33a350.91,350.91,0,0,1,37.87-36.24,360.59,360.59,0,0,1,54-36.8,368.9,368.9,0,0,1,88.29-35.07,382.55,382.55,0,0,1,85.83-11.7q3.91-.09,7.88-.09C750.56,30.8,820,46.55,890,82.3c4.92,2.49,9.84,5.11,14.77,7.82a582.75,582.75,0,0,1,63,40.26c1.43,20.52-3.83,49.7-28.4,87.18-53,80.9,28.62,245.26,28.62,245.26Z" transform="translate(-287.64 -31.01)"/><path class="cls-8" d="M782.75,414.46s23.17-96.5-88.49-121.55S574.62,383.84,443,310.54q-10.92-6.09-20.3-12.44c-26-17.56-35.9-49.3-24.3-77.17a210.67,210.67,0,0,1,43-65.49,299.08,299.08,0,0,1,33.32-29.66,318.14,318.14,0,0,1,47.48-30.13A338.75,338.75,0,0,1,599.86,67a359.91,359.91,0,0,1,75.49-9.58q3.45-.07,6.93-.08C739.4,57.12,800.44,70,862,99.27c4.33,2,8.66,4.19,13,6.4q5.19,2.65,10.37,5.47c34,18.43,45.51,59,25.58,90.57q-2.57,4-5.53,8.28c-46.65,66.22,25.17,200.76,25.17,200.76Z" transform="translate(-287.64 -31.01)"/><path class="cls-9" d="M1058.19,238.19C864.17,328.77,764.83,247,732,209.27a4.54,4.54,0,0,1,5.49-7c150.66,76.67,232.71,17.23,272.41-36A236.52,236.52,0,0,1,1058.19,238.19Z" transform="translate(-287.64 -31.01)"/><path class="cls-10" d="M1023.84,449.32c-2.37-9.22-5.3-18.32-8.29-27.35-7.74-23.36-16.71-46.3-26.69-68.79A640.21,640.21,0,0,0,943,267.27C923.52,236.82,901,208,874.54,183.21c-27.07-25.37-58.23-46.25-93-59.42-4.25-1.61-8.55-3.08-12.89-4.45-9.76-3.07-13.94,12.25-4.22,15.31C797.74,145.12,828.89,164,855,186.93c26.76,23.45,48.92,50.29,68.36,79.3a619.61,619.61,0,0,1,47.53,85.61q4.58,9.93,8.85,20l.39.93c.47,1.1-.49-1.17,0-.07.3.71.6,1.42.89,2.13.67,1.59,1.32,3.18,2,4.78q1.89,4.62,3.71,9.27,6.12,15.57,11.54,31.4c3.7,10.85,6.75,21.87,10.16,32.8.05.15.08.31.12.47,2.55,9.88,17.86,5.69,15.3-4.22Z" transform="translate(-287.64 -31.01)"/><path class="cls-11" d="M780.37,228.55s-10.79-29.78,4.32-36.84,106.31-41.56,126,22S889.49,322.2,889.49,322.2l-34.77,9.57-21.16-33.2L817.94,229Z" transform="translate(-287.64 -31.01)"/><path class="cls-12" d="M830,365V339.71a6,6,0,0,0-6.86-5.92l-36.4,5.39a6.65,6.65,0,0,1-7.63-6.58V300.91a5.41,5.41,0,0,0-5.41-5.41h-3.2a4,4,0,0,1-3.81-5.23l6.62-20.58a145.57,145.57,0,0,0,6.8-36.93l.22-4.21a17.27,17.27,0,0,1,3.82-10h0A13,13,0,0,1,797.05,214l30.81,6.61a10.76,10.76,0,0,1,8.22,13l-4.68,19.82a6,6,0,0,0,4.38,7.2h0a6,6,0,0,0,4.4-.6l10.57-6a6.27,6.27,0,0,1,9.35,5.09l.95,16.21a6.27,6.27,0,0,1-3,5.74l-6.78,4.1A12.61,12.61,0,0,0,845.82,300l4.46,13.38a15.07,15.07,0,0,0,14.3,10.31h11.81l13.1-1.51L894,365Z" transform="translate(-287.64 -31.01)"/><path class="cls-13" d="M1007.35,587.83c-7,13.54-14.18,26.55-21.32,38.92H776.86q-9.09-4.43-19.09-8.69Q749.25,614.44,740,611l3.65-44.16a2.91,2.91,0,0,0-5.72-1l-5.26,19.95-5.44,20.61a577,577,0,0,0-55.5-15.85q-5.52-1.31-11.23-2.54l-1.92-.42c-3.34-.71-6.74-1.42-10.17-2.1L645,584.8l-2.14-.41c-1.43-.28-2.87-.56-4.32-.82l4.81-13,4.38-11.81,2.78-7.49,48.07-129.48a37.08,37.08,0,0,1,26.88-23.32l10.64-2.31,66.64-14.48,4.59,0,1.84,0,2.7-3,4.94-16.79a7,7,0,0,1,6.48-5l6.79-.23,62.86-2.12,2.68-.09a7,7,0,0,1,6.77,4.49l6.52,17h0l38.47,5.59a35.73,35.73,0,0,1,30.07,29.38l.11.69,1.29,7.63Z" transform="translate(-287.64 -31.01)"/><path class="cls-14" d="M969.72,394a52.13,52.13,0,0,1-9.45-4.72c-17-10.58-44.78-6.24-44.78-6.24l-6.62-7.18h0l38.47,5.59A35.66,35.66,0,0,1,969.72,394Z" transform="translate(-287.64 -31.01)"/><path class="cls-15" d="M736.19,599.44l-2.78,9.12q-3.06-1.09-6.16-2.17a577,577,0,0,0-55.5-15.85c-1.88-.45-3.77-.89-5.69-1.32L660.52,588l-1.92-.42c-3.34-.71-6.74-1.42-10.17-2.1L645,584.8l-2.14-.41-4.32-.82c-2.78-.51-5.57-1-8.41-1.5l4.17-13.67a13.56,13.56,0,0,1,16.92-9l16.12,4.91,5.48,1.67,54.38,16.56a13.56,13.56,0,0,1,9,16.93Z" transform="translate(-287.64 -31.01)"/><path class="cls-16" d="M815.42,390.21s-78.09,2.52-82.62,38.3c-4.27,33.68-57.24,70.94-65.5,135.77l-16.12-4.91a13.63,13.63,0,0,0-3.49-.58l2.78-7.49,48.07-129.48a37.08,37.08,0,0,1,26.88-23.32l10.64-2.31,66.64-14.48,4.59,0Z" transform="translate(-287.64 -31.01)"/><path class="cls-17" d="M1053.32,480.82q-3.43,10.28-7.22,20.4a788.63,788.63,0,0,1-38.75,86.61c-7,13.54-14.18,26.55-21.32,38.92-9.19,15.92-18.35,30.79-27.07,44.35a74,74,0,0,1-7.35,9.58c-22.8,25.13-59.1,28.75-86.52,8.9a73.54,73.54,0,0,1-9.24-8c-.9-.91-1.83-1.82-2.76-2.74A253.2,253.2,0,0,0,818,650.44a324.24,324.24,0,0,0-33.72-20c-2.44-1.25-4.92-2.5-7.46-3.73q-9.09-4.43-19.09-8.69c7.29-14.87,16.92-28.15,29.44-38.92,90.32-77.7,15.49-197.43,15.49-197.43l3.16-1.72a2,2,0,0,1,1.69-.13l.94.35a1.25,1.25,0,0,0,.43.07,1.31,1.31,0,0,0,1.13-.65,2.05,2.05,0,0,1,1.78-1h2.59c94.46,11.82,94.45-2.75,94.45-2.75a375.81,375.81,0,0,1,68.69,35.67A325.46,325.46,0,0,1,1053.32,480.82Z" transform="translate(-287.64 -31.01)"/><path class="cls-18" d="M672.78,566a128.07,128.07,0,0,0-6.72,23.27L660.52,588l-1.92-.42c-3.34-.71-6.74-1.42-10.17-2.1L645,584.8l-2.14-.41-4.32-.82c-2.78-.51-5.57-1-8.41-1.5l4.17-13.67a13.56,13.56,0,0,1,16.92-9l16.12,4.91Z" transform="translate(-287.64 -31.01)"/><path class="cls-19" d="M1046.1,501.22c-1.51,4.07-3.08,8.13-4.67,12.17a806.26,806.26,0,0,1-34.08,74.44c-7,13.54-14.18,26.55-21.32,38.92-9.19,15.92-18.35,30.79-27.07,44.35a74,74,0,0,1-7.35,9.58c-22.8,25.13-59.1,28.75-86.52,8.9a73.54,73.54,0,0,1-9.24-8l-.33-.32c-.79-.81-1.61-1.61-2.43-2.42A253.2,253.2,0,0,0,818,650.44c86.44-119.72,39.23-226.35,27.23-249.26a2.33,2.33,0,0,1,2.57-3.35c47.25,10.48,63.15-4.3,67.08-9.4a2.32,2.32,0,0,1,2.92-.66C979.19,419.72,1020.13,464,1046.1,501.22Z" transform="translate(-287.64 -31.01)"/><path class="cls-8" d="M1041.43,513.39a806.26,806.26,0,0,1-34.08,74.44c-7,13.54-14.18,26.55-21.32,38.92-9.19,15.92-18.35,30.79-27.07,44.35a74,74,0,0,1-7.35,9.58c-22.8,25.13-59.1,28.75-86.52,8.9a73.54,73.54,0,0,1-9.24-8l-.33-.32C922.45,559.13,882,452.77,871.41,429.15c-.84-1.88.59-4,2.36-3.59,43.54,11.26,58.19-4.63,61.81-10.11a2,2,0,0,1,2.7-.71C984.15,442.61,1017.64,479.18,1041.43,513.39Z" transform="translate(-287.64 -31.01)"/><path class="cls-20" d="M543.66,515.55a114,114,0,0,1-11.95,51,299.76,299.76,0,0,1-56.07-19.18c-63.16-29.21-97.19-75.62-114.8-123.32a114.33,114.33,0,0,1,182.82,91.54Z" transform="translate(-287.64 -31.01)"/><g class="cls-21"><circle class="cls-22" cx="272.68" cy="175.48" r="4.18"/><line class="cls-23" x1="363.69" y1="152.44" x2="384.7" y2="192.95"/><line class="cls-23" x1="336.87" y1="167.84" x2="356.05" y2="151.9"/><line class="cls-23" x1="316.43" y1="155.43" x2="327" y2="165.61"/><line class="cls-23" x1="302.02" y1="153.42" x2="275.59" y2="173.05"/><line class="cls-23" x1="270.73" y1="171.8" x2="262.69" y2="132.17"/><circle class="cls-24" cx="309.81" cy="150.13" r="8.49"/><circle class="cls-23" cx="331.24" cy="169.81" r="5.97"/><circle class="cls-22" cx="360.29" cy="149.17" r="4.71"/><circle class="cls-23" cx="387.34" cy="198.69" r="8.4"/><circle class="cls-25" cx="260.74" cy="123.99" r="8.4"/><path class="cls-26" d="M711.77,144.17c-11.29.37-82.26,2.31-89-6.81a24.81,24.81,0,0,0-2.83-3.16c-9.9-9.53-35.15-22.67-63.91-10.52-.81.33-1.61.69-2.42,1.07-1.51.71-3,1.48-4.54,2.33-.79.45-1.58.88-2.34,1.3q-5.72,3.09-10.49,5.24a104.16,104.16,0,0,1-10.18,4c-1.25.42-2.43.78-3.54,1.09a49.37,49.37,0,0,1-7.16,1.5,28.18,28.18,0,0,1-5.44.23,2.37,2.37,0,0,1-2.08-3.13h0a2.3,2.3,0,0,1,.89-1.16c.62-.44,1.31-.92,2.08-1.44l1.19-.81c.38-.27.8-.55,1.22-.83h0c1.9-1.27,4.11-2.72,6.66-4.34l1.41-.89,1.4-.87c2.18-1.36,4.57-2.82,7.16-4.36l.11-.07c11-6.57,25.7-14.72,44.21-23.72,14.76-7.17,33.91-5.4,53.28.4a202.85,202.85,0,0,1,22.35,8.29l.05,0,.17.08a314.18,314.18,0,0,1,30.52,15.47l0,0h0c6.38,3.65,12.12,7.19,16.94,10.28l1.23.79.39.25,1.93,1.26c4.84,3.18,8.45,5.71,10.45,7.13h0Z" transform="translate(-287.64 -31.01)"/><path class="cls-27" d="M627.45,99.25c26.63,8,53.64,23.63,70.06,34.16l1.23.79-53.8,4C683.76,125.84,652.55,109.06,627.45,99.25Z" transform="translate(-287.64 -31.01)"/><path class="cls-28" d="M701.06,135.71l-20.72-4.89-1.13-3.53c-9.15-10.36-27-18.66-29.19-19.65a348.06,348.06,0,0,1,47.49,25.77l1.23.79Z" transform="translate(-287.64 -31.01)"/><path class="cls-29" d="M699.13,134.45l-5.62.79c-1.6-4-12.27-11.63-12.94-12.11,6.38,3.65,12.12,7.19,16.94,10.28l1.23.79Z" transform="translate(-287.64 -31.01)"/><path class="cls-26" d="M710.66,146.53a84.89,84.89,0,0,1-24.25,14.55A71.63,71.63,0,0,1,632.49,160l-30.5-13-1.91-.81-2-.83-10-4.24-2.07-.88-1.44-.61a3.59,3.59,0,0,1-.64-.35,4,4,0,0,1-1.2-5.48c1.22-1.93,3.9-3.76,9.6-3.92,12.42-.35,28.58,10.19,52.46-.24,22.28-9.75,52.21.4,65.78,11.95A3.21,3.21,0,0,1,710.66,146.53Z" transform="translate(-287.64 -31.01)"/><path class="cls-30" d="M637.74,142.75c8.25-4.72,35.58-17.59,64-.43a2.55,2.55,0,0,1,.25,4.18c-9.37,7.39-41,28.59-64.9.11A2.56,2.56,0,0,1,637.74,142.75Z" transform="translate(-287.64 -31.01)"/><path class="cls-27" d="M644.79,143.52c6.43-3.85,27.72-14.35,49.89-.25a2.16,2.16,0,0,1,.2,3.43c-7.3,6-32,23.36-50.62,0A2.15,2.15,0,0,1,644.79,143.52Z" transform="translate(-287.64 -31.01)"/><path class="cls-31" d="M602.6,146.89c-.18.05-.38.11-.61.16l-1.91-.81-2-.83-10-4.24-2.07-.88-1.44-.61a3.59,3.59,0,0,1-.64-.35s0-.08,0-.12a.8.8,0,0,1,.66-1c2.93-.37,12.31-.83,18.42,7.48A.79.79,0,0,1,602.6,146.89Z" transform="translate(-287.64 -31.01)"/><path class="cls-32" d="M600.55,146.1l-.47.14-2-.83-10-4.24-2.07-.88-.06-.2a.67.67,0,0,1,.53-.85c2.3-.34,9.67-.83,14.36,5.86A.66.66,0,0,1,600.55,146.1Z" transform="translate(-287.64 -31.01)"/><path class="cls-27" d="M598.46,145.3l-.36.11-10-4.24,0-.16a.48.48,0,0,1,.38-.61,10.48,10.48,0,0,1,10.24,4.18A.48.48,0,0,1,598.46,145.3Z" transform="translate(-287.64 -31.01)"/><path class="cls-27" d="M556,123.68c-.81.33-1.61.69-2.42,1.07-1.51.71-3,1.48-4.54,2.33-4.73,2.65-9,4.8-12.83,6.54a104.16,104.16,0,0,1-10.18,4,56,56,0,0,1-10.7,2.59,28.18,28.18,0,0,1-5.44.23,2.37,2.37,0,0,1-2.08-3.13c0,.2.24,2.71,7.08,1.21C522,137,550.21,120.87,556,123.68Z" transform="translate(-287.64 -31.01)"/><path class="cls-28" d="M553.6,124.75c-1.51.71-3,1.48-4.54,2.33-4.73,2.65-9,4.8-12.83,6.54a104.16,104.16,0,0,1-10.18,4,56,56,0,0,1-10.7,2.59S547,124.5,553.6,124.75Z" transform="translate(-287.64 -31.01)"/><path class="cls-29" d="M546.72,128.38q-5.72,3.09-10.49,5.24a104.16,104.16,0,0,1-10.18,4c-1.25.42-2.43.78-3.54,1.09,0,0,15.41-8.76,24.19-10.38Z" transform="translate(-287.64 -31.01)"/><path class="cls-26" d="M511.62,241.19c11.29-.36,82.26-2.3,89,6.82a26.25,26.25,0,0,0,2.83,3.16c9.9,9.53,35.15,22.67,63.91,10.52.81-.34,1.61-.69,2.42-1.07q2.26-1.06,4.54-2.33c.79-.45,1.58-.88,2.34-1.3,3.81-2.07,7.3-3.8,10.49-5.24a104.16,104.16,0,0,1,10.18-4.05c1.25-.42,2.43-.78,3.54-1.09A49.55,49.55,0,0,1,708,245.1a28.88,28.88,0,0,1,5.44-.22,2.37,2.37,0,0,1,2.08,3.13h0a2.34,2.34,0,0,1-.89,1.16c-.62.44-1.31.91-2.08,1.44l-1.19.81c-.38.27-.8.54-1.22.82h0c-1.9,1.27-4.11,2.73-6.66,4.34l-1.41.9-1.4.87c-2.18,1.36-4.57,2.82-7.16,4.36l-.11.07c-11,6.57-25.7,14.71-44.21,23.71-14.76,7.18-33.92,5.41-53.28-.39a202.85,202.85,0,0,1-22.35-8.29l-.05,0-.17-.08a316.44,316.44,0,0,1-30.52-15.47l0,0h0c-6.38-3.66-12.12-7.19-16.94-10.28l-1.23-.79-.39-.26-1.93-1.25c-4.84-3.18-8.45-5.71-10.45-7.13h0Z" transform="translate(-287.64 -31.01)"/><path class="cls-27" d="M595.94,286.12c-26.63-8-53.64-23.63-70.06-34.16l-1.23-.79,53.8-4C539.63,259.53,570.84,276.3,595.94,286.12Z" transform="translate(-287.64 -31.01)"/><path class="cls-28" d="M522.33,249.66l20.72,4.89,1.13,3.53c9.15,10.35,27,18.65,29.19,19.65A349.16,349.16,0,0,1,525.88,252l-1.23-.79Z" transform="translate(-287.64 -31.01)"/><path class="cls-29" d="M524.26,250.91l5.62-.79c1.6,4,12.27,11.64,12.94,12.12-6.38-3.66-12.12-7.19-16.94-10.28l-1.23-.79Z" transform="translate(-287.64 -31.01)"/><path class="cls-26" d="M512.73,238.84A85.09,85.09,0,0,1,537,224.28a71.63,71.63,0,0,1,53.92,1.07l30.5,13,1.91.82,2,.83,10,4.24,2.08.88,1.44.61a3.06,3.06,0,0,1,.64.35,4,4,0,0,1,1.2,5.48c-1.23,1.93-3.9,3.75-9.6,3.92-12.42.35-28.58-10.2-52.46.24-22.28,9.75-52.21-.4-65.78-12A3.21,3.21,0,0,1,512.73,238.84Z" transform="translate(-287.64 -31.01)"/><path class="cls-30" d="M585.65,242.62c-8.25,4.72-35.58,17.59-64,.43a2.56,2.56,0,0,1-.25-4.19c9.37-7.38,41-28.59,64.9-.1A2.56,2.56,0,0,1,585.65,242.62Z" transform="translate(-287.64 -31.01)"/><path class="cls-27" d="M578.6,241.84c-6.43,3.86-27.72,14.36-49.89.26a2.16,2.16,0,0,1-.2-3.43c7.3-6,32-23.36,50.62,0A2.15,2.15,0,0,1,578.6,241.84Z" transform="translate(-287.64 -31.01)"/><path class="cls-31" d="M620.79,238.48l.61-.17,1.91.82,2,.83,10,4.24,2.08.88,1.44.61a3.06,3.06,0,0,1,.64.35s0,.08,0,.11a.79.79,0,0,1-.66,1c-2.93.38-12.31.83-18.42-7.47A.79.79,0,0,1,620.79,238.48Z" transform="translate(-287.64 -31.01)"/><path class="cls-32" d="M622.84,239.26l.47-.13,2,.83,10,4.24,2.08.88.06.2a.66.66,0,0,1-.53.84c-2.3.35-9.67.84-14.36-5.85A.67.67,0,0,1,622.84,239.26Z" transform="translate(-287.64 -31.01)"/><path class="cls-27" d="M624.93,240.07l.36-.11,10,4.24.06.16a.47.47,0,0,1-.38.6,10.49,10.49,0,0,1-10.24-4.17A.48.48,0,0,1,624.93,240.07Z" transform="translate(-287.64 -31.01)"/><path class="cls-27" d="M667.37,261.69c.81-.34,1.61-.69,2.42-1.07q2.26-1.06,4.54-2.33c4.73-2.65,9-4.81,12.83-6.54a104.16,104.16,0,0,1,10.18-4.05,56.92,56.92,0,0,1,10.7-2.6,28.88,28.88,0,0,1,5.44-.22,2.37,2.37,0,0,1,2.08,3.13c0-.2-.24-2.71-7.08-1.22C701.37,248.35,673.18,264.5,667.37,261.69Z" transform="translate(-287.64 -31.01)"/><path class="cls-28" d="M669.79,260.62q2.26-1.06,4.54-2.33c4.73-2.65,9-4.81,12.83-6.54a104.16,104.16,0,0,1,10.18-4.05,56.92,56.92,0,0,1,10.7-2.6S676.42,260.87,669.79,260.62Z" transform="translate(-287.64 -31.01)"/><path class="cls-29" d="M676.67,257c3.81-2.07,7.3-3.8,10.49-5.24a104.16,104.16,0,0,1,10.18-4.05c1.25-.42,2.43-.78,3.54-1.09,0,0-15.41,8.76-24.19,10.38Z" transform="translate(-287.64 -31.01)"/></g><circle class="cls-33" cx="276.42" cy="167.23" r="4.18"/><line class="cls-34" x1="367.43" y1="144.19" x2="388.45" y2="184.7"/><line class="cls-35" x1="340.62" y1="159.59" x2="359.79" y2="143.65"/><line class="cls-36" x1="320.18" y1="147.18" x2="330.75" y2="157.36"/><line class="cls-37" x1="305.77" y1="145.17" x2="279.33" y2="164.8"/><line class="cls-38" x1="274.47" y1="163.55" x2="266.44" y2="123.92"/><circle class="cls-39" cx="313.55" cy="141.88" r="8.49"/><circle class="cls-40" cx="334.98" cy="161.56" r="5.97"/><circle class="cls-41" cx="364.04" cy="140.92" r="4.71"/><circle class="cls-42" cx="391.09" cy="190.44" r="8.4"/><circle class="cls-43" cx="264.48" cy="115.74" r="8.4"/><path class="cls-44" d="M715.51,135.93c-11.29.36-82.26,2.3-89-6.82a24,24,0,0,0-2.83-3.16c-9.9-9.53-35.14-22.67-63.91-10.52-.8.33-1.61.69-2.42,1.07-1.5.71-3,1.48-4.53,2.33l-2.35,1.3q-5.72,3.09-10.49,5.24a104.07,104.07,0,0,1-10.17,4c-1.25.42-2.43.78-3.55,1.09a49.1,49.1,0,0,1-7.16,1.5,28.12,28.12,0,0,1-5.44.23,2.36,2.36,0,0,1-2.07-3.13h0a2.3,2.3,0,0,1,.89-1.16l2.07-1.44,1.19-.81c.39-.27.8-.55,1.23-.83h0c1.9-1.27,4.11-2.72,6.65-4.34l1.42-.89,1.4-.87c2.18-1.36,4.56-2.82,7.16-4.36l.1-.07c11-6.57,25.71-14.72,44.22-23.72,14.75-7.17,33.91-5.4,53.27.4a203,203,0,0,1,22.36,8.29l0,0,.18.08a315.33,315.33,0,0,1,30.52,15.47l0,0h0c6.38,3.65,12.12,7.19,16.94,10.28l1.22.79.4.25,1.92,1.26c4.84,3.18,8.45,5.71,10.45,7.13h0Z" transform="translate(-287.64 -31.01)"/><path class="cls-45" d="M631.19,91c26.64,8,53.65,23.63,70.07,34.16l1.22.79-53.79,4C687.51,117.59,656.3,100.81,631.19,91Z" transform="translate(-287.64 -31.01)"/><path class="cls-46" d="M704.8,127.46l-20.71-4.89L683,119c-9.15-10.35-27-18.66-29.19-19.65a349.27,349.27,0,0,1,47.49,25.77l1.22.79Z" transform="translate(-287.64 -31.01)"/><path class="cls-2" d="M702.88,126.2l-5.63.79c-1.6-4-12.26-11.63-12.93-12.11,6.38,3.65,12.12,7.19,16.94,10.28l1.22.79Z" transform="translate(-287.64 -31.01)"/><path class="cls-47" d="M714.41,138.28a85.19,85.19,0,0,1-24.25,14.55,71.61,71.61,0,0,1-53.93-1.06l-30.49-13-1.92-.81-2-.83-10-4.24-2.07-.88-1.44-.61a3.68,3.68,0,0,1-.65-.35,4,4,0,0,1-1.19-5.48c1.22-1.93,3.89-3.76,9.6-3.92,12.41-.35,28.58,10.19,52.45-.24,22.29-9.75,52.22.4,65.79,11.95A3.22,3.22,0,0,1,714.41,138.28Z" transform="translate(-287.64 -31.01)"/><path class="cls-19" d="M641.49,134.5c8.25-4.72,35.58-17.59,64-.43a2.56,2.56,0,0,1,.25,4.19c-9.37,7.38-41,28.58-64.89.1A2.56,2.56,0,0,1,641.49,134.5Z" transform="translate(-287.64 -31.01)"/><path class="cls-45" d="M648.54,135.27c6.42-3.85,27.72-14.35,49.88-.25a2.15,2.15,0,0,1,.2,3.43c-7.29,6-31.94,23.36-50.61,0A2.15,2.15,0,0,1,648.54,135.27Z" transform="translate(-287.64 -31.01)"/><path class="cls-48" d="M606.35,138.64l-.61.16-1.92-.81-2-.83-10-4.24-2.07-.88-1.44-.61a3.68,3.68,0,0,1-.65-.35.56.56,0,0,0,0-.12.81.81,0,0,1,.66-1c2.93-.37,12.31-.83,18.43,7.48A.79.79,0,0,1,606.35,138.64Z" transform="translate(-287.64 -31.01)"/><path class="cls-49" d="M604.3,137.85a4.63,4.63,0,0,1-.48.14l-2-.83-10-4.24-2.07-.88a1.52,1.52,0,0,1-.06-.2.67.67,0,0,1,.52-.85c2.31-.34,9.67-.83,14.37,5.86A.67.67,0,0,1,604.3,137.85Z" transform="translate(-287.64 -31.01)"/><path class="cls-45" d="M602.21,137.05l-.36.11-10-4.24,0-.16a.49.49,0,0,1,.38-.61,10.5,10.5,0,0,1,10.24,4.18A.48.48,0,0,1,602.21,137.05Z" transform="translate(-287.64 -31.01)"/><path class="cls-45" d="M559.76,115.43c-.8.33-1.61.69-2.42,1.07-1.5.71-3,1.48-4.53,2.33-4.74,2.65-9,4.8-12.84,6.54a104.07,104.07,0,0,1-10.17,4A55.9,55.9,0,0,1,519.09,132a28.12,28.12,0,0,1-5.44.23,2.36,2.36,0,0,1-2.07-3.13c0,.2.24,2.71,7.07,1.22C525.77,128.77,554,112.62,559.76,115.43Z" transform="translate(-287.64 -31.01)"/><path class="cls-46" d="M557.34,116.5c-1.5.71-3,1.48-4.53,2.33-4.74,2.65-9,4.8-12.84,6.54a104.07,104.07,0,0,1-10.17,4A55.9,55.9,0,0,1,519.09,132S550.71,116.25,557.34,116.5Z" transform="translate(-287.64 -31.01)"/><path class="cls-2" d="M550.46,120.13q-5.72,3.09-10.49,5.24a104.07,104.07,0,0,1-10.17,4c-1.25.42-2.43.78-3.55,1.09,0,0,15.41-8.76,24.2-10.38Z" transform="translate(-287.64 -31.01)"/><path class="cls-50" d="M515.37,232.94c11.29-.36,82.26-2.3,89,6.82a25.51,25.51,0,0,0,2.83,3.16c9.9,9.53,35.15,22.67,63.91,10.52.8-.34,1.61-.69,2.42-1.07,1.5-.71,3-1.48,4.54-2.33.79-.45,1.57-.88,2.34-1.3q5.72-3.09,10.49-5.24a105.08,105.08,0,0,1,10.17-4.05c1.25-.42,2.43-.78,3.55-1.09a50.65,50.65,0,0,1,7.16-1.51,28.83,28.83,0,0,1,5.44-.22,2.36,2.36,0,0,1,2.07,3.13h0a2.32,2.32,0,0,1-.88,1.16c-.62.44-1.32.92-2.08,1.44l-1.19.81-1.23.82h0q-2.83,1.92-6.65,4.34c-.46.3-.93.6-1.42.9l-1.39.87c-2.18,1.36-4.57,2.82-7.16,4.36l-.11.07c-11,6.57-25.71,14.71-44.22,23.72-14.75,7.17-33.91,5.4-53.27-.4a203.76,203.76,0,0,1-22.36-8.29l0,0-.18-.08A315.33,315.33,0,0,1,546.59,254l0,0h0c-6.38-3.65-12.12-7.19-16.94-10.28l-1.22-.79-.39-.25-1.93-1.26c-4.84-3.18-8.45-5.71-10.45-7.13h0Z" transform="translate(-287.64 -31.01)"/><path class="cls-45" d="M599.69,277.87c-26.64-8-53.65-23.63-70.07-34.16l-1.22-.79,53.8-4C543.37,251.28,574.58,268.05,599.69,277.87Z" transform="translate(-287.64 -31.01)"/><path class="cls-46" d="M526.08,241.41l20.71,4.89,1.14,3.53c9.14,10.35,27,18.65,29.18,19.65a349.27,349.27,0,0,1-47.49-25.77l-1.22-.79Z" transform="translate(-287.64 -31.01)"/><path class="cls-2" d="M528,242.67l5.62-.79c1.6,4,12.26,11.63,12.93,12.11-6.38-3.65-12.12-7.19-16.94-10.28l-1.22-.79Z" transform="translate(-287.64 -31.01)"/><path class="cls-47" d="M516.47,230.59A85.19,85.19,0,0,1,540.72,216a71.61,71.61,0,0,1,53.93,1.06l30.5,13,1.91.82,2,.83L639,236l2.07.88,1.44.61a3.68,3.68,0,0,1,.65.35,4,4,0,0,1,1.2,5.48c-1.23,1.93-3.9,3.76-9.6,3.92-12.42.35-28.59-10.19-52.46.24-22.28,9.75-52.21-.4-65.78-12A3.22,3.22,0,0,1,516.47,230.59Z" transform="translate(-287.64 -31.01)"/><path class="cls-19" d="M589.39,234.37c-8.25,4.72-35.58,17.59-64,.43a2.56,2.56,0,0,1-.25-4.19c9.37-7.38,41-28.58,64.89-.1A2.54,2.54,0,0,1,589.39,234.37Z" transform="translate(-287.64 -31.01)"/><path class="cls-45" d="M582.35,233.6c-6.43,3.85-27.73,14.35-49.89.25a2.15,2.15,0,0,1-.2-3.43c7.3-6,31.94-23.36,50.61,0A2.16,2.16,0,0,1,582.35,233.6Z" transform="translate(-287.64 -31.01)"/><path class="cls-48" d="M624.53,230.23l.62-.17,1.91.82,2,.83L639,236l2.07.88,1.44.61a3.68,3.68,0,0,1,.65.35s0,.08,0,.12a.8.8,0,0,1-.66,1c-2.93.37-12.31.82-18.42-7.48A.79.79,0,0,1,624.53,230.23Z" transform="translate(-287.64 -31.01)"/><path class="cls-49" d="M626.59,231a4.41,4.41,0,0,1,.47-.14l2,.83L639,236l2.07.88a1.59,1.59,0,0,1,.07.2.66.66,0,0,1-.53.84c-2.3.35-9.67.84-14.36-5.85A.66.66,0,0,1,626.59,231Z" transform="translate(-287.64 -31.01)"/><path class="cls-45" d="M628.67,231.82l.36-.11L639,236l0,.16a.47.47,0,0,1-.37.6,10.48,10.48,0,0,1-10.25-4.17A.48.48,0,0,1,628.67,231.82Z" transform="translate(-287.64 -31.01)"/><path class="cls-45" d="M671.12,253.44c.8-.34,1.61-.69,2.42-1.07,1.5-.71,3-1.48,4.54-2.33,4.73-2.65,9-4.8,12.83-6.54a105.08,105.08,0,0,1,10.17-4.05,57.18,57.18,0,0,1,10.71-2.6,28.83,28.83,0,0,1,5.44-.22,2.36,2.36,0,0,1,2.07,3.13c0-.2-.23-2.71-7.07-1.22C705.12,240.1,676.92,256.25,671.12,253.44Z" transform="translate(-287.64 -31.01)"/><path class="cls-46" d="M673.54,252.37c1.5-.71,3-1.48,4.54-2.33,4.73-2.65,9-4.8,12.83-6.54a105.08,105.08,0,0,1,10.17-4.05,57.18,57.18,0,0,1,10.71-2.6S680.17,252.62,673.54,252.37Z" transform="translate(-287.64 -31.01)"/><path class="cls-2" d="M680.42,248.74q5.72-3.09,10.49-5.24a105.08,105.08,0,0,1,10.17-4.05c1.25-.42,2.43-.78,3.55-1.09,0,0-15.41,8.76-24.2,10.38Z" transform="translate(-287.64 -31.01)"/><path class="cls-51" d="M533.47,301a3.46,3.46,0,0,1-.31.22c-.81.59-1.64,1.16-2.46,1.75l-2.12,1.58c-.11.09-.22.18-.34.26l-.19.15q-7.69,6.07-14.94,12.65-10.62,9.6-20.39,20.1-5.84,6.23-11.36,12.73-3,3.56-6,7.17c-1,1.26-2,2.51-3,3.77-.35.44-.69.89-1,1.33-.06.09-.15.19-.22.29l-.17.22a379.26,379.26,0,0,0-45.81,77.61c-.47,1.07-.92,2.15-1.39,3.22a.42.42,0,0,1,0,.1.81.81,0,0,1-.06.13s0,0,0,0c-.06.16-.13.33-.2.49q-1.24,3-2.45,6.06-2.37,6-4.53,12.11-4.55,12.87-8.16,26-3.85,14.07-6.63,28.42-1.38,7.21-2.5,14.48c-.22,1.43-.43,2.86-.64,4.29-.06.44-.12.88-.19,1.31,0,0,0,.08,0,.11h0a.3.3,0,0,1,0,.1h0a.11.11,0,0,1,0,.06.57.57,0,0,1,0,.12h0a.28.28,0,0,1,0,.09c-.32,2.43-.61,4.86-.88,7.31a417,417,0,0,0-2.16,62.91q-12.09-12.15-22.78-25a425.39,425.39,0,0,1,4.49-55,384.24,384.24,0,0,1,81.66-185.76,350.55,350.55,0,0,1,42.71-44.71A209,209,0,0,1,522,281.43c5.11-3.42,12.56-1,15.52,4.06C540.77,291,538.56,297.6,533.47,301Z" transform="translate(-287.64 -31.01)"/><path class="cls-52" d="M579.87,574.89a401.73,401.73,0,0,1-48.16-8.38,306.91,306.91,0,0,1-47.37-15.34c-103.2-150-34.82-253.53-9.34-283.69a1.39,1.39,0,0,1,2.28,1.57C385.85,437.7,579.87,574.89,579.87,574.89Z" transform="translate(-287.64 -31.01)"/><path class="cls-53" d="M790,312.5c9-.08,19.32-3.26,24.3-11.26,1-1.65-1.58-3.15-2.6-1.52-4.38,7.06-13.77,9.71-21.7,9.78a1.5,1.5,0,0,0,0,3Z" transform="translate(-287.64 -31.01)"/></svg>