<svg id="Layer_1" data-name="Layer 1" xmlns="http://www.w3.org/2000/svg" xmlns:xlink="http://www.w3.org/1999/xlink" viewBox="0 0 656.37 549.53"><defs><style>.cls-1{fill:#89c6cd;}.cls-2{fill:#dde3e9;}.cls-3{fill:#c2dee2;}.cls-4{fill:#69a1ac;}.cls-5{opacity:0.6;}.cls-6{fill:#f3f3f3;}.cls-11,.cls-7{fill:#fff;}.cls-8{fill:#c5cfd6;}.cls-9{fill:#b0bac5;}.cls-10{fill:url(#linear-gradient);}.cls-11{opacity:0.05;isolation:isolate;}.cls-12{fill:url(#linear-gradient-2);}.cls-13{fill:url(#linear-gradient-3);}.cls-14{fill:url(#linear-gradient-4);}.cls-15{fill:url(#linear-gradient-5);}.cls-16{fill:#51a3d2;}.cls-17{fill:url(#linear-gradient-6);}.cls-18{fill:url(#linear-gradient-7);}.cls-19{fill:#dddbda;}.cls-20{fill:url(#linear-gradient-8);}.cls-21{fill:#eaeaea;}.cls-22{fill:url(#linear-gradient-9);}.cls-23{fill:url(#linear-gradient-10);}.cls-24{fill:url(#linear-gradient-11);}.cls-25{fill:#e6e6e5;}.cls-26{fill:url(#linear-gradient-12);}.cls-27{fill:url(#linear-gradient-13);}.cls-28{fill:url(#linear-gradient-14);}</style><linearGradient id="linear-gradient" x1="470.73" y1="164.87" x2="755.73" y2="164.87" gradientTransform="matrix(1, 0, 0, -1, -178.9, 516.86)" gradientUnits="userSpaceOnUse"><stop offset="0" stop-color="#f89522" stop-opacity="0.6"/><stop offset="0.5" stop-color="#fbb03b" stop-opacity="0.8"/><stop offset="1" stop-color="#f99f36"/></linearGradient><linearGradient id="linear-gradient-2" x1="440.43" y1="-8.32" x2="444" y2="-32.44" gradientTransform="matrix(1, 0, 0, -1, -178.9, 516.86)" gradientUnits="userSpaceOnUse"><stop offset="0" stop-color="#fdddd2"/><stop offset="1" stop-color="#f9b7bb"/></linearGradient><linearGradient id="linear-gradient-3" x1="339.57" y1="80.69" x2="344.06" y2="50.4" xlink:href="#linear-gradient-2"/><linearGradient id="linear-gradient-4" x1="451.93" y1="171.19" x2="457.35" y2="113.64" gradientTransform="matrix(1, 0, 0, -1, -178.9, 516.86)" gradientUnits="userSpaceOnUse"><stop offset="0" stop-color="#828282"/><stop offset="1" stop-color="#4f4f4f"/></linearGradient><linearGradient id="linear-gradient-5" x1="511.7" y1="135.06" x2="572.18" y2="14.1" xlink:href="#linear-gradient-4"/><linearGradient id="linear-gradient-6" x1="453.7" y1="222.18" x2="464.1" y2="152" gradientTransform="matrix(1, 0.03, 0.03, -1, -281.74, 480.88)" gradientUnits="userSpaceOnUse"><stop offset="0" stop-color="#50829d"/><stop offset="0.5" stop-color="#60a3bc"/><stop offset="1" stop-color="#3f6584"/></linearGradient><linearGradient id="linear-gradient-7" x1="492.68" y1="258.78" x2="484.56" y2="234.86" xlink:href="#linear-gradient-2"/><linearGradient id="linear-gradient-8" x1="599.34" y1="293.52" x2="635.56" y2="293.52" xlink:href="#linear-gradient-2"/><linearGradient id="linear-gradient-9" x1="500.44" y1="219.26" x2="506.15" y2="180.72" xlink:href="#linear-gradient-2"/><linearGradient id="linear-gradient-10" x1="578.61" y1="343.6" x2="655.53" y2="343.6" gradientTransform="matrix(1, 0, 0, -1, -178.9, 516.86)" gradientUnits="userSpaceOnUse"><stop offset="0" stop-color="#3f6584"/><stop offset="1" stop-color="#60a3bc"/></linearGradient><linearGradient id="linear-gradient-11" x1="629.67" y1="330.09" x2="526.76" y2="304.81" xlink:href="#linear-gradient-2"/><linearGradient id="linear-gradient-12" x1="359.34" y1="260.7" x2="604.33" y2="260.7" gradientTransform="matrix(1, -0.08, -0.08, -1, -237.59, 524.86)" gradientUnits="userSpaceOnUse"><stop offset="0" stop-color="#29aae1" stop-opacity="0.2"/><stop offset="1" stop-color="#fff" stop-opacity="0.03"/></linearGradient><linearGradient id="linear-gradient-13" x1="392.77" y1="318.24" x2="422.66" y2="116.48" xlink:href="#linear-gradient-6"/><linearGradient id="linear-gradient-14" x1="594.23" y1="309.19" x2="610.97" y2="309.19" gradientTransform="matrix(1, 0, 0, -1, -178.9, 516.86)" gradientUnits="userSpaceOnUse"><stop offset="0" stop-color="#60a3bc"/><stop offset="1" stop-color="#3f6584"/></linearGradient></defs><title>Final</title><g id="Scene_Wireframe" data-name="Scene/Wireframe"><path id="Twisted-Leaf" class="cls-1" d="M741.19,128.5a5.47,5.47,0,0,0-1.76-.47,28.15,28.15,0,0,0-5.5-.51,101,101,0,0,0-17,1.53c-3.54.61-7.81,2.67-11.34,1.55a24.12,24.12,0,0,0-18.15.93c-5.32,2.54-9.36,7.37-11.72,12.58a32.75,32.75,0,0,0-2.21,5.64c-.17.4-.34.8-.49,1.21-.43,1.16-.81,2.34-1.17,3.52-.15.51-.54,1.62-.08,1.83a34.13,34.13,0,0,0-1.92,4.17c-1.56,4.16-3.27,8.73-3.82,13.15a20.17,20.17,0,0,0,0,4.91c.1.81.06,2.44.61,3.06,1.16,1.3,1.76-.53,1.63-1.4-1-6.63.93-12.87,3.23-19.11A39.18,39.18,0,0,1,678.11,150a27.79,27.79,0,0,1,7.61-6.63,117.8,117.8,0,0,1,11.59-5.75c2.58-1.17,5.17-2.31,7.82-3.32a7.89,7.89,0,0,1,2.17-.8c1.38,0,3.34,1,4.68,1.4,4.4,1.25,8.85,2.85,13.39,3.48a17.29,17.29,0,0,0,8.37-1,7.78,7.78,0,0,0,1.32-.72,18.84,18.84,0,0,0,5.6-3.17,21.28,21.28,0,0,0,2.62-2.83,1.42,1.42,0,0,0,.35-.93.56.56,0,0,0,.33-.33c.19-.95-1.61-1-2.77-.91" transform="translate(-92.76 -22.87)"/><path id="Fill-16" class="cls-2" d="M280.64,207.51q-1.67,1.35-3.27,2.77c-.81.73-2.24,1.61-2.53,2.71s.65,2.23,1.4,2.92c4,3.67,8.49,6.16,14,6.57,8.52.63,15.93-1.54,23.32-5.82,5.19-3,8.63-7.45,9.38-13.46a65.23,65.23,0,0,1,17.25,10.46,45.61,45.61,0,0,1,6.66,7.15c1.28,1.69,2.52,3.41,3.66,5.19.5.77,1,2.14,1.83,2.59a1.46,1.46,0,0,0,2.09-1.38c0-.89-1-1.93-1.46-2.66-.75-1.22-1.51-2.42-2.31-3.61-1.3-1.91-2.64-3.8-4.1-5.59a51.66,51.66,0,0,0-11.82-10.18c-8.32-5.43-17.45-8.86-27.58-9.15-6.23-.18-11.47,1.95-16.79,5.13a80.33,80.33,0,0,0-9.75,6.36" transform="translate(-92.76 -22.87)"/><path id="Leaf" class="cls-3" d="M361.42,181.21A236.65,236.65,0,0,0,341.17,162c-4.28-3.47-8.78-6.62-13.19-9.91q.76.68,1.5,1.38c-1.38-.94-3.18-1.47-4.64-2.33-1.63-1-3.19-2.07-4.71-3.18-3-2.17-5.92-4.38-9-6.44-3.41-2.29-6.95-4.41-10.42-6.62a93.48,93.48,0,0,0-9.07-5.45c-1.72-.83-3.44-1.82-5.17-2.69-.57-.29-6.43-4-6.42-4,.33-.25,3.28,1.14,3.73,1.32,1.33.55,2.6,1.2,3.88,1.85a17.47,17.47,0,0,1-1.56-4.38c-.09-.47-.84-3.91-.46-4.2.2-.15,2.06,6,2.16,6.61a12.53,12.53,0,0,0,.22,1.63c.26.73.24.51.8.92a33.6,33.6,0,0,0,3.51,1.87,24.55,24.55,0,0,0,3.57,2c3.38,1.64,6.8,4.17,10,6.27a23.45,23.45,0,0,1-2-5c-.11-.41-1.31-4.11-1-4.33s2.62,5.4,2.75,5.94c.26,1,.31,2.09.62,3.06s1.43,1.44,2.4,2.05c3.58,2.28,7,4.7,10.44,7.22,3.71-6.59-.57-14.56-4.18-20.09a46,46,0,0,0-9.78-10.4A95.8,95.8,0,0,0,289,105.12a63.72,63.72,0,0,0-21-6.46,68.2,68.2,0,0,0-11.7-.33,19.47,19.47,0,0,0-5.55,1,17.94,17.94,0,0,0-2.39,1c-.59.3-2,.62-2.35,1.06-2.78,3.63-4.21,7.24-4,11.79a33,33,0,0,0,3.42,12.47,38.06,38.06,0,0,0,8.16,11.42,87.15,87.15,0,0,0,8.52,6.79c10.43,7.6,23.65,14.21,37.16,12.51a36,36,0,0,0,12.42-4.15c.91-.49,1.82-1,2.69-1.57.58-.39,2.14-2.14,2.72-2.2.81-.09,2.54,1.54,3.29,2,5.73,3.78,11.31,7.77,16.77,11.92,5.81,4.41,11.34,9.12,16.7,14.06,2.28,2.1,4.55,4.2,6.76,6.37.52.5,1.78,2.36,2.71,2.45a.85.85,0,0,0,.91-1c-.15-1-2.15-2.38-2.81-3.06" transform="translate(-92.76 -22.87)"/><path id="Fill-10" class="cls-4" d="M734.38,155.27a34.39,34.39,0,0,0-7.85-.46,48.77,48.77,0,0,0-36,17.08c-7.48,8.84-9.53,19.83-11,31-.14,1.1-.2,2.2-.29,3.3,0,.24,0,.45-.07.65a1.43,1.43,0,0,0-.54,1.79,74.11,74.11,0,0,0-3.29,8.63c-2.73,8.71-5.51,17.58-3.8,26.74a127.23,127.23,0,0,1,2.25-15.15L674,228l0-.09a33.09,33.09,0,0,1,1.39-4.44v0c.08-.19.16-.38.23-.57.17-.4.33-.79.51-1.18.06-.13.11-.27.17-.4.82-2,1.16-4.27,1.9-6.35.17-.47.36-.95.55-1.41l0-.09c.52-1.26,1.1-2.5,1.71-3.73.33-.25.5-.87.79-1.43a8.18,8.18,0,0,0,.65-1.26l1.08-2.08h0l1.08-2,.24-.43.38-.7c1.2-2.15,2.48-4.26,3.8-6.34.48-.74,1.61-1.81,1.82-2.64,0,0,0-.06,0-.09A47.17,47.17,0,0,1,700.47,182c-.48.51-1.5,2.27-1.77,2.62-.83,1.07-1.72,2.06-2.62,3.07a64.9,64.9,0,0,0-4.58,5.62,108.17,108.17,0,0,0-6.84,11.23l-.06.06a28.16,28.16,0,0,0-2.46,4.72c3-1.38,6.28-2.28,9.34-3.51a76.58,76.58,0,0,0,8.89-4.18,100.59,100.59,0,0,0,11.36-7.24,44.87,44.87,0,0,0,10.65-9.78c3.62-4.37,6.94-8.78,9-14.09a42.2,42.2,0,0,0,2.27-8.08c0-.12.05-.25.08-.39a26.7,26.7,0,0,0,1.27-2.91c.57-1.58,1.92-3.31-.61-3.87" transform="translate(-92.76 -22.87)"/><path id="Leave-the-Leaf_" data-name="Leave-the-Leaf!" class="cls-1" d="M308.45,173.75a10.2,10.2,0,0,0-2.71-2.18c-.26-.13-2.22-1.06-2.35-.86-.29.48,4.82,2.76,5.06,3m9.27-5.7s.67,1.19.86,1.54c.39.75.75,1.52,1.09,2.29a13.73,13.73,0,0,0-1.95-3.83m-47.42,9.37c-.65.21-1.43-.62-.59-.83s.65-.2,1-.75.41-1,.63-1.47a16.37,16.37,0,0,1,1.64-2.84,22.66,22.66,0,0,1,5-4.95,35.39,35.39,0,0,1,11-5.74,43.72,43.72,0,0,1,19.66-.66c3.88.76,7.43,2.08,10,5.21a12.87,12.87,0,0,1,2.74,5.41c.12.53.09,1.11.24,1.63.22.79.12.58,1.05.73l3,.52a72.83,72.83,0,0,1,7.89,1.69,19.94,19.94,0,0,1,2.49.89c.62.26,3.06,1.09,3.36,1.88.49,1.33-1.16.73-1.68.44s-.91-.49-1.38-.71a22.64,22.64,0,0,0-3.68-1.3c-1.36-.37-2.75-.64-4.13-.91s-2.59-.49-3.88-.71l-2.17-.36c-.24,0-.68-.25-.65.07a34.9,34.9,0,0,0-4.7-.33c-1.89-.1-3.79-.18-5.69-.12a40.18,40.18,0,0,0-4.1.31,21.41,21.41,0,0,0-2.36.47c-.43.11-2.12.34-2.35.71a10.71,10.71,0,0,1,2.2,0c1,0,1.9-.13,2.84-.24a44.48,44.48,0,0,1,5.28-.28c0,.31-1.21.86-1.5,1.06a17.11,17.11,0,0,0-1.88,1.52,19,19,0,0,0-3,3.31c.21-.33,1.25-.77,1.62-1,.6-.42,1.18-.86,1.73-1.33s1-.91,1.45-1.39,1.09-1.48,1.71-1.8c0,0,.3.19.45.12s.34-.44.38-.45a6.84,6.84,0,0,1,2.25.08c1.56.07,3.11.16,4.66.25.48,0,.89-.08,1.07.27s-.16,1.37-.26,1.79a9.41,9.41,0,0,1-2.09,4.08,16.91,16.91,0,0,1-7.1,4.69c-10.45,3.8-21.57,5.31-32,1.37-4.33-1.63-10.85-4.55-10.07-10.29" transform="translate(-92.76 -22.87)"/><g id="Background-Shape-2" class="cls-5"><path id="Background-Shape" class="cls-2" d="M748.92,356.08c7.11,48.14-165.35,79.54-313.79,57.63S218.59,306.22,289.42,260.62,741.81,307.94,748.92,356.08Z" transform="translate(-92.76 -22.87)"/></g><g id="Mobile3"><rect id="Container" class="cls-6" x="241.48" y="17.69" width="117.17" height="222.55" rx="5.9" ry="5.9"/><circle id="Touch" class="cls-7" cx="299.69" cy="215.18" r="11.05"/><g id="Camera"><circle id="Lens" class="cls-7" cx="290.11" cy="30.95" r="1.47"/><path id="Sensor" class="cls-7" d="M389.51,52.35H402a1.48,1.48,0,0,1,1.48,1.48h0A1.47,1.47,0,0,1,402,55.3H389.51A1.47,1.47,0,0,1,388,53.83h0A1.48,1.48,0,0,1,389.51,52.35Z" transform="translate(-92.76 -22.87)"/></g><g id="Rows"><g id="Row"><rect id="Background" class="cls-7" x="251.79" y="38.32" width="96.54" height="39.79" rx="2.95" ry="2.95"/><g id="Text"><rect id="Name" class="cls-2" x="280.53" y="50.26" width="53.8" height="5.97" rx="2.21" ry="2.21"/><rect id="Name-2" data-name="Name" class="cls-2" x="280.53" y="60.21" width="36.11" height="5.97" rx="2.21" ry="2.21"/></g><circle id="Avatar" class="cls-8" cx="267.27" cy="58.22" r="8.84"/></g><g id="Row-2" data-name="Row"><rect id="Background-2" data-name="Background" class="cls-7" x="251.79" y="84.01" width="96.54" height="30.95" rx="2.95" ry="2.95"/><g id="Text-2" data-name="Text"><rect id="Name-3" data-name="Name" class="cls-2" x="280.53" y="93.3" width="53.8" height="4.64" rx="2.21" ry="2.21"/><rect id="Name-4" data-name="Name" class="cls-2" x="280.53" y="101.03" width="36.11" height="4.64" rx="2.21" ry="2.21"/></g><circle id="Avatar-2" data-name="Avatar" class="cls-8" cx="267.27" cy="99.49" r="8.84"/></g><g id="Row-3" data-name="Row"><rect id="Background-3" data-name="Background" class="cls-7" x="251.79" y="120.86" width="96.54" height="30.95" rx="2.95" ry="2.95"/><g id="Text-3" data-name="Text"><rect id="Name-5" data-name="Name" class="cls-2" x="280.53" y="130.14" width="53.8" height="4.64" rx="2.21" ry="2.21"/><rect id="Name-6" data-name="Name" class="cls-2" x="280.53" y="137.88" width="36.11" height="4.64" rx="2.21" ry="2.21"/></g><circle id="Avatar-3" data-name="Avatar" class="cls-9" cx="267.27" cy="136.33" r="8.84"/></g><g id="Row-4" data-name="Row"><rect id="Background-4" data-name="Background" class="cls-7" x="251.79" y="157.7" width="96.54" height="30.95" rx="2.95" ry="2.95"/><g id="Text-4" data-name="Text"><rect id="Name-7" data-name="Name" class="cls-2" x="280.53" y="166.99" width="53.8" height="4.64" rx="2.21" ry="2.21"/><rect id="Name-8" data-name="Name" class="cls-2" x="280.53" y="174.73" width="36.11" height="4.64" rx="2.21" ry="2.21"/></g><circle id="Avatar-4" data-name="Avatar" class="cls-8" cx="267.27" cy="173.18" r="8.84"/></g></g></g><g id="Mobile3-2" data-name="Mobile3"><g id="Group"><path id="Fill-16-2" data-name="Fill-16" class="cls-1" d="M356.45,220.37c-1,0-1.95,0-2.93.07-.74,0-1.88-.11-2.51.35s-.6,1.47-.5,2.16a15.73,15.73,0,0,0,4.61,9.55,26.68,26.68,0,0,0,14.86,7,12.07,12.07,0,0,0,10.75-3.12,44.72,44.72,0,0,1,4.65,13,30.63,30.63,0,0,1,.46,6.69c0,1.45-.12,2.9-.28,4.34a5,5,0,0,0-.14,2.17,1,1,0,0,0,1.7.17,5,5,0,0,0,.37-2c.12-1,.24-1.94.32-2.92.13-1.58.23-3.16.22-4.74a35.25,35.25,0,0,0-1.89-10.52,36.13,36.13,0,0,0-10.69-16.78c-3.23-2.78-6.92-3.91-11.11-4.51a55,55,0,0,0-7.89-.82" transform="translate(-92.76 -22.87)"/><path id="Fill-18" class="cls-1" d="M371.5,246.16c-10.53,0-17.63,8.5-21,17.32-1.26,3.33-1.56,7-2,10.48a16,16,0,0,1-.56,3.83c-.16.36-.54.49-.36,1a.79.79,0,0,0,.65.54c.66.13,1.6-.6,2.16-.88,4.72-2.37,7.82-6,10.34-10.49a44.43,44.43,0,0,0,4.09-8.69,29.62,29.62,0,0,0,1.09-5.75,22.2,22.2,0,0,0,.15-2.3,4.78,4.78,0,0,0-.61-1.82,15.51,15.51,0,0,1,11-.31A14.11,14.11,0,0,1,384,255.9a13,13,0,0,1,.93,2.52,9,9,0,0,0,.43,1.82c.66,1.24,2,.41,1.91-.74a15,15,0,0,0-4.58-8.72,16.5,16.5,0,0,0-11.21-4.62" transform="translate(-92.76 -22.87)"/></g><rect id="Container-2" data-name="Container" class="cls-2" x="290.11" y="36.85" width="117.17" height="222.55" rx="5.9" ry="5.9"/><circle id="Touch-2" data-name="Touch" class="cls-7" cx="348.33" cy="234.34" r="11.05"/><g id="Camera-2" data-name="Camera"><circle id="Lens-2" data-name="Lens" class="cls-7" cx="338.75" cy="50.11" r="1.47"/><path id="Sensor-2" data-name="Sensor" class="cls-7" d="M438.14,71.51h12.53A1.48,1.48,0,0,1,452.15,73h0a1.47,1.47,0,0,1-1.48,1.47H438.14A1.47,1.47,0,0,1,436.67,73h0A1.47,1.47,0,0,1,438.14,71.51Z" transform="translate(-92.76 -22.87)"/></g><g id="Rows-2" data-name="Rows"><g id="Row-5" data-name="Row"><rect id="Container-3" data-name="Container" class="cls-7" x="300.43" y="57.48" width="96.54" height="39.79" rx="2.95" ry="2.95"/><g id="Text-Stuff"><rect id="Label" class="cls-2" x="307.06" y="69.42" width="53.8" height="5.97" rx="2.21" ry="2.21"/><rect id="Label-2" data-name="Label" class="cls-2" x="307.06" y="79.37" width="36.11" height="5.97" rx="2.21" ry="2.21"/></g><g id="Check"><circle id="Background-5" data-name="Background" class="cls-2" cx="386.65" cy="77.38" r="5.16"/><circle id="Indicator" class="cls-6" cx="386.65" cy="77.38" r="2.21"/></g></g><g id="Row-6" data-name="Row"><rect id="Background-6" data-name="Background" class="cls-7" x="300.43" y="103.17" width="96.54" height="30.95" rx="2.95" ry="2.95"/><g id="Text-5" data-name="Text"><rect id="Name-9" data-name="Name" class="cls-2" x="329.17" y="112.46" width="53.8" height="4.64" rx="2.21" ry="2.21"/><rect id="Name-10" data-name="Name" class="cls-2" x="329.17" y="120.19" width="36.11" height="4.64" rx="2.21" ry="2.21"/></g><circle id="Avatar-5" data-name="Avatar" class="cls-8" cx="315.91" cy="118.65" r="8.84"/></g><g id="Row-7" data-name="Row"><rect id="Container-4" data-name="Container" class="cls-7" x="300.43" y="140.02" width="96.54" height="30.95" rx="2.95" ry="2.95"/><g id="Text-Stuff-2" data-name="Text-Stuff"><rect id="Label-3" data-name="Label" class="cls-2" x="307.06" y="149.3" width="53.8" height="4.64" rx="2.21" ry="2.21"/><rect id="Label-4" data-name="Label" class="cls-9" x="307.06" y="157.04" width="36.11" height="4.64" rx="2.21" ry="2.21"/></g><g id="Check-2" data-name="Check"><circle id="Background-7" data-name="Background" class="cls-2" cx="386.65" cy="155.49" r="5.16"/><circle id="Indicator-2" data-name="Indicator" class="cls-6" cx="386.65" cy="155.49" r="2.21"/></g></g><g id="Row-8" data-name="Row"><rect id="Background-8" data-name="Background" class="cls-7" x="300.43" y="176.86" width="96.54" height="30.95" rx="2.95" ry="2.95"/><g id="Text-6" data-name="Text"><rect id="Name-11" data-name="Name" class="cls-2" x="329.17" y="186.15" width="53.8" height="4.64" rx="2.21" ry="2.21"/><rect id="Name-12" data-name="Name" class="cls-2" x="329.17" y="193.89" width="36.11" height="4.64" rx="2.21" ry="2.21"/></g><circle id="Avatar-6" data-name="Avatar" class="cls-8" cx="315.91" cy="192.34" r="8.84"/></g></g></g><g id="Web"><rect id="Container-5" data-name="Container" class="cls-6" x="338.75" y="55.27" width="246.87" height="254.98" rx="5.9" ry="5.9"/><rect id="Background-9" data-name="Background" class="cls-7" x="522.25" y="86.96" width="51.59" height="59.69" rx="5.9" ry="5.9"/><g id="Profile-Info"><circle id="Avatar-7" data-name="Avatar" class="cls-2" cx="548.04" cy="109.8" r="11.79"/><path id="Name-13" data-name="Name" class="cls-2" d="M624.59,147.42H657a2.21,2.21,0,0,1,2.21,2.21h0a2.21,2.21,0,0,1-2.21,2.21H624.59a2.21,2.21,0,0,1-2.21-2.21h0A2.21,2.21,0,0,1,624.59,147.42Z" transform="translate(-92.76 -22.87)"/><path id="Name-14" data-name="Name" class="cls-2" d="M630.48,154.79h20.64a2.2,2.2,0,0,1,2.21,2.21h0a2.21,2.21,0,0,1-2.21,2.21H630.48a2.21,2.21,0,0,1-2.21-2.21h0A2.2,2.2,0,0,1,630.48,154.79Z" transform="translate(-92.76 -22.87)"/></g><path id="Header" class="cls-8" d="M437.41,78.14H672.49a5.9,5.9,0,0,1,5.89,5.9V98H431.51V84A5.9,5.9,0,0,1,437.41,78.14Z" transform="translate(-92.76 -22.87)"/><g id="Buttons"><circle id="buttons-2" data-name="buttons" class="cls-6" cx="348.33" cy="65.59" r="2.95"/><circle id="buttons-3" data-name="buttons" class="cls-6" cx="357.17" cy="65.59" r="2.95"/><circle id="buttons-4" data-name="buttons" class="cls-6" cx="366.02" cy="65.59" r="2.95"/></g><g id="Components"><rect id="Background-10" data-name="Background" class="cls-7" x="522.25" y="152.55" width="51.59" height="142.97" rx="5.9" ry="5.9"/><g id="Rows-3" data-name="Rows"><rect id="Data" class="cls-2" x="535.51" y="165.81" width="25.06" height="19.16" rx="2.95" ry="2.95"/><rect id="Data-2" data-name="Data" class="cls-9" x="535.51" y="190.87" width="25.06" height="18.42" rx="2.95" ry="2.95"/><rect id="Data-3" data-name="Data" class="cls-2" x="535.51" y="215.18" width="25.06" height="18.42" rx="2.95" ry="2.95"/><rect id="Data-4" data-name="Data" class="cls-2" x="535.51" y="263.82" width="25.06" height="18.42" rx="2.95" ry="2.95"/><rect id="Data-5" data-name="Data" class="cls-8" x="535.51" y="239.5" width="25.06" height="18.42" rx="2.95" ry="2.95"/></g></g><g id="Rows-4" data-name="Rows"><g id="Row-9" data-name="Row"><rect id="Container-6" data-name="Container" class="cls-7" x="350.54" y="87.7" width="165.81" height="34.64" rx="2.95" ry="2.95"/><g id="Text-Stuff-3" data-name="Text-Stuff"><rect id="Label-5" data-name="Label" class="cls-2" x="357.17" y="98.09" width="123.07" height="5.2" rx="2.21" ry="2.21"/><rect id="Label-6" data-name="Label" class="cls-2" x="357.17" y="106.74" width="82.61" height="5.2" rx="2.21" ry="2.21"/></g><g id="Check-3" data-name="Check"><circle id="Background-11" data-name="Background" class="cls-2" cx="498.63" cy="105.01" r="5.16"/><circle id="Indicator-3" data-name="Indicator" class="cls-6" cx="498.63" cy="105.01" r="2.21"/></g></g><g id="Row-10" data-name="Row"><rect id="Container-7" data-name="Container" class="cls-7" x="350.54" y="128.23" width="165.81" height="28.74" rx="2.95" ry="2.95"/><g id="Text-Stuff-4" data-name="Text-Stuff"><path id="Label-7" data-name="Label" class="cls-2" d="M452.09,159.72H570.85a2.16,2.16,0,0,1,2.15,2.16h0a2.15,2.15,0,0,1-2.15,2.15H452.09a2.16,2.16,0,0,1-2.16-2.15h0A2.16,2.16,0,0,1,452.09,159.72Z" transform="translate(-92.76 -22.87)"/><path id="Label-8" data-name="Label" class="cls-2" d="M452.09,166.91h78.3a2.15,2.15,0,0,1,2.15,2.15h0a2.16,2.16,0,0,1-2.15,2.16h-78.3a2.16,2.16,0,0,1-2.16-2.16h0A2.16,2.16,0,0,1,452.09,166.91Z" transform="translate(-92.76 -22.87)"/></g><g id="Check-4" data-name="Check"><circle id="Background-12" data-name="Background" class="cls-2" cx="498.63" cy="142.6" r="5.16"/><circle id="Indicator-4" data-name="Indicator" class="cls-6" cx="498.63" cy="142.6" r="2.21"/></g></g><g id="Row-11" data-name="Row"><rect id="Container-8" data-name="Container" class="cls-7" x="350.54" y="162.86" width="165.81" height="28.74" rx="2.95" ry="2.95"/><g id="Text-Stuff-5" data-name="Text-Stuff"><path id="Label-9" data-name="Label" class="cls-2" d="M452.09,194.36H570.85a2.15,2.15,0,0,1,2.15,2.15h0a2.16,2.16,0,0,1-2.15,2.16H452.09a2.16,2.16,0,0,1-2.16-2.16h0A2.16,2.16,0,0,1,452.09,194.36Z" transform="translate(-92.76 -22.87)"/><path id="Label-10" data-name="Label" class="cls-2" d="M452.09,201.54h78.3a2.16,2.16,0,0,1,2.15,2.16h0a2.15,2.15,0,0,1-2.15,2.15h-78.3a2.16,2.16,0,0,1-2.16-2.15h0A2.16,2.16,0,0,1,452.09,201.54Z" transform="translate(-92.76 -22.87)"/></g><g id="Check-5" data-name="Check"><circle id="Background-13" data-name="Background" class="cls-2" cx="498.63" cy="177.23" r="5.16"/><circle id="Indicator-5" data-name="Indicator" class="cls-9" cx="498.63" cy="177.23" r="2.21"/></g></g><g id="Row-12" data-name="Row"><rect id="Container-9" data-name="Container" class="cls-7" x="350.54" y="266.77" width="165.81" height="28.74" rx="2.95" ry="2.95"/><g id="Text-Stuff-6" data-name="Text-Stuff"><path id="Label-11" data-name="Label" class="cls-2" d="M452.09,298.27H570.85a2.15,2.15,0,0,1,2.15,2.15h0a2.16,2.16,0,0,1-2.15,2.16H452.09a2.16,2.16,0,0,1-2.16-2.16h0A2.16,2.16,0,0,1,452.09,298.27Z" transform="translate(-92.76 -22.87)"/><path id="Label-12" data-name="Label" class="cls-2" d="M452.09,305.45h78.3a2.16,2.16,0,0,1,2.15,2.16h0a2.15,2.15,0,0,1-2.15,2.15h-78.3a2.16,2.16,0,0,1-2.16-2.15h0A2.16,2.16,0,0,1,452.09,305.45Z" transform="translate(-92.76 -22.87)"/></g><g id="Check-6" data-name="Check"><circle id="Background-14" data-name="Background" class="cls-2" cx="498.63" cy="281.14" r="5.16"/><circle id="Indicator-6" data-name="Indicator" class="cls-6" cx="498.63" cy="281.14" r="2.21"/></g></g><g id="Row-13" data-name="Row"><rect id="Container-10" data-name="Container" class="cls-7" x="350.54" y="232.13" width="165.81" height="28.74" rx="2.95" ry="2.95"/><g id="Text-Stuff-7" data-name="Text-Stuff"><path id="Label-13" data-name="Label" class="cls-2" d="M452.09,263.63H570.85a2.16,2.16,0,0,1,2.15,2.16h0a2.15,2.15,0,0,1-2.15,2.15H452.09a2.16,2.16,0,0,1-2.16-2.15h0A2.16,2.16,0,0,1,452.09,263.63Z" transform="translate(-92.76 -22.87)"/><path id="Label-14" data-name="Label" class="cls-2" d="M452.09,270.82h78.3a2.15,2.15,0,0,1,2.15,2.15h0a2.16,2.16,0,0,1-2.15,2.16h-78.3a2.16,2.16,0,0,1-2.16-2.16h0A2.16,2.16,0,0,1,452.09,270.82Z" transform="translate(-92.76 -22.87)"/></g><g id="Check-7" data-name="Check"><circle id="Background-15" data-name="Background" class="cls-2" cx="498.63" cy="246.5" r="5.16"/><circle id="Indicator-7" data-name="Indicator" class="cls-6" cx="498.63" cy="246.5" r="2.21"/></g></g><g id="Row-14" data-name="Row"><rect id="Container-11" data-name="Container" class="cls-7" x="350.54" y="197.5" width="165.81" height="28.74" rx="2.95" ry="2.95"/><g id="Text-Stuff-8" data-name="Text-Stuff"><path id="Label-15" data-name="Label" class="cls-2" d="M452.09,229H570.85a2.16,2.16,0,0,1,2.15,2.16h0a2.16,2.16,0,0,1-2.15,2.16H452.09a2.16,2.16,0,0,1-2.16-2.16h0A2.16,2.16,0,0,1,452.09,229Z" transform="translate(-92.76 -22.87)"/><path id="Label-16" data-name="Label" class="cls-2" d="M452.09,236.18h78.3a2.15,2.15,0,0,1,2.15,2.15h0a2.15,2.15,0,0,1-2.15,2.16h-78.3a2.16,2.16,0,0,1-2.16-2.16h0A2.16,2.16,0,0,1,452.09,236.18Z" transform="translate(-92.76 -22.87)"/></g><g id="Check-8" data-name="Check"><circle id="Background-16" data-name="Background" class="cls-2" cx="498.63" cy="211.87" r="5.16"/><circle id="Indicator-8" data-name="Indicator" class="cls-6" cx="498.63" cy="211.87" r="2.21"/></g></g></g></g><path id="Fill-1" class="cls-3" d="M739.54,203.7c-2.91-2-6.77-2.49-10.25-2.49-13.59,0-26.36,5-37.39,12.55a87.89,87.89,0,0,0-16.23,14.82,43.51,43.51,0,0,0-6.95,10.34,35.6,35.6,0,0,0-2.52,8,81.08,81.08,0,0,0-1.44,10.17c-.09,1.34-.87,8.46,1.36,8.58a2.67,2.67,0,0,0,0,.49c-4.85,7.57-7.84,16.44-10.61,24.86a167.39,167.39,0,0,0-6,22.27,241.54,241.54,0,0,0-3.62,30.21q-.18,3.25-.28,6.52c-.06,1.86-.13,3.71-.19,5.57a35.76,35.76,0,0,0-.1,6.54c.29,1.81,1.85,1.53,1.91-.26.09-2.16.07-4.33.17-6.5.12-2.87.25-5.75.4-8.62a201.33,201.33,0,0,1,11.43-58.5,136.16,136.16,0,0,1,9.93-21.91,153.59,153.59,0,0,1,12.19-17.82,112.76,112.76,0,0,1,13.87-15.36,105.82,105.82,0,0,1,13.64-10,149.89,149.89,0,0,1,18.68-10.57c3.41-1.53,6.89-2.91,10.33-4.38.62-.27,1.28-.52,1.88-.83,2-1,1.33-2.57-.25-3.64" transform="translate(-92.76 -22.87)"/><path id="Fill-20" class="cls-1" d="M684.88,273.43a37.49,37.49,0,0,1,15.49,2.91,68.93,68.93,0,0,1,12.26,7.11,38.5,38.5,0,0,1,12.76,14.2c1.79,3.53,3.11,8.52,1.9,12.37-1.42,4.54-5.32,8.32-10.46,7.52-3.18-.49-6.09-2.6-8.51-4.58a32.07,32.07,0,0,1-7.11-8.38c-3.12-5.16-5-11-7.59-16.39-1.26-2.55-2.47-5.13-4-7.56a12.15,12.15,0,0,0-2.67-3.3c-.6-.48-3.15-1.3-2.17-2.38-14.29.19-26.95,11.16-29.7,24.75-.25,1.26-.45,2.54-.66,3.81-.14.81-.08,3.77-.8,4.29-1.59,1.13-.92-2.31-.85-2.81.17-1.28.36-2.56.56-3.84a31.91,31.91,0,0,1,9.33-18.37,32.49,32.49,0,0,1,22.2-9.35" transform="translate(-92.76 -22.87)"/><g id="Plant"><path id="Fill-19" class="cls-2" d="M287.76,256.29c13.76,23.08,29.78,45.42,39.4,70.65-.39-3-.8-5.94-1.26-8.91-2.44-15.73-5.47-31.34-8.66-46.93-1.62-7.94-3.34-15.85-5.1-23.76-.95-4.25-1.89-8.5-2.85-12.74-.24-1-.44-2.83-.73-4.65,9.35,30.69,18.37,61.39,25,92.81q1.31,6.19,2.21,12.35c.2-.93.41-1.87.63-2.81a181.61,181.61,0,0,1,11.44-32.8,99,99,0,0,1,8-14.48c1.92-2.85,6.45-6.23,8.2-9.15-9.59,17.59-13.05,39.59-18.58,58.71q-2,7-4,14c8.35-16.75,21.3-30.5,39.31-36.46-21.8,14.4-34.87,39.62-43.68,65.42l-.09.92c2.59-4.92,5.85-9.37,10.28-12.49,9.47-6.67,20-4.73,29.17,1-7.21-4.59-20.24-.41-26.31,4.25a60.32,60.32,0,0,0-11.28,12.17c-.78,1.05-1.83,2.27-2.94,3.57a160.79,160.79,0,0,1-7.71,30.18c.59-2.86.16-7.45.33-9.58,0-.23,0-.46.05-.69q-.83,3.27-1.59,6.47a87.6,87.6,0,0,0,2-12.57c.11-1.84.21-3.68.33-5.52,0-3.49-.18-7-.42-10.5-.87-3.42-1.83-6.63-2.63-9.31a120.36,120.36,0,0,0-12.26-27.53A108.69,108.69,0,0,0,297,326.44c-3.52-3.47-7.21-6.78-10.84-10.14-1.32-1.22-3.67-4.2-5.7-5.75,14.8,8.15,30,17,40.82,30.12-1.26-4.86-2.64-9.65-4.09-14.34C309.79,302.51,300.48,277.82,287.76,256.29Z" transform="translate(-92.76 -22.87)"/><path id="Base" class="cls-8" d="M302.55,386.92c0,26.45,2.09,47.9,30.21,47.9S363,413.37,363,386.92" transform="translate(-92.76 -22.87)"/></g><g id="Graph"><path id="Value" class="cls-2" d="M618,46.46h0a2.21,2.21,0,0,1,2.21,2.21v14A2.21,2.21,0,0,1,618,64.88h0a2.2,2.2,0,0,1-2.21-2.21v-14A2.2,2.2,0,0,1,618,46.46Z" transform="translate(-92.76 -22.87)"/><path id="Value-2" data-name="Value" class="cls-2" d="M628.27,34.66h0a2.21,2.21,0,0,1,2.21,2.22V62.67a2.21,2.21,0,0,1-2.21,2.21h0a2.21,2.21,0,0,1-2.21-2.21V36.88A2.21,2.21,0,0,1,628.27,34.66Z" transform="translate(-92.76 -22.87)"/><path id="Value-3" data-name="Value" class="cls-2" d="M638.59,28.77h0A2.21,2.21,0,0,1,640.8,31V62.67a2.21,2.21,0,0,1-2.21,2.21h0a2.21,2.21,0,0,1-2.21-2.21V31A2.21,2.21,0,0,1,638.59,28.77Z" transform="translate(-92.76 -22.87)"/><path id="Value-4" data-name="Value" class="cls-2" d="M648.91,34.66h0a2.21,2.21,0,0,1,2.21,2.22V62.67a2.21,2.21,0,0,1-2.21,2.21h0a2.21,2.21,0,0,1-2.21-2.21V36.88A2.21,2.21,0,0,1,648.91,34.66Z" transform="translate(-92.76 -22.87)"/><path id="Value-5" data-name="Value" class="cls-8" d="M659.22,22.87h0a2.2,2.2,0,0,1,2.21,2.21V62.67a2.2,2.2,0,0,1-2.21,2.21h0A2.21,2.21,0,0,1,657,62.67V25.08A2.21,2.21,0,0,1,659.22,22.87Z" transform="translate(-92.76 -22.87)"/></g><g id="Pie-Chart"><path id="Value-6" data-name="Value" class="cls-6" d="M253.17,248.56a14.88,14.88,0,0,1,14.74-14.92v14.92l-10.07,10.87A14.78,14.78,0,0,1,253.17,248.56Z" transform="translate(-92.76 -22.87)"/><path id="Value-7" data-name="Value" class="cls-9" d="M267.52,248.38h14.89a14.76,14.76,0,0,1-4.05,10.07,15,15,0,0,1-10.84,4.66,15.2,15.2,0,0,1-10.17-4Z" transform="translate(-92.76 -22.87)"/><path id="Value-8" data-name="Value" class="cls-8" d="M282.65,248.38a14.78,14.78,0,0,0-14.74-14.74v14.74Zm-22.11-14.74,5.9,13.26L253.17,241A13.58,13.58,0,0,1,260.54,233.64Z" transform="translate(-92.76 -22.87)"/></g><g id="Chart"><path id="Value-9" data-name="Value" class="cls-6" d="M732.75,255.14a7.75,7.75,0,1,1-5.66-13V227.74a22.11,22.11,0,1,0,0,44.22,21.85,21.85,0,0,0,16.14-7Z" transform="translate(-92.76 -22.87)"/><path id="Value-10" data-name="Value" class="cls-9" d="M727,227.74v14.37a7.74,7.74,0,0,1,7.74,7.74h14.37A22.18,22.18,0,0,0,727,227.74Z" transform="translate(-92.76 -22.87)"/><path id="Value-11" data-name="Value" class="cls-8" d="M734.46,249.85a7.82,7.82,0,0,1-3,6.18l9,11.51a22.43,22.43,0,0,0,8.65-17.69Z" transform="translate(-92.76 -22.87)"/></g><g id="Chart-2" data-name="Chart"><path id="Value-12" data-name="Value" class="cls-6" d="M592.2,52a6,6,0,1,1-4.35-10V31a17,17,0,1,0,0,33.9,16.85,16.85,0,0,0,12.42-5.37Z" transform="translate(-92.76 -22.87)"/><path id="Value-13" data-name="Value" class="cls-9" d="M587.74,31V42a5.92,5.92,0,0,1,5.93,5.93h11A17,17,0,0,0,587.74,31Z" transform="translate(-92.76 -22.87)"/><path id="Value-14" data-name="Value" class="cls-8" d="M593.69,47.93a5.91,5.91,0,0,1-2.26,4.64l6.77,8.62a16.77,16.77,0,0,0,6.49-13.26Z" transform="translate(-92.76 -22.87)"/></g><g id="Image"><path id="Fill-35" class="cls-8" d="M323.92,64.87v0s0,0,0,0" transform="translate(-92.76 -22.87)"/><path id="Fill-37" class="cls-8" d="M323.92,64.88h0s0,0,0,0" transform="translate(-92.76 -22.87)"/><path id="Fill-39" class="cls-8" d="M324,64.76l0,.08,0,0c-.15.38-.05.14,0,0" transform="translate(-92.76 -22.87)"/><path id="Fill-41" class="cls-8" d="M323.94,64.84l0,0c0,.08,0,0,0,0" transform="translate(-92.76 -22.87)"/><polygon id="Fill-43" class="cls-8" points="231.16 42.01 231.16 42.01 231.16 42 231.16 42.01"/><path id="Fill-45" class="cls-8" d="M323.92,64.88h0" transform="translate(-92.76 -22.87)"/><path id="Fill-47" class="cls-8" d="M323.91,64.89h0" transform="translate(-92.76 -22.87)"/><path id="Fill-49" class="cls-8" d="M323.92,64.88h0" transform="translate(-92.76 -22.87)"/><rect id="Photo-Background" class="cls-2" x="195.79" y="3.68" width="70.01" height="46.43" rx="2.95" ry="2.95"/><g id="icons8-night_landscape" data-name="icons8-night landscape"><polygon id="Mountains" class="cls-9" points="222.32 16.95 201.68 50.11 242.95 50.11 222.32 16.95"/><polygon id="Mountains-2" data-name="Mountains" class="cls-8" points="242.58 25.79 224.53 50.11 260.64 50.11 242.58 25.79"/></g><circle id="Sun" class="cls-7" cx="250.32" cy="19.16" r="6.63"/></g><g id="Image-2" data-name="Image"><path id="Fill-35-2" data-name="Fill-35" class="cls-8" d="M675.43,379.54v0s0,0,0,0" transform="translate(-92.76 -22.87)"/><path id="Fill-37-2" data-name="Fill-37" class="cls-8" d="M675.44,379.55h0s0,0,0,0" transform="translate(-92.76 -22.87)"/><path id="Fill-39-2" data-name="Fill-39" class="cls-8" d="M675.39,379.43l0,.08,0,0c.16.39.06.14,0,0" transform="translate(-92.76 -22.87)"/><path id="Fill-41-2" data-name="Fill-41" class="cls-8" d="M675.42,379.52l0,0,0,0" transform="translate(-92.76 -22.87)"/><polygon id="Fill-43-2" data-name="Fill-43" class="cls-8" points="582.68 356.68 582.68 356.68 582.68 356.68 582.68 356.68"/><path id="Fill-45-2" data-name="Fill-45" class="cls-8" d="M675.44,379.55h0" transform="translate(-92.76 -22.87)"/><path id="Fill-47-2" data-name="Fill-47" class="cls-8" d="M675.44,379.56h0" transform="translate(-92.76 -22.87)"/><path id="Fill-49-2" data-name="Fill-49" class="cls-8" d="M675.44,379.55h0" transform="translate(-92.76 -22.87)"/><rect id="Photo-Background-2" data-name="Photo-Background" class="cls-2" x="530.35" y="299.93" width="104.64" height="69.27" rx="2.95" ry="2.95"/><g id="icons8-night_landscape-2" data-name="icons8-night landscape"><polygon id="Mountains-3" data-name="Mountains" class="cls-9" points="596.14 319.83 626.4 369.2 565.89 369.2 596.14 319.83"/><polygon id="Mountains-4" data-name="Mountains" class="cls-8" points="564.95 333.05 591.7 369.2 538.2 369.2 564.95 333.05"/></g><circle id="Sun-2" data-name="Sun" class="cls-7" cx="553.57" cy="323.15" r="9.95"/></g></g><path class="cls-10" d="M461.92,257.88S471,227,521.51,243.62c49.76,16.41,127.91,214.7-90.9,220.21-5.37.13-10.73.34-16.08.74-32.26,2.46-168.35,5.7-107-121.88C376.84,198.44,461.92,257.88,461.92,257.88Z" transform="translate(-92.76 -22.87)"/><path class="cls-11" d="M502,262.12s27.89-6.48,16.27,58.3,9.29,84.21-41.06,94.73-124.73,44.54-144.88-.81-1.55-76.11-1.55-76.11Z" transform="translate(-92.76 -22.87)"/><path class="cls-12" d="M274,534.21l-4.91,10.67s-9,3-11.17-1.19a15.28,15.28,0,0,0-5.76-6.09l4.07-10.16Z" transform="translate(-92.76 -22.87)"/><path class="cls-13" d="M174.69,453.54l-9.93,8.57s-13.77-1.35-12.87-9.48-.45-9-.45-9l9.71-5.65Z" transform="translate(-92.76 -22.87)"/><path class="cls-14" d="M331.75,388.32l-22.86-2.86a43.05,43.05,0,0,0-28,6.07L176.43,455.88a3.27,3.27,0,0,1-4.24-.7l-12.45-15a3.25,3.25,0,0,1,.31-4.49l90.46-83.2,31.14-27.09,50.1-16.92,60.93,4.06-10.84,43.28Z" transform="translate(-92.76 -22.87)"/><path class="cls-15" d="M489.16,389.33s-38.39,36.54-134.17,40a27.29,27.29,0,0,0-22.53,13.43l-52.7,89.45a7.92,7.92,0,0,1-6.88,3.91c-4.91-.06-12.62-1.06-18-6a7.84,7.84,0,0,1-2-8.35L290.49,415a43.53,43.53,0,0,1,16.1-21.2l84.34-59Z" transform="translate(-92.76 -22.87)"/><path class="cls-16" d="M327.41,339.76l-.86,2.26a7.09,7.09,0,0,1-3.95,4l-64.05,25.79a6,6,0,0,1-5.44-.46l-94.69-58.64a7.07,7.07,0,0,1-3.34-5.88v-.89Z" transform="translate(-92.76 -22.87)"/><polygon class="cls-17" points="163.75 346.07 234.66 316.89 169.38 273.99 133.54 322.55 163.75 346.07"/><path class="cls-16" d="M272.29,318.34l29.19,16.39a1.19,1.19,0,0,1,.44,1.61,1.17,1.17,0,0,1-.6.52L258,353.21l3.33-28.77Z" transform="translate(-92.76 -22.87)"/><path class="cls-18" d="M341.46,262.62s-39.72-5-67.71,12.86l3.16,5.19s39-8.35,63.19.45Z" transform="translate(-92.76 -22.87)"/><polygon class="cls-19" points="361.69 188.57 364.3 191.05 364.57 198.56 362.31 197.82 361.02 189.36 361.69 188.57"/><polygon class="cls-19" points="332.58 213.88 335.46 207.87 334.44 198.3 329.7 201.52 325.13 204.31 323.44 206.34 323.27 210.74 325.39 216.41 332.17 221.32 333.86 220.82 332.58 213.88"/><path class="cls-6" d="M424.76,224s-9.1,3.94-8.25,7.83l-.93-1.9,1-2.67,3.93-2.45,2.8-1.74h1.48Z" transform="translate(-92.76 -22.87)"/><path class="cls-20" d="M420.44,220.74s7.34,4.23,2.4,17.53l29.42-5.3,4.4-10.76-3.05-13.79Z" transform="translate(-92.76 -22.87)"/><path class="cls-21" d="M416.72,235.65S404,233.28,378.84,248s-32,13.2-32,13.2l.84,21.66s32.84,6.43,54.16-10.83,17.94-26.91,17.94-26.91Z" transform="translate(-92.76 -22.87)"/><path class="cls-6" d="M450.46,211.39s4.57-1.52,5.58,4.23-.48,6.66-.48,6.66-17,15.34-32.19,11.45c0,0-2.7,2.71.17,6.77,1.67,2.35,1.52,2.21,1.1,1.67a4.5,4.5,0,0,0-1.81-1.36c-2-.83-6-3.12-4.87-7.75,0,0-3.22-2-.68-4.74a43.65,43.65,0,0,1,6.26-5.25s-10.83,2.88-8.46,9.14-1.52,4.91,1.86,8.29c0,0-11.17,8.46-17.6,35.21-5.39,22.41-21,41.73-25.92,47.4a3.55,3.55,0,0,0-.58,3.86c6.32,13.65,44.15,86.6,123.16,66a4,4,0,0,0,2.87-4.87,1.46,1.46,0,0,0-.05-.2c-1.87-6.21-4.52-18.62.34-28.59,6.77-13.88,18.62-130-35.2-146.58C464,212.74,455.19,206.31,450.46,211.39Z" transform="translate(-92.76 -22.87)"/><path class="cls-22" d="M372.74,294.85c-14,0-77,1.68-107,35.65a5,5,0,0,0-1.22,2.66h0a5.13,5.13,0,0,0,8.24,4.76c9.61-7.5,25.44-16.59,45.24-16,31.43.87,46.47,9.58,66.19-4.91a5.11,5.11,0,0,0,1.23-6.9L377,297.22A5.12,5.12,0,0,0,372.74,294.85Z" transform="translate(-92.76 -22.87)"/><path class="cls-23" d="M404.53,167.79s-11.62-11.46,1.24-20.94,36.56-14.22,51-5.19,26.63,19.18,15.58,45.81-15.58,21.89-15.58,21.89Z" transform="translate(-92.76 -22.87)"/><polygon class="cls-16" points="199.87 244.68 203.16 246.14 163.75 346.07 196.71 246.45 199.87 244.68"/><path class="cls-24" d="M404.53,167.79c1.06,7.05,2.14,21.27-4.37,30.18a1.5,1.5,0,0,0,.29,2.12,1.53,1.53,0,0,0,.46.23l3.12,1a3.15,3.15,0,0,1,2.17,2.56c.74,5.19,4,19,18.3,19.72,17.06.87,32.41-8.42,35-18.44a1.42,1.42,0,0,1,1.26-1c3.89-.39,17-2.72,11.59-16.63-6.32-16.25-14.67,1.58-14.67,1.58l-3.61.22s9.93-26.4-6.32-28c-14.94-1.45-26.44,10.06-40.3,4.22a2.13,2.13,0,0,0-2.78,1.16A2.11,2.11,0,0,0,404.53,167.79Z" transform="translate(-92.76 -22.87)"/><path class="cls-21" d="M392.35,284.4s59.23-72.78,85.64-44-26.07,52.81-75.49,77.86Z" transform="translate(-92.76 -22.87)"/><path class="cls-25" d="M393,285.49l9.36,31.64A4.2,4.2,0,0,1,400,322.2c-2.71,1.11-7.5,2.29-15.74,2.46a4.18,4.18,0,0,1-4.14-3.19l-6.68-26.92a4.18,4.18,0,0,1,1.5-4.34c2.84-2.22,8-6,12.64-7.51a4.21,4.21,0,0,1,5.36,2.62Z" transform="translate(-92.76 -22.87)"/><polygon class="cls-26" points="97.19 212.62 334.95 115.04 319.33 311.87 157.31 331.63 97.19 212.62"/><polygon class="cls-27" points="199.87 244.68 163.75 346.07 62.3 283.08 97.7 190.03 199.87 244.68"/><path class="cls-19" d="M343.2,259.35h3.31a3,3,0,0,1,3,3v19.43a3,3,0,0,1-3,3h-.11l-5.08-.16a3,3,0,0,1-2.93-2.89l-.35-8.32a25.66,25.66,0,0,1,1.44-9.63l.86-2.45A3,3,0,0,1,343.2,259.35Z" transform="translate(-92.76 -22.87)"/><path class="cls-6" d="M150.84,442.14s5.08-.17,3.22,8.29c-1.57,7.11,8.32,10,11.54,10.79a.94.94,0,0,1,.67,1.13.19.19,0,0,0,0,.07l-4.56,13.7a3.19,3.19,0,0,1-3.54,2.13L95.22,467.74a2.92,2.92,0,0,1-1.83-4.7c4.1-5.12,14.07-13.06,35.63-10.5a33.36,33.36,0,0,0,6,.21c3.61-.24,8.6-1.11,10.36-4A24,24,0,0,1,150.84,442.14Z" transform="translate(-92.76 -22.87)"/><path class="cls-6" d="M251.19,536.36s5.74-.31,8.47,6.24a3.52,3.52,0,0,0,2.1,2,11.62,11.62,0,0,0,7.61-.27,1,1,0,0,1,1.27.6,1.42,1.42,0,0,1,.05.16c.41,1.95.78,6.29-1.82,12.25a3.86,3.86,0,0,1-1.29,1.59c-4.85,3.53-29.27,19.72-57.92,10.85,0,0-2.25-9.48,8.58-14.45S245.55,543.13,251.19,536.36Z" transform="translate(-92.76 -22.87)"/><path class="cls-28" d="M415.14,209.72c5.73,1.15,13,1.05,17.41-3.26.78-.76-.42-2-1.2-1.2-4,3.85-10.64,3.85-15.76,2.83-1.07-.21-1.52,1.42-.45,1.63Z" transform="translate(-92.76 -22.87)"/></svg>