<svg id="Layer_1" data-name="Layer 1" xmlns="http://www.w3.org/2000/svg" xmlns:xlink="http://www.w3.org/1999/xlink" viewBox="0 0 913.71 688.03"><defs><style>.cls-1{fill:#f7fafe;}.cls-2,.cls-24,.cls-37{opacity:0.6;}.cls-2{fill:url(#linear-gradient);}.cls-26,.cls-3,.cls-35,.cls-38,.cls-4{opacity:0.8;}.cls-3{fill:url(#linear-gradient-2);}.cls-5{fill:url(#linear-gradient-3);}.cls-6{fill:url(#linear-gradient-4);}.cls-7{fill:url(#linear-gradient-5);}.cls-8{fill:url(#linear-gradient-6);}.cls-9{fill:url(#linear-gradient-7);}.cls-10{fill:#6ab04c;}.cls-11{opacity:0.1;}.cls-12{fill:url(#linear-gradient-8);}.cls-13{fill:#a67c52;}.cls-14{fill:url(#linear-gradient-9);}.cls-15{fill:url(#linear-gradient-10);}.cls-16{fill:url(#linear-gradient-11);}.cls-17{fill:url(#linear-gradient-12);}.cls-18{fill:#c69c6d;}.cls-19{fill:url(#linear-gradient-13);}.cls-20{fill:#4d4d4d;}.cls-21{fill:#666;}.cls-22{fill:gray;}.cls-23{fill:#999;}.cls-24{fill:url(#linear-gradient-14);}.cls-25{opacity:0.7;fill:url(#linear-gradient-15);}.cls-26{fill:url(#linear-gradient-16);}.cls-27{fill:url(#linear-gradient-17);}.cls-28{fill:url(#linear-gradient-18);}.cls-29{fill:url(#linear-gradient-19);}.cls-30{fill:url(#linear-gradient-20);}.cls-31{fill:url(#linear-gradient-21);}.cls-32{fill:#e6e6e6;}.cls-33{fill:url(#linear-gradient-22);}.cls-34{opacity:0.5;fill:url(#linear-gradient-23);}.cls-35{fill:url(#linear-gradient-24);}.cls-36{fill:url(#linear-gradient-25);}.cls-37{fill:url(#linear-gradient-26);}.cls-38{fill:url(#linear-gradient-27);}.cls-39{fill:url(#linear-gradient-28);}.cls-40{fill:url(#linear-gradient-29);}.cls-41{fill:url(#linear-gradient-30);}.cls-42{fill:url(#linear-gradient-31);}</style><linearGradient id="linear-gradient" x1="378.34" y1="394.6" x2="577.63" y2="477.11" gradientUnits="userSpaceOnUse"><stop offset="0" stop-color="#3c6382"/><stop offset="0.5" stop-color="#60a3bc"/><stop offset="1" stop-color="#3c6382"/></linearGradient><linearGradient id="linear-gradient-2" x1="431.91" y1="423.47" x2="508.39" y2="455.14" gradientUnits="userSpaceOnUse"><stop offset="0" stop-color="#3c6382" stop-opacity="0.6"/><stop offset="0.5" stop-color="#60a3bc" stop-opacity="0.3"/><stop offset="1" stop-color="#3c6382" stop-opacity="0.6"/></linearGradient><linearGradient id="linear-gradient-3" x1="754.24" y1="336.58" x2="754.3" y2="336.61" xlink:href="#linear-gradient-2"/><linearGradient id="linear-gradient-4" x1="641.28" y1="402.61" x2="999.13" y2="550.77" xlink:href="#linear-gradient-2"/><linearGradient id="linear-gradient-5" x1="713.28" y1="224.12" x2="841.35" y2="277.15" gradientUnits="userSpaceOnUse"><stop offset="0" stop-color="#f7931e" stop-opacity="0.8"/><stop offset="0.5" stop-color="#fbb03b" stop-opacity="0.5"/><stop offset="1" stop-color="#f89d32" stop-opacity="0.8"/></linearGradient><linearGradient id="linear-gradient-6" x1="850.34" y1="433.19" x2="1251.76" y2="599.39" gradientUnits="userSpaceOnUse"><stop offset="0" stop-color="#f7931e"/><stop offset="0.5" stop-color="#fbb03b"/><stop offset="1" stop-color="#f89924"/></linearGradient><linearGradient id="linear-gradient-7" x1="350.43" y1="621.81" x2="1045.94" y2="621.81" gradientUnits="userSpaceOnUse"><stop offset="0"/><stop offset="1" stop-color="#c69c6d"/></linearGradient><linearGradient id="linear-gradient-8" x1="1017.73" y1="466.64" x2="943.64" y2="527.2" gradientUnits="userSpaceOnUse"><stop offset="0" stop-color="#4c809c"/><stop offset="0.5" stop-color="#60a3bc"/><stop offset="1" stop-color="#3c6382"/></linearGradient><linearGradient id="linear-gradient-9" x1="498.04" y1="337.4" x2="704.55" y2="337.4" gradientUnits="userSpaceOnUse"><stop offset="0" stop-color="#3c6382"/><stop offset="0.48" stop-color="#60a3bc"/></linearGradient><linearGradient id="linear-gradient-10" x1="537.12" y1="382.44" x2="717.1" y2="268.76" xlink:href="#linear-gradient-8"/><linearGradient id="linear-gradient-11" x1="855.59" y1="477.44" x2="899.01" y2="477.44" xlink:href="#linear-gradient-9"/><linearGradient id="linear-gradient-12" x1="869.87" y1="497.16" x2="923.32" y2="417.99" xlink:href="#linear-gradient-8"/><linearGradient id="linear-gradient-13" x1="850.47" y1="408.51" x2="850.47" y2="408.51" gradientUnits="userSpaceOnUse"><stop offset="0" stop-color="#ccc" stop-opacity="0"/><stop offset="1" stop-color="#e6e6e6"/></linearGradient><linearGradient id="linear-gradient-14" x1="297.05" y1="376.98" x2="395.24" y2="376.98" gradientUnits="userSpaceOnUse"><stop offset="0" stop-color="#666"/><stop offset="1" stop-color="#b3b3b3"/></linearGradient><linearGradient id="linear-gradient-15" x1="304.15" y1="376.98" x2="402.35" y2="376.98" xlink:href="#linear-gradient-14"/><linearGradient id="linear-gradient-16" x1="311.13" y1="376.98" x2="409.33" y2="376.98" gradientUnits="userSpaceOnUse"><stop offset="0" stop-color="#b3b3b3"/><stop offset="1" stop-color="#b3b3b3"/></linearGradient><linearGradient id="linear-gradient-17" x1="265.97" y1="387.14" x2="422.42" y2="387.14" gradientUnits="userSpaceOnUse"><stop offset="0" stop-color="#3c6382"/><stop offset="0.5" stop-color="#60a3bc"/></linearGradient><linearGradient id="linear-gradient-18" x1="319.15" y1="376.98" x2="417.35" y2="376.98" gradientUnits="userSpaceOnUse"><stop offset="0" stop-color="#ccc"/><stop offset="1" stop-color="#f2f2f2"/></linearGradient><linearGradient id="linear-gradient-19" x1="475.88" y1="447.76" x2="753.22" y2="447.76" gradientUnits="userSpaceOnUse"><stop offset="0.5" stop-color="#60a3bc"/><stop offset="1" stop-color="#3c6382"/></linearGradient><linearGradient id="linear-gradient-20" x1="442.9" y1="607.18" x2="1361.58" y2="629.99" gradientUnits="userSpaceOnUse"><stop offset="0" stop-color="#f7931e" stop-opacity="0.6"/><stop offset="0.5" stop-color="#fbb03b" stop-opacity="0.8"/><stop offset="1" stop-color="#f89d32"/></linearGradient><linearGradient id="linear-gradient-21" x1="1075.6" y1="521.08" x2="450.4" y2="521.08" xlink:href="#linear-gradient-20"/><linearGradient id="linear-gradient-22" x1="462.29" y1="441.16" x2="614.72" y2="441.16" gradientUnits="userSpaceOnUse"><stop offset="0.52" stop-color="#60a3bc"/><stop offset="1" stop-color="#3c6382"/></linearGradient><linearGradient id="linear-gradient-23" x1="367.04" y1="93.58" x2="503.46" y2="150.06" xlink:href="#linear-gradient-2"/><linearGradient id="linear-gradient-24" x1="548.22" y1="546.41" x2="668.94" y2="596.39" xlink:href="#linear-gradient-2"/><linearGradient id="linear-gradient-25" x1="338" y1="516.86" x2="407.21" y2="545.51" xlink:href="#linear-gradient-5"/><linearGradient id="linear-gradient-26" x1="526.26" y1="168.54" x2="577.85" y2="189.9" xlink:href="#linear-gradient-2"/><linearGradient id="linear-gradient-27" x1="717.85" y1="453.19" x2="785.72" y2="481.29" xlink:href="#linear-gradient-2"/><linearGradient id="linear-gradient-28" x1="243.84" y1="167.16" x2="342.06" y2="207.83" xlink:href="#linear-gradient-5"/><linearGradient id="linear-gradient-29" x1="93.08" y1="274.07" x2="221.14" y2="327.1" xlink:href="#linear-gradient-5"/><linearGradient id="linear-gradient-30" x1="248.4" y1="420.74" x2="316.27" y2="448.84" xlink:href="#linear-gradient-2"/><linearGradient id="linear-gradient-31" x1="495.72" y1="456.93" x2="677.06" y2="532.01" xlink:href="#linear-gradient-6"/></defs><title>Empty Clients Final</title><path class="cls-1" d="M621.08,63.52l-39.35,8.2a127.81,127.81,0,0,0-72.82,44.19L473.67,159A295.1,295.1,0,0,1,360.2,244l-24.59,10.4a105.13,105.13,0,0,0-64.19,96.83V420a169.29,169.29,0,0,1-19.51,78.89l-5.39,10.24a57.57,57.57,0,0,0,35.06,82.17L304.73,598a222.47,222.47,0,0,1,91.61,52.32l13.49,12.79A240.91,240.91,0,0,0,568.05,729l246.58,7.6,233.66,12a71.42,71.42,0,0,0,63.44-32.25L1140,673.06a83.26,83.26,0,0,0,4.42-83.49l-70.34-137.35a112.6,112.6,0,0,1-1-100.62l14.48-29.75a82.19,82.19,0,0,0-39-110.42h0a249.22,249.22,0,0,0-117.86-23.21L900,189.72A118.91,118.91,0,0,1,816.53,161L738.94,94A137.42,137.42,0,0,0,621.08,63.52Z" transform="translate(-239.85 -60.62)"/><path class="cls-2" d="M588.87,286.42C474.07,332.61,481.62,467.8,401,491.73c-36.72,10.9-60.16,34-75,56.93-10.57,16.39-34.77,16.16-44.83-.55l-.36-.6a26.49,26.49,0,0,1,4-32.19c66-66.92,132.8-52,171.06-133.6,31-66,94.14-90.44,131.64-99.32A2.12,2.12,0,0,1,588.87,286.42Z" transform="translate(-239.85 -60.62)"/><circle class="cls-3" cx="451.7" cy="431.67" r="37.59"/><g class="cls-4"><path class="cls-5" d="M754.29,336.6v0l-.06-.05Z" transform="translate(-239.85 -60.62)"/><path class="cls-6" d="M952.73,682.32q-11.76-4.67-25.16-8.8a581.46,581.46,0,0,0-19.72-103.91q-5-17.46-11.26-34.57c-.5-1.4-1-2.8-1.54-4.19q-3.22-8.57-6.72-17l0,0s0,0,0,0l0,0c0-.11-.13-.3-.22-.52-.24-.56-.55-1.32-.59-1.4-.29-.68-.57-1.35-.87-2-.59-1.34-1.18-2.68-1.76-4q-1.87-4.2-3.83-8.38c-1.13-2.4-2.27-4.81-3.44-7.19A466.22,466.22,0,0,0,847.15,437q-4.39-6.63-9-13.11c-1.61-2.22-3.22-4.45-4.85-6.65-.82-1.08-1.63-2.16-2.44-3.25l-1.32-1.72,0,0a2.65,2.65,0,0,1-.17-.22.21.21,0,0,0,0-.06l-.06-.08a.43.43,0,0,1-.09-.1v0l-1.56-2c-.81-1-1.63-2.07-2.46-3.09q-2.31-2.88-4.66-5.72-4.6-5.52-9.37-10.92a433.4,433.4,0,0,0-37.67-37.55q-8.62-7.62-17.67-14.74l-1.35-1.06h0s0,0,0,0h0v0l-.07-.05,0,0,0,0-.09-.07h0l-.11-.08-.27-.21-.24-.2-.26-.18c-1.3-1-2.61-2-3.93-3q-4.14-3.07-8.36-6c-9.22-6.5-18.71-12.62-28.5-18.24-6.39-3.7-12.92-7.18-19.6-10.34-1.61-.78-3.23-1.5-4.87-2.23l-.07,0-.47-.21-.24-.11-.17-.08-.11-.05h0c-5.32-2.7-8.77-8-7-14.33,1.62-5.86,8.86-10.91,15-8.5.16.06.31.14.46.18,4.53,1.31,9.2,4,13.4,6.06,7.64,3.79,15.09,8,22.38,12.35a418,418,0,0,1,68.72,52.34,455.85,455.85,0,0,1,77.26,95,492.56,492.56,0,0,1,40.76,83.68q2.4,6.38,4.64,12.81,8.22,23.61,14.22,47.87A629.45,629.45,0,0,1,952.73,682.32Z" transform="translate(-239.85 -60.62)"/></g><circle class="cls-7" cx="746.43" cy="237.85" r="62.94"/><path class="cls-8" d="M1089.57,605.09A16.53,16.53,0,0,1,1101,624.57c-2.66,11.23-5.4,22-8.14,32.21l0,.19a16.32,16.32,0,0,1-22.75,10.31c-52.17-24.42-118.32-76.57-126.34-185.11C932.42,329.25,841.36,310.7,812.36,308.69a1.66,1.66,0,0,1-.39-3.24c127-42.6,163,116.31,190.7,217.21C1016.21,572,1053.92,594.76,1089.57,605.09Z" transform="translate(-239.85 -60.62)"/><path class="cls-9" d="M1045.94,535V680.76a27.7,27.7,0,0,1-32.14,27.43l-.34-.06A82.5,82.5,0,0,1,987,698.59c-58.07-32.66-159.32-59.86-329.87-33C542.85,683.53,465,655.06,412,610.1c-2.88-2.44-5.67-4.93-8.39-7.44a279.27,279.27,0,0,1-39.78-46.31Q358,547.74,352.74,539q-1.17-2-2.31-3.94Z" transform="translate(-239.85 -60.62)"/><path class="cls-10" d="M998,445.22a18.92,18.92,0,0,1,4.89,18.27,18.9,18.9,0,0,1-23.16-23.16A18.92,18.92,0,0,1,998,445.22Z" transform="translate(-239.85 -60.62)"/><path class="cls-11" d="M998,445.22a18.92,18.92,0,0,1,4.89,18.27l-23.16-23.16A18.92,18.92,0,0,1,998,445.22Z" transform="translate(-239.85 -60.62)"/><ellipse class="cls-10" cx="761.67" cy="384.3" rx="10.48" ry="18.15"/><path class="cls-11" d="M1012,444.92a21,21,0,0,1-10.47,18.15V426.78A20.92,20.92,0,0,1,1012,444.92Z" transform="translate(-239.85 -60.62)"/><path class="cls-10" d="M1018.44,458.6a18.88,18.88,0,0,1-18.26,4.9,18.9,18.9,0,0,1,23.16-23.17A18.89,18.89,0,0,1,1018.44,458.6Z" transform="translate(-239.85 -60.62)"/><path class="cls-11" d="M1018.44,458.6a18.88,18.88,0,0,1-18.26,4.9l23.16-23.17A18.89,18.89,0,0,1,1018.44,458.6Z" transform="translate(-239.85 -60.62)"/><path class="cls-12" d="M1028.89,462.8l-7.49,42a2.86,2.86,0,0,1-2.82,2.36H984.47a2.87,2.87,0,0,1-2.82-2.36l-7.24-40.63-.25-1.34a3.88,3.88,0,0,1,3.82-4.56h47.09A3.88,3.88,0,0,1,1028.89,462.8Z" transform="translate(-239.85 -60.62)"/><path class="cls-13" d="M1068.09,518.71v4.75c0,6.39-6.44,11.58-14.36,11.58H358.53a13.8,13.8,0,0,1-11.64-6.35s0,0,0,0a15.19,15.19,0,0,1,13.8-21.55h693.05C1061.65,507.13,1068.09,512.31,1068.09,518.71Z" transform="translate(-239.85 -60.62)"/><rect class="cls-14" x="498.04" y="263.37" width="206.51" height="148.07" rx="6.34" ry="6.34"/><rect class="cls-15" x="505.17" y="263.37" width="206.51" height="148.07" rx="6.34" ry="6.34"/><path class="cls-16" d="M899,507.13H865l-9.36-54.78a3.94,3.94,0,0,1,3.88-4.6h29.34Z" transform="translate(-239.85 -60.62)"/><path class="cls-17" d="M904.34,507.13h-34L860.75,451a2.79,2.79,0,0,1,2.74-3.26h28.36a2.79,2.79,0,0,1,2.74,2.32Z" transform="translate(-239.85 -60.62)"/><path class="cls-18" d="M1045.94,535V680.76a27.7,27.7,0,0,1-32.14,27.43l-.34-.06A82.5,82.5,0,0,1,987,698.59c-58.07-32.66-159.32-59.86-329.87-33C542.85,683.53,465,655.06,412,610.1c-2.88-2.44-5.67-4.93-8.39-7.44a279.27,279.27,0,0,1-39.78-46.31Q358,547.74,352.74,539q-1.17-2-2.31-3.94Z" transform="translate(-239.85 -60.62)"/><path class="cls-19" d="M850.47,408.51" transform="translate(-239.85 -60.62)"/><rect class="cls-20" x="271.29" y="307.46" width="98.2" height="139.05" rx="4.61" ry="4.61"/><rect class="cls-21" x="277.38" y="307.46" width="98.2" height="139.05" rx="4.61" ry="4.61"/><rect class="cls-22" x="284.23" y="307.46" width="98.2" height="139.05" rx="4.61" ry="4.61"/><rect class="cls-23" x="290.83" y="307.46" width="98.2" height="139.05" rx="4.61" ry="4.61"/><rect class="cls-24" x="297.05" y="307.46" width="98.2" height="139.05" rx="4.61" ry="4.61"/><rect class="cls-25" x="304.15" y="307.46" width="98.2" height="139.05" rx="4.61" ry="4.61"/><rect class="cls-26" x="311.13" y="307.46" width="98.2" height="139.05" rx="4.61" ry="4.61"/><rect class="cls-27" x="265.97" y="327.77" width="156.45" height="118.74"/><rect class="cls-28" x="319.15" y="307.46" width="98.2" height="139.05" rx="4.61" ry="4.61"/><path class="cls-29" d="M669.73,388.39V507.13H551V388.39h18.77a5.71,5.71,0,0,1,4.84,2.66l7,11.12a7.38,7.38,0,0,0,6.26,3.46h45a7.39,7.39,0,0,0,6.26-3.46l7-11.12a5.71,5.71,0,0,1,4.83-2.66Z" transform="translate(-239.85 -60.62)"/><path class="cls-30" d="M1045.94,535V680.76a27.7,27.7,0,0,1-32.14,27.43l-.34-.06A82.5,82.5,0,0,1,987,698.59a282.64,282.64,0,0,0-34.3-16.27q-11.76-4.67-25.16-8.8c-60.7-18.58-147.58-27.29-270.41-8-101.91,16-174.85-4.87-227-41.45-6.34-4.44-12.37-9.13-18.12-14-2-1.71-4-3.44-5.92-5.19-.84-.75-1.66-1.5-2.47-2.25a279.27,279.27,0,0,1-39.78-46.31Q358,547.74,352.74,539q-1.17-2-2.31-3.94Z" transform="translate(-239.85 -60.62)"/><path class="cls-31" d="M1068.09,518.71v4.75c0,6.39-6.44,11.58-14.36,11.58H350.43q-1.56-2.7-3.06-5.41c-.17-.31-.33-.63-.48-.94,0,0,0,0,0,0a15.19,15.19,0,0,1,13.8-21.55h693.05C1061.65,507.13,1068.09,512.31,1068.09,518.71Z" transform="translate(-239.85 -60.62)"/><rect class="cls-32" x="467.42" y="432.81" width="142.18" height="10.71" rx="4.51" ry="4.51"/><rect class="cls-33" x="462.29" y="435.8" width="152.43" height="10.71" rx="4.67" ry="4.67"/><circle class="cls-34" cx="402.35" cy="108.2" r="67.05"/><circle class="cls-35" cx="579.46" cy="559.34" r="59.33"/><circle class="cls-36" cx="355.91" cy="524.27" r="34.01"/><circle class="cls-37" cx="539.61" cy="174.07" r="25.35"/><circle class="cls-38" cx="735.41" cy="460.46" r="33.36"/><circle class="cls-39" cx="269.26" cy="177.69" r="48.27"/><circle class="cls-40" cx="126.22" cy="287.8" r="62.94"/><circle class="cls-41" cx="265.97" cy="428.01" r="33.36"/><g class="cls-4"><path class="cls-42" d="M733.33,412.19a428.59,428.59,0,0,0-74.21,21.22c-3,1.15-5.88,2.34-8.81,3.54l-.07,0-.39.16-.12.05-2,.84c-1,.45-2,.89-3,1.35Q636.6,443,628.65,447q-15.42,7.68-30.18,16.63-12.59,7.64-24.63,16.16-5.87,4.14-11.57,8.47l-1,.75-.27.21-.39.31,0,0a.84.84,0,0,0-.19.14.18.18,0,0,0-.07.05l-1.51,1.18c-1.83,1.45-3.64,2.91-5.45,4.38q-16.65,13.61-32,28.78-3.39,3.33-6.7,6.76a477.78,477.78,0,0,0-32.26,36.94l-1.34,1.72,0,0-.15.19,0,.06a1.47,1.47,0,0,0-.1.13l-.11.15-.1.13c-.19.23-.35.45-.45.59l-3.4,4.5q-3,4.07-6,8.19Q464.72,592,459,600.73c-.91,1.4-1.82,2.79-2.71,4.2a9,9,0,0,1-13.06,2.35q-5.23-4-10.17-8.18L433,599a9,9,0,0,1-1.72-11.7A500.69,500.69,0,0,1,479.42,524q11.08-12.4,23-24c61.28-59.79,138.68-101,222.85-117.22,8.1-1.57,16.4,2.18,18.73,10.63C746,400.94,741.41,410.64,733.33,412.19Z" transform="translate(-239.85 -60.62)"/></g></svg>