<svg id="Layer_1" data-name="Layer 1" xmlns="http://www.w3.org/2000/svg" xmlns:xlink="http://www.w3.org/1999/xlink" viewBox="0 0 619.17 735.69"><defs><style>.cls-1{fill:#f7fafe;}.cls-2{fill:url(#linear-gradient);}.cls-3{opacity:0.4;fill:url(#linear-gradient-2);}.cls-4{opacity:0.6;fill:url(#linear-gradient-3);}.cls-5{fill:url(#linear-gradient-4);}.cls-6{fill:url(#linear-gradient-5);}.cls-7{fill:url(#linear-gradient-6);}.cls-8{fill:#f2f2f2;}.cls-9{fill:url(#linear-gradient-7);}.cls-10,.cls-16,.cls-24,.cls-49,.cls-50,.cls-52,.cls-53,.cls-54{fill:#fff;}.cls-10,.cls-22,.cls-32{opacity:0.08;}.cls-11,.cls-59,.cls-60,.cls-61,.cls-62{opacity:0.8;}.cls-11{fill:url(#linear-gradient-8);}.cls-12{fill:url(#linear-gradient-9);}.cls-13{fill:url(#linear-gradient-10);}.cls-14{fill:url(#linear-gradient-11);}.cls-15{fill:url(#linear-gradient-12);}.cls-16{opacity:0.05;}.cls-17{fill:url(#linear-gradient-13);}.cls-18{fill:url(#linear-gradient-14);}.cls-19{fill:url(#linear-gradient-15);}.cls-20{fill:#e6e6e6;}.cls-21{opacity:0.2;}.cls-23{fill:url(#linear-gradient-16);}.cls-24{opacity:0.09;}.cls-25{opacity:0.15;}.cls-26,.cls-27,.cls-28,.cls-29,.cls-30,.cls-31,.cls-32,.cls-33,.cls-34,.cls-35,.cls-36{stroke:#000;}.cls-26,.cls-27,.cls-28,.cls-29,.cls-30,.cls-31,.cls-32,.cls-33,.cls-34,.cls-35,.cls-36,.cls-37,.cls-38,.cls-39,.cls-40,.cls-41,.cls-42,.cls-43,.cls-44,.cls-45,.cls-46,.cls-47{stroke-miterlimit:10;}.cls-26,.cls-37,.cls-45{stroke-width:2.21px;}.cls-27,.cls-38,.cls-39,.cls-40,.cls-41,.cls-42,.cls-44,.cls-46{stroke-width:2.95px;}.cls-28,.cls-43{stroke-width:3.69px;}.cls-29,.cls-47{stroke-width:2.95px;}.cls-30,.cls-31,.cls-32,.cls-33,.cls-34,.cls-35,.cls-36{stroke-width:0.83px;}.cls-31,.cls-49{opacity:0.06;}.cls-33,.cls-50,.cls-57{opacity:0.1;}.cls-34,.cls-52{opacity:0.03;}.cls-35,.cls-53{opacity:0.02;}.cls-36,.cls-54{opacity:0.04;}.cls-37,.cls-43,.cls-44,.cls-45,.cls-46,.cls-47{stroke:#48dbfb;}.cls-37{fill:url(#radial-gradient);}.cls-38,.cls-39,.cls-40,.cls-41,.cls-42{fill:none;}.cls-38{stroke:url(#Blue_Sky);}.cls-39{stroke:url(#Blue_Sky-2);}.cls-40{stroke:url(#Blue_Sky-3);}.cls-41{stroke:url(#Blue_Sky-4);}.cls-42{stroke:url(#Blue_Sky-5);}.cls-43{fill:url(#radial-gradient-2);}.cls-44{fill:url(#radial-gradient-3);}.cls-45{fill:url(#radial-gradient-4);}.cls-46{fill:url(#radial-gradient-5);}.cls-47{fill:url(#radial-gradient-6);}.cls-48{fill:url(#linear-gradient-17);}.cls-51{fill:#ffad40;}.cls-55{fill:url(#linear-gradient-18);}.cls-56{fill:url(#linear-gradient-19);}.cls-58{fill:url(#linear-gradient-20);}.cls-59{fill:url(#linear-gradient-21);}.cls-60{fill:url(#linear-gradient-22);}.cls-61{fill:url(#linear-gradient-23);}.cls-62{fill:url(#linear-gradient-24);}</style><linearGradient id="linear-gradient" x1="652.56" y1="310.64" x2="747.29" y2="310.64" gradientUnits="userSpaceOnUse"><stop offset="0" stop-color="#fbb03b"/><stop offset="1" stop-color="#f15a24"/></linearGradient><linearGradient id="linear-gradient-2" x1="837.25" y1="509.97" x2="906.5" y2="509.97" gradientTransform="translate(9.37 -177.23) rotate(7.12)" gradientUnits="userSpaceOnUse"><stop offset="0" stop-color="#3c6382"/><stop offset="1" stop-color="#60a3bc"/></linearGradient><linearGradient id="linear-gradient-3" x1="834.39" y1="509.93" x2="903.06" y2="509.93" xlink:href="#linear-gradient-2"/><linearGradient id="linear-gradient-4" x1="781.41" y1="426.4" x2="811.59" y2="426.4" gradientUnits="userSpaceOnUse"><stop offset="0.01" stop-color="#f7931e"/><stop offset="0.57" stop-color="#faa732"/><stop offset="1" stop-color="#fbb03b"/></linearGradient><linearGradient id="linear-gradient-5" x1="849.3" y1="389.15" x2="936.85" y2="389.15" gradientTransform="matrix(0.91, 0.42, -0.42, 0.91, 149.94, -267.61)" gradientUnits="userSpaceOnUse"><stop offset="0" stop-color="#f7931e"/><stop offset="0.5" stop-color="#fbb03b"/><stop offset="1" stop-color="#f89d32"/></linearGradient><linearGradient id="linear-gradient-6" x1="245.33" y1="631.18" x2="272.4" y2="631.18" gradientUnits="userSpaceOnUse"><stop offset="0" stop-color="#ffdcd1"/><stop offset="1" stop-color="#ffb9bb"/></linearGradient><linearGradient id="linear-gradient-7" x1="842.31" y1="551.67" x2="739.83" y2="538.48" gradientUnits="userSpaceOnUse"><stop offset="0" stop-color="gray"/><stop offset="1" stop-color="#4d4d4d"/></linearGradient><linearGradient id="linear-gradient-8" x1="239.18" y1="542.29" x2="322.03" y2="542.29" gradientUnits="userSpaceOnUse"><stop offset="0" stop-color="#3c6382" stop-opacity="0.6"/><stop offset="0.5" stop-color="#60a3bc" stop-opacity="0.3"/><stop offset="1" stop-color="#3c6382" stop-opacity="0.6"/></linearGradient><linearGradient id="linear-gradient-9" x1="191.71" y1="415.43" x2="242.61" y2="415.43" gradientUnits="userSpaceOnUse"><stop offset="0" stop-color="#f7931e" stop-opacity="0.8"/><stop offset="0.5" stop-color="#fbb03b" stop-opacity="0.5"/><stop offset="1" stop-color="#f89d32" stop-opacity="0.8"/></linearGradient><linearGradient id="linear-gradient-10" x1="468.5" y1="364.36" x2="549.44" y2="364.36" xlink:href="#linear-gradient-9"/><linearGradient id="linear-gradient-11" x1="320.72" y1="453.64" x2="350.85" y2="453.64" xlink:href="#linear-gradient-9"/><linearGradient id="linear-gradient-12" x1="661.34" y1="616.03" x2="873.85" y2="584.36" xlink:href="#linear-gradient-7"/><linearGradient id="linear-gradient-13" x1="906.71" y1="379.63" x2="867.06" y2="401.3" gradientTransform="matrix(1, 0, 0, 1, 0, 0)" xlink:href="#linear-gradient-2"/><linearGradient id="linear-gradient-14" x1="833.06" y1="394.44" x2="875.24" y2="394.44" xlink:href="#linear-gradient-6"/><linearGradient id="linear-gradient-15" x1="830.79" y1="510.11" x2="898.58" y2="510.11" xlink:href="#linear-gradient-2"/><linearGradient id="linear-gradient-16" x1="837.22" y1="390.38" x2="848.46" y2="390.38" gradientTransform="matrix(1, 0, 0, 1, 0, 0)" xlink:href="#linear-gradient-2"/><radialGradient id="radial-gradient" cx="603.52" cy="183.62" r="3.1" gradientTransform="translate(-438.63 -139.83) rotate(8.74)" gradientUnits="userSpaceOnUse"><stop offset="0.23" stop-color="#29abe2"/><stop offset="1" stop-color="#2e3192"/></radialGradient><linearGradient id="Blue_Sky" x1="670.29" y1="184.4" x2="687.4" y2="184.4" gradientTransform="translate(-438.63 -139.83) rotate(8.74)" gradientUnits="userSpaceOnUse"><stop offset="0" stop-color="#3ddeed"/><stop offset="1" stop-color="#3ddeed" stop-opacity="0"/></linearGradient><linearGradient id="Blue_Sky-2" x1="650.42" y1="174.12" x2="666.88" y2="174.12" xlink:href="#Blue_Sky"/><linearGradient id="Blue_Sky-3" x1="635.46" y1="173.91" x2="645.13" y2="173.91" xlink:href="#Blue_Sky"/><linearGradient id="Blue_Sky-4" x1="604.91" y1="175" x2="626.73" y2="175" xlink:href="#Blue_Sky"/><linearGradient id="Blue_Sky-5" x1="595.88" y1="166.03" x2="603.64" y2="166.03" xlink:href="#Blue_Sky"/><radialGradient id="radial-gradient-2" cx="631.75" cy="165.87" r="6.3" xlink:href="#radial-gradient"/><radialGradient id="radial-gradient-3" cx="647.09" cy="181.06" r="4.43" xlink:href="#radial-gradient"/><radialGradient id="radial-gradient-4" cx="669.2" cy="166.58" r="3.5" xlink:href="#radial-gradient"/><radialGradient id="radial-gradient-5" cx="687.86" cy="204.04" r="6.23" xlink:href="#radial-gradient"/><radialGradient id="radial-gradient-6" cx="596.12" cy="145.12" r="6.23" xlink:href="#radial-gradient"/><linearGradient id="linear-gradient-17" x1="566.45" y1="121.51" x2="717.53" y2="121.51" gradientTransform="translate(-19.31 -87.17) rotate(8.74)" xlink:href="#linear-gradient"/><linearGradient id="linear-gradient-18" x1="521.29" y1="732.2" x2="672.37" y2="732.2" gradientTransform="translate(1059.13 1050.33) rotate(-171.26)" xlink:href="#linear-gradient"/><linearGradient id="linear-gradient-19" x1="701.41" y1="310.74" x2="734.24" y2="337.28" gradientTransform="translate(69.92 -137.13) rotate(14.55)" xlink:href="#linear-gradient-4"/><linearGradient id="linear-gradient-20" x1="579.83" y1="217.88" x2="630.1" y2="258.53" gradientTransform="matrix(-0.82, 0.57, 0.57, 0.82, 1093.57, -298.63)" xlink:href="#linear-gradient-4"/><linearGradient id="linear-gradient-21" x1="363.56" y1="259.81" x2="429.28" y2="259.81" xlink:href="#linear-gradient-8"/><linearGradient id="linear-gradient-22" x1="357.95" y1="624.99" x2="396.42" y2="624.99" xlink:href="#linear-gradient-8"/><linearGradient id="linear-gradient-23" x1="73.73" y1="292.67" x2="199.36" y2="292.67" xlink:href="#linear-gradient-8"/><linearGradient id="linear-gradient-24" x1="426.46" y1="507.95" x2="486.25" y2="507.95" xlink:href="#linear-gradient-8"/></defs><title>kaagapai Empty Session Document Final</title><path class="cls-1" d="M420.16,279.39l10.51-91.67A129.83,129.83,0,0,1,488.5,93.88l30.43-19.95A129.88,129.88,0,0,1,635.45,60.82l88.39,32.89a129.89,129.89,0,0,1,81.79,94.91h0a129.89,129.89,0,0,0,67.49,88.57l74.14,38.29a129.88,129.88,0,0,1,64.28,76.35l20.93,66.37a129.9,129.9,0,0,1-42.38,140.21l-70.88,57.11a130,130,0,0,0-32.63,39.13l-14,25.82a129.9,129.9,0,0,1-119.24,67.78l-23.26-.92A129.88,129.88,0,0,1,606,671.07l-7.08-67.63a129.87,129.87,0,0,0-26.22-65.65L446.24,373.35A130,130,0,0,1,420.16,279.39Z" transform="translate(-419.32 -52.66)"/><path class="cls-2" d="M743.72,433.12l-.24,0-.4-.08c-1.33-.26-2.65-.51-4-.84a60.63,60.63,0,0,1-12.72-4.8c-13.91-7.14-24.34-19-30.81-33.18-10.2-22.25-11.74-49.74-6.48-73.44a106.72,106.72,0,0,1,26-49.61c6.17-6.62,13.26-13.1,21.29-17.4a3.6,3.6,0,0,0,1.84-3.21c-4.49-35.15-38.35-52.18-70-57.57-1-.18-2.06-.34-3.09-.5l6.11-5.51c3.56-3.21-1.71-8.46-5.26-5.26l-12.31,11.09a3.76,3.76,0,0,0-.58,4.51l10,16.29c2.5,4.08,8.94.34,6.42-3.75l-6.27-10.21a126.9,126.9,0,0,1,17.29,3.74c14.19,4,28.37,10.54,38.45,21.6a46.69,46.69,0,0,1,11.52,23.58A94.16,94.16,0,0,0,712.61,263a114.09,114.09,0,0,0-29.14,49.68c-11.33,40.32-3.62,95.38,35,118.79,7.52,4.55,16.39,8.25,25.23,9.08C748.49,441,748.46,433.56,743.72,433.12Z" transform="translate(-419.32 -52.66)"/><path class="cls-3" d="M844.72,448.23l-4,8.42-52.14-24a1.94,1.94,0,0,1-.95-2.59,3,3,0,0,0-1.48-4l-7.87-3.63,2-4.23a2.06,2.06,0,0,1,2.71-1l60.77,28.34A2,2,0,0,1,844.72,448.23Z" transform="translate(-419.32 -52.66)"/><path class="cls-4" d="M841.2,448.64,838,455.39l-49.42-22.77a1.94,1.94,0,0,1-.95-2.59,3,3,0,0,0-1.48-4l-10.59-4.89,1.22-2.56a2,2,0,0,1,2.71-.95L840.22,446A2,2,0,0,1,841.2,448.64Z" transform="translate(-419.32 -52.66)"/><path class="cls-5" d="M783.89,424s.31-7.23-2.48-12.81c0,0,19.48,1.14,27.05,10.75,0,0,3.33,11.47,3.12,19.73l-26.45-11.88Z" transform="translate(-419.32 -52.66)"/><path class="cls-6" d="M787.6,430h0a3,3,0,0,0-1.48-4l-15.6-7.19a3.06,3.06,0,0,0-4,1.46l-.84,1.77-1.41,3-20.17,42.72a3.4,3.4,0,0,0,1.68,4.55l73,33.66a3.49,3.49,0,0,0,4.61-1.66l20.11-42.6a3.42,3.42,0,0,0-1.67-4.56l-53.26-24.54A1.94,1.94,0,0,1,787.6,430Z" transform="translate(-419.32 -52.66)"/><polygon class="cls-7" points="253.81 618.27 245.33 631.29 261.24 644.1 272.4 629.22 253.81 618.27"/><path class="cls-8" d="M757.87,628.84s-7.66,36.65,2.53,47.12l25.88-57.88a3.53,3.53,0,0,0-.42-3.58l-4-5.22L761,620Z" transform="translate(-419.32 -52.66)"/><path class="cls-9" d="M814.27,503.74l-56.87,7.39a18.7,18.7,0,0,0-16.28,18.54v61.7l67.37-47.53,39-32.66L825,496.72Z" transform="translate(-419.32 -52.66)"/><path class="cls-10" d="M807,505.12s-4.68,32-26.45,31.69-26.18-2.21-28.38,13.78,1.38,31.68,1.38,31.68l67.23-50.14,20.11-25.36-12.4-15.43Z" transform="translate(-419.32 -52.66)"/><circle class="cls-11" cx="280.6" cy="542.29" r="41.42"/><circle class="cls-12" cx="217.16" cy="415.43" r="25.45"/><circle class="cls-13" cx="508.97" cy="364.36" r="40.47"/><circle class="cls-14" cx="335.79" cy="453.64" r="15.07"/><path class="cls-15" d="M869.52,555.27c-11,17.91-70.27,51.53-101.12,67.24-27.3,13.88-59.56,52.36-66.64,61a4.78,4.78,0,0,1-3.72,1.77h-9a13,13,0,0,1-9-3.64l-9.25-8.93a4.81,4.81,0,0,1-.33-6.55c6.86-8.11,25.08-30.09,46.68-59.69,27.56-37.74,112.43-90.38,112.43-90.38l24.69,24.18Z" transform="translate(-419.32 -52.66)"/><path class="cls-16" d="M869.52,555.27c-11,17.91-70.27,51.53-101.12,67.24-27.3,13.88-59.56,52.36-66.64,61a4.78,4.78,0,0,1-3.72,1.77h-3a26.23,26.23,0,0,1-.61-20c8.37-24.1,54.5-29.83,78.53-69.85s81.32-55.18,81.32-55.18Z" transform="translate(-419.32 -52.66)"/><path class="cls-17" d="M847.52,365.55s.51-22.72,20.07-21.62,39.27,16,29.76,46.56S911,409.92,901.48,443l-11.57-21.5-19.43-14.88-4.13-12.17L861,386.36l-3.72-16.53Z" transform="translate(-419.32 -52.66)"/><path class="cls-18" d="M847.52,365.55,835,379.36a1.18,1.18,0,0,0,.21,1.77l1.35.92a2.15,2.15,0,0,1,.75,2.63l-4.08,9.37a2.26,2.26,0,0,0,.9,2.84l15.74,9.55A4.45,4.45,0,0,1,852,410l.89,14.82,22.32-16.53v-4.34L869,399.75a.85.85,0,0,1,0-1.44c2-1.22,5.8-4.05,5-7.85a4.72,4.72,0,0,0-4.52-3.55l-3.43-.09a1.74,1.74,0,0,1-1.7-1.77l.14-11.66a4.71,4.71,0,0,0-2.58-4.27l-9-4.56A4.47,4.47,0,0,0,847.52,365.55Z" transform="translate(-419.32 -52.66)"/><path class="cls-19" d="M836.57,449.56l-2,4.25-46-21.19a1.94,1.94,0,0,1-.95-2.59,3,3,0,0,0-1.48-4l-14-6.47,0-.05a2,2,0,0,1,2.7-1l60.77,28.33A2,2,0,0,1,836.57,449.56Z" transform="translate(-419.32 -52.66)"/><path class="cls-20" d="M887.52,412.41a17.83,17.83,0,0,0-17.36-5.92,19.76,19.76,0,0,0-8.77,4.4c-8.85,7.7-20.43,19.28-28.33,32.1S798,496.51,770.88,483.9c0,0,12.19,50.22,60.13,18.81l-4.59,6.2a6.21,6.21,0,0,0,.44,7.9l40,43.15s12.26,3.85,20.81-19.71,19.56-43.93,17.36-80.87C903.61,435,893.93,419.87,887.52,412.41Z" transform="translate(-419.32 -52.66)"/><path class="cls-21" d="M877.78,659.51a4.7,4.7,0,0,0,.9.94l-1-.81Z" transform="translate(-419.32 -52.66)"/><path class="cls-8" d="M682.5,696l-17.45-14.76a1.45,1.45,0,0,0-.89-.34,45,45,0,0,1-18.21-4.7,34.55,34.55,0,0,0-15.06-3.36h-8.81l47.71,41.29a1.71,1.71,0,0,0,2.55-.35l10.43-15.91A1.43,1.43,0,0,0,682.5,696Z" transform="translate(-419.32 -52.66)"/><path class="cls-22" d="M831,502.71s39.47-15.71,52.08-50c0,0,2.62,59.12-37.36,61.3a7.14,7.14,0,0,0-6.78,6.78l-.41,8.61-11.48-12.45a6.09,6.09,0,0,1-1.14-1.81l-.12-.3a5.92,5.92,0,0,1-.39-2.73h0a6,6,0,0,1,1-2.8Z" transform="translate(-419.32 -52.66)"/><path class="cls-23" d="M837.87,390.84c3.17,1,7.07,1.47,10.12-.09,1.07-.55.13-2.15-.94-1.61-2.58,1.32-6,.75-8.69-.09-1.14-.36-1.63,1.43-.49,1.79Z" transform="translate(-419.32 -52.66)"/><path class="cls-24" d="M614.77,156.82c3-1.61,12.75-5.92,22.45.86a1,1,0,0,1,0,1.55c-3.4,2.57-14.83,9.88-22.77-1A1,1,0,0,1,614.77,156.82Z" transform="translate(-419.32 -52.66)"/><g class="cls-25"><circle class="cls-26" cx="126.08" cy="138.88" r="3.1"/><line class="cls-27" x1="195.6" y1="134.88" x2="205.21" y2="167.33"/><line class="cls-27" x1="173.9" y1="142.33" x2="190.11" y2="133.41"/><line class="cls-27" x1="160.76" y1="130.42" x2="167.03" y2="139.32"/><line class="cls-27" x1="150.55" y1="126.94" x2="128.54" y2="137.52"/><line class="cls-27" x1="125.17" y1="135.92" x2="124.88" y2="105.93"/><circle class="cls-28" cx="156.68" cy="125.63" r="6.29"/><circle class="cls-27" cx="169.52" cy="142.97" r="4.43"/><circle class="cls-26" cx="193.58" cy="132.02" r="3.5"/><circle class="cls-27" cx="206.33" cy="171.89" r="6.23"/><circle class="cls-29" cx="124.61" cy="99.71" r="6.23"/><path class="cls-30" d="M664.45,167.42c-8.27-1.32-60.23-9.87-63.87-17.46a19.4,19.4,0,0,0-1.62-2.7c-5.87-8.33-22.41-21.44-45.07-16.64-.63.14-1.27.28-1.91.45-1.2.3-2.41.65-3.63,1.06l-1.89.61c-3.07,1-5.85,1.74-8.38,2.35a80,80,0,0,1-8,1.52c-1,.12-1.87.22-2.73.29a36.21,36.21,0,0,1-5.43.09,20.9,20.9,0,0,1-4-.6,1.75,1.75,0,0,1-1.07-2.57h0a1.76,1.76,0,0,1,.81-.73l1.71-.75,1-.42c.32-.15.66-.29,1-.43h0c1.56-.66,3.37-1.41,5.46-2.23l1.15-.45,1.14-.44c1.78-.68,3.72-1.41,5.83-2.17l.09,0c8.94-3.24,20.79-7.11,35.53-11.07,11.75-3.15,25.46.83,38.75,7.77A149.18,149.18,0,0,1,624.46,132l0,0,.12.08a236.26,236.26,0,0,1,20.06,15.55v0h0c4.13,3.55,7.81,6.93,10.89,9.86l.78.75.25.24c.43.4.83.8,1.23,1.18,3.08,3,5.35,5.35,6.61,6.66h0Z" transform="translate(-419.32 -52.66)"/><path class="cls-31" d="M609.35,122.86c18.27,9.56,35.75,24.74,46.23,34.72l.78.75-39.74-4.64C646.63,150.14,626.26,133.54,609.35,122.86Z" transform="translate(-419.32 -52.66)"/><path class="cls-32" d="M657.84,159.75l-14.4-6.47-.33-2.73c-5.21-8.82-17-17.37-18.5-18.41a259.23,259.23,0,0,1,31,25.44l.78.75Z" transform="translate(-419.32 -52.66)"/><path class="cls-33" d="M656.61,158.57l-4.2-.22c-.61-3.11-7.3-10.19-7.72-10.63,4.13,3.55,7.81,6.93,10.89,9.86l.78.75Z" transform="translate(-419.32 -52.66)"/><path class="cls-30" d="M663.32,169a63.37,63.37,0,0,1-19.71,7.2,53.13,53.13,0,0,1-39.12-8.35l-20.4-13.73-1.27-.86-1.33-.88-6.65-4.48-1.39-.94-1-.64a2.44,2.44,0,0,1-.42-.35,3,3,0,0,1-.11-4.16c1.17-1.23,3.37-2.19,7.54-1.5,9.1,1.48,19.39,11.43,38.25,7.18,17.59-4,38,7.63,46.23,17.94A2.39,2.39,0,0,1,663.32,169Z" transform="translate(-419.32 -52.66)"/><path class="cls-34" d="M610.74,156c6.67-2.28,28.38-7.81,46.64,8.67a1.89,1.89,0,0,1-.4,3.08c-7.86,4.06-33.89,15.06-47.28-9A1.89,1.89,0,0,1,610.74,156Z" transform="translate(-419.32 -52.66)"/><path class="cls-31" d="M615.76,157.54c5.22-1.9,22.21-6.56,36.37,6.82a1.6,1.6,0,0,1-.33,2.53c-6.17,3.37-26.55,12.53-36.87-7.12A1.6,1.6,0,0,1,615.76,157.54Z" transform="translate(-419.32 -52.66)"/><path class="cls-35" d="M584.56,154.07c-.14,0-.29,0-.47,0l-1.27-.86-1.33-.88-6.65-4.48-1.39-.94-1-.64a2.44,2.44,0,0,1-.42-.35s0-.06,0-.09a.6.6,0,0,1,.63-.66c2.18.14,9.08,1.13,12.37,8A.59.59,0,0,1,584.56,154.07Z" transform="translate(-419.32 -52.66)"/><path class="cls-36" d="M583.18,153.21l-.36,0-1.33-.88-6.65-4.48-1.39-.94c0-.05,0-.1,0-.15a.48.48,0,0,1,.5-.54,10.87,10.87,0,0,1,9.64,6.28A.49.49,0,0,1,583.18,153.21Z" transform="translate(-419.32 -52.66)"/><path class="cls-31" d="M581.77,152.33l-.28,0-6.65-4.48,0-.13a.36.36,0,0,1,.36-.39,7.78,7.78,0,0,1,6.87,4.48A.35.35,0,0,1,581.77,152.33Z" transform="translate(-419.32 -52.66)"/><path class="cls-31" d="M553.89,130.62c-.63.14-1.27.28-1.91.45-1.2.3-2.41.65-3.63,1.06-3.82,1.26-7.23,2.23-10.27,3a80,80,0,0,1-8,1.52,42.11,42.11,0,0,1-8.16.38,20.9,20.9,0,0,1-4-.6,1.75,1.75,0,0,1-1.07-2.57c0,.15-.21,2,5,1.88C527.26,135.57,550.06,127.76,553.89,130.62Z" transform="translate(-419.32 -52.66)"/><path class="cls-32" d="M552,131.07c-1.2.3-2.41.65-3.63,1.06-3.82,1.26-7.23,2.23-10.27,3a80,80,0,0,1-8,1.52,42.11,42.11,0,0,1-8.16.38S547.19,130,552,131.07Z" transform="translate(-419.32 -52.66)"/><path class="cls-33" d="M546.46,132.74c-3.07,1-5.85,1.74-8.38,2.35a80,80,0,0,1-8,1.52c-1,.12-1.87.22-2.73.29,0,0,12.45-4.21,19.08-4.16Z" transform="translate(-419.32 -52.66)"/><path class="cls-30" d="M505.06,210c8.27,1.32,60.23,9.87,63.87,17.47a18.42,18.42,0,0,0,1.62,2.69c5.87,8.33,22.41,21.45,45.07,16.64.63-.13,1.27-.28,1.91-.44,1.2-.3,2.41-.66,3.63-1.06.64-.22,1.27-.42,1.89-.62,3.07-1,5.85-1.74,8.38-2.34a73.77,73.77,0,0,1,8-1.52q1.44-.2,2.73-.3a36.21,36.21,0,0,1,5.43-.09,20.9,20.9,0,0,1,4,.6,1.75,1.75,0,0,1,1.07,2.57h0a1.8,1.8,0,0,1-.81.72l-1.71.76-1,.42-1,.43h0c-1.56.66-3.38,1.41-5.46,2.23l-1.16.45-1.13.44c-1.78.69-3.73,1.41-5.83,2.17l-.09,0c-8.94,3.23-20.79,7.1-35.53,11.06-11.76,3.15-25.46-.82-38.75-7.77A152.2,152.2,0,0,1,545,245.37l0,0-.11-.08a234.23,234.23,0,0,1-20.06-15.55l0,0h0c-4.13-3.56-7.82-6.94-10.89-9.87l-.78-.75-.25-.23-1.23-1.19c-3.08-3-5.36-5.34-6.61-6.66h0Z" transform="translate(-419.32 -52.66)"/><path class="cls-31" d="M560.16,254.54c-18.28-9.56-35.75-24.74-46.23-34.72l-.78-.75,39.74,4.64C522.88,227.27,543.25,243.87,560.16,254.54Z" transform="translate(-419.32 -52.66)"/><path class="cls-32" d="M511.67,217.65l14.4,6.47.33,2.73c5.21,8.83,17,17.38,18.5,18.41a258.43,258.43,0,0,1-31-25.44l-.78-.75Z" transform="translate(-419.32 -52.66)"/><path class="cls-33" d="M512.9,218.84l4.2.21c.61,3.11,7.3,10.2,7.72,10.64-4.13-3.56-7.82-6.94-10.89-9.87l-.78-.75Z" transform="translate(-419.32 -52.66)"/><path class="cls-30" d="M506.19,208.42a63.16,63.16,0,0,1,19.71-7.19A53.13,53.13,0,0,1,565,209.57l20.4,13.73,1.27.86L588,225l6.65,4.49,1.39.93,1,.65a2.31,2.31,0,0,1,.42.34,3,3,0,0,1,.1,4.16c-1.16,1.23-3.36,2.19-7.54,1.51-9.09-1.49-19.38-11.44-38.24-7.19-17.6,4-38-7.63-46.23-17.94A2.39,2.39,0,0,1,506.19,208.42Z" transform="translate(-419.32 -52.66)"/><path class="cls-34" d="M558.77,221.41c-6.67,2.28-28.38,7.82-46.65-8.67a1.9,1.9,0,0,1,.41-3.08c7.86-4.06,33.89-15.06,47.28,9A1.89,1.89,0,0,1,558.77,221.41Z" transform="translate(-419.32 -52.66)"/><path class="cls-31" d="M553.75,219.86c-5.23,1.9-22.21,6.56-36.37-6.82a1.59,1.59,0,0,1,.33-2.52c6.16-3.37,26.55-12.53,36.86,7.11A1.59,1.59,0,0,1,553.75,219.86Z" transform="translate(-419.32 -52.66)"/><path class="cls-35" d="M584.94,223.33l.48,0,1.27.86L588,225l6.65,4.49,1.39.93,1,.65a2.31,2.31,0,0,1,.42.34.28.28,0,0,1,0,.09.58.58,0,0,1-.62.66c-2.18-.14-9.08-1.13-12.37-8A.59.59,0,0,1,584.94,223.33Z" transform="translate(-419.32 -52.66)"/><path class="cls-36" d="M586.33,224.19l.36,0L588,225l6.65,4.49,1.39.93s0,.1,0,.15a.5.5,0,0,1-.51.55c-1.72-.08-7.16-.75-9.64-6.28A.51.51,0,0,1,586.33,224.19Z" transform="translate(-419.32 -52.66)"/><path class="cls-31" d="M587.74,225.07l.28,0,6.65,4.49,0,.12a.35.35,0,0,1-.36.39,7.77,7.77,0,0,1-6.87-4.48A.35.35,0,0,1,587.74,225.07Z" transform="translate(-419.32 -52.66)"/><path class="cls-31" d="M615.62,246.78c.63-.13,1.27-.28,1.91-.44,1.2-.3,2.41-.66,3.63-1.06,3.82-1.27,7.23-2.24,10.27-3a73.77,73.77,0,0,1,8-1.52,42.23,42.23,0,0,1,8.16-.39,20.9,20.9,0,0,1,4,.6,1.75,1.75,0,0,1,1.07,2.57c0-.15.21-2-5-1.88C642.25,241.83,619.45,249.64,615.62,246.78Z" transform="translate(-419.32 -52.66)"/><path class="cls-32" d="M617.53,246.34c1.2-.3,2.41-.66,3.63-1.06,3.82-1.27,7.23-2.24,10.27-3a73.77,73.77,0,0,1,8-1.52,42.23,42.23,0,0,1,8.16-.39S622.32,247.45,617.53,246.34Z" transform="translate(-419.32 -52.66)"/><path class="cls-33" d="M623.05,244.66c3.07-1,5.85-1.74,8.38-2.34a73.77,73.77,0,0,1,8-1.52q1.44-.2,2.73-.3s-12.45,4.22-19.08,4.16Z" transform="translate(-419.32 -52.66)"/></g><circle class="cls-37" cx="129.96" cy="133.4" r="3.1"/><line class="cls-38" x1="199.48" y1="129.39" x2="209.1" y2="161.85"/><line class="cls-39" x1="177.79" y1="136.85" x2="194" y2="127.93"/><line class="cls-40" x1="164.65" y1="124.94" x2="170.91" y2="133.84"/><line class="cls-41" x1="154.43" y1="121.45" x2="132.42" y2="132.04"/><line class="cls-42" x1="129.06" y1="130.44" x2="128.77" y2="100.45"/><circle class="cls-43" cx="160.56" cy="120.15" r="6.29"/><circle class="cls-44" cx="173.41" cy="137.49" r="4.43"/><circle class="cls-45" cx="197.47" cy="126.54" r="3.5"/><circle class="cls-46" cx="210.22" cy="166.4" r="6.23"/><circle class="cls-47" cx="128.5" cy="94.22" r="6.23"/><path class="cls-48" d="M668.34,161.94c-8.28-1.32-60.24-9.87-63.87-17.47a19.35,19.35,0,0,0-1.62-2.69c-5.87-8.33-22.42-21.45-45.07-16.64-.63.13-1.27.28-1.91.44-1.2.3-2.41.66-3.64,1.06l-1.88.62c-3.07,1-5.86,1.74-8.38,2.34a77.56,77.56,0,0,1-8,1.53c-1,.12-1.88.22-2.73.29a36.22,36.22,0,0,1-5.43.09,20.77,20.77,0,0,1-4-.6,1.76,1.76,0,0,1-1.08-2.57h0a1.72,1.72,0,0,1,.8-.72l1.72-.76,1-.42,1-.43h0c1.56-.66,3.37-1.41,5.45-2.23l1.16-.45,1.14-.44q2.67-1,5.83-2.17l.08,0c8.95-3.23,20.79-7.1,35.54-11.06,11.75-3.15,25.46.82,38.74,7.77a149.94,149.94,0,0,1,15.12,9.17l0,0,.12.08a237.4,237.4,0,0,1,20.06,15.55v0h0c4.14,3.56,7.82,6.94,10.9,9.87l.78.75.25.24,1.23,1.18c3.08,3,5.35,5.34,6.61,6.66h0Z" transform="translate(-419.32 -52.66)"/><path class="cls-49" d="M613.23,117.38c18.28,9.56,35.76,24.74,46.24,34.72l.78.75-39.74-4.64C650.52,144.65,630.14,128.05,613.23,117.38Z" transform="translate(-419.32 -52.66)"/><path class="cls-10" d="M661.73,154.27l-14.4-6.47-.33-2.73c-5.21-8.83-17-17.38-18.5-18.41a259.23,259.23,0,0,1,31,25.44l.78.75Z" transform="translate(-419.32 -52.66)"/><path class="cls-50" d="M660.5,153.09l-4.21-.22c-.6-3.11-7.29-10.2-7.72-10.64,4.14,3.56,7.82,6.94,10.9,9.87l.78.75Z" transform="translate(-419.32 -52.66)"/><path class="cls-51" d="M667.2,163.5a63.29,63.29,0,0,1-19.7,7.2,53.21,53.21,0,0,1-39.13-8.35L588,148.62l-1.28-.86-1.32-.88-6.66-4.49-1.38-.93-1-.65a2.72,2.72,0,0,1-.42-.34,3,3,0,0,1-.1-4.16c1.16-1.23,3.37-2.19,7.54-1.51,9.1,1.49,19.39,11.44,38.24,7.19,17.6-4,38,7.63,46.24,17.94A2.39,2.39,0,0,1,667.2,163.5Z" transform="translate(-419.32 -52.66)"/><path class="cls-52" d="M614.62,150.51c6.68-2.28,28.39-7.82,46.65,8.67a1.89,1.89,0,0,1-.4,3.08c-7.87,4.06-33.89,15.06-47.28-9A1.89,1.89,0,0,1,614.62,150.51Z" transform="translate(-419.32 -52.66)"/><path class="cls-49" d="M619.65,152.06c5.22-1.9,22.21-6.56,36.37,6.82a1.59,1.59,0,0,1-.34,2.52c-6.16,3.38-26.54,12.53-36.86-7.11A1.6,1.6,0,0,1,619.65,152.06Z" transform="translate(-419.32 -52.66)"/><path class="cls-53" d="M588.45,148.59c-.14,0-.3,0-.47,0l-1.28-.86-1.32-.88-6.66-4.49-1.38-.93-1-.65a2.72,2.72,0,0,1-.42-.34s0-.06,0-.09a.59.59,0,0,1,.62-.66c2.19.14,9.09,1.13,12.37,8A.59.59,0,0,1,588.45,148.59Z" transform="translate(-419.32 -52.66)"/><path class="cls-54" d="M587.07,147.73l-.37,0-1.32-.88-6.66-4.49-1.38-.93a.77.77,0,0,1,0-.15.5.5,0,0,1,.5-.55c1.73.08,7.16.76,9.64,6.28A.5.5,0,0,1,587.07,147.73Z" transform="translate(-419.32 -52.66)"/><path class="cls-49" d="M585.66,146.85l-.28,0-6.66-4.49v-.12a.35.35,0,0,1,.36-.39,7.78,7.78,0,0,1,6.87,4.48A.35.35,0,0,1,585.66,146.85Z" transform="translate(-419.32 -52.66)"/><path class="cls-49" d="M557.78,125.14c-.63.13-1.27.28-1.91.44-1.2.3-2.41.66-3.64,1.06-3.82,1.27-7.22,2.24-10.26,3a77.56,77.56,0,0,1-8,1.53,42.92,42.92,0,0,1-8.16.38,20.77,20.77,0,0,1-4-.6,1.76,1.76,0,0,1-1.08-2.57c0,.15-.2,2,5,1.88C531.14,130.09,554,122.28,557.78,125.14Z" transform="translate(-419.32 -52.66)"/><path class="cls-10" d="M555.87,125.58c-1.2.3-2.41.66-3.64,1.06-3.82,1.27-7.22,2.24-10.26,3a77.56,77.56,0,0,1-8,1.53,42.92,42.92,0,0,1-8.16.38S551.07,124.47,555.87,125.58Z" transform="translate(-419.32 -52.66)"/><path class="cls-50" d="M550.35,127.26c-3.07,1-5.86,1.74-8.38,2.34a77.56,77.56,0,0,1-8,1.53c-1,.12-1.88.22-2.73.29,0,0,12.45-4.22,19.07-4.16Z" transform="translate(-419.32 -52.66)"/><path class="cls-55" d="M508.94,204.5c8.28,1.32,60.24,9.87,63.87,17.46a19.4,19.4,0,0,0,1.62,2.7c5.87,8.33,22.42,21.44,45.07,16.64.64-.14,1.27-.28,1.92-.45,1.19-.3,2.4-.65,3.63-1.06l1.89-.61c3.06-1,5.85-1.74,8.37-2.35a80,80,0,0,1,8-1.52c1-.12,1.88-.22,2.74-.29a36.07,36.07,0,0,1,5.42-.09,21,21,0,0,1,4,.6,1.76,1.76,0,0,1,1.07,2.57h0a1.76,1.76,0,0,1-.81.73l-1.72.75c-.31.14-.63.28-1,.42s-.66.29-1,.43h0c-1.56.66-3.38,1.41-5.46,2.23l-1.16.45-1.14.44c-1.78.68-3.72,1.41-5.82,2.17l-.09,0c-8.94,3.24-20.79,7.11-35.54,11.07C591,260,577.34,256,564.05,249.06a149.31,149.31,0,0,1-15.12-9.18l0,0-.12-.08a237.65,237.65,0,0,1-20-15.55l0,0h0c-4.14-3.55-7.82-6.93-10.9-9.86l-.78-.75-.25-.24-1.22-1.18c-3.08-3-5.36-5.35-6.61-6.66h0Z" transform="translate(-419.32 -52.66)"/><path class="cls-49" d="M564.05,249.06c-18.28-9.56-35.75-24.74-46.24-34.72l-.78-.75,39.75,4.64C526.76,221.78,547.14,238.38,564.05,249.06Z" transform="translate(-419.32 -52.66)"/><path class="cls-10" d="M515.56,212.17l14.4,6.47.33,2.73c5.2,8.82,17,17.38,18.49,18.41a259.23,259.23,0,0,1-31-25.44l-.78-.75Z" transform="translate(-419.32 -52.66)"/><path class="cls-50" d="M516.78,213.35l4.21.22c.61,3.11,7.3,10.19,7.72,10.63-4.14-3.55-7.82-6.93-10.9-9.86l-.78-.75Z" transform="translate(-419.32 -52.66)"/><path class="cls-51" d="M510.08,202.94a63.39,63.39,0,0,1,19.7-7.2,53.17,53.17,0,0,1,39.13,8.35l20.39,13.73,1.28.86,1.32.88,6.66,4.48L600,225l1,.64a3.54,3.54,0,0,1,.42.35,3,3,0,0,1,.1,4.16c-1.16,1.23-3.36,2.19-7.54,1.5-9.09-1.48-19.39-11.43-38.24-7.18-17.6,4-38-7.63-46.24-17.94A2.4,2.4,0,0,1,510.08,202.94Z" transform="translate(-419.32 -52.66)"/><path class="cls-52" d="M562.66,215.93c-6.67,2.28-28.39,7.81-46.65-8.67a1.89,1.89,0,0,1,.41-3.08c7.86-4.06,33.88-15.06,47.28,9A1.89,1.89,0,0,1,562.66,215.93Z" transform="translate(-419.32 -52.66)"/><path class="cls-49" d="M557.63,214.38c-5.22,1.9-22.2,6.56-36.37-6.82a1.61,1.61,0,0,1,.34-2.53c6.16-3.37,26.55-12.53,36.86,7.12A1.6,1.6,0,0,1,557.63,214.38Z" transform="translate(-419.32 -52.66)"/><path class="cls-53" d="M588.83,217.85c.14,0,.3,0,.47,0l1.28.86,1.32.88,6.66,4.48L600,225l1,.64a3.54,3.54,0,0,1,.42.35s0,.06,0,.09a.59.59,0,0,1-.62.66c-2.19-.14-9.09-1.13-12.37-8A.59.59,0,0,1,588.83,217.85Z" transform="translate(-419.32 -52.66)"/><path class="cls-54" d="M590.22,218.71l.36,0,1.32.88,6.66,4.48L600,225c0,.05,0,.1,0,.15a.48.48,0,0,1-.5.54,10.87,10.87,0,0,1-9.64-6.28A.49.49,0,0,1,590.22,218.71Z" transform="translate(-419.32 -52.66)"/><path class="cls-49" d="M591.63,219.59l.27,0,6.66,4.48v.13a.36.36,0,0,1-.35.39,7.79,7.79,0,0,1-6.88-4.48A.36.36,0,0,1,591.63,219.59Z" transform="translate(-419.32 -52.66)"/><path class="cls-49" d="M619.5,241.3c.64-.14,1.27-.28,1.92-.45,1.19-.3,2.4-.65,3.63-1.06,3.82-1.26,7.23-2.23,10.26-3a80,80,0,0,1,8-1.52,42.11,42.11,0,0,1,8.16-.38,21,21,0,0,1,4,.6,1.76,1.76,0,0,1,1.07,2.57c0-.15.21-2-5-1.88C646.14,236.35,623.34,244.16,619.5,241.3Z" transform="translate(-419.32 -52.66)"/><path class="cls-10" d="M621.42,240.85c1.19-.3,2.4-.65,3.63-1.06,3.82-1.26,7.23-2.23,10.26-3a80,80,0,0,1,8-1.52,42.11,42.11,0,0,1,8.16-.38S626.21,242,621.42,240.85Z" transform="translate(-419.32 -52.66)"/><path class="cls-50" d="M626.94,239.18c3.06-1,5.85-1.74,8.37-2.35a80,80,0,0,1,8-1.52c1-.12,1.88-.22,2.74-.29,0,0-12.46,4.21-19.08,4.16Z" transform="translate(-419.32 -52.66)"/><path class="cls-25" d="M699.81,345.62s-14.12,34.91,3.85,53.29c0,0-28.06,10.76-36.58-12s-13-51.38-13-51.38S674.15,352.7,699.81,345.62Z" transform="translate(-419.32 -52.66)"/><path class="cls-56" d="M703.94,341.21s-14.11,34.91,3.85,53.29c0,0-28,10.76-36.57-12s-13-51.37-13-51.37S678.29,348.29,703.94,341.21Z" transform="translate(-419.32 -52.66)"/><path class="cls-57" d="M699.31,235.48s38.49,42.94,22.18,78.75c0,0,46,.9,46.42-36.34s-8-80.75-8-80.75S739.94,232.34,699.31,235.48Z" transform="translate(-419.32 -52.66)"/><path class="cls-58" d="M691.24,228s38.49,42.94,22.18,78.75c0,0,46,.9,46.42-36.34s-8-80.75-8-80.75S731.87,224.85,691.24,228Z" transform="translate(-419.32 -52.66)"/><circle class="cls-59" cx="396.42" cy="259.81" r="32.86"/><circle class="cls-60" cx="377.18" cy="624.99" r="19.23"/><circle class="cls-61" cx="136.54" cy="292.67" r="62.81"/><circle class="cls-62" cx="456.35" cy="507.95" r="29.89"/></svg>