<svg id="Layer_1" data-name="Layer 1" xmlns="http://www.w3.org/2000/svg" xmlns:xlink="http://www.w3.org/1999/xlink" viewBox="0 0 1207.87 1133.3"><defs><style>.cls-1{fill:url(#linear-gradient);}</style><linearGradient id="linear-gradient" x1="353.56" y1="1149.63" x2="1252.05" y2="1799.38" gradientTransform="matrix(-1.01, -0.05, 0.03, -1.02, 1566.88, 2284.16)" gradientUnits="userSpaceOnUse"><stop offset="0" stop-color="#f2f2f2"/><stop offset="1" stop-color="#e6e6e6"/></linearGradient></defs><title>BG</title><path class="cls-1" d="M211,969.51s-14.92-23.26-30.36-58.44c-.47-1.08-1-2.16-1.42-3.27-19.15-44.57-38.41-107-30.18-165.73a169.9,169.9,0,0,1,9.53-37.53c.35-.95.73-1.9,1.12-2.83a151.81,151.81,0,0,1,27.58-44.39c27-30.35,31.8-64,29.77-98.08-2-33.72-10.64-68-11.14-100.14-.77-48.6,17.07-92.51,104.58-122.76a255,255,0,0,0,119.42-86.15l22.85-29.81c31.11-40.6,79-62.07,129.47-60a170.81,170.81,0,0,1,53.27,10.94c.91.36,1.82.69,2.73,1C694.46,194,754.58,196,808.38,177.24c1.8-.63,3.63-1.26,5.46-1.87C858.1,160.31,905.43,157,952,164.7s92.49,26.34,133.83,55.23A631.89,631.89,0,0,1,1320.43,529.8,621.46,621.46,0,0,1,1347,634.13c.48,2.92,1,5.84,1.37,8.77.4,2.63.78,5.25,1.13,7.88.3,2.19.58,4.38.84,6.6.15,1.13.29,2.26.41,3.4q.76,6.09,1.33,12.23c.19,1.85.35,3.71.52,5.56.22,2.44.42,4.9.61,7.36.26,3.22.48,6.46.66,9.69.27,4.39.49,8.8.65,13.2.09,2.49.18,5,.24,7.5v0c0,2.3.1,4.6.12,6.9a7.06,7.06,0,0,1,0,.8c0,1.55,0,3.09,0,4.63,0,1.39,0,2.79,0,4.2s0,3,0,4.57c0,3.88-.12,7.76-.25,11.63-.06,1.68-.11,3.36-.18,5q-.14,3.39-.3,6.76c-.09,1.79-.2,3.57-.33,5.36-.36,6-.83,12-1.39,18-.25,2.63-.51,5.27-.8,7.88s-.61,5.49-1,8.25-.69,5.48-1.07,8.21q-1.06,7.79-2.36,15.53c-.06.27-.11.54-.15.83-.46,2.69-.94,5.38-1.41,8.08-.07.31-.13.65-.19,1-.46,2.4-.92,4.81-1.4,7.2q-1.6,8.13-3.49,16.16-.93,4-1.91,8a.71.71,0,0,1-.07.22c-.61,2.55-1.26,5.07-1.92,7.61a1.2,1.2,0,0,0-.08.27c-.71,2.66-1.43,5.32-2.19,8-.58,2.08-1.17,4.17-1.79,6.24l-.71,2.41c-.73,2.41-1.46,4.81-2.22,7.2q-1,3-2,6.07c-.32,1-.65,2-1,2.95q-1,3-2.08,6.07-1.55,4.49-3.21,8.91c-.73,2-1.48,4-2.24,6-.88,2.32-1.79,4.64-2.73,6.94-.33.87-.68,1.73-1,2.6-.89,2.17-1.79,4.36-2.71,6.51-1,2.41-2,4.78-3.09,7.16q-3,6.91-6.31,13.77l-1.67,3.45c-.44.93-.88,1.83-1.34,2.72-.52,1.09-1.07,2.17-1.63,3.26-.81,1.68-1.66,3.3-2.5,4.93s-1.53,3-2.31,4.43q-3.32,6.33-6.86,12.54c-.9,1.63-1.83,3.22-2.75,4.82-.38.66-.76,1.31-1.15,2q-1.37,2.34-2.78,4.69c-.66,1.11-1.33,2.21-2,3.31-1.23,2-2.46,4-3.71,6a504.25,504.25,0,0,1-32.61,45.79q-4.12,5.16-7.72,9.5c-.68.8-1.34,1.61-2,2.41a271.66,271.66,0,0,1-31.11,31.07l-2.41,2q-7,5.84-14,11.43c-1.66,1.36-3.34,2.68-5,4-2.16,1.72-4.29,3.42-6.43,5.1-2.44,1.91-4.88,3.79-7.3,5.67l-4.1,3.14-2.23,1.69-4.9,3.7c-2.21,1.67-4.43,3.32-6.64,4.94q-20.27,15-40.25,28.2-1.86,1.26-3.75,2.47-2.4,1.59-4.8,3.13c-2.28,1.48-4.54,2.94-6.82,4.37-1.58,1-3.18,2-4.78,3s-2.91,1.84-4.38,2.75c-1.94,1.2-3.89,2.39-5.82,3.56q-4.59,2.81-9.17,5.49c-2.08,1.23-4.14,2.45-6.21,3.63s-4.14,2.41-6.23,3.56c-1.87,1.09-3.75,2.14-5.64,3.18s-3.69,2.06-5.55,3.06c-1.53.86-3.06,1.7-4.61,2.51-2.22,1.19-4.41,2.37-6.61,3.53q-5.32,2.79-10.61,5.47-4.37,2.22-8.73,4.34c-3.69,1.84-7.37,3.59-11.06,5.31q-3.18,1.53-6.39,3c-2.21,1-4.44,2-6.66,3-.25.13-.5.23-.74.33-1.72.77-3.43,1.52-5.15,2.27q-12,5.25-24,9.87l-5.11,2c-2.72,1-5.42,2-8.12,3-1.85.69-3.71,1.37-5.57,2-.69.25-1.38.5-2.07.73-4,1.39-7.89,2.74-11.81,4-.94.32-1.89.63-2.83.92q-2.28.77-4.6,1.49-7.28,2.3-14.46,4.36c-2.14.63-4.29,1.24-6.42,1.82-6.25,1.74-12.44,3.35-18.63,4.83-.86.21-1.7.41-2.56.6-1.08.28-2.17.54-3.25.77-1.92.46-3.85.9-5.77,1.31s-3.83.84-5.73,1.24-3.81.78-5.72,1.16c-2.49.5-5,1-7.45,1.43l-3.94.71q-8.52,1.51-16.92,2.73c-3.42.49-6.83,1-10.23,1.39s-6.84.83-10.25,1.19l-3.7.39q-3,.3-6,.55-3.88.36-7.75.64c-1.78.12-3.57.25-5.34.35q-3.3.21-6.6.37c-1.58.1-3.16.17-4.74.22-2,.09-3.92.15-5.88.22-1.42,0-2.85.08-4.29.11-9.29.21-18.51.17-27.61-.12-82.57-2.57-157.1-24.65-222.36-56.22-142.6-69-240.88-183.08-282-237.21C218.37,981.06,211,969.51,211,969.51Z" transform="translate(-147.07 -160.2)"/></svg>