<svg id="Layer_1" data-name="Layer 1" xmlns="http://www.w3.org/2000/svg" viewBox="0 0 241.18 241.18"><defs><style>.cls-1{fill:#515151;}.cls-2{fill:#333;}.cls-3{fill:#c1565e;}.cls-4{fill:#e6e6e6;}</style></defs><title>Fear</title><circle class="cls-1" cx="120.59" cy="120.59" r="120.59"/><path class="cls-2" d="M1259.37,288.63h-108a9.08,9.08,0,0,1-9-10.48,63.89,63.89,0,0,1,126.05,0A9.08,9.08,0,0,1,1259.37,288.63Z" transform="translate(-1084.76 -79.09)"/><path class="cls-3" d="M1246.81,288.63h-82.92c3.19-14.05,20.54-24.79,41.46-24.79S1243.62,274.58,1246.81,288.63Z" transform="translate(-1084.76 -79.09)"/><path class="cls-4" d="M1181.71,186.21A23.61,23.61,0,0,1,1170.9,207a6.42,6.42,0,0,1-8.38-1.48,23.58,23.58,0,0,0-18.14-8.49,22.63,22.63,0,0,0-2.48.13,6.45,6.45,0,0,1-6.9-5.1,23.62,23.62,0,0,1,24.63-28.5A23.74,23.74,0,0,1,1181.71,186.21Z" transform="translate(-1084.76 -79.09)"/><path class="cls-4" d="M1229,186.21A23.6,23.6,0,0,0,1239.81,207a6.42,6.42,0,0,0,8.38-1.48,23.56,23.56,0,0,1,18.14-8.49,22.44,22.44,0,0,1,2.47.13,6.46,6.46,0,0,0,6.91-5.1,24.15,24.15,0,0,0,.51-4.92,23.62,23.62,0,0,0-47.23-1Z" transform="translate(-1084.76 -79.09)"/><circle class="cls-2" cx="73.34" cy="106.68" r="8.04"/><circle class="cls-2" cx="167.83" cy="106.68" r="8.04"/></svg>