<svg id="Layer_1" data-name="Layer 1" xmlns="http://www.w3.org/2000/svg" xmlns:xlink="http://www.w3.org/1999/xlink" viewBox="0 0 451.76 392.03"><defs><style>.cls-1{fill:url(#linear-gradient);}.cls-2{fill:#f3f3f3;}.cls-3{fill:#e6e6e5;}.cls-4{fill:url(#linear-gradient-2);}.cls-5{fill:url(#linear-gradient-3);}.cls-6{fill:#eaeaea;}.cls-7{fill:url(#linear-gradient-4);}.cls-8{fill:url(#linear-gradient-5);}.cls-9{fill:url(#linear-gradient-6);}.cls-10{fill:#69b14a;}.cls-11{fill:#010101;opacity:0.1;}.cls-12{fill:url(#linear-gradient-7);}.cls-13{fill:url(#linear-gradient-8);}.cls-14{fill:url(#linear-gradient-9);}.cls-15{fill:url(#linear-gradient-10);}.cls-16{fill:url(#linear-gradient-11);}.cls-17{fill:url(#linear-gradient-12);}.cls-18{fill:url(#linear-gradient-13);}.cls-19{fill:url(#linear-gradient-14);}.cls-20{fill:url(#linear-gradient-15);}.cls-21{fill:url(#linear-gradient-16);}.cls-22{fill:url(#linear-gradient-17);}.cls-23{fill:url(#linear-gradient-18);}.cls-24{fill:url(#linear-gradient-19);}</style><linearGradient id="linear-gradient" x1="287.56" y1="297.1" x2="310.63" y2="297.67" gradientUnits="userSpaceOnUse"><stop offset="0" stop-color="#fddcd1"/><stop offset="1" stop-color="#f9b7bb"/></linearGradient><linearGradient id="linear-gradient-2" x1="517.41" y1="278.67" x2="536.37" y2="276.47" xlink:href="#linear-gradient"/><linearGradient id="linear-gradient-3" x1="463.64" y1="216.89" x2="538.65" y2="216.89" gradientUnits="userSpaceOnUse"><stop offset="0" stop-color="#3e6483"/><stop offset="1" stop-color="#60a3bc"/></linearGradient><linearGradient id="linear-gradient-4" x1="489.5" y1="323.41" x2="514.44" y2="320.5" xlink:href="#linear-gradient"/><linearGradient id="linear-gradient-5" x1="495.19" y1="242.49" x2="473.67" y2="283.74" xlink:href="#linear-gradient"/><linearGradient id="linear-gradient-6" x1="850.81" y1="33.44" x2="992.4" y2="-12.1" gradientTransform="translate(-19.77 180.14) rotate(-19.36)" gradientUnits="userSpaceOnUse"><stop offset="0" stop-color="#f79421" stop-opacity="0.6"/><stop offset="0.5" stop-color="#fbb03b" stop-opacity="0.8"/><stop offset="1" stop-color="#f99e34"/></linearGradient><linearGradient id="linear-gradient-7" x1="259.08" y1="385.59" x2="217.28" y2="419.76" gradientUnits="userSpaceOnUse"><stop offset="0" stop-color="#4e819c"/><stop offset="0.5" stop-color="#60a3bc"/><stop offset="1" stop-color="#3e6483"/></linearGradient><linearGradient id="linear-gradient-8" x1="-1155.49" y1="326.3" x2="-999.99" y2="326.3" gradientTransform="matrix(1, 0, 0, -1, 1443.68, 652.6)" gradientUnits="userSpaceOnUse"><stop offset="0" stop-color="#3e6483"/><stop offset="0.48" stop-color="#60a3bc"/></linearGradient><linearGradient id="linear-gradient-9" x1="-1126.06" y1="360.21" x2="-990.53" y2="274.62" gradientTransform="matrix(1, 0, 0, -1, 1432.93, 652.6)" xlink:href="#linear-gradient-7"/><linearGradient id="linear-gradient-10" x1="-1066.86" y1="386.1" x2="-1034.16" y2="386.1" gradientTransform="matrix(-1, 0, 0, 1, -711.79, 0)" xlink:href="#linear-gradient-8"/><linearGradient id="linear-gradient-11" x1="-1056.11" y1="400.95" x2="-1015.86" y2="341.33" gradientTransform="matrix(-1, 0, 0, 1, -711.79, 0)" xlink:href="#linear-gradient-7"/><linearGradient id="linear-gradient-12" x1="651.52" y1="418.96" x2="260.67" y2="418.96" gradientTransform="matrix(1, 0, 0, 1, 0, 0)" xlink:href="#linear-gradient-6"/><linearGradient id="linear-gradient-13" x1="-1182.4" y1="404.42" x2="-1067.62" y2="404.42" gradientTransform="matrix(1, 0, 0, -1, 1538.23, 808.85)" gradientUnits="userSpaceOnUse"><stop offset="0.52" stop-color="#60a3bc"/><stop offset="1" stop-color="#3e6483"/></linearGradient><linearGradient id="linear-gradient-14" x1="451.11" y1="204.6" x2="277.22" y2="80.93" gradientTransform="matrix(1, 0, 0, 1, 0, 0)" xlink:href="#linear-gradient-6"/><linearGradient id="linear-gradient-15" x1="338.05" y1="436.95" x2="651.66" y2="475.9" gradientTransform="matrix(1, 0, 0, 1, 0, 0)" xlink:href="#linear-gradient-6"/><linearGradient id="linear-gradient-16" x1="498.05" y1="88.76" x2="387.36" y2="148.2" xlink:href="#linear-gradient-3"/><linearGradient id="linear-gradient-17" x1="423.31" y1="67.79" x2="447.8" y2="49.21" gradientTransform="matrix(1, 0, 0, 1, 0, 0)" xlink:href="#linear-gradient-6"/><linearGradient id="linear-gradient-18" x1="442.1" y1="67.79" x2="466.59" y2="49.21" gradientTransform="matrix(1, 0, 0, 1, 0, 0)" xlink:href="#linear-gradient-6"/><linearGradient id="linear-gradient-19" x1="460.89" y1="67.79" x2="485.37" y2="49.21" gradientTransform="matrix(1, 0, 0, 1, 0, 0)" xlink:href="#linear-gradient-6"/></defs><title>Forgot Password</title><polygon class="cls-1" points="302.64 287.68 302.5 306.83 284.95 306.83 286.06 288.54 302.64 287.68"/><path class="cls-2" d="M506.5,290.32S477.37,302,477.37,380.6h19.31l6.49-82.85Z" transform="translate(-195.07 -101.62)"/><path class="cls-3" d="M281.47,276.2h20.86a0,0,0,0,1,0,0v19a0,0,0,0,1,0,0H281.47a1.73,1.73,0,0,1-1.73-1.73v-15.5A1.73,1.73,0,0,1,281.47,276.2Z"/><path class="cls-4" d="M533.74,244.2,500.6,269.57c3.65,3,5.26,13.57,5.94,20.68l-.24.34-1.5,3.59-1.19,5.75,1.77,4.2,2.36,6.52,5.21,1.11,2.81-5.42-.33-2.94c22.21,11.24,36.67-26.66,36.67-26.66C536,268.8,533.74,244.2,533.74,244.2Z" transform="translate(-195.07 -101.62)"/><path class="cls-2" d="M616.93,401.27l-.42,7.18H492.32c.7-8.15,1.5-19.34,1.9-31.36l-12.4-.59,8.2-58.76,4.69,5.88c.33-2.78.74-5.27,1.19-7.5a19.27,19.27,0,0,1-.93-6.32c.25-12.05,11.53-19.48,11.53-19.48-3.85,9.74,4.61,19.73,4.61,19.73-2.31-9.22,2.48-13.15,2.48-13.15L543.74,269a2.4,2.4,0,0,1,3.25,0l3.49,3.17a11.25,11.25,0,0,0,5.29,2.7c7,1.44,25.25,6.21,38.71,18.82a52.74,52.74,0,0,1,4.26,4.44s15.63,16.52,16.14,38.56c0,1.61.08,3.33.12,5.13C615.61,364.72,616.93,401.27,616.93,401.27Z" transform="translate(-195.07 -101.62)"/><path class="cls-5" d="M531.48,249.84a10.76,10.76,0,0,0,4.48-7.3c.51-4.74,2.69-33.31,2.69-33.31s-.51-23.06-23.19-23.44-63.92-12.17-48.42,29l11.4,4.35Z" transform="translate(-195.07 -101.62)"/><path class="cls-6" d="M614.88,336.75a19.14,19.14,0,0,1-2.47,10c-8.51,15-23.56,32.82-35,45.47a23.64,23.64,0,0,1-32.33,2.59l-19.33-15.52a.06.06,0,0,1,0-.09l15.8-25.5a.08.08,0,0,1,.11,0l8.74,7.89a.08.08,0,0,0,.12,0c.72-2.56,14.48-50,38.24-65a7.73,7.73,0,0,1,10,1.58h0s15.63,16.52,16.14,38.56Z" transform="translate(-195.07 -101.62)"/><path class="cls-7" d="M506.9,276.62a1.26,1.26,0,0,0-.29-2c-2-1.08-6.36-2.11-14.21,2.39C481,283.55,472.55,270,471.78,265a15,15,0,0,0-5.68,3.65,4.5,4.5,0,0,0-.42,5.45l1.52,2.33a2.3,2.3,0,0,1,.13,2.27c-1.62,3.21-5.54,12.71-.42,20.67,6.28,9.75,7.56,5.13,17.68,21.55S523.15,380,523.15,380L539,354.35l-42.62-53.77a1.89,1.89,0,0,1-.28-1.87c.84-2.2,2.72-7.64,2.58-12a4.1,4.1,0,0,1,1.21-3Z" transform="translate(-195.07 -101.62)"/><path class="cls-8" d="M467,214.74s-5.64,69.69,22.55,63.54a79.13,79.13,0,0,0,37.46-19.46,14.76,14.76,0,0,0,4.56-10.71v-7s14.6-3.08,12.3-15.12c-1.86-9.67-5.19-12.07-10.15-9.59a7.46,7.46,0,0,0-4.11,6.35l-.35,8.11h-4.36s-.76-8.2-8.45-10.25S507,208.08,507,208.08,468.58,202.18,467,214.74Z" transform="translate(-195.07 -101.62)"/><g id="Question_Mark" data-name="Question Mark"><path class="cls-9" d="M522.43,135.83a5.55,5.55,0,0,1,4.47-.26q6,2.07,10.65.48t6.65-7.52a10.42,10.42,0,0,0-.69-8.7,12.4,12.4,0,0,0-7.19-5.83,13.8,13.8,0,0,0-10,.35,7.13,7.13,0,0,1-5.26.45,5.12,5.12,0,0,1-2.73-2.16,5.38,5.38,0,0,1,2.14-8.34,24.62,24.62,0,0,1,9.52-2.62,25.45,25.45,0,0,1,10.09,1.37,24.22,24.22,0,0,1,10.35,6.7,22.63,22.63,0,0,1,5.46,10.59,21.9,21.9,0,0,1-.72,11.94q-3,8.78-9.77,12.17t-15.52,1.83c-.35,0-.55.12-.61.3L528.1,150a5.78,5.78,0,0,1-2.91,3.44,5.95,5.95,0,0,1-7.85-2.69,5.75,5.75,0,0,1-.2-4.5l2.38-6.94A5.75,5.75,0,0,1,522.43,135.83ZM511.09,167a5.84,5.84,0,0,1,0-4.55l.53-1.55a5.24,5.24,0,0,1,7.36-3.61l1.18.41a5.22,5.22,0,0,1,3.61,7.35l-.53,1.55a5.24,5.24,0,0,1-7.36,3.61l-1.18-.41A5.8,5.8,0,0,1,511.09,167Z" transform="translate(-195.07 -101.62)"/></g><path class="cls-3" d="M524.66,335l-15.49,26.88a1.93,1.93,0,0,0,.11,2.1l15.3,21.05a1.81,1.81,0,0,0,3-.16l17.16-30a1.83,1.83,0,0,0-.24-2.14l-16.79-18.11A1.93,1.93,0,0,0,524.66,335Z" transform="translate(-195.07 -101.62)"/><path class="cls-10" d="M247.94,373.51a10.66,10.66,0,0,1,2.77,10.31,10.66,10.66,0,0,1-13.07-13.07A10.64,10.64,0,0,1,247.94,373.51Z" transform="translate(-195.07 -101.62)"/><path class="cls-11" d="M247.94,373.51a10.66,10.66,0,0,1,2.77,10.31l-13.07-13.07A10.64,10.64,0,0,1,247.94,373.51Z" transform="translate(-195.07 -101.62)"/><ellipse class="cls-10" cx="54.87" cy="271.72" rx="5.91" ry="10.24"/><path class="cls-11" d="M255.85,373.34a11.81,11.81,0,0,1-5.91,10.24V363.1A11.81,11.81,0,0,1,255.85,373.34Z" transform="translate(-195.07 -101.62)"/><path class="cls-10" d="M259.49,381.06a10.66,10.66,0,0,1-10.31,2.76,10.67,10.67,0,0,1,13.07-13.07A10.67,10.67,0,0,1,259.49,381.06Z" transform="translate(-195.07 -101.62)"/><path class="cls-11" d="M259.49,381.06a10.66,10.66,0,0,1-10.31,2.76l13.07-13.07A10.67,10.67,0,0,1,259.49,381.06Z" transform="translate(-195.07 -101.62)"/><path class="cls-12" d="M265.38,383.43l-4.23,23.68a1.6,1.6,0,0,1-1.59,1.33H240.32a1.62,1.62,0,0,1-1.59-1.33l-4.09-22.92-.14-.76a2.19,2.19,0,0,1,2.15-2.58h26.58A2.19,2.19,0,0,1,265.38,383.43Z" transform="translate(-195.07 -101.62)"/><rect class="cls-13" x="288.2" y="270.55" width="155.5" height="111.49" rx="4.78" ry="4.78" transform="translate(536.82 550.97) rotate(-180)"/><rect class="cls-14" x="282.82" y="270.55" width="155.5" height="111.49" rx="4.78" ry="4.78" transform="translate(526.08 550.97) rotate(-180)"/><path class="cls-15" d="M322.37,408.45H348l7-41.24a3,3,0,0,0-2.92-3.46H330Z" transform="translate(-195.07 -101.62)"/><path class="cls-16" d="M318.36,408.45H344l7.23-42.25a2.1,2.1,0,0,0-2.07-2.45H327.77a2.1,2.1,0,0,0-2.07,1.74Z" transform="translate(-195.07 -101.62)"/><path class="cls-17" d="M646.82,419h0a10.5,10.5,0,0,1-10.51,10.51H205.88c-6,0-10.81-3.9-10.81-8.72v-3.58c0-4.81,4.83-8.72,10.81-8.72H636.31A10.51,10.51,0,0,1,646.82,419Z" transform="translate(-195.07 -101.62)"/><rect class="cls-3" x="359.69" y="398.14" width="107.06" height="8.06" rx="3.4" ry="3.4" transform="translate(631.38 702.71) rotate(-180)"/><rect class="cls-18" x="355.83" y="400.39" width="114.78" height="8.06" rx="3.52" ry="3.52" transform="translate(631.38 707.22) rotate(-180)"/><path class="cls-19" d="M316.4,108.66h119c12.6,0,22.82,9.24,22.82,20.62V173c0,11.39-10.22,20.62-22.82,20.62h0a2.69,2.69,0,0,0-2.69,2.87c.48,7,3.3,15.23,12.62,20.15a1,1,0,0,1-.55,1.86c-9.64-1.14-27.72-5.56-31-22.67a2.71,2.71,0,0,0-2.65-2.21H316.4c-12.61,0-22.82-9.23-22.82-20.62V129.28C293.58,117.9,303.79,108.66,316.4,108.66Z" transform="translate(-195.07 -101.62)"/><path class="cls-20" d="M628,429.47v14.44a19.89,19.89,0,0,1-11.51,18c-50.4,23.4-151.06,53.38-282.91,8.5-37.45-12.75-70.32-17.17-99-16a19.86,19.86,0,0,1-20.64-19.86v-5.09Z" transform="translate(-195.07 -101.62)"/><path class="cls-21" d="M409.66,128.21a21.26,21.26,0,0,0-20.82,16.9H324.6a4.36,4.36,0,0,0,0,8.72h2.5v7.3a2.44,2.44,0,0,0,4.87,0v-7.3h7.24v7.3a2.43,2.43,0,0,0,4.86,0v-7.3h44.77a21.26,21.26,0,1,0,20.82-25.62Zm-.14,34.71A13.45,13.45,0,1,1,423,149.47,13.45,13.45,0,0,1,409.52,162.92Z" transform="translate(-195.07 -101.62)"/><circle class="cls-22" cx="368.02" cy="109.74" r="6.83"/><circle class="cls-23" cx="386.81" cy="109.74" r="6.83"/><circle class="cls-24" cx="405.6" cy="109.74" r="6.83"/></svg>