<svg xmlns="http://www.w3.org/2000/svg" xmlns:xlink="http://www.w3.org/1999/xlink" viewBox="0 0 268 264" id="el_UISzavypz"><style>@-webkit-keyframes kf_el_RUD6YY9VE-_an_NYSZbofPp{0%{-webkit-transform: translate(133.97500610351562px, 132.00000381469727px) scale(1, 1) translate(-133.97500610351562px, -132.00000381469727px);transform: translate(133.97500610351562px, 132.00000381469727px) scale(1, 1) translate(-133.97500610351562px, -132.00000381469727px);}16.67%{-webkit-transform: translate(133.97500610351562px, 132.00000381469727px) scale(1.2, 1.2) translate(-133.97500610351562px, -132.00000381469727px);transform: translate(133.97500610351562px, 132.00000381469727px) scale(1.2, 1.2) translate(-133.97500610351562px, -132.00000381469727px);}33.33%{-webkit-transform: translate(133.97500610351562px, 132.00000381469727px) scale(1, 1) translate(-133.97500610351562px, -132.00000381469727px);transform: translate(133.97500610351562px, 132.00000381469727px) scale(1, 1) translate(-133.97500610351562px, -132.00000381469727px);}50%{-webkit-transform: translate(133.97500610351562px, 132.00000381469727px) scale(1.2, 1.2) translate(-133.97500610351562px, -132.00000381469727px);transform: translate(133.97500610351562px, 132.00000381469727px) scale(1.2, 1.2) translate(-133.97500610351562px, -132.00000381469727px);}66.67%{-webkit-transform: translate(133.97500610351562px, 132.00000381469727px) scale(1, 1) translate(-133.97500610351562px, -132.00000381469727px);transform: translate(133.97500610351562px, 132.00000381469727px) scale(1, 1) translate(-133.97500610351562px, -132.00000381469727px);}83.33%{-webkit-transform: translate(133.97500610351562px, 132.00000381469727px) scale(1.2, 1.2) translate(-133.97500610351562px, -132.00000381469727px);transform: translate(133.97500610351562px, 132.00000381469727px) scale(1.2, 1.2) translate(-133.97500610351562px, -132.00000381469727px);}100%{-webkit-transform: translate(133.97500610351562px, 132.00000381469727px) scale(1, 1) translate(-133.97500610351562px, -132.00000381469727px);transform: translate(133.97500610351562px, 132.00000381469727px) scale(1, 1) translate(-133.97500610351562px, -132.00000381469727px);}}@keyframes kf_el_RUD6YY9VE-_an_NYSZbofPp{0%{-webkit-transform: translate(133.97500610351562px, 132.00000381469727px) scale(1, 1) translate(-133.97500610351562px, -132.00000381469727px);transform: translate(133.97500610351562px, 132.00000381469727px) scale(1, 1) translate(-133.97500610351562px, -132.00000381469727px);}16.67%{-webkit-transform: translate(133.97500610351562px, 132.00000381469727px) scale(1.2, 1.2) translate(-133.97500610351562px, -132.00000381469727px);transform: translate(133.97500610351562px, 132.00000381469727px) scale(1.2, 1.2) translate(-133.97500610351562px, -132.00000381469727px);}33.33%{-webkit-transform: translate(133.97500610351562px, 132.00000381469727px) scale(1, 1) translate(-133.97500610351562px, -132.00000381469727px);transform: translate(133.97500610351562px, 132.00000381469727px) scale(1, 1) translate(-133.97500610351562px, -132.00000381469727px);}50%{-webkit-transform: translate(133.97500610351562px, 132.00000381469727px) scale(1.2, 1.2) translate(-133.97500610351562px, -132.00000381469727px);transform: translate(133.97500610351562px, 132.00000381469727px) scale(1.2, 1.2) translate(-133.97500610351562px, -132.00000381469727px);}66.67%{-webkit-transform: translate(133.97500610351562px, 132.00000381469727px) scale(1, 1) translate(-133.97500610351562px, -132.00000381469727px);transform: translate(133.97500610351562px, 132.00000381469727px) scale(1, 1) translate(-133.97500610351562px, -132.00000381469727px);}83.33%{-webkit-transform: translate(133.97500610351562px, 132.00000381469727px) scale(1.2, 1.2) translate(-133.97500610351562px, -132.00000381469727px);transform: translate(133.97500610351562px, 132.00000381469727px) scale(1.2, 1.2) translate(-133.97500610351562px, -132.00000381469727px);}100%{-webkit-transform: translate(133.97500610351562px, 132.00000381469727px) scale(1, 1) translate(-133.97500610351562px, -132.00000381469727px);transform: translate(133.97500610351562px, 132.00000381469727px) scale(1, 1) translate(-133.97500610351562px, -132.00000381469727px);}}@-webkit-keyframes kf_el_vwBO9XodkU_an_pPboRLaMA{0%{-webkit-transform: translate(133.75893020629883px, 132.0400161743164px) rotate(0deg) translate(-133.75893020629883px, -132.0400161743164px);transform: translate(133.75893020629883px, 132.0400161743164px) rotate(0deg) translate(-133.75893020629883px, -132.0400161743164px);}16.67%{-webkit-transform: translate(133.75893020629883px, 132.0400161743164px) rotate(-60deg) translate(-133.75893020629883px, -132.0400161743164px);transform: translate(133.75893020629883px, 132.0400161743164px) rotate(-60deg) translate(-133.75893020629883px, -132.0400161743164px);}33.33%{-webkit-transform: translate(133.75893020629883px, 132.0400161743164px) rotate(-120deg) translate(-133.75893020629883px, -132.0400161743164px);transform: translate(133.75893020629883px, 132.0400161743164px) rotate(-120deg) translate(-133.75893020629883px, -132.0400161743164px);}50%{-webkit-transform: translate(133.75893020629883px, 132.0400161743164px) rotate(-180deg) translate(-133.75893020629883px, -132.0400161743164px);transform: translate(133.75893020629883px, 132.0400161743164px) rotate(-180deg) translate(-133.75893020629883px, -132.0400161743164px);}66.67%{-webkit-transform: translate(133.75893020629883px, 132.0400161743164px) rotate(-240deg) translate(-133.75893020629883px, -132.0400161743164px);transform: translate(133.75893020629883px, 132.0400161743164px) rotate(-240deg) translate(-133.75893020629883px, -132.0400161743164px);}83.33%{-webkit-transform: translate(133.75893020629883px, 132.0400161743164px) rotate(-300deg) translate(-133.75893020629883px, -132.0400161743164px);transform: translate(133.75893020629883px, 132.0400161743164px) rotate(-300deg) translate(-133.75893020629883px, -132.0400161743164px);}100%{-webkit-transform: translate(133.75893020629883px, 132.0400161743164px) rotate(-360deg) translate(-133.75893020629883px, -132.0400161743164px);transform: translate(133.75893020629883px, 132.0400161743164px) rotate(-360deg) translate(-133.75893020629883px, -132.0400161743164px);}}@keyframes kf_el_vwBO9XodkU_an_pPboRLaMA{0%{-webkit-transform: translate(133.75893020629883px, 132.0400161743164px) rotate(0deg) translate(-133.75893020629883px, -132.0400161743164px);transform: translate(133.75893020629883px, 132.0400161743164px) rotate(0deg) translate(-133.75893020629883px, -132.0400161743164px);}16.67%{-webkit-transform: translate(133.75893020629883px, 132.0400161743164px) rotate(-60deg) translate(-133.75893020629883px, -132.0400161743164px);transform: translate(133.75893020629883px, 132.0400161743164px) rotate(-60deg) translate(-133.75893020629883px, -132.0400161743164px);}33.33%{-webkit-transform: translate(133.75893020629883px, 132.0400161743164px) rotate(-120deg) translate(-133.75893020629883px, -132.0400161743164px);transform: translate(133.75893020629883px, 132.0400161743164px) rotate(-120deg) translate(-133.75893020629883px, -132.0400161743164px);}50%{-webkit-transform: translate(133.75893020629883px, 132.0400161743164px) rotate(-180deg) translate(-133.75893020629883px, -132.0400161743164px);transform: translate(133.75893020629883px, 132.0400161743164px) rotate(-180deg) translate(-133.75893020629883px, -132.0400161743164px);}66.67%{-webkit-transform: translate(133.75893020629883px, 132.0400161743164px) rotate(-240deg) translate(-133.75893020629883px, -132.0400161743164px);transform: translate(133.75893020629883px, 132.0400161743164px) rotate(-240deg) translate(-133.75893020629883px, -132.0400161743164px);}83.33%{-webkit-transform: translate(133.75893020629883px, 132.0400161743164px) rotate(-300deg) translate(-133.75893020629883px, -132.0400161743164px);transform: translate(133.75893020629883px, 132.0400161743164px) rotate(-300deg) translate(-133.75893020629883px, -132.0400161743164px);}100%{-webkit-transform: translate(133.75893020629883px, 132.0400161743164px) rotate(-360deg) translate(-133.75893020629883px, -132.0400161743164px);transform: translate(133.75893020629883px, 132.0400161743164px) rotate(-360deg) translate(-133.75893020629883px, -132.0400161743164px);}}@-webkit-keyframes kf_el_ZfycevlnRP_an_dPgSZ1YhL{0%{-webkit-transform: translate(134.00104331970215px, 132px) rotate(0deg) translate(-134.00104331970215px, -132px);transform: translate(134.00104331970215px, 132px) rotate(0deg) translate(-134.00104331970215px, -132px);}16.67%{-webkit-transform: translate(134.00104331970215px, 132px) rotate(60deg) translate(-134.00104331970215px, -132px);transform: translate(134.00104331970215px, 132px) rotate(60deg) translate(-134.00104331970215px, -132px);}33.33%{-webkit-transform: translate(134.00104331970215px, 132px) rotate(120deg) translate(-134.00104331970215px, -132px);transform: translate(134.00104331970215px, 132px) rotate(120deg) translate(-134.00104331970215px, -132px);}50%{-webkit-transform: translate(134.00104331970215px, 132px) rotate(180deg) translate(-134.00104331970215px, -132px);transform: translate(134.00104331970215px, 132px) rotate(180deg) translate(-134.00104331970215px, -132px);}66.67%{-webkit-transform: translate(134.00104331970215px, 132px) rotate(240deg) translate(-134.00104331970215px, -132px);transform: translate(134.00104331970215px, 132px) rotate(240deg) translate(-134.00104331970215px, -132px);}83.33%{-webkit-transform: translate(134.00104331970215px, 132px) rotate(300deg) translate(-134.00104331970215px, -132px);transform: translate(134.00104331970215px, 132px) rotate(300deg) translate(-134.00104331970215px, -132px);}100%{-webkit-transform: translate(134.00104331970215px, 132px) rotate(360deg) translate(-134.00104331970215px, -132px);transform: translate(134.00104331970215px, 132px) rotate(360deg) translate(-134.00104331970215px, -132px);}}@keyframes kf_el_ZfycevlnRP_an_dPgSZ1YhL{0%{-webkit-transform: translate(134.00104331970215px, 132px) rotate(0deg) translate(-134.00104331970215px, -132px);transform: translate(134.00104331970215px, 132px) rotate(0deg) translate(-134.00104331970215px, -132px);}16.67%{-webkit-transform: translate(134.00104331970215px, 132px) rotate(60deg) translate(-134.00104331970215px, -132px);transform: translate(134.00104331970215px, 132px) rotate(60deg) translate(-134.00104331970215px, -132px);}33.33%{-webkit-transform: translate(134.00104331970215px, 132px) rotate(120deg) translate(-134.00104331970215px, -132px);transform: translate(134.00104331970215px, 132px) rotate(120deg) translate(-134.00104331970215px, -132px);}50%{-webkit-transform: translate(134.00104331970215px, 132px) rotate(180deg) translate(-134.00104331970215px, -132px);transform: translate(134.00104331970215px, 132px) rotate(180deg) translate(-134.00104331970215px, -132px);}66.67%{-webkit-transform: translate(134.00104331970215px, 132px) rotate(240deg) translate(-134.00104331970215px, -132px);transform: translate(134.00104331970215px, 132px) rotate(240deg) translate(-134.00104331970215px, -132px);}83.33%{-webkit-transform: translate(134.00104331970215px, 132px) rotate(300deg) translate(-134.00104331970215px, -132px);transform: translate(134.00104331970215px, 132px) rotate(300deg) translate(-134.00104331970215px, -132px);}100%{-webkit-transform: translate(134.00104331970215px, 132px) rotate(360deg) translate(-134.00104331970215px, -132px);transform: translate(134.00104331970215px, 132px) rotate(360deg) translate(-134.00104331970215px, -132px);}}#el_UISzavypz *{-webkit-animation-duration: 3s;animation-duration: 3s;-webkit-animation-iteration-count: infinite;animation-iteration-count: infinite;-webkit-animation-timing-function: cubic-bezier(0, 0, 1, 1);animation-timing-function: cubic-bezier(0, 0, 1, 1);}#el_pHqJ0_7Otu{fill: url(#linear-gradient);}#el_rnVkyWbZii{fill: url(#radial-gradient);}#el_MWBo1ZaWFc{fill: url(#Blue_Sky);-webkit-transform: translate(-43.85px, 80.16px) rotate(-25.25deg);transform: translate(-43.85px, 80.16px) rotate(-25.25deg);}#el_gaG3xnye1G{fill: url(#Blue_Sky-2);-webkit-transform: translate(-50.27px, 115.34px) rotate(-37.57deg);transform: translate(-50.27px, 115.34px) rotate(-37.57deg);}#el_xopZjik1Zo{fill: url(#Blue_Sky-3);-webkit-transform: translate(-53.98px, 128.91px) rotate(-43.9deg);transform: translate(-53.98px, 128.91px) rotate(-43.9deg);}#el_wWH9_u-pMb{fill: url(#Blue_Sky-4);-webkit-transform: translate(-54.08px, 89.67px) rotate(-34.43deg);transform: translate(-54.08px, 89.67px) rotate(-34.43deg);}#el_4acaKDQ50B{fill: url(#Blue_Sky-5);-webkit-transform: translate(-19.02px, 19.04px) rotate(-9.3deg);transform: translate(-19.02px, 19.04px) rotate(-9.3deg);}#el_O8lJR3jQRT{stroke: #48dbfb;stroke-miterlimit: 10;stroke-width: 1.84px;fill: url(#radial-gradient-2);}#el_QD30flxO3J{stroke: #48dbfb;stroke-miterlimit: 10;stroke-width: 1.38px;fill: url(#radial-gradient-3);}#el_NxF61lRxZO{stroke: #48dbfb;stroke-miterlimit: 10;stroke-width: 1.84px;fill: url(#radial-gradient-4);}#el_tPARn_H2kL{stroke: #48dbfb;stroke-miterlimit: 10;stroke-width: 2.3px;fill: url(#radial-gradient-5);}#el_N0-i8_x9Iy{stroke: #48dbfb;stroke-miterlimit: 10;stroke-width: 1.38px;fill: url(#radial-gradient-6);}#el_4fWFv-g7Abz{stroke: #48dbfb;stroke-miterlimit: 10;stroke-width: 1.84px;fill: url(#radial-gradient-7);}#el_2VI1-U5YfCm{fill: url(#linear-gradient-2);}#el__w_uj52kCS7{fill: #ffad40;}#el_aKtnejgJvo8{fill: url(#linear-gradient-3);}#el_DVaRwSEhhJ0{fill: #ffad40;}#el_ZfycevlnRP_an_dPgSZ1YhL{-webkit-transform: translate(134.00104331970215px, 132px) rotate(0deg) translate(-134.00104331970215px, -132px);transform: translate(134.00104331970215px, 132px) rotate(0deg) translate(-134.00104331970215px, -132px);-webkit-animation-fill-mode: backwards;animation-fill-mode: backwards;-webkit-animation-name: kf_el_ZfycevlnRP_an_dPgSZ1YhL;animation-name: kf_el_ZfycevlnRP_an_dPgSZ1YhL;-webkit-animation-timing-function: cubic-bezier(0, 0, 1, 1);animation-timing-function: cubic-bezier(0, 0, 1, 1);}#el_vwBO9XodkU_an_pPboRLaMA{-webkit-transform: translate(133.75893020629883px, 132.0400161743164px) rotate(0deg) translate(-133.75893020629883px, -132.0400161743164px);transform: translate(133.75893020629883px, 132.0400161743164px) rotate(0deg) translate(-133.75893020629883px, -132.0400161743164px);-webkit-animation-fill-mode: backwards;animation-fill-mode: backwards;-webkit-animation-name: kf_el_vwBO9XodkU_an_pPboRLaMA;animation-name: kf_el_vwBO9XodkU_an_pPboRLaMA;-webkit-animation-timing-function: cubic-bezier(0, 0, 1, 1);animation-timing-function: cubic-bezier(0, 0, 1, 1);}#el_RUD6YY9VE-_an_NYSZbofPp{-webkit-animation-fill-mode: backwards;animation-fill-mode: backwards;-webkit-transform: translate(133.97500610351562px, 132.00000381469727px) scale(1, 1) translate(-133.97500610351562px, -132.00000381469727px);transform: translate(133.97500610351562px, 132.00000381469727px) scale(1, 1) translate(-133.97500610351562px, -132.00000381469727px);-webkit-animation-name: kf_el_RUD6YY9VE-_an_NYSZbofPp;animation-name: kf_el_RUD6YY9VE-_an_NYSZbofPp;-webkit-animation-timing-function: cubic-bezier(0, 0, 1, 1);animation-timing-function: cubic-bezier(0, 0, 1, 1);}</style><defs><linearGradient id="linear-gradient" x1="11.15" y1="132" x2="256.85" y2="132" gradientUnits="userSpaceOnUse"><stop offset="0" stop-color="#60a3bc"/><stop offset="1" stop-color="#3c6382"/></linearGradient><radialGradient id="radial-gradient" cx="54.76" cy="132" r="92.35" gradientTransform="matrix(-1, 0, 0, 1, 188.51, 0)" gradientUnits="userSpaceOnUse"><stop offset="0.5" stop-color="#fbb03b"/><stop offset="0.71" stop-color="#faa732"/><stop offset="0.99" stop-color="#f7931e"/></radialGradient><linearGradient id="Blue_Sky" x1="151.68" y1="137.98" x2="162.37" y2="137.98" gradientTransform="translate(73.86 -53.8) rotate(25.25)" gradientUnits="userSpaceOnUse"><stop offset="0" stop-color="#3ddeed"/><stop offset="1" stop-color="#3ddeed" stop-opacity="0"/></linearGradient><linearGradient id="Blue_Sky-2" x1="139.27" y1="131.56" x2="149.55" y2="131.56" gradientTransform="translate(110.17 -60.77) rotate(37.57)" xlink:href="#Blue_Sky"/><linearGradient id="Blue_Sky-3" x1="129.92" y1="131.43" x2="135.96" y2="131.43" gradientTransform="translate(128.29 -55.45) rotate(43.9)" xlink:href="#Blue_Sky"/><linearGradient id="Blue_Sky-4" x1="110.84" y1="132.11" x2="124.47" y2="132.11" gradientTransform="translate(95.31 -43.38) rotate(34.43)" xlink:href="#Blue_Sky"/><linearGradient id="Blue_Sky-5" x1="105.19" y1="126.51" x2="110.04" y2="126.51" gradientTransform="translate(21.85 -15.72) rotate(9.3)" xlink:href="#Blue_Sky"/><radialGradient id="radial-gradient-2" cx="162.66" cy="150.25" r="3.89" gradientUnits="userSpaceOnUse"><stop offset="0.23" stop-color="#29abe2"/><stop offset="1" stop-color="#2e3192"/></radialGradient><radialGradient id="radial-gradient-3" cx="151" cy="126.85" r="2.18" xlink:href="#radial-gradient-2"/><radialGradient id="radial-gradient-4" cx="137.18" cy="135.89" r="2.77" xlink:href="#radial-gradient-2"/><radialGradient id="radial-gradient-5" cx="127.61" cy="126.41" r="3.93" xlink:href="#radial-gradient-2"/><radialGradient id="radial-gradient-6" cx="109.97" cy="137.49" r="1.94" xlink:href="#radial-gradient-2"/><radialGradient id="radial-gradient-7" cx="105.34" cy="113.44" r="3.89" xlink:href="#radial-gradient-2"/><linearGradient id="linear-gradient-2" x1="-40.36" y1="291.03" x2="54.02" y2="291.03" gradientTransform="translate(140.83 456.34) rotate(180)" gradientUnits="userSpaceOnUse"><stop offset="0" stop-color="#fbb03b"/><stop offset="1" stop-color="#f15a24"/></linearGradient><linearGradient id="linear-gradient-3" x1="86.81" y1="98.69" x2="181.19" y2="98.69" gradientTransform="matrix(1, 0, 0, 1, 0, 0)" xlink:href="#linear-gradient-2"/></defs><g id="el_ZfycevlnRP_an_dPgSZ1YhL" data-animator-group="true" data-animator-type="1"><g id="el_ZfycevlnRP" data-name="Outer Circle"><path d="M134.85,235.42C77.67,235.42,31.15,189,31.15,132S77.67,28.58,134.85,28.58A103.77,103.77,0,0,1,237,114.08a10,10,0,0,0,9.85,8.25h0a10,10,0,0,0,9.87-11.62A123.82,123.82,0,0,0,134.85,8.58C66.64,8.58,11.15,64,11.15,132s55.49,123.42,123.7,123.42A123.82,123.82,0,0,0,256.7,153.29a10,10,0,0,0-9.87-11.62h0a10,10,0,0,0-9.85,8.25A103.77,103.77,0,0,1,134.85,235.42Z" id="el_pHqJ0_7Otu"/></g></g><g id="el_vwBO9XodkU_an_pPboRLaMA" data-animator-group="true" data-animator-type="1"><g id="el_vwBO9XodkU" data-name="Inner Circle"><path d="M59.67,148.71a9.2,9.2,0,0,0-9-7h0a9.24,9.24,0,0,0-9,11.34c9.64,40.85,46.77,71.37,91,71.37,51.51,0,93.42-41.44,93.42-92.38s-41.91-92.38-93.42-92.38c-44.21,0-81.34,30.52-91,71.37a9.24,9.24,0,0,0,9,11.34h0a9.2,9.2,0,0,0,9-7c7.7-32.72,37.5-57.17,73-57.17,41.31,0,74.92,33.14,74.92,73.88S174,205.88,132.66,205.88C97.17,205.88,67.37,181.43,59.67,148.71Z" id="el_rnVkyWbZii"/></g></g><g id="el_RUD6YY9VE-_an_NYSZbofPp" data-animator-group="true" data-animator-type="2"><g id="el_RUD6YY9VE-"><rect id="el_MWBo1ZaWFc" data-name="Path 5" x="156.1" y="127.41" width="1.84" height="21.15"/><rect id="el_gaG3xnye1G" data-name="Path 4" x="138.63" y="130.64" width="11.56" height="1.84"/><rect id="el_xopZjik1Zo" data-name="Path 3" x="132.02" y="128.03" width="1.84" height="6.8"/><rect id="el_wWH9_u-pMb" data-name="Path 2" x="110.02" y="131.19" width="15.26" height="1.84"/><rect id="el_4acaKDQ50B" data-name="Path 1" x="106.7" y="117.14" width="1.84" height="18.74"/><circle id="el_O8lJR3jQRT" data-name="Ellipse 6" cx="162.66" cy="150.25" r="3.89"/><circle id="el_QD30flxO3J" data-name="Ellipse 5" cx="151" cy="126.85" r="2.18"/><circle id="el_NxF61lRxZO" data-name="Ellipse 4" cx="137.18" cy="135.89" r="2.77"/><circle id="el_tPARn_H2kL" data-name="Ellipse 3" cx="127.61" cy="126.41" r="3.93"/><circle id="el_N0-i8_x9Iy" data-name="Ellipse 2" cx="109.97" cy="137.49" r="1.93"/><circle id="el_4fWFv-g7Abz" data-name="Ellipse 1" cx="105.34" cy="113.44" r="3.89"/><path d="M86.81,152.71c5.24,0,38.13.37,41.1,4.72a11.52,11.52,0,0,0,1.25,1.51,28,28,0,0,0,29.41,6c.38-.14.76-.3,1.14-.46.71-.3,1.42-.63,2.14-1l1.11-.56q2.7-1.32,4.95-2.24a50,50,0,0,1,4.78-1.7c.59-.17,1.14-.31,1.66-.44a24.08,24.08,0,0,1,3.34-.57,14.23,14.23,0,0,1,2.53,0,1.1,1.1,0,0,1,.9,1.49h0a1.09,1.09,0,0,1-.43.53l-1,.63-.56.35-.58.36h0c-.9.56-2,1.19-3.16,1.9l-.67.39-.66.38q-1.55.89-3.39,1.89l0,0c-5.21,2.85-12.16,6.36-20.89,10.2-7,3.07-15.8,1.91-24.66-1.11a95.58,95.58,0,0,1-10.21-4.23h0l-.08,0A148.2,148.2,0,0,1,100.9,163h0c-2.89-1.81-5.49-3.54-7.67-5.06l-.55-.39-.18-.12-.87-.62c-2.18-1.55-3.81-2.79-4.71-3.48h0Z" id="el_2VI1-U5YfCm"/><path d="M87.37,151.64a39.49,39.49,0,0,1,11.48-6.32,33.2,33.2,0,0,1,25,1.44l13.89,6.54.87.41.9.42,4.54,2.13.95.45.65.31a1.38,1.38,0,0,1,.29.17,1.85,1.85,0,0,1,.46,2.56c-.6.87-1.87,1.67-4.51,1.65-5.76-.06-13.06-5.23-24.29-.81-10.49,4.12-24.17-1.1-30.26-6.69A1.49,1.49,0,0,1,87.37,151.64Z" id="el__w_uj52kCS7"/><path d="M181.19,111.29c-5.24,0-38.13-.37-41.1-4.72a11.52,11.52,0,0,0-1.25-1.51,28,28,0,0,0-29.41-6c-.38.14-.76.3-1.14.46-.71.3-1.42.63-2.14,1l-1.11.56q-2.7,1.32-5,2.24a50,50,0,0,1-4.78,1.7c-.59.17-1.14.31-1.66.44a24.08,24.08,0,0,1-3.34.57,14.23,14.23,0,0,1-2.53,0,1.1,1.1,0,0,1-.9-1.49h0a1.09,1.09,0,0,1,.43-.53l1-.63.56-.35.58-.36h0c.9-.56,2-1.19,3.16-1.9l.67-.39.66-.38q1.55-.88,3.39-1.89l0,0c5.21-2.85,12.16-6.36,20.89-10.2,7-3.07,15.8-1.91,24.66,1.11a95.58,95.58,0,0,1,10.21,4.23h0l.08,0A148.2,148.2,0,0,1,167.1,101h0c2.89,1.81,5.49,3.54,7.67,5.06l.55.39.18.12.87.62c2.18,1.55,3.81,2.79,4.71,3.48h0Z" id="el_aKtnejgJvo8"/><path d="M180.63,112.36a39.49,39.49,0,0,1-11.48,6.32,33.2,33.2,0,0,1-25-1.44l-13.89-6.54-.87-.41-.9-.42L124,107.74l-1-.45-.65-.31a1.38,1.38,0,0,1-.29-.17,1.85,1.85,0,0,1-.46-2.56c.6-.87,1.87-1.67,4.51-1.65,5.76.06,13.06,5.23,24.29.81,10.49-4.12,24.17,1.1,30.26,6.69A1.49,1.49,0,0,1,180.63,112.36Z" id="el_DVaRwSEhhJ0"/></g></g></svg>