<svg id="Layer_1" data-name="Layer 1" xmlns="http://www.w3.org/2000/svg" viewBox="0 0 412.96 388.99"><defs><style>.cls-1{fill:#ecc19c;}.cls-2,.cls-3,.cls-4{fill:#29abe2;stroke:#48dbfb;stroke-miterlimit:10;}.cls-2{stroke-width:8px;}.cls-3{stroke-width:10.01px;}.cls-4{stroke-width:6px;}</style></defs><title>2</title><path class="cls-1" d="M104.24,472.46l37.6-18.36a128.25,128.25,0,0,1,111.2-.65L357.2,502.82A6.5,6.5,0,0,1,358.25,514c-8.81,6-29.63,10.6-78-7.73,0,0,39.31,62.4,154.73,17.47,0,0,48-22.92,72.45-21a5.51,5.51,0,0,1,2.67,10c-31.82,22.27-149.28,98.88-224.24,72.11C216.14,560,133.67,507.23,103.26,487A8.39,8.39,0,0,1,104.24,472.46Z" transform="translate(-99.52 -201.51)"/><path class="cls-1" d="M507.76,319.54l-37.6,18.36a128.25,128.25,0,0,1-111.2.65L254.8,289.18A6.5,6.5,0,0,1,253.75,278c8.81-6,29.63-10.6,78,7.73,0,0-39.31-62.4-154.73-17.47,0,0-48,22.92-72.45,21a5.51,5.51,0,0,1-2.67-10C133.7,257,251.16,180.34,326.12,207.11,395.86,232,478.33,284.77,508.74,305A8.39,8.39,0,0,1,507.76,319.54Z" transform="translate(-99.52 -201.51)"/><line class="cls-2" x1="285" y1="176.42" x2="324.17" y2="259.48"/><line class="cls-2" x1="229.91" y1="205.36" x2="269.69" y2="174.76"/><line class="cls-2" x1="189.76" y1="178.85" x2="210.23" y2="200.11"/><line class="cls-2" x1="160.94" y1="173.71" x2="106.28" y2="211.17"/><line class="cls-2" x1="96.61" y1="208.27" x2="83.46" y2="127.97"/><circle class="cls-3" cx="176.84" cy="167.69" r="17.08"/><circle class="cls-2" cx="218.43" cy="208.88" r="12.02"/><circle class="cls-4" cx="278.43" cy="169.6" r="9.49"/><circle class="cls-4" cx="100.25" cy="215.84" r="8.4"/><circle class="cls-2" cx="329.05" cy="271.23" r="16.91"/><circle class="cls-2" cx="80.16" cy="111.39" r="16.91"/></svg>