<svg id="Layer_1" data-name="Layer 1" xmlns="http://www.w3.org/2000/svg" viewBox="0 0 241.18 241.18"><defs><style>.cls-1{fill:#629fcc;}.cls-2{fill:#333;}</style></defs><title>Sadness</title><circle class="cls-1" cx="120.59" cy="120.59" r="120.59"/><path class="cls-2" d="M897.44,263.8a.89.89,0,0,1-.91-1.42,112.28,112.28,0,0,1,7.71-8.25,54.81,54.81,0,0,1,11.63-8.49,59.65,59.65,0,0,1,56.6,0,54.88,54.88,0,0,1,11.64,8.49,110.64,110.64,0,0,1,7.71,8.28.88.88,0,0,1-.9,1.42,112.86,112.86,0,0,1-10.77-3.48,114.68,114.68,0,0,0-12.1-3.76,94.45,94.45,0,0,0-47.77,0,112.48,112.48,0,0,0-12.1,3.77C904.68,261.61,901.14,262.84,897.44,263.8Z" transform="translate(-823.59 -79.09)"/><path class="cls-2" d="M965.07,167.47a.83.83,0,0,1,1.52-.57,68.73,68.73,0,0,0,8.84,10.78,55.05,55.05,0,0,0,28.16,14.74c1.34.2,2.7.57,4.08.65s2.78.4,4.19.38c1.87.15,3.74.14,5.68.13a.84.84,0,0,1,.38,1.59,33.75,33.75,0,0,1-14.86,3.52,39.16,39.16,0,0,1-32.47-17A33.62,33.62,0,0,1,965.07,167.47Z" transform="translate(-823.59 -79.09)"/><path class="cls-2" d="M921.77,166.9a.83.83,0,0,1,1.52.57,33.51,33.51,0,0,1-5.53,14.19,39.16,39.16,0,0,1-32.47,17,33.81,33.81,0,0,1-14.86-3.52.84.84,0,0,1,.38-1.59c1.94,0,3.82,0,5.68-.13,1.41,0,2.82-.27,4.19-.38s2.74-.45,4.08-.65a55.05,55.05,0,0,0,28.16-14.74A68.78,68.78,0,0,0,921.77,166.9Z" transform="translate(-823.59 -79.09)"/></svg>