<svg id="Layer_1" data-name="Layer 1" xmlns="http://www.w3.org/2000/svg" xmlns:xlink="http://www.w3.org/1999/xlink" viewBox="0 0 851.31 686.87"><defs><style>.cls-1,.cls-12,.cls-14,.cls-15,.cls-16,.cls-21,.cls-42,.cls-45,.cls-46,.cls-47{opacity:0.8;}.cls-1{fill:url(#linear-gradient);}.cls-2,.cls-3{fill:#fff;}.cls-2{opacity:0.05;}.cls-3{opacity:0.1;}.cls-4{fill:url(#linear-gradient-2);}.cls-5{opacity:0.7;fill:url(#linear-gradient-3);}.cls-6{fill:url(#linear-gradient-4);}.cls-7{fill:url(#linear-gradient-5);}.cls-8{opacity:0.6;}.cls-9{fill:url(#linear-gradient-6);}.cls-10{fill:url(#linear-gradient-7);}.cls-11{fill:url(#linear-gradient-8);}.cls-12{fill:url(#linear-gradient-9);}.cls-13{fill:url(#linear-gradient-10);}.cls-14{fill:url(#linear-gradient-11);}.cls-15{fill:url(#linear-gradient-12);}.cls-16{fill:url(#linear-gradient-13);}.cls-17,.cls-20,.cls-43,.cls-44{opacity:0.9;}.cls-17{fill:url(#linear-gradient-14);}.cls-18{fill:url(#linear-gradient-15);}.cls-19{fill:url(#linear-gradient-16);}.cls-20{fill:url(#linear-gradient-17);}.cls-21{fill:url(#linear-gradient-18);}.cls-22{fill:url(#linear-gradient-19);}.cls-23{fill:url(#linear-gradient-20);}.cls-24{opacity:0.5;}.cls-25{fill:url(#linear-gradient-21);}.cls-26{fill:#e6e6e6;}.cls-27{fill:url(#linear-gradient-22);}.cls-28{fill:url(#linear-gradient-23);}.cls-29{fill:url(#linear-gradient-24);}.cls-30{fill:url(#linear-gradient-25);}.cls-31{fill:url(#linear-gradient-26);}.cls-32{fill:url(#linear-gradient-27);}.cls-33{fill:url(#linear-gradient-28);}.cls-34{fill:url(#linear-gradient-29);}.cls-35{fill:#f7931e;}.cls-36{fill:#e2f0ff;}.cls-37{fill:url(#linear-gradient-30);}.cls-38{fill:url(#linear-gradient-31);}.cls-39{fill:url(#linear-gradient-32);}.cls-40{fill:#f2f2f2;}.cls-41{fill:url(#linear-gradient-33);}.cls-42{fill:url(#linear-gradient-34);}.cls-43{fill:url(#linear-gradient-35);}.cls-44{fill:url(#linear-gradient-36);}.cls-45{fill:url(#linear-gradient-37);}.cls-46{fill:url(#linear-gradient-38);}.cls-47{fill:url(#linear-gradient-39);}</style><linearGradient id="linear-gradient" x1="317.32" y1="90.72" x2="966.73" y2="636.76" gradientUnits="userSpaceOnUse"><stop offset="0" stop-color="#3c6382"/><stop offset="0.5" stop-color="#60a3bc"/><stop offset="1" stop-color="#3c6382"/></linearGradient><linearGradient id="linear-gradient-2" x1="399.94" y1="81.67" x2="1090.28" y2="662.12" gradientUnits="userSpaceOnUse"><stop offset="0" stop-color="#f7931e"/><stop offset="0.5" stop-color="#fbb03b"/><stop offset="1" stop-color="#f89924"/></linearGradient><linearGradient id="linear-gradient-3" x1="704.95" y1="16.92" x2="1064.5" y2="319.23" gradientUnits="userSpaceOnUse"><stop offset="0" stop-color="#fbb03b"/><stop offset="0.24" stop-color="#faa732"/><stop offset="0.55" stop-color="#f7931e"/></linearGradient><linearGradient id="linear-gradient-4" x1="478.18" y1="55.44" x2="759.12" y2="291.66" gradientUnits="userSpaceOnUse"><stop offset="0.45" stop-color="#f7931e"/><stop offset="0.76" stop-color="#faa732"/><stop offset="1" stop-color="#fbb03b"/></linearGradient><linearGradient id="linear-gradient-5" x1="498.26" y1="31.57" x2="779.11" y2="267.72" xlink:href="#linear-gradient-3"/><linearGradient id="linear-gradient-6" x1="904.85" y1="462.95" x2="1054.45" y2="588.74" xlink:href="#linear-gradient"/><linearGradient id="linear-gradient-7" x1="684.67" y1="411.08" x2="748.29" y2="411.08" gradientUnits="userSpaceOnUse"><stop offset="0" stop-color="#ffdcd1"/><stop offset="1" stop-color="#ffb9bb"/></linearGradient><linearGradient id="linear-gradient-8" x1="581.67" y1="552.9" x2="976.6" y2="552.9" gradientUnits="userSpaceOnUse"><stop offset="0" stop-color="#f7931e" stop-opacity="0.6"/><stop offset="0.5" stop-color="#fbb03b"/><stop offset="1" stop-color="#f7931e"/></linearGradient><linearGradient id="linear-gradient-9" x1="253.83" y1="563.26" x2="295.71" y2="598.48" gradientUnits="userSpaceOnUse"><stop offset="0" stop-color="#3c6382" stop-opacity="0.6"/><stop offset="0.5" stop-color="#60a3bc" stop-opacity="0.3"/><stop offset="1" stop-color="#3c6382" stop-opacity="0.6"/></linearGradient><linearGradient id="linear-gradient-10" x1="206.91" y1="419.93" x2="299.47" y2="497.75" gradientUnits="userSpaceOnUse"><stop offset="0" stop-color="#f7931e" stop-opacity="0.8"/><stop offset="0.5" stop-color="#fbb03b" stop-opacity="0.5"/><stop offset="1" stop-color="#f89d32" stop-opacity="0.8"/></linearGradient><linearGradient id="linear-gradient-11" x1="351.85" y1="133.63" x2="384.21" y2="160.83" xlink:href="#linear-gradient-9"/><linearGradient id="linear-gradient-12" x1="261.31" y1="199.6" x2="317.43" y2="246.79" xlink:href="#linear-gradient-9"/><linearGradient id="linear-gradient-13" x1="735.79" y1="259.4" x2="791.92" y2="306.59" xlink:href="#linear-gradient-9"/><linearGradient id="linear-gradient-14" x1="461.76" y1="381.95" x2="480.28" y2="397.52" gradientUnits="userSpaceOnUse"><stop offset="0" stop-color="#f7931e" stop-opacity="0.8"/><stop offset="0.5" stop-color="#fbb03b" stop-opacity="0.3"/><stop offset="1" stop-color="#f89d32" stop-opacity="0.8"/></linearGradient><linearGradient id="linear-gradient-15" x1="649.41" y1="648.15" x2="769.35" y2="749" xlink:href="#linear-gradient-10"/><linearGradient id="linear-gradient-16" x1="325.42" y1="350.72" x2="375.47" y2="392.8" xlink:href="#linear-gradient-10"/><linearGradient id="linear-gradient-17" x1="381.36" y1="565.51" x2="399.88" y2="581.08" xlink:href="#linear-gradient-14"/><linearGradient id="linear-gradient-18" x1="639.5" y1="197.44" x2="727.38" y2="271.33" xlink:href="#linear-gradient-9"/><linearGradient id="linear-gradient-19" x1="492.77" y1="361.19" x2="591.29" y2="361.19" gradientUnits="userSpaceOnUse"><stop offset="0.52" stop-color="#60a3bc"/><stop offset="1" stop-color="#3c6382"/></linearGradient><linearGradient id="linear-gradient-20" x1="486.94" y1="361.19" x2="585.47" y2="361.19" gradientUnits="userSpaceOnUse"><stop offset="0" stop-color="#3c6382"/><stop offset="1" stop-color="#60a3bc"/></linearGradient><linearGradient id="linear-gradient-21" x1="359.74" y1="388.29" x2="405.47" y2="426.74" xlink:href="#linear-gradient"/><linearGradient id="linear-gradient-22" x1="499.12" y1="385.44" x2="725.65" y2="385.44" xlink:href="#linear-gradient-19"/><linearGradient id="linear-gradient-23" x1="453.28" y1="384.41" x2="490.75" y2="384.41" xlink:href="#linear-gradient-19"/><linearGradient id="linear-gradient-24" x1="672.41" y1="283.2" x2="1013.22" y2="283.2" xlink:href="#linear-gradient-19"/><linearGradient id="linear-gradient-25" x1="663.27" y1="283.2" x2="1004.08" y2="283.2" xlink:href="#linear-gradient-20"/><linearGradient id="linear-gradient-26" x1="682.93" y1="283.2" x2="991.91" y2="283.2" gradientUnits="userSpaceOnUse"><stop offset="0" stop-color="#f2f2f2"/><stop offset="1" stop-color="#3ddeed" stop-opacity="0.2"/></linearGradient><linearGradient id="linear-gradient-27" x1="344.4" y1="567.1" x2="349.88" y2="567.1" xlink:href="#linear-gradient-20"/><linearGradient id="linear-gradient-28" x1="619.56" y1="607.16" x2="625.05" y2="607.16" xlink:href="#linear-gradient-20"/><linearGradient id="linear-gradient-29" x1="639.21" y1="595.39" x2="755.91" y2="595.39" gradientUnits="userSpaceOnUse"><stop offset="0" stop-color="gray"/><stop offset="1" stop-color="#4d4d4d"/></linearGradient><linearGradient id="linear-gradient-30" x1="538.7" y1="563.28" x2="852.06" y2="563.28" xlink:href="#linear-gradient-29"/><linearGradient id="linear-gradient-31" x1="763.17" y1="400.51" x2="936.3" y2="400.51" xlink:href="#linear-gradient-7"/><linearGradient id="linear-gradient-32" x1="687.81" y1="238.1" x2="755.56" y2="238.1" xlink:href="#linear-gradient-7"/><linearGradient id="linear-gradient-33" x1="546.81" y1="280.73" x2="764.28" y2="280.73" xlink:href="#linear-gradient-20"/><linearGradient id="linear-gradient-34" x1="613.49" y1="312.26" x2="645.85" y2="339.47" xlink:href="#linear-gradient-9"/><linearGradient id="linear-gradient-35" x1="418.62" y1="437.9" x2="473.34" y2="483.91" xlink:href="#linear-gradient-14"/><linearGradient id="linear-gradient-36" x1="582.39" y1="138.62" x2="624.28" y2="173.83" xlink:href="#linear-gradient-14"/><linearGradient id="linear-gradient-37" x1="304.33" y1="342.49" x2="438.42" y2="455.23" xlink:href="#linear-gradient"/><linearGradient id="linear-gradient-38" x1="996.62" y1="425.71" x2="1117.31" y2="527.19" xlink:href="#linear-gradient"/><linearGradient id="linear-gradient-39" x1="875.47" y1="541.65" x2="999.06" y2="645.56" xlink:href="#linear-gradient-9"/></defs><title>kaagapai Sign Up Illustration</title><path class="cls-1" d="M1065.17,281.36c-6,52.45-17.58,118.56-39.64,183.71a588.73,588.73,0,0,1-34,81.14,448.9,448.9,0,0,1-28.09,47.3q-3.93,5.75-8,11.33-3.8,5.14-7.77,10.15-2.58,3.27-5.23,6.46-4.51,5.44-9.24,10.65c-1,1.16-2.09,2.3-3.16,3.45h0c-.83.89-1.67,1.79-2.52,2.67q-5.91,6.24-12.16,12.14-4.59,4.33-9.36,8.48c-2.42,2.09-4.85,4.15-7.33,6.16-1.74,1.41-3.48,2.8-5.25,4.17a277.55,277.55,0,0,1-28.94,19.66,267.48,267.48,0,0,1-26.47,13.7c-3.82,1.72-7.71,3.37-11.67,4.92a276.63,276.63,0,0,1-39,12.09,312.31,312.31,0,0,1-65.6,7.8h-1.29a671,671,0,0,1-84.84-4c-152.75-17.15-260.77-87.2-321.25-177.93a343.05,343.05,0,0,1-19-32.14l-.56-1.09a336.51,336.51,0,0,1-20.24-47.89A331.44,331.44,0,0,1,261.85,414q-2.67-15.66-3.79-31.49c-.14-1.83-.25-3.64-.35-5.47C253,290.81,295.6,201.54,372.14,142.72A278,278,0,0,1,439,104.28q4.9-1.95,10-3.7a239.8,239.8,0,0,1,74.44-13.3c47.05-.92,100.66,11.56,160.76,45,141.05,78.54,239.69,87.93,302.15,78.6C1033.17,203.9,1070.3,236.76,1065.17,281.36Z" transform="translate(-257.35 -40.56)"/><path class="cls-2" d="M1018.82,295.82c-5.35,46.43-15.56,105-35.09,162.62-13.45,39.72-31.3,79-55,113.7q-3.47,5.07-7.12,10-3.36,4.58-6.88,9c-1.52,1.93-3.07,3.83-4.63,5.72q-4,4.8-8.17,9.42c-.93,1-1.86,2-2.8,3.05h0q-6.28,6.76-13,13.11-7.14,6.75-14.78,13-2.29,1.88-4.64,3.69a245.85,245.85,0,0,1-25.62,17.41,235.22,235.22,0,0,1-23.43,12.12q-5.07,2.28-10.33,4.36c-27.29,10.74-58,17-92.6,17.6h-1.14c-193.07,2.84-320.46-81.29-376.79-190.44a296.22,296.22,0,0,1-32.42-114.79c-.12-1.62-.22-3.23-.31-4.84-4.2-76.34,33.55-155.37,101.29-207.44a246.52,246.52,0,0,1,59.2-34q4.35-1.72,8.83-3.28c55.06-19.13,124.51-18.5,208.18,28.08C806.43,233.4,893.74,241.72,949,233.46,990.49,227.26,1023.35,256.35,1018.82,295.82Z" transform="translate(-257.35 -40.56)"/><path class="cls-3" d="M987.61,305.56c-4.88,42.37-14.2,95.78-32,148.42-12.27,36.25-28.56,72.13-50.21,103.76q-3.17,4.63-6.49,9.15-3.07,4.17-6.28,8.21c-1.39,1.75-2.81,3.49-4.23,5.22q-3.64,4.38-7.46,8.6c-.84.93-1.69,1.86-2.55,2.78h0q-5.73,6.18-11.86,12Q860,609.83,853,615.5c-1.4,1.14-2.82,2.26-4.24,3.37a223.86,223.86,0,0,1-23.38,15.89A217.78,217.78,0,0,1,804,645.82c-3.08,1.39-6.23,2.72-9.42,4-24.91,9.81-53,15.54-84.52,16.06h-1c-176.21,2.59-292.48-74.19-343.88-173.8A270.27,270.27,0,0,1,335.57,387.3c-.11-1.48-.21-2.95-.29-4.42-3.83-69.68,30.62-141.8,92.45-189.33a224.78,224.78,0,0,1,54-31.05c2.64-1,5.33-2,8.05-3,50.26-17.46,113.64-16.88,190,25.63,113.95,63.45,193.64,71,244.1,63.5C961.76,243,991.75,269.53,987.61,305.56Z" transform="translate(-257.35 -40.56)"/><path class="cls-4" d="M1107.68,434.71c-.94,17.61-2.55,35-4.64,52.07-2.56,20.88-5.86,41.17-9.57,60.54-1.91,10-3.94,19.71-6,29.13-3.52,15.81-7.24,30.78-11,44.67a71.65,71.65,0,0,1-6.46,16.11,62.6,62.6,0,0,1-37.23,30.09,67.49,67.49,0,0,1-36,.36,78.47,78.47,0,0,1-18.45-7.43l-.36-.21-1.33-.73-1.53-.84a278.56,278.56,0,0,0-47.64-20.24A364.72,364.72,0,0,0,875,625.64c-3-.5-6-1-9.1-1.42q-8.53-1.23-17.58-2.2a538.71,538.71,0,0,0-54.57-2.87c-4,0-8,0-12.12.07h-.16l-3.68.06q-10.68.22-21.9.83-25.85,1.38-54.7,4.9-10.51,1.31-21.45,2.91c-3,.43-6,.89-9,1.36q-13.95,2.21-27.14,3.42c-1.85.18-3.67.33-5.49.48q-6.25.5-12.33.77l-5.3.22h-.19a330.7,330.7,0,0,1-38.69-.94c-59.81-5-105-26.65-139.06-55.59-2.69-2.26-5.28-4.58-7.82-6.93a267.36,267.36,0,0,1-47.4-59.27c-.73-1.22-1.45-2.44-2.15-3.67q-7.37-12.75-13.36-26a299.35,299.35,0,0,1-12.59-32.66c-16.63-52-18.39-106.85-5.25-157a251.28,251.28,0,0,1,14.37-40.57c.78-1.67,1.55-3.34,2.34-5a345.8,345.8,0,0,1,42.81-68.24,350.82,350.82,0,0,1,38.7-41,360.53,360.53,0,0,1,71.16-50c40.89-22,87.56-37.14,139-43.44a452,452,0,0,1,71.69-3A512.37,512.37,0,0,1,806,48.71,609,609,0,0,1,909.75,77.29q6.81,2.49,13.65,5.2l.23.08,1,.39c35.73,14.12,65.07,32.82,89,54.92q4.59,4.23,8.92,8.66a254.66,254.66,0,0,1,19.33,22,266,266,0,0,1,19.39,28.51c1.12,1.89,2.22,3.81,3.3,5.72q5.34,9.6,10,19.55,4.32,9.36,8,19h0c.56,1.43,1.1,2.87,1.64,4.33q2.43,6.54,4.57,13.21.83,2.54,1.59,5.08c.29.92.57,1.86.85,2.79,1.22,4.06,2.35,8.13,3.42,12.26q1.73,6.66,3.23,13.41C1108,338.56,1110.23,387.28,1107.68,434.71Z" transform="translate(-257.35 -40.56)"/><path class="cls-5" d="M1090.31,264c-59.43-4.18-139.21-24.9-221-90.88-76.26-61.53-133.77-52.37-173.48-25,20.81-33.58,38.32-72.25,38.27-107.27A512.37,512.37,0,0,1,806,48.71,609,609,0,0,1,909.75,77.29q6.81,2.49,13.65,5.2l.23.08,1,.39c35.73,14.12,65.07,32.82,89,54.92q4.59,4.23,8.92,8.66a254.66,254.66,0,0,1,19.33,22,266,266,0,0,1,19.39,28.51c1.12,1.89,2.22,3.81,3.3,5.72q5.34,9.6,10,19.55,4.32,9.36,8,19h0c.56,1.43,1.1,2.87,1.64,4.33q2.43,6.54,4.57,13.21Q1089.55,261.46,1090.31,264Z" transform="translate(-257.35 -40.56)"/><path class="cls-6" d="M909.75,77.29c-19.64,42-84.53,150.07-246.48,194.87-94.43,26.12-120.5,78.2-121.35,126.44-25.84-62.14-69.27-125.13-136.19-106.42A92.31,92.31,0,0,1,354,292.1a251.28,251.28,0,0,1,14.37-40.57c.78-1.67,1.55-3.34,2.34-5a345.8,345.8,0,0,1,42.81-68.24,350.82,350.82,0,0,1,38.7-41,360.53,360.53,0,0,1,71.16-50c40.89-22,87.56-37.14,139-43.44C706.93,38.39,755,39.56,806,48.71A609,609,0,0,1,909.75,77.29Z" transform="translate(-257.35 -40.56)"/><path class="cls-7" d="M779.13,155.18c-61.49,101.95-91.32,202-91.32,202s-36.87-61.36-107.81-43-25.32-59.5-107.25-81.78c-35-9.52-51.63-31.75-59.19-54.1a350.82,350.82,0,0,1,38.7-41,360.53,360.53,0,0,1,71.16-50c40.89-22,87.56-37.14,139-43.44C706.93,38.39,755,39.56,806,48.71,810.75,73,807.52,108.12,779.13,155.18Z" transform="translate(-257.35 -40.56)"/><path class="cls-2" d="M1057.3,424.2c-2.35,43.6-9.33,85.94-17.57,123-3.06,13.71-6.28,26.7-9.51,38.75a62.08,62.08,0,0,1-5.61,14A54.25,54.25,0,0,1,992.31,626c-14.72,4.34-31.67,2.64-47.59-6.31l-1.15-.64c-23-12.75-54.21-24.38-96-30.45q-7.39-1.07-15.25-1.9a463,463,0,0,0-47.34-2.49c-3.45,0-7,0-10.52.06h-.14l-3.2.05c-6.18.13-12.5.37-19,.72q-22.43,1.2-47.45,4.25-9.14,1.13-18.62,2.52c-2.56.38-5.16.78-7.77,1.19q-12.11,1.9-23.54,3c-1.6.16-3.19.29-4.76.42q-5.43.44-10.71.67l-4.59.19h-.16a285.77,285.77,0,0,1-33.58-.82c-51.89-4.37-91.08-23.12-120.66-48.23q-3.48-3-6.77-6a231.87,231.87,0,0,1-41.14-51.43c-.63-1.06-1.25-2.12-1.86-3.19q-6.39-11.05-11.6-22.54A260.89,260.89,0,0,1,408,436.71c-18.43-57.66-15.8-119.34,7.92-171.45.67-1.45,1.34-2.9,2-4.35a302,302,0,0,1,70.72-94.76C535.7,123.67,597.77,94,671,85.06c67.12-8.24,143.59.93,226.44,33.53l.2.07.82.33c31,12.26,56.46,28.49,77.21,47.65,2.65,2.45,5.24,5,7.73,7.52a218.2,218.2,0,0,1,16.77,19.13A230.7,230.7,0,0,1,1017,218q1.46,2.46,2.86,5c3.09,5.55,6,11.2,8.65,16.95q3.76,8.13,7,16.5h0c.49,1.24,1,2.49,1.42,3.75q2.11,5.69,4,11.47c.73,2.27,1.44,4.54,2.12,6.83,1,3.52,2,7.05,3,10.63,1,3.85,1.94,7.74,2.8,11.64C1057.61,340.77,1059.51,383,1057.3,424.2Z" transform="translate(-257.35 -40.56)"/><path class="cls-3" d="M1013.81,415.12c-2,37.86-8.1,74.62-15.26,106.78-2.65,11.91-5.45,23.19-8.26,33.66a53.59,53.59,0,0,1-4.87,12.13,47.08,47.08,0,0,1-28,22.67c-12.78,3.77-27.49,2.3-41.32-5.47-.33-.19-.66-.38-1-.56-20-11.07-47.07-21.17-83.39-26.44-4.28-.61-8.7-1.17-13.24-1.65a406.09,406.09,0,0,0-41.11-2.16c-3,0-6,0-9.13,0h-.12l-2.78,0c-5.37.11-10.86.32-16.5.62-13,.7-26.7,1.9-41.21,3.69q-7.92,1-16.16,2.19-3.35.5-6.75,1-10.5,1.65-20.44,2.57c-1.39.14-2.77.25-4.13.36q-4.73.39-9.3.58l-4,.17h-.14a248,248,0,0,1-29.15-.71c-45.06-3.79-79.1-20.07-104.77-41.88q-3-2.56-5.89-5.22a201.16,201.16,0,0,1-35.72-44.66l-1.62-2.76q-5.53-9.62-10.06-19.58A224.84,224.84,0,0,1,450,426c-16-50.06-13.72-103.62,6.88-148.87.58-1.26,1.16-2.52,1.76-3.78A262.25,262.25,0,0,1,520,191.05c40.88-36.89,94.78-62.64,158.34-70.41,58.28-7.15,124.68.81,196.62,29.11a.67.67,0,0,1,.17.07l.72.28c26.92,10.64,49,24.74,67,41.38,2.3,2.13,4.55,4.31,6.72,6.53a190.67,190.67,0,0,1,14.56,16.6,202.61,202.61,0,0,1,14.61,21.48q1.26,2.15,2.48,4.32,4,7.22,7.51,14.72,3.27,7,6.07,14.32h0c.42,1.08.83,2.17,1.24,3.26q1.83,4.93,3.44,9.95,1,3,1.84,5.94c.92,3.06,1.77,6.12,2.57,9.23.87,3.34,1.69,6.72,2.44,10.11C1014.08,342.67,1015.73,379.38,1013.81,415.12Z" transform="translate(-257.35 -40.56)"/><g class="cls-8"><path class="cls-9" d="M1009,602.34c-3.2,21.86-7.1,43.79-12.24,65.34a78.47,78.47,0,0,1-18.45-7.43c.68-3,1.35-6,2-9.06,9.72-44.84,16-86.8,16.12-133,.08-25.11-1.41-47-8-70.57-1.46-5.24-3.22-10.38-5.19-15.45l-.39-.95a.14.14,0,0,0,0-.06s0,0,0-.05h0c-.25-.57-.51-1.15-.77-1.71-.45-1-.94-2-1.43-3-1.09-2.23-2.25-4.44-3.5-6.59-1.35-2.34-2.79-4.63-4.34-6.84l-1.56-2.17-.05-.06,0-.06c-.41-.48-1.4-1.73-1.67-2a77.47,77.47,0,0,0-10.67-10.37c-4.15-3.31-3.42-10.4,0-13.82,4-4,9.7-3.3,13.82,0,19.68,15.75,30.52,40.22,36.28,64.2C1020.9,498.58,1016.34,552,1009,602.34Z" transform="translate(-257.35 -40.56)"/></g><path class="cls-10" d="M688.09,391.32l13.77,15a22.46,22.46,0,0,0,21.06,6.77c7.26-1.5,16.88-1.19,25,6.83a1.19,1.19,0,0,1-1,2c-8-1-28.25-2.31-37.15,8.95h-18l-7.08-24.56Z" transform="translate(-257.35 -40.56)"/><path class="cls-11" d="M976.6,446.5V659.31c-26.51-14.69-62.47-28.1-110.68-35.09a517.93,517.93,0,0,0-72.15-5.07c-5.22,0-10.53,0-16,.13a759.68,759.68,0,0,0-76.6,5.73q-14.79,1.83-30.4,4.27-13.95,2.21-27.14,3.42c-1.85.18-3.67.33-5.49.48q-6.25.5-12.33.77l-5.3.22h-.19a330.7,330.7,0,0,1-38.69-.94V446.5Z" transform="translate(-257.35 -40.56)"/><circle class="cls-12" cx="275.75" cy="581.69" r="24.24"/><circle class="cls-13" cx="255.36" cy="460.66" r="53.57"/><circle class="cls-14" cx="368.78" cy="147.87" r="18.73"/><circle class="cls-15" cx="290.68" cy="224.3" r="32.48"/><circle class="cls-16" cx="765.17" cy="284.1" r="32.48"/><circle class="cls-17" cx="471.46" cy="390.09" r="10.72"/><path class="cls-18" d="M787.53,712.93q0,3.35-.29,6.62a312.31,312.31,0,0,1-65.6,7.8h-1.29a671,671,0,0,1-84.84-4,78.38,78.38,0,0,1-.71-10.45,76.37,76.37,0,1,1,152.73,0Z" transform="translate(-257.35 -40.56)"/><circle class="cls-19" cx="351.62" cy="372.74" r="28.97"/><circle class="cls-20" cx="391.05" cy="573.65" r="10.72"/><circle class="cls-21" cx="685.49" cy="236.12" r="50.86"/><polygon class="cls-22" points="574.7 330.88 591.29 391.5 515 390.28 492.77 330.88 574.7 330.88"/><polygon class="cls-23" points="568.87 330.88 585.47 391.5 509.17 390.28 486.94 330.88 568.87 330.88"/><g class="cls-24"><path class="cls-25" d="M489.69,324.94a314.22,314.22,0,0,0-58.76,26.76,277.38,277.38,0,0,0-23.47,15.5l-3.11,2.34,0,0h0l-.11.08a3.15,3.15,0,0,1-.29.22l-.85.67c-1.87,1.49-3.72,3-5.54,4.5q-4.93,4.13-9.64,8.49-8.26,7.66-15.8,16.1c-2.41,2.69-4.76,5.45-7,8.25-.6.75-1.22,1.51-1.81,2.26-.09.11-.53.69-.86,1.1a.22.22,0,0,1-.06.07l-.26.34v0h0c-.78,1-1.53,2-2.28,3A235,235,0,0,0,339,448.62q-2.1,4.19-4,8.45c-.56,1.23-1.09,2.46-1.62,3.7.08-.18-.91,2.16-1.17,2.79C330,469,328,474.48,326.24,480a256.35,256.35,0,0,0-7.95,31.07c-.8,4.19-1.47,8.39-2.09,12.61a.37.37,0,0,0,0,.12.87.87,0,0,0,0,.1s0-.06,0-.08l-.36,2.71c-.12,1-.23,2-.34,3q-.33,3.15-.6,6.3-.4,4.8-.62,9.61a343.05,343.05,0,0,1-19-32.14,262.57,262.57,0,0,1,29.82-86c34.34-61.09,93.38-101.5,158.69-123.93,5.72-2,12.21,2.26,13.74,7.81C499.16,317.26,495.38,323,489.69,324.94Z" transform="translate(-257.35 -40.56)"/></g><rect class="cls-26" x="505.52" y="377.64" width="213.74" height="9.21" rx="3.59" ry="3.59"/><rect class="cls-27" x="499.12" y="380.83" width="226.53" height="9.21" rx="3.69" ry="3.69"/><ellipse class="cls-28" cx="472.02" cy="384.41" rx="18.73" ry="8.76"/><path class="cls-29" d="M712,190.53h288.28a12.93,12.93,0,0,1,12.59,15.87L975.66,365.87a12.92,12.92,0,0,1-12.59,10H678.5l-6.09-103.7Z" transform="translate(-257.35 -40.56)"/><path class="cls-30" d="M702.86,190.53H991.15a12.94,12.94,0,0,1,12.59,15.87L966.52,365.87a12.91,12.91,0,0,1-12.59,10H669.36l-6.09-103.7Z" transform="translate(-257.35 -40.56)"/><path class="cls-31" d="M718.83,199.19H980.18a11.71,11.71,0,0,1,11.41,14.38L957.86,358.15a11.72,11.72,0,0,1-11.42,9.06h-258l-5.52-94Z" transform="translate(-257.35 -40.56)"/><polygon class="cls-32" points="344.39 593.62 344.39 540.59 349.88 540.59 349.88 593.38 344.39 593.62"/><path class="cls-33" d="M625.05,581.15V632.7c-1.85.18-3.67.33-5.49.48v-52Z" transform="translate(-257.35 -40.56)"/><path class="cls-34" d="M755.91,620.11q-25.85,1.38-54.7,4.9-10.51,1.31-21.45,2.91C656.51,600.26,639.21,583,639.21,583l10.39-8.8.86-.74L663,562.87l74.47,29.69,5.39,8,3,4.51Z" transform="translate(-257.35 -40.56)"/><path class="cls-35" d="M423,386H737.45a8.38,8.38,0,0,1,8.38,8.38v9.44a8.38,8.38,0,0,1-8.38,8.38H423a0,0,0,0,1,0,0V386A0,0,0,0,1,423,386Z"/><path class="cls-36" d="M281.24,527.34H448.58a5,5,0,0,1,5,5v6.89a5,5,0,0,1-5,5H281.24A6.29,6.29,0,0,1,275,538v-4.33a6.29,6.29,0,0,1,6.29-6.29Z"/><path class="cls-37" d="M848.34,622a538.71,538.71,0,0,0-54.57-2.87c-4,0-8,0-12.12.07h-.16q-3.13-.06-6.34-.07a14.06,14.06,0,0,0-11.69-14.6q-8.94-1.53-17.6-3.32c-1-.2-2-.42-3-.63a655.26,655.26,0,0,1-91.05-26.67l-1.32-.47-.86-.31a92.24,92.24,0,0,0-33.82-4.86c-67.37,2.81-77.08-20.49-77.08-20.49l150.46-43.25L825.62,564A44,44,0,0,1,848.34,622Z" transform="translate(-257.35 -40.56)"/><path class="cls-38" d="M790.43,375.86l10.35,11.92a12.69,12.69,0,0,0,9.52,4.37c22.54.1,105.07,1.84,125.33,21.7a2.25,2.25,0,0,1-1.64,3.84c-18.65-.44-88.81-1.39-138.3,7.3a11,11,0,0,1-9.31-2.74l-23.21-21.33Z" transform="translate(-257.35 -40.56)"/><path class="cls-39" d="M709.26,263.17l5-5a3.89,3.89,0,0,1,3.41-1.07l14.27,2.58a3.72,3.72,0,0,0,3.69-1.52l6.56-9.29a6,6,0,0,1,3.23-2.31l3.33-1a1.78,1.78,0,0,0,1.26-1.82c-1.09-18.9,5.58-29.34,5.58-29.34s-32.9-7.16-51,10.66-16.9,22.84-16.6,32.59C687.94,257.69,696.32,259.82,709.26,263.17Z" transform="translate(-257.35 -40.56)"/><path class="cls-40" d="M687.84,251.29,714,259.76a2.3,2.3,0,0,1,1.51,2.77l-.66,2.49a2.38,2.38,0,0,0,1.08,2.65l14.72,8.86a10.71,10.71,0,0,1,4.68,5.86c3.14,9.73,14.4,38.38,48.73,82.21l-28.47,28.78-43.75-44.32a3.59,3.59,0,0,0-5.64.68c-7.14,12-25.91,50.11-4.37,89.78,26,48,11,78.12-32,76.75-39.43-1.25-65.77,34.84-122.15,40.06a32.44,32.44,0,0,1-34.12-23.23c-4.63-16-4.31-42.06,12.36-84,36.72-92.38,46.14-139.8,46.14-139.8Z" transform="translate(-257.35 -40.56)"/><path class="cls-41" d="M755.07,215.29c.31-.56.49-.86.49-.86s-32.89-7.14-51,10.68S687.64,248,688,257.69l-.11,10.82a31.39,31.39,0,0,1-2.58,12.57c-14.25,31.63-64.42-6.25-53.36,52,11.88,62.59-20.56,79.5-60.31,71.27s9.6-43.4-16.9-75.38,22.39-34.26,22.07-79,35.64-38.68,59.4-44.46,25.89-51.48,68.53-50.25,52.39,30,58.47,46C766.89,210.94,760.55,214.23,755.07,215.29Z" transform="translate(-257.35 -40.56)"/><path class="cls-26" d="M780.7,364.78l-25.53,25.9a4.33,4.33,0,0,0,0,6.05l6,6.3a4.33,4.33,0,0,0,6.25,0l25-25.73a4.33,4.33,0,0,0,.2-5.83L787.1,365A4.34,4.34,0,0,0,780.7,364.78Z" transform="translate(-257.35 -40.56)"/><circle class="cls-42" cx="630.43" cy="326.5" r="18.73"/><circle class="cls-43" cx="447.26" cy="461.98" r="31.67"/><circle class="cls-44" cx="604.31" cy="157.05" r="24.24"/><path class="cls-45" d="M501.65,369.69C453.91,375.76,360,395.8,277.53,461.82a2.75,2.75,0,0,1-4.34-1.28,331,331,0,0,1-11-44.52,2.76,2.76,0,0,1,1.47-2.93c38.88-19.93,125-55.25,237.79-48.87A2.75,2.75,0,0,1,501.65,369.69Z" transform="translate(-257.35 -40.56)"/><path class="cls-46" d="M1103,486.78c-2.56,20.88-5.86,41.17-9.57,60.54-10.44-43.82-30.9-95.76-71-129.28a2.16,2.16,0,0,1,2.43-3.54C1045.36,425.86,1076.73,448,1103,486.78Z" transform="translate(-257.35 -40.56)"/><path class="cls-47" d="M1011.69,596a71.48,71.48,0,0,1-36.62,62.43,278.56,278.56,0,0,0-47.64-20.24q-5.91,6.24-12.16,12.14-4.59,4.33-9.36,8.48A71.54,71.54,0,1,1,1011.69,596Z" transform="translate(-257.35 -40.56)"/></svg>