<svg id="Layer_1" data-name="Layer 1" xmlns="http://www.w3.org/2000/svg" viewBox="0 0 903.47 492"><defs><style>.cls-1{fill:#f7fafe;}.cls-2{fill:#e6e6e6;}.cls-3{fill:#b3b3b3;}.cls-10,.cls-4,.cls-6,.cls-9{opacity:0.5;font-family:Quicksand-Bold, Quicksand;font-weight:700;}.cls-4{font-size:75px;letter-spacing:0em;}.cls-4,.cls-6{fill:#0071bc;}.cls-5{fill:#ccc;}.cls-10,.cls-6{font-size:78.24px;}.cls-7{letter-spacing:0em;}.cls-8{fill:#f2f2f2;}.cls-9{font-size:78.24px;}.cls-10{fill:#c1272d;}.cls-11{letter-spacing:0.01em;}.cls-12{opacity:0.15;}</style></defs><title>Upload Modal Illustration Final</title><path class="cls-1" d="M697.36,119.67l124.13,18.07a63.77,63.77,0,0,0,17.29.16l118.7-15a64.14,64.14,0,0,1,52.78,17.66L1122.6,249.89a64.1,64.1,0,0,1,18.7,36.55l15.83,106.74a64.15,64.15,0,0,1-20.2,56.76l-109.44,99.91a64.16,64.16,0,0,1-58.69,14.88L850.28,535.3a64.11,64.11,0,0,0-70.52,29.38l-9,15.05A64.12,64.12,0,0,1,715.72,611H707a64.11,64.11,0,0,1-58.56-38h0a64.14,64.14,0,0,0-74.14-36.09L436.05,571.51A64.13,64.13,0,0,1,381.6,560.3l-102-77.78a64.12,64.12,0,0,1-23.37-66.37l45.94-186a64.12,64.12,0,0,1,38.18-44l154.06-62.4A64.08,64.08,0,0,1,518.47,119H688.13A63.38,63.38,0,0,1,697.36,119.67Z" transform="translate(-254.34 -119)"/><path class="cls-2" d="M1096.28,335.24,1035.4,502.49a20,20,0,0,1-25.68,12l-149.8-54.53a20,20,0,0,1-12-25.67L916.12,247a20,20,0,0,1,25.67-12L1071,282Z" transform="translate(-254.34 -119)"/><path class="cls-3" d="M1096.28,335.24l-26.94-9.81a13.3,13.3,0,0,1-7.95-17L1071,282Z" transform="translate(-254.34 -119)"/><text class="cls-4" transform="translate(634.62 245.96) rotate(20)">WAV</text><path class="cls-5" d="M914,246.4,883.08,421.68a20,20,0,0,1-23.21,16.25l-157-27.68A20,20,0,0,1,686.63,387l34.61-196.28a20,20,0,0,1,23.2-16.26l135.41,23.87Z" transform="translate(-254.34 -119)"/><path class="cls-3" d="M914,246.4l-28.23-5A13.29,13.29,0,0,1,875,226l4.88-27.65Z" transform="translate(-254.34 -119)"/><text class="cls-6" transform="translate(463.05 194) rotate(10)"><tspan class="cls-7">DO</tspan><tspan x="115.54" y="0">C</tspan></text><path class="cls-8" d="M698.64,209.7,729.55,385a20,20,0,0,1-16.26,23.21l-157,27.68a20,20,0,0,1-23.2-16.25L498.48,223.34a20,20,0,0,1,16.24-23.22l135.41-23.88Z" transform="translate(-254.34 -119)"/><path class="cls-3" d="M698.64,209.7l-28.23,5A13.3,13.3,0,0,1,655,203.89l-4.87-27.65Z" transform="translate(-254.34 -119)"/><text class="cls-9" transform="matrix(0.98, -0.17, 0.17, 0.98, 289.85, 219.19)">TXT</text><path class="cls-2" d="M511.85,262.65,572.73,429.9a20,20,0,0,1-12,25.68L410.94,510.1a20,20,0,0,1-25.67-12L317.1,310.84a20,20,0,0,1,12-25.69l129.2-47Z" transform="translate(-254.34 -119)"/><path class="cls-3" d="M511.85,262.65l-26.94,9.8a13.28,13.28,0,0,1-17-7.94l-9.6-26.38Z" transform="translate(-254.34 -119)"/><text class="cls-10" transform="translate(127.72 297.01) rotate(-20)"><tspan class="cls-11">PD</tspan><tspan x="105.38" y="0">F</tspan></text><rect class="cls-12" x="422.4" y="424.92" width="58.68" height="18.78" rx="4.64" ry="4.64"/><rect class="cls-12" x="416.92" y="388.67" width="69.63" height="32.34" rx="6.64" ry="6.64"/><path class="cls-12" d="M778.92,448.23,711.48,331.41a6.23,6.23,0,0,0-10.79,0L633.24,448.23a6.23,6.23,0,0,0,5.4,9.35H660.1a6.23,6.23,0,0,1,6.23,6.23v34a6.23,6.23,0,0,0,6.23,6.23h67a6.23,6.23,0,0,0,6.23-6.23v-34a6.23,6.23,0,0,1,6.23-6.23h21.47A6.23,6.23,0,0,0,778.92,448.23Z" transform="translate(-254.34 -119)"/><path class="cls-3" d="M778.92,445.1,711.48,328.28a6.23,6.23,0,0,0-10.79,0L633.24,445.1a6.23,6.23,0,0,0,5.4,9.35H660.1a6.23,6.23,0,0,1,6.23,6.23v34a6.23,6.23,0,0,0,6.23,6.23h67a6.23,6.23,0,0,0,6.23-6.23v-34a6.23,6.23,0,0,1,6.23-6.23h21.47A6.23,6.23,0,0,0,778.92,445.1Z" transform="translate(-254.34 -119)"/><rect class="cls-3" x="416.92" y="386.61" width="69.63" height="32.34" rx="6.64" ry="6.64"/><rect class="cls-3" x="422.4" y="423.65" width="58.68" height="18.78" rx="4.64" ry="4.64"/></svg>