<svg id="Layer_1" data-name="Layer 1" xmlns="http://www.w3.org/2000/svg" viewBox="0 0 728.31 477.54"><defs><style>.cls-1{fill:#f7fafe;}.cls-2{fill:#e6e6e6;}.cls-3{fill:#b3b3b3;}.cls-10,.cls-4,.cls-7{opacity:0.5;font-family:Quicksand-Bold, Quicksand;font-weight:700;}.cls-4,.cls-7{font-size:78.24px;}.cls-4{fill:#c1272d;}.cls-5{letter-spacing:0.01em;}.cls-6{fill:#ccc;}.cls-7{fill:#0071bc;}.cls-8{letter-spacing:0em;}.cls-9{fill:#f2f2f2;}.cls-10{font-size:78.24px;}.cls-11{opacity:0.15;}</style></defs><title>Upload Modal Illustration Final</title><path class="cls-1" d="M702.59,160.4,813.4,133.13a83.92,83.92,0,0,1,59.3,7.31l124.49,65.9a83.9,83.9,0,0,1,44.55,70.11l6.12,126.94a83.92,83.92,0,0,1-31.75,69.84L913,554.8a83.92,83.92,0,0,1-84,11.76h0a83.88,83.88,0,0,0-88,15.1l-5.74,5.14a83.89,83.89,0,0,1-103.67,6.58l-14.38-9.92A83.85,83.85,0,0,0,563,568.86l-57.9,4.52a83.91,83.91,0,0,1-58.37-17.68l-83.41-65.56a83.88,83.88,0,0,1-31.78-59.25L319.91,286a83.9,83.9,0,0,1,52.47-84.6l134.41-53.76a83.9,83.9,0,0,1,44.55-4.92l117.8,19.06A83.8,83.8,0,0,0,702.59,160.4Z" transform="translate(-319.64 -130.7)"/><path class="cls-2" d="M579,250.23l60.87,167.25a20,20,0,0,1-12,25.68l-149.8,54.52a20,20,0,0,1-25.67-12L384.22,298.42a20,20,0,0,1,12-25.69l129.2-47Z" transform="translate(-319.64 -130.7)"/><path class="cls-3" d="M579,250.23,552,260a13.28,13.28,0,0,1-17-7.94l-9.61-26.39Z" transform="translate(-319.64 -130.7)"/><text class="cls-4" transform="translate(129.52 272.86) rotate(-20)"><tspan class="cls-5">PD</tspan><tspan x="105.37" y="0">F</tspan></text><path class="cls-6" d="M983,322.82,922.12,490.07a20,20,0,0,1-25.68,12l-149.8-54.52a20,20,0,0,1-12-25.67l68.17-187.29a20,20,0,0,1,25.67-12l129.2,47Z" transform="translate(-319.64 -130.7)"/><path class="cls-3" d="M983,322.82,956.06,313a13.3,13.3,0,0,1-7.95-17l9.6-26.38Z" transform="translate(-319.64 -130.7)"/><text class="cls-7" transform="translate(458.16 223.55) rotate(20)"><tspan class="cls-8">DO</tspan><tspan x="115.54" y="0">C</tspan></text><path class="cls-9" d="M782.74,227.06v178a20,20,0,0,1-20,20H603.28a20,20,0,0,1-20-20V205.73a20,20,0,0,1,20-20h137.5Z" transform="translate(-319.64 -130.7)"/><path class="cls-3" d="M782.74,227.06H754.07a13.29,13.29,0,0,1-13.29-13.3V185.69Z" transform="translate(-319.64 -130.7)"/><text class="cls-10" transform="translate(288.68 196.08)">TXT</text><rect class="cls-11" x="334.02" y="432.84" width="58.68" height="18.78" rx="4.64" ry="4.64"/><rect class="cls-11" x="328.54" y="396.59" width="69.63" height="32.34" rx="6.64" ry="6.64"/><path class="cls-11" d="M755.84,467.85,688.4,351a6.24,6.24,0,0,0-10.8,0L610.16,467.85a6.23,6.23,0,0,0,5.4,9.35H637a6.23,6.23,0,0,1,6.23,6.23v34a6.23,6.23,0,0,0,6.23,6.23h67a6.23,6.23,0,0,0,6.23-6.23v-34A6.23,6.23,0,0,1,729,477.2h21.46A6.23,6.23,0,0,0,755.84,467.85Z" transform="translate(-319.64 -130.7)"/><path class="cls-3" d="M755.84,464.72,688.4,347.9a6.24,6.24,0,0,0-10.8,0L610.16,464.72a6.23,6.23,0,0,0,5.4,9.35H637a6.23,6.23,0,0,1,6.23,6.23v34a6.23,6.23,0,0,0,6.23,6.23h67a6.23,6.23,0,0,0,6.23-6.23v-34a6.23,6.23,0,0,1,6.23-6.23h21.46A6.23,6.23,0,0,0,755.84,464.72Z" transform="translate(-319.64 -130.7)"/><rect class="cls-3" x="328.54" y="394.54" width="69.63" height="32.34" rx="6.64" ry="6.64"/><rect class="cls-3" x="334.02" y="431.57" width="58.68" height="18.78" rx="4.64" ry="4.64"/></svg>